<?xml version="1.0" encoding="UTF-8"?> <svg xmlns="http://www.w3.org/2000/svg" width="163" height="50" viewBox="0 0 163 50" fill="none"><path d="M6.49441 5.07885L6.36641 4.82285C8.41441 5.01485 9.69441 5.84685 10.1424 7.31885C15.0064 7.31885 18.9744 7.25485 22.1104 7.12685C24.6064 7.06285 27.7424 6.93485 31.5184 6.80685C35.2944 6.67885 37.6624 6.61485 38.6224 6.55085C40.9904 4.18285 42.6544 2.19885 43.6784 0.534851C44.4464 0.726849 45.0864 1.11085 45.5344 1.75085C45.9824 2.39085 46.2384 3.03085 46.2384 3.67085C46.2384 3.99085 46.1744 4.31085 46.0464 4.69485C45.9184 5.07885 45.7264 5.46285 45.4704 5.91085L44.7024 7.06285C44.4464 7.44685 44.0624 7.89485 43.6144 8.40685L42.4624 9.68685C42.1424 10.0069 41.6944 10.4548 41.1184 11.0308C40.5424 11.6068 40.1584 12.0549 39.9024 12.3749C37.2144 15.3188 35.2304 18.2628 33.8864 21.1429C32.8624 19.9268 32.3504 18.5828 32.3504 17.1108C32.3504 15.8948 32.7344 14.4869 33.4384 12.9509C34.1424 11.4148 35.2304 10.0069 36.6384 8.72685C35.7424 8.85485 34.5264 8.98285 32.9264 9.11085C31.3264 9.23885 29.3424 9.36685 26.9744 9.49485C24.6064 9.62285 22.8144 9.75085 21.5344 9.81485C23.2624 10.9029 24.1584 12.3108 24.1584 14.0388C24.1584 14.6149 24.0304 15.3188 23.7744 16.1509C23.5184 16.9829 23.2624 17.7509 22.9424 18.4549C22.6224 19.1588 22.1744 20.0548 21.5344 21.1429L20.0624 23.6389C19.7424 24.2149 19.1664 25.1109 18.3984 26.3269C17.6304 27.5429 17.1824 28.3109 16.9904 28.6308L15.0704 31.5749L12.5104 35.6069C11.9344 36.5669 11.2304 37.8469 10.3344 39.4469C9.43841 41.0469 8.79841 42.4549 8.35041 43.7349C7.90241 45.0149 7.64641 46.1669 7.58241 47.2549C5.21441 46.4229 3.99841 44.8229 3.99841 42.4549C3.99841 40.0869 5.72641 36.2469 9.11841 30.9349C9.95041 29.5909 11.6144 27.1588 14.0464 23.7029C16.4784 20.2469 18.2064 17.6229 19.2304 15.7668C20.2544 13.9109 20.7664 12.5028 20.7664 11.5429C20.7664 10.9669 20.7024 10.5188 20.5744 10.1988C19.4864 10.2629 17.8224 10.3909 15.5184 10.5829C13.2144 10.7748 11.4224 10.9029 10.2064 10.9669C10.0144 11.8629 9.18241 13.3988 7.71041 15.5749C6.11041 17.9429 4.70241 20.3109 3.48641 22.6789C1.75841 21.5909 0.862407 20.3749 0.862407 18.9669C0.862407 18.1989 1.11841 17.3668 1.56641 16.4708C2.01441 15.5749 2.65441 14.4229 3.48641 13.0788C4.31841 11.7348 5.02241 10.5188 5.53441 9.43085C6.17441 8.02285 6.49441 6.55085 6.49441 5.07885ZM50.2619 22.7429L50.5179 22.9988C50.0059 22.5508 49.1739 22.3589 48.0859 22.3589C45.5899 22.3589 42.1979 24.5989 37.9099 29.1429C35.9899 31.1269 34.1339 33.6229 32.3419 36.6949C30.5499 39.7669 29.6539 42.1349 29.6539 43.8629C29.6539 44.8229 30.0379 45.2709 30.8699 45.2709C31.5739 45.2709 32.5339 44.7589 33.7499 43.7989C34.9659 42.8389 36.2459 41.6229 37.5899 40.1509C38.9339 38.6789 40.1499 37.2069 41.3019 35.7989L44.5019 31.8309L45.9739 29.9109C46.0379 29.8469 46.9979 28.5029 48.8539 25.9429C50.7099 23.3829 51.7339 21.9748 51.9259 21.7829C52.6299 20.9508 53.2059 20.3749 53.6539 20.0548C54.1019 19.7348 54.6139 19.5429 55.1899 19.5429C56.8539 19.5429 58.3259 20.5669 59.5419 22.6789C58.3899 23.6389 56.7899 25.3029 54.6779 27.6709C52.5019 30.1669 50.3259 33.0469 48.1499 36.3109C45.9739 39.5749 44.8859 42.1989 44.8859 44.1829C44.8859 45.5909 45.4619 46.2949 46.6779 46.2949C48.9179 46.2949 52.1819 44.1829 56.4059 40.0229C60.6299 35.8629 63.3819 32.7269 64.5979 30.6149C64.9179 30.7429 65.1099 30.9989 65.1099 31.3829C65.1099 31.7669 65.0459 32.1509 64.8539 32.4709C64.5339 32.9189 63.7019 33.8789 62.3579 35.3509C61.0139 36.8229 59.4139 38.5509 57.4939 40.4709C55.5739 42.3909 53.4619 44.1189 51.1579 45.5909C48.8539 47.0629 46.8699 47.7669 45.2059 47.7669C43.7979 47.7669 42.7099 47.3189 41.9419 46.4869C41.1739 45.6549 40.7899 44.4389 40.7899 42.9029C40.7899 40.7909 41.5579 38.0389 43.1579 34.6469C39.8299 39.1269 37.2059 42.2629 35.2219 44.0549C32.5339 46.4869 30.1659 47.7029 28.1819 47.7029C26.9019 47.7029 25.9419 47.2549 25.2379 46.3589C24.5339 45.4629 24.2139 44.2469 24.2139 42.6469C24.2139 40.8549 24.6619 38.8709 25.5579 36.7589C27.6059 32.0229 30.8059 27.9269 35.0939 24.4708C39.3819 21.0149 43.3499 19.2868 46.9339 19.2868C49.1739 19.2868 50.2619 20.3109 50.2619 22.2949V22.7429ZM79.4159 41.3029L79.2879 41.6869C80.8239 40.0869 82.4239 38.5509 84.1519 37.1429L89.3999 32.9829C91.1919 31.6389 92.4719 30.6149 93.2399 29.9749C95.9919 27.6069 97.8479 24.9829 98.8079 22.1669C99.3199 20.6308 99.5759 19.5429 99.5759 18.8389C102.648 18.9029 104.184 19.7989 104.184 21.4629C104.184 22.6149 103.608 24.1509 102.456 26.0709C101.304 27.9909 100.088 29.9109 98.7439 31.7669C97.3999 33.6229 96.1839 35.7989 95.0319 38.2949C93.8799 40.7909 93.3039 43.0949 93.3039 45.2069C93.3039 46.6149 93.5599 47.6389 94.0079 48.2789C93.7519 48.3429 93.3679 48.3429 92.9199 48.3429C91.1279 48.3429 89.7199 47.9589 88.7599 47.1909C87.7999 46.4229 87.2879 45.2709 87.2879 43.7989C87.2879 40.0229 89.5919 35.6709 94.1999 30.7429L89.9759 34.0069C88.1199 35.4789 86.7759 36.5669 85.8799 37.3349L82.4879 40.3429C81.0799 41.6229 79.7999 42.9669 78.6479 44.3749C77.4959 45.7829 76.3439 47.3829 75.1919 49.1749C73.5919 48.0869 72.7599 46.6789 72.7599 45.0149C72.7599 43.1589 73.9119 40.2789 76.1519 36.4389C78.3919 32.5989 79.7999 29.9109 80.3759 28.3749L73.2719 36.1829C70.8399 38.6789 68.0239 41.2389 64.8239 43.7989C61.6239 46.3589 59.1919 47.6389 57.5919 47.6389C56.7599 47.6389 56.1199 47.3829 55.6719 46.9349C55.2239 46.4869 55.0319 45.8469 55.0319 45.0149C55.0319 44.0549 55.2879 43.0309 55.8639 41.9429C56.4399 40.8549 57.3999 39.3829 58.8079 37.5269L61.4319 34.0709C62.9039 31.8949 63.6719 30.0389 63.7359 28.5029C66.0399 29.5269 67.1919 30.9349 67.1919 32.7909C67.1919 34.1349 66.6159 35.6709 65.3999 37.3989C64.1839 39.1269 62.9679 40.6629 61.7519 41.9429C60.5359 43.2229 59.9599 44.0549 59.9599 44.4389C59.9599 44.6949 60.0239 44.8229 60.1519 44.8229C61.6239 44.8229 65.0159 42.2629 70.3279 37.1429C75.6399 32.0229 79.0319 28.3109 80.4399 26.0709C81.5279 24.3428 82.0399 22.6789 82.0399 21.0149C82.0399 20.4389 81.9759 19.7348 81.7839 18.9669C83.6399 19.2229 84.9839 19.7348 85.7519 20.5028C86.5199 21.2709 86.9039 22.3589 86.9039 23.8309C86.9039 26.7108 84.4079 32.5349 79.4159 41.3029ZM158.567 19.4149L158.247 20.1189C161.383 20.1189 162.983 21.0149 162.983 22.8708C162.983 24.5989 161.831 26.4549 159.527 28.3749C157.223 30.2949 154.023 32.0869 149.863 33.8149L149.927 34.0709C151.719 33.3669 153.511 33.0469 155.303 33.0469C157.927 33.0469 159.271 34.0709 159.271 36.1829C159.271 39.3829 157.671 42.2629 154.407 44.8229C151.143 47.3829 147.815 48.6629 144.359 48.6629C140.007 48.6629 137.575 46.4229 136.999 41.9429C138.791 43.5429 140.903 44.3749 143.271 44.3749C146.279 44.3749 148.903 43.4149 151.079 41.4309C153.255 39.4469 154.343 37.5269 154.343 35.6709C154.343 34.8389 153.703 34.3909 152.487 34.3909C151.655 34.3909 150.567 34.6469 149.287 35.0949C148.007 35.5429 146.855 36.1829 145.767 37.0149C145.575 36.4389 145.511 36.0549 145.511 35.8629C145.511 35.2869 145.831 34.7749 146.407 34.3269C146.535 34.2629 146.919 34.0069 147.559 33.6229C148.199 33.2389 148.711 32.9189 149.095 32.6629C154.343 29.2709 156.967 26.0069 156.967 22.8708C156.967 21.9109 156.455 21.4629 155.367 21.4629C154.663 21.4629 153.895 21.7189 153.063 22.2309C152.231 22.7429 151.399 23.4468 150.503 24.3428C149.607 25.2388 148.903 26.0709 148.327 26.7749L146.279 29.3349C145.511 30.3589 145.063 30.9349 144.999 31.0629C144.871 31.1909 144.167 32.0869 142.887 33.7509C141.607 35.4149 140.647 36.6309 140.007 37.3989C139.367 38.1669 138.343 39.3189 136.871 40.8549C135.399 42.3909 134.119 43.5429 133.031 44.3109C131.943 45.0789 130.727 45.7829 129.319 46.4869C127.911 47.1909 126.631 47.5109 125.415 47.5109C124.007 47.5109 122.919 47.0629 122.151 46.2309C121.383 45.3989 120.999 44.3109 120.999 42.9669C120.999 39.3189 122.727 34.9669 126.119 29.9109C124.199 31.2549 121.767 32.4709 118.759 33.5589C118.823 33.7509 118.887 34.0709 118.887 34.5189C118.823 36.5029 117.159 38.9989 113.895 42.0069C110.247 45.3989 106.663 47.0629 103.207 47.0629C100.775 47.0629 99.5589 46.0389 99.5589 43.9909C99.5589 43.0949 100.007 41.8789 100.839 40.3429C101.671 38.8069 103.015 36.6949 104.871 33.9429C106.727 31.1909 108.071 29.1429 108.903 27.7989C109.607 26.7108 110.311 25.3668 110.951 23.7669C111.591 22.1669 111.911 20.8229 111.911 19.7989V19.3509C112.167 19.2868 112.807 19.2868 113.767 19.2868C116.263 19.2868 117.543 20.1828 117.543 21.9748C117.543 22.6149 117.415 23.2549 117.159 23.9589C116.455 25.8789 114.919 28.4389 112.487 31.5749L105.895 40.0869C103.911 42.5829 102.887 44.2469 102.887 45.0149C102.887 45.6549 103.271 45.9749 103.975 45.9749C105.639 45.9749 107.687 44.7589 110.055 42.3909C112.423 40.0229 113.639 37.2709 113.639 34.1349C113.639 33.4309 113.511 32.7909 113.255 32.2149C114.023 31.9589 114.791 31.8309 115.495 31.8309C116.583 31.8309 117.479 32.0229 118.183 32.4069C121.575 31.5109 124.711 30.0389 127.591 27.9269C132.007 22.0389 135.335 19.0949 137.575 19.0949C138.407 19.0949 139.111 19.2229 139.687 19.4788C140.263 19.7348 140.903 20.3109 141.607 21.1429C137.575 24.0229 133.863 28.0549 130.471 33.1749C127.079 38.2949 125.415 41.8789 125.415 43.9909C125.415 45.1429 126.055 45.7189 127.399 45.7189C129.447 45.7189 132.135 43.9909 135.463 40.5989C138.791 37.2069 141.671 33.7509 144.167 30.2309C143.975 29.7829 143.847 29.1429 143.847 28.3109C143.847 26.1349 145.255 24.0869 148.071 22.2309C150.887 20.3749 154.407 19.4149 158.567 19.4149Z" fill="#7E1023"></path></svg> 