<?xml version="1.0" encoding="UTF-8"?> <svg xmlns="http://www.w3.org/2000/svg" width="225" height="122" viewBox="0 0 225 122" fill="none"><path d="M68.5219 0.785851L68.3939 1.16985C69.0979 1.29785 69.8019 1.61785 70.5059 2.12985C71.2099 2.64185 71.5939 3.34585 71.5939 4.17785C71.5939 4.43385 71.5939 4.68985 71.5299 4.94585L71.4019 5.58585C71.3379 5.77785 71.2099 6.03385 71.0179 6.35385L70.5699 7.12185C70.4419 7.31385 70.1859 7.69785 69.8019 8.20985L68.9059 9.48985L67.6259 11.2178L66.0259 13.3298C63.2739 17.0419 61.5459 19.9858 60.8419 22.0979C59.1139 21.3299 58.2819 20.1138 58.2819 18.5138C58.2819 16.5299 59.4979 13.7138 61.9939 10.0658H61.5459C59.4339 10.0658 57.1939 11.2178 54.7619 13.5858C52.3299 15.9538 51.1139 18.1938 51.1139 20.3059C51.1139 20.9459 51.3699 21.4578 51.8179 21.8419C52.2659 22.2259 52.9059 22.4179 53.6739 22.4179C54.4419 22.4179 54.9539 22.3538 55.2099 22.2899C54.6339 23.3778 53.6739 23.9538 52.2659 23.9538C51.3059 23.9538 50.4099 23.7619 49.5779 23.3778C45.8019 24.4659 42.2179 26.7698 38.7619 30.3539C35.3059 33.9379 33.5779 37.7139 33.5779 41.7459C33.5779 46.5459 35.8819 48.9139 40.4259 48.9139C42.7939 48.9139 45.2259 48.0179 47.7219 46.2899C50.2179 44.5619 52.2659 42.3859 53.8019 39.7619C55.3379 37.1379 56.1059 34.6419 56.0419 32.2099C57.0019 32.4659 57.4499 33.1699 57.3859 34.3859C57.3219 35.9859 56.8099 37.7139 55.8499 39.5699C54.8899 41.4259 53.6099 43.1539 52.0739 44.7539C50.5379 46.3539 48.6179 47.6979 46.2499 48.7859C43.8819 49.8739 41.4499 50.3859 38.9539 50.3859C35.8819 50.3859 33.3219 49.5539 31.2739 47.8899C29.2259 46.2259 28.2019 43.7299 28.2019 40.4019C28.2019 35.9219 30.2499 31.8899 34.2819 28.3059C38.3139 24.7219 43.1779 22.8018 48.8099 22.5459C47.9139 21.7139 47.4659 20.4979 47.4659 18.8979C47.4659 16.2738 48.8739 13.9058 51.7539 11.7938C54.6339 9.68185 57.6419 8.59385 60.7779 8.59385C61.4819 8.59385 62.1859 8.65785 62.8899 8.84985L63.2099 8.46585C66.4739 3.79385 68.2659 1.23385 68.5219 0.785851ZM65.1114 48.2099V48.2739C67.1594 48.2739 69.7834 46.8659 72.9834 44.0499C76.1834 41.2339 78.9994 38.0339 81.4314 34.4499C83.8634 30.8659 85.0794 28.1138 85.0794 26.1938C85.0794 25.2339 84.5034 24.7219 83.4154 24.7219C81.8794 24.7219 78.9994 26.7059 74.7754 30.6098C70.5514 34.5139 67.4154 37.9059 65.3674 40.7859C63.8954 42.7699 63.1274 44.6259 63.1274 46.3539C63.1274 47.5699 63.7674 48.2099 65.1114 48.2099ZM70.7434 21.1378V21.2019C73.1754 21.2019 74.3914 22.0979 74.3914 23.9538C74.3914 25.8738 72.5994 29.3939 69.0154 34.5779C71.6394 31.8899 73.7514 29.7779 75.3514 28.3059C76.9514 26.8339 78.8074 25.4258 80.8554 24.1459C82.9034 22.8659 84.6954 22.2259 86.2314 22.2259C89.4314 22.2259 91.0314 23.5699 91.0314 26.2579C91.0314 28.8819 89.6234 32.0819 86.8714 35.8579C84.1194 39.6339 80.7274 42.9619 76.6954 45.8419C72.6634 48.7219 69.0794 50.1299 65.9434 50.1299C63.1914 50.1299 61.7834 49.1059 61.7834 47.1219C61.7834 46.6739 61.8474 46.1619 61.9114 45.6499C54.5514 55.4419 49.3034 63.0579 46.2314 68.4979C45.0154 67.6659 44.4394 66.5139 44.4394 65.0419C44.4394 63.9539 44.8234 62.8019 45.5274 61.5859C45.8474 61.0739 47.8954 58.0659 51.6714 52.6259C55.4474 47.1859 58.9674 41.7459 62.2954 36.3699C65.6234 30.9939 67.6074 27.0899 68.1834 24.5939C68.4394 23.5058 68.5674 22.4179 68.5674 21.3299C69.2714 21.2019 69.9754 21.1378 70.7434 21.1378ZM113.906 25.6179L114.162 25.8738C113.65 25.4258 112.818 25.2339 111.73 25.2339C109.234 25.2339 105.842 27.4739 101.554 32.0179C99.6344 34.0019 97.7784 36.4979 95.9864 39.5699C94.1944 42.6419 93.2984 45.0099 93.2984 46.7379C93.2984 47.6979 93.6824 48.1459 94.5144 48.1459C95.2184 48.1459 96.1784 47.6339 97.3944 46.6739C98.6104 45.7139 99.8904 44.4979 101.234 43.0259C102.578 41.5539 103.794 40.0819 104.946 38.6739L108.146 34.7059L109.618 32.7859C109.682 32.7219 110.642 31.3779 112.498 28.8179C114.354 26.2579 115.378 24.8498 115.57 24.6579C116.274 23.8258 116.85 23.2499 117.298 22.9298C117.746 22.6098 118.258 22.4179 118.834 22.4179C120.498 22.4179 121.97 23.4419 123.186 25.5539C122.034 26.5139 120.434 28.1779 118.322 30.5459C116.146 33.0419 113.97 35.9219 111.794 39.1859C109.618 42.4499 108.53 45.0739 108.53 47.0579C108.53 48.4659 109.106 49.1699 110.322 49.1699C112.562 49.1699 115.826 47.0579 120.05 42.8979C124.274 38.7379 127.026 35.6019 128.242 33.4899C128.562 33.6179 128.754 33.8739 128.754 34.2579C128.754 34.6419 128.69 35.0259 128.498 35.3459C128.178 35.7939 127.346 36.7539 126.002 38.2259C124.658 39.6979 123.058 41.4259 121.138 43.3459C119.218 45.2659 117.106 46.9939 114.802 48.4659C112.498 49.9379 110.514 50.6419 108.85 50.6419C107.442 50.6419 106.354 50.1939 105.586 49.3619C104.818 48.5299 104.434 47.3139 104.434 45.7779C104.434 43.6659 105.202 40.9139 106.802 37.5219C103.474 42.0019 100.85 45.1379 98.8664 46.9299C96.1784 49.3619 93.8104 50.5779 91.8264 50.5779C90.5464 50.5779 89.5864 50.1299 88.8824 49.2339C88.1784 48.3379 87.8584 47.1219 87.8584 45.5219C87.8584 43.7299 88.3064 41.7459 89.2024 39.6339C91.2504 34.8979 94.4504 30.8019 98.7384 27.3458C103.026 23.8899 106.994 22.1618 110.578 22.1618C112.818 22.1618 113.906 23.1859 113.906 25.1699V25.6179ZM146.58 21.3299C150.484 21.3939 152.468 22.4818 152.468 24.6579C152.468 25.4258 152.148 26.4499 151.508 27.7938C150.868 29.1378 150.228 30.3539 149.524 31.5058C148.82 32.6579 147.796 34.1939 146.452 36.1779C143.06 41.3619 141.332 44.8179 141.332 46.5459C141.332 47.2499 141.524 47.8259 141.972 48.2739C142.42 48.7219 142.996 48.9139 143.764 48.9139C145.62 48.9139 147.732 47.9539 150.036 46.0339C152.34 44.1139 154.132 42.1939 155.348 40.3379C155.86 40.5939 155.924 41.1059 155.604 41.8099C155.028 43.0259 153.3 44.8179 150.42 47.1219C147.54 49.4259 144.724 50.5779 142.036 50.5779C140.436 50.5779 139.156 50.1299 138.196 49.2979C137.236 48.4659 136.788 47.3139 136.788 45.9059C136.788 43.1539 138.9 38.8019 143.124 32.7859C141.204 34.8979 139.092 37.0739 136.788 39.3779C134.484 41.6819 131.796 44.0499 128.788 46.4179C125.78 48.7859 123.604 50.0019 122.26 50.0019C121.3 50.0019 120.532 49.7459 119.956 49.2339C119.38 48.7219 119.124 47.9539 119.124 46.9299C119.124 45.4579 120.404 42.9619 122.964 39.5059C125.524 36.0499 126.804 33.6179 126.804 32.2739C126.804 32.2099 126.804 32.1459 126.804 32.0179C126.804 31.8899 126.804 31.8259 126.804 31.7619C128.148 32.3379 129.108 32.9139 129.62 33.4899C130.132 34.0659 130.388 34.9619 130.388 36.1779C130.388 37.1379 130.004 38.2899 129.236 39.6339C128.468 40.9779 127.636 42.1939 126.74 43.2179L124.18 46.0979C123.412 46.9939 123.028 47.5699 123.028 47.8259C123.028 48.1459 123.22 48.3379 123.604 48.3379C124.564 48.3379 126.676 46.9299 129.94 44.1139C133.204 41.2979 136.468 38.1619 139.732 34.7059C142.612 31.6339 144.532 29.4579 145.428 28.2418C146.516 26.7059 147.028 25.1059 147.028 23.3778C147.028 22.6098 146.9 21.9058 146.58 21.3299ZM163.88 21.9058L163.496 22.2899C163.752 22.2259 164.392 22.2259 165.352 22.2259C167.848 22.2259 169.128 23.1219 169.128 24.9139C169.128 25.5539 169 26.1938 168.744 26.8979C168.04 28.8179 166.504 31.3779 164.072 34.5139L157.48 43.0259C155.496 45.5219 154.472 47.1859 154.472 47.9539C154.472 48.5939 154.856 48.9139 155.56 48.9139C157.224 48.9139 159.272 47.6979 161.64 45.3299C164.008 42.9619 165.224 40.2099 165.224 37.0739C165.224 36.3699 165.096 35.7299 164.84 35.1539C165.608 34.8979 166.376 34.7699 167.08 34.7699C168.168 34.7699 169.064 34.9619 169.768 35.3459C173.16 34.4499 176.296 32.9778 179.176 30.8659C183.592 24.9778 186.92 22.0338 189.16 22.0338C189.992 22.0338 190.696 22.1618 191.272 22.4179C191.848 22.6739 192.488 23.2499 193.192 24.0819C189.16 26.9619 185.448 30.9939 182.056 36.1139C178.664 41.2339 177 44.8179 177 46.9299C177 48.0819 177.64 48.6579 178.984 48.6579C181.416 48.6579 184.552 46.8659 188.392 43.2819C192.232 39.6979 195.176 36.4339 197.16 33.4259C197.416 33.4899 197.608 33.6819 197.672 34.0019C197.736 34.3219 197.672 34.6419 197.48 34.9619C195.112 38.2899 191.976 41.6179 188.008 45.0099C184.04 48.4019 180.52 50.0659 177.384 50.0659C175.976 50.0659 174.888 49.6179 174.12 48.7859C173.352 47.9539 172.968 46.8659 172.968 45.5219C172.968 41.8739 174.696 37.5219 178.088 32.4659C176.168 33.8099 173.736 35.0259 170.728 36.1139C170.792 36.3059 170.856 36.6259 170.856 37.0739C170.792 39.0579 169.128 41.5539 165.864 44.5619C162.216 47.9539 158.632 49.6179 155.176 49.6179C152.744 49.6179 151.528 48.5939 151.528 46.5459C151.528 45.6499 151.976 44.4339 152.808 42.8979C153.64 41.3619 154.984 39.2499 156.84 36.4979C158.696 33.7459 160.04 31.6979 160.872 30.3539C161.64 29.1378 162.344 27.6658 163.048 25.9379C163.752 24.2099 164.008 22.8659 163.88 21.9058ZM39.7159 61.5858H39.5239C45.2839 61.5858 48.1639 63.3778 48.1639 66.9618C48.1639 68.1778 47.9719 69.5858 47.5239 71.2499C47.0759 72.9138 46.4359 74.7059 45.5399 76.6259L43.2359 81.3619C42.5959 82.6419 41.7639 84.1779 40.7399 86.0338C39.7159 87.8899 39.1399 88.9139 39.0119 89.1059C42.7879 88.4019 45.0279 88.0819 45.7319 88.0819C46.4359 88.0819 46.9479 88.2739 47.2679 88.5939C47.5879 88.9139 47.7159 89.3619 47.6519 89.9379C46.7559 89.7459 45.2839 89.6819 43.2999 89.7459C41.3159 89.8099 39.6519 90.0019 38.3079 90.3219C35.3639 95.5699 33.8919 99.4099 33.8919 101.778C33.8919 103.826 34.8519 104.85 36.7079 104.85C38.1159 104.85 39.3319 104.338 40.3559 103.378C41.3799 102.418 41.8919 101.586 41.9559 100.946C42.4679 101.138 42.6599 101.522 42.5319 102.098C42.2119 102.994 41.3799 103.89 40.0359 104.786C38.6919 105.682 37.1559 106.13 35.3639 106.13C33.7639 106.13 32.4199 105.618 31.3319 104.658C30.2439 103.698 29.6679 102.162 29.6679 100.114C29.6679 97.6819 30.5639 94.6099 32.3559 90.8339C29.0919 91.7299 26.2119 92.3059 23.7799 92.5619C20.2599 96.0819 16.6759 99.1539 13.0279 101.842C9.37994 104.53 6.56394 105.874 4.51594 105.874C3.36394 105.874 2.46794 105.49 1.76394 104.786C1.05994 104.082 0.739938 103.186 0.739938 102.098C0.739938 100.626 1.12394 99.2179 1.82794 97.8099C2.53194 96.4019 3.55594 94.7379 4.89994 92.8179C6.24394 90.8979 7.26794 89.2339 7.97194 87.8899C9.05994 85.9059 9.57194 84.0499 9.50794 82.3218C10.9799 82.8979 12.0679 83.5379 12.7719 84.2418C13.4759 84.9459 13.8599 85.9059 13.8599 87.1219C13.8599 88.4659 13.4119 89.9379 12.4519 91.6019C11.4919 93.2659 10.4679 94.7379 9.31594 96.0179C8.16394 97.2979 7.13994 98.5779 6.17994 99.8579C5.21994 101.138 4.77194 102.162 4.77194 102.866C4.77194 103.442 5.09194 103.762 5.79594 103.762C7.26794 103.762 9.76394 102.418 13.3479 99.7939C16.9319 97.1699 19.7479 94.8019 21.8599 92.6899C18.5319 92.8819 16.8679 92.1139 16.8679 90.3859C16.8679 89.9379 16.9959 89.6179 17.1879 89.4259C18.9159 90.0659 21.2199 90.3859 24.0999 90.3859C29.7319 85.3299 35.1079 79.5058 40.2919 72.9138C42.7239 69.7138 43.9399 67.1539 43.9399 65.1698C43.9399 63.5699 42.8519 62.8018 40.7399 62.8018C37.5399 62.8018 34.5959 63.7618 31.8439 65.6819C29.7319 67.2178 28.1319 68.8819 27.0439 70.6098C26.4039 69.9058 26.0839 69.2019 26.0839 68.4978C26.0839 66.4498 27.5559 64.7859 30.4999 63.5058C33.4439 62.2258 36.5159 61.5858 39.7159 61.5858ZM25.8919 90.4499L25.7639 90.5779C28.3239 90.5139 30.5639 90.2579 32.5479 89.8099L34.9159 85.5219L38.6919 78.9298L42.1479 72.9779C42.2759 72.7859 42.2759 72.6578 42.1479 72.5938L41.8279 72.8498C37.1559 78.9939 31.8439 84.8819 25.8919 90.4499ZM65.6389 101.842L65.4469 102.162C65.4469 101.266 65.5749 100.37 65.8309 99.4099C66.0869 98.4499 66.5989 97.2979 67.3029 95.9539L69.2869 92.3699L72.1669 87.5699L75.4309 82.1938C75.8149 81.5539 76.0069 80.9778 76.0069 80.5299C76.0069 79.6979 75.3029 79.3139 73.8309 79.3139C71.5909 79.3139 69.3509 80.4659 67.1109 82.7698C64.8709 85.0739 63.7829 87.2499 63.7829 89.3619C63.7829 90.3859 64.4869 90.8979 65.8309 90.8979L68.0069 90.5779C68.0709 90.7699 68.1349 91.0259 68.1349 91.2819C68.1349 91.6019 68.0709 91.8579 67.8789 92.0499C65.1269 95.3139 61.7349 98.5139 57.7029 101.586C53.6709 104.658 50.5989 106.194 48.4229 106.194C47.3349 106.194 46.5029 105.874 45.8629 105.298C45.2229 104.722 44.9029 103.89 44.9029 102.866C44.9029 101.522 46.0549 99.1539 48.2949 95.8259C50.5349 92.4979 51.6869 90.1299 51.6869 88.7859C52.7109 89.1699 53.6069 89.7459 54.3749 90.5139C55.1429 91.2819 55.5269 92.0499 55.5269 92.8819C55.5269 94.0979 54.4389 95.9539 52.3269 98.4499C50.2149 100.946 49.1269 102.546 49.1269 103.25C49.1269 103.826 49.4469 104.146 50.0229 104.146C51.5589 104.146 54.1189 102.738 57.7029 99.9859C61.2869 97.2339 64.2309 94.5459 66.5989 91.9219C65.7669 92.2419 64.6149 92.3699 63.2069 92.3699C61.9909 92.3699 60.9669 92.0499 60.1349 91.4099C59.3029 90.7699 58.9189 89.9379 58.9189 88.9139C58.9189 86.0979 60.5829 83.5379 63.9109 81.2339C67.2389 78.9298 70.9509 77.7779 75.1109 77.7779C78.6309 77.7779 80.9989 78.8659 82.2149 81.0419L74.9189 92.4339C71.3989 97.7459 69.6709 101.33 69.6709 103.186C69.6709 103.698 69.8629 104.146 70.1829 104.53C70.5029 104.914 70.9509 105.106 71.5269 105.106C73.8949 105.106 76.9029 103.378 80.4869 99.9219C84.0709 96.4659 87.0789 93.0739 89.4469 89.6819C89.7669 89.8739 89.8949 90.1939 89.8949 90.6419C89.8949 90.9619 89.8309 91.2179 89.6389 91.4099C81.7669 101.394 75.3669 106.386 70.5029 106.386C69.0309 106.386 67.8789 106.002 66.9829 105.17C66.0869 104.338 65.6389 103.25 65.6389 101.842ZM90.8824 77.8419L91.7784 77.6499C92.8024 77.6499 93.8264 77.9058 94.8504 78.3538C96.4504 79.1859 97.2824 80.4018 97.2824 82.0659C97.2824 82.7698 97.1544 83.5379 96.8984 84.3699C96.6424 85.2019 96.2584 86.0979 95.8104 86.9939C95.3624 87.8899 94.8504 88.8499 94.2744 89.8099C93.6984 90.7699 93.0584 91.7299 92.3544 92.6899L90.4344 95.3779C89.7944 96.2099 89.1544 97.0419 88.4504 97.8739L86.7864 99.9219L85.5704 101.394C85.1864 101.842 84.9944 102.098 84.9304 102.162C84.7384 102.354 84.6744 102.546 84.7384 102.738C84.8024 102.93 84.9304 102.994 85.1224 102.994C85.5704 102.994 86.6584 102.354 88.3864 101.074C90.1144 99.7939 91.5864 98.5779 92.8024 97.4899C95.0424 95.5059 97.4104 93.1379 99.8424 90.3859C102.274 87.6339 104.386 85.1378 106.178 82.8979C107.97 80.6579 109.058 79.3778 109.378 79.0578C110.274 78.1618 111.234 77.7139 112.322 77.7139C113.538 77.7139 114.882 78.2259 116.354 79.1859C111.298 86.8659 105.794 94.4179 99.9064 101.842C94.4024 108.818 89.5384 113.81 85.2504 116.818C80.9624 119.826 76.9304 121.298 73.0904 121.298C71.4264 121.298 69.9544 120.978 68.7384 120.338C67.5224 119.698 66.6264 118.93 66.0504 118.098C65.4744 117.266 65.0264 116.306 64.7064 115.218C64.3864 114.13 64.1944 113.298 64.1304 112.786C64.0664 112.274 64.0664 111.826 64.0664 111.442L64.1304 111.634C64.1304 111.762 64.1944 111.954 64.3224 112.21L64.7064 113.106C64.8344 113.426 65.0264 113.746 65.2824 114.13C65.5384 114.514 65.7944 114.898 66.1144 115.282C66.4344 115.666 66.8184 115.986 67.2664 116.306C67.7144 116.626 68.2264 116.946 68.7384 117.202C69.2504 117.458 69.8904 117.65 70.5944 117.778C71.2984 117.906 72.0664 117.97 72.8984 117.97C74.7544 117.97 76.6744 117.522 78.6584 116.562C80.6424 115.602 82.5624 114.322 84.4184 112.658C86.2744 110.994 87.8104 109.458 89.0264 108.114C90.2424 106.77 91.5864 105.234 93.0584 103.506C94.7864 101.458 96.8344 98.8339 99.2024 95.6339C101.57 92.4339 103.042 90.3859 103.618 89.5539C103.81 89.2339 103.81 89.0419 103.618 88.9778C103.49 88.9139 103.362 88.9778 103.234 89.1059C101.314 91.2179 99.2664 93.3939 97.0904 95.5699C94.9144 97.7459 92.3544 99.9859 89.3464 102.29C86.3384 104.594 84.0984 105.746 82.6264 105.746C81.4104 105.746 80.3224 105.298 79.3624 104.338C81.1544 102.226 83.5864 98.5139 86.7224 93.2019C89.8584 87.8899 91.3944 83.7299 91.3944 80.6579C91.3944 79.6979 91.2024 78.7379 90.8824 77.8419ZM134.955 77.3299C138.859 77.3939 140.843 78.4818 140.843 80.6579C140.843 81.4258 140.523 82.4499 139.883 83.7938C139.243 85.1378 138.603 86.3539 137.899 87.5058C137.195 88.6579 136.171 90.1939 134.827 92.1779C131.435 97.3619 129.707 100.818 129.707 102.546C129.707 103.25 129.899 103.826 130.347 104.274C130.795 104.722 131.371 104.914 132.139 104.914C133.995 104.914 136.107 103.954 138.411 102.034C140.715 100.114 142.507 98.1939 143.723 96.3379C144.235 96.5939 144.299 97.1059 143.979 97.8099C143.403 99.0259 141.675 100.818 138.795 103.122C135.915 105.426 133.099 106.578 130.411 106.578C128.811 106.578 127.531 106.13 126.571 105.298C125.611 104.466 125.163 103.314 125.163 101.906C125.163 99.1539 127.275 94.8019 131.499 88.7859C129.579 90.8979 127.467 93.0739 125.163 95.3779C122.859 97.6819 120.171 100.05 117.163 102.418C114.155 104.786 111.979 106.002 110.635 106.002C109.675 106.002 108.907 105.746 108.331 105.234C107.755 104.722 107.499 103.954 107.499 102.93C107.499 101.458 108.779 98.9619 111.339 95.5059C113.899 92.0499 115.179 89.6179 115.179 88.2739C115.179 88.2099 115.179 88.1459 115.179 88.0179C115.179 87.8899 115.179 87.8259 115.179 87.7619C116.523 88.3379 117.483 88.9139 117.995 89.4899C118.507 90.0659 118.763 90.9619 118.763 92.1779C118.763 93.1379 118.379 94.2899 117.611 95.6339C116.843 96.9779 116.011 98.1939 115.115 99.2179L112.555 102.098C111.787 102.994 111.403 103.57 111.403 103.826C111.403 104.146 111.595 104.338 111.979 104.338C112.939 104.338 115.051 102.93 118.315 100.114C121.579 97.2979 124.843 94.1619 128.107 90.7059C130.987 87.6339 132.907 85.4579 133.803 84.2418C134.891 82.7059 135.403 81.1059 135.403 79.3778C135.403 78.6098 135.275 77.9058 134.955 77.3299ZM152.255 77.9058L151.871 78.2899C152.127 78.2259 152.767 78.2259 153.727 78.2259C156.223 78.2259 157.503 79.1219 157.503 80.9139C157.503 81.5539 157.375 82.1938 157.119 82.8979C156.415 84.8179 154.879 87.3779 152.447 90.5139L145.855 99.0259C143.871 101.522 142.847 103.186 142.847 103.954C142.847 104.594 143.231 104.914 143.935 104.914C145.599 104.914 147.647 103.698 150.015 101.33C152.383 98.9619 153.599 96.2099 153.599 93.0739C153.599 92.3699 153.471 91.7299 153.215 91.1539C153.983 90.8979 154.751 90.7699 155.455 90.7699C156.543 90.7699 157.439 90.9619 158.143 91.3459C161.535 90.4499 164.671 88.9778 167.551 86.8659C171.967 80.9778 175.295 78.0338 177.535 78.0338C178.367 78.0338 179.071 78.1618 179.647 78.4179C180.223 78.6739 180.863 79.2499 181.567 80.0819C177.535 82.9619 173.823 86.9939 170.431 92.1139C167.039 97.2339 165.375 100.818 165.375 102.93C165.375 104.082 166.015 104.658 167.359 104.658C169.791 104.658 172.927 102.866 176.767 99.2819C180.607 95.6979 183.551 92.4339 185.535 89.4259C185.791 89.4899 185.983 89.6819 186.047 90.0019C186.111 90.3219 186.047 90.6419 185.855 90.9619C183.487 94.2899 180.351 97.6179 176.383 101.01C172.415 104.402 168.895 106.066 165.759 106.066C164.351 106.066 163.263 105.618 162.495 104.786C161.727 103.954 161.343 102.866 161.343 101.522C161.343 97.8739 163.071 93.5219 166.463 88.4659C164.543 89.8099 162.111 91.0259 159.103 92.1139C159.167 92.3059 159.231 92.6259 159.231 93.0739C159.167 95.0579 157.503 97.5539 154.239 100.562C150.591 103.954 147.007 105.618 143.551 105.618C141.119 105.618 139.903 104.594 139.903 102.546C139.903 101.65 140.351 100.434 141.183 98.8979C142.015 97.3619 143.359 95.2499 145.215 92.4979C147.071 89.7459 148.415 87.6979 149.247 86.3539C150.015 85.1378 150.719 83.6658 151.423 81.9379C152.127 80.2099 152.383 78.8659 152.255 77.9058ZM199.81 100.178L199.682 100.562C201.218 98.9619 202.818 97.4259 204.546 96.0179L209.794 91.8579C211.586 90.5139 212.866 89.4899 213.634 88.8499C216.386 86.4819 218.242 83.8579 219.202 81.0419C219.714 79.5058 219.97 78.4179 219.97 77.7139C223.042 77.7779 224.578 78.6739 224.578 80.3379C224.578 81.4899 224.002 83.0259 222.85 84.9459C221.698 86.8659 220.482 88.7859 219.138 90.6419C217.794 92.4979 216.578 94.6739 215.426 97.1699C214.274 99.6659 213.698 101.97 213.698 104.082C213.698 105.49 213.954 106.514 214.402 107.154C214.146 107.218 213.762 107.218 213.314 107.218C211.522 107.218 210.114 106.834 209.154 106.066C208.194 105.298 207.682 104.146 207.682 102.674C207.682 98.8979 209.986 94.5459 214.594 89.6179L210.37 92.8819C208.514 94.3539 207.17 95.4419 206.274 96.2099L202.882 99.2179C201.474 100.498 200.194 101.842 199.042 103.25C197.89 104.658 196.738 106.258 195.586 108.05C193.986 106.962 193.154 105.554 193.154 103.89C193.154 102.034 194.306 99.1539 196.546 95.3139C198.786 91.4739 200.194 88.7859 200.77 87.2499L193.666 95.0579C191.234 97.5539 188.418 100.114 185.218 102.674C182.018 105.234 179.586 106.514 177.986 106.514C177.154 106.514 176.514 106.258 176.066 105.81C175.618 105.362 175.426 104.722 175.426 103.89C175.426 102.93 175.682 101.906 176.258 100.818C176.834 99.7299 177.794 98.2579 179.202 96.4019L181.826 92.9459C183.298 90.7699 184.066 88.9139 184.13 87.3779C186.434 88.4019 187.586 89.8099 187.586 91.6659C187.586 93.0099 187.01 94.5459 185.794 96.2739C184.578 98.0019 183.362 99.5379 182.146 100.818C180.93 102.098 180.354 102.93 180.354 103.314C180.354 103.57 180.418 103.698 180.546 103.698C182.018 103.698 185.41 101.138 190.722 96.0179C196.034 90.8979 199.426 87.1859 200.834 84.9459C201.922 83.2178 202.434 81.5539 202.434 79.8899C202.434 79.3139 202.37 78.6098 202.178 77.8419C204.034 78.0979 205.378 78.6098 206.146 79.3778C206.914 80.1459 207.298 81.2339 207.298 82.7059C207.298 85.5858 204.802 91.4099 199.81 100.178Z" fill="#7E1023"></path></svg> 