<?xml version="1.0" encoding="UTF-8"?> <svg xmlns="http://www.w3.org/2000/svg" width="196" height="60" viewBox="0 0 196 60" fill="none"><path d="M26.4421 23.504L25.9301 23.632C24.5221 22.8 23.8181 21.584 23.8181 19.92C23.8181 16.656 26.1221 12.624 30.6661 7.88801C30.6021 7.56801 30.2821 7.37601 29.7061 7.37601C27.5941 7.37601 24.6501 9.23201 20.8741 12.944C17.0981 16.656 13.6421 21.264 10.5061 26.832C7.37009 32.4 5.83409 37.328 5.83409 41.68C5.83409 44.944 7.37009 46.544 10.4421 46.544C12.4261 46.544 14.6021 45.84 17.0341 44.496C19.4661 43.152 21.3221 41.424 22.6661 39.376C23.1141 39.632 23.3061 39.952 23.3061 40.4C23.3061 41.552 21.7701 43.088 18.6981 45.072C15.6261 47.056 12.4261 48.016 9.16209 48.016C6.21809 48.016 3.97809 47.376 2.44209 46.096C0.906094 44.816 0.138094 42.896 0.138094 40.4C0.138094 36.24 1.67409 31.568 4.74609 26.448C7.81809 21.328 11.5941 16.72 16.0101 12.56C18.5061 10.192 20.8741 8.52802 23.1141 7.50401C25.3541 6.48001 27.2741 5.96801 28.8741 5.96801C29.4501 5.96801 30.0261 6.09601 30.6021 6.35201C31.1781 6.60801 31.4341 6.92801 31.4341 7.31202C33.1621 5.45601 35.5301 3.08801 38.5381 0.208012C39.7541 1.16801 40.3941 2.25601 40.3941 3.47202C40.3941 4.24001 40.1381 5.00801 39.5621 5.71201C39.2421 6.16002 38.5381 6.99201 37.3861 8.20802C36.2341 9.42402 35.2741 10.512 34.5061 11.408C30.8581 15.824 28.1701 19.856 26.4421 23.504ZM36.7901 19.024L36.4061 19.408C36.6621 19.344 37.3021 19.344 38.2621 19.344C40.7581 19.344 42.0381 20.24 42.0381 22.032C42.0381 22.672 41.9101 23.312 41.6541 24.016C40.9501 25.936 39.4141 28.496 36.9821 31.632L30.3901 40.144C28.4061 42.64 27.3821 44.304 27.3821 45.072C27.3821 45.712 27.7661 46.032 28.4701 46.032C30.1341 46.032 32.1821 44.816 34.5501 42.448C36.9181 40.08 38.1341 37.328 38.1341 34.192C38.1341 33.488 38.0061 32.848 37.7501 32.272C38.5181 32.016 39.2861 31.888 39.9901 31.888C41.0781 31.888 41.9741 32.08 42.6781 32.464C46.0701 31.568 49.2061 30.096 52.0861 27.984C56.5021 22.096 59.8301 19.152 62.0701 19.152C62.9021 19.152 63.6061 19.28 64.1821 19.536C64.7581 19.792 65.3981 20.368 66.1021 21.2C62.0701 24.08 58.3581 28.112 54.9661 33.232C51.5741 38.352 49.9101 41.936 49.9101 44.048C49.9101 45.2 50.5501 45.776 51.8941 45.776C54.3261 45.776 57.4621 43.984 61.3021 40.4C65.1421 36.816 68.0861 33.552 70.0701 30.544C70.3261 30.608 70.5181 30.8 70.5821 31.12C70.6461 31.44 70.5821 31.76 70.3901 32.08C68.0221 35.408 64.8861 38.736 60.9181 42.128C56.9501 45.52 53.4301 47.184 50.2941 47.184C48.8861 47.184 47.7981 46.736 47.0301 45.904C46.2621 45.072 45.8781 43.984 45.8781 42.64C45.8781 38.992 47.6061 34.64 50.9981 29.584C49.0781 30.928 46.6461 32.144 43.6381 33.232C43.7021 33.424 43.7661 33.744 43.7661 34.192C43.7021 36.176 42.0381 38.672 38.7741 41.68C35.1261 45.072 31.5421 46.736 28.0861 46.736C25.6541 46.736 24.4381 45.712 24.4381 43.664C24.4381 42.768 24.8861 41.552 25.7181 40.016C26.5501 38.48 27.8941 36.368 29.7501 33.616C31.6061 30.864 32.9501 28.816 33.7821 27.472C34.5501 26.256 35.2541 24.784 35.9581 23.056C36.6621 21.328 36.9181 19.984 36.7901 19.024ZM73.5936 19.28L73.7216 18.96C74.5536 18.896 75.1936 18.832 75.5776 18.832C78.5216 18.832 79.9936 19.664 79.9936 21.328C79.9936 23.248 78.2656 26.512 74.8736 31.12L71.0976 36.176L67.3216 41.168C66.3616 42.512 65.7216 43.408 65.4656 43.856C65.2736 44.112 65.2096 44.368 65.2096 44.56C65.2096 44.88 65.4016 45.072 65.7856 45.072C67.0656 45.072 69.3056 43.728 72.5056 41.104C75.7056 38.48 78.4576 35.792 80.6976 33.04C80.9536 32.72 81.9136 31.312 83.6416 28.816C85.3696 26.32 86.7776 24.4 87.8656 23.056C89.9776 20.304 92.0256 18.896 93.9456 18.896C95.6736 18.896 97.2096 19.472 98.5536 20.688C95.8016 22.928 92.7296 26 89.3376 29.904C84.1536 35.984 81.5936 40.656 81.5936 43.92C81.5936 45.264 82.2336 45.904 83.4496 45.904C85.8816 45.904 88.9536 44.432 92.6656 41.488C96.3776 38.544 98.8736 36.176 100.09 34.448C100.538 34.768 100.538 35.344 100.09 36.176C99.8976 36.496 99.1936 37.2 97.9776 38.352C96.7616 39.504 95.2896 40.784 93.5616 42.192C91.8336 43.6 89.9136 44.816 87.7376 45.904C85.5616 46.992 83.6416 47.504 81.9136 47.504C80.2496 47.504 79.0336 47.12 78.2656 46.288C77.4976 45.456 77.1136 44.432 77.1136 43.152C77.1136 41.104 77.7536 38.928 79.0976 36.56C77.0496 38.928 74.5536 41.232 71.5456 43.536C68.5376 45.84 66.0416 46.992 64.0576 46.992C62.3296 46.992 61.4336 46.096 61.4336 44.368C61.4336 43.536 61.6896 42.576 62.1376 41.552C62.5856 40.528 63.6096 38.864 65.2096 36.56C68.3456 32.08 70.5856 28.496 71.8656 25.744C73.1456 22.992 73.7856 21.136 73.7856 20.112C73.7856 19.856 73.7216 19.6 73.5936 19.28ZM101.626 1.80801L101.946 2.64001C100.09 5.84002 97.7216 8.65601 94.9056 11.152C92.0896 13.648 89.2096 14.864 86.2656 14.864C84.6656 14.864 83.3856 14.416 82.4896 13.52C81.5936 12.624 81.1456 11.472 81.1456 10.128C81.1456 8.33601 81.8496 6.16002 83.1936 3.53601C83.1936 5.77601 83.5776 7.44001 84.2816 8.59201C84.9856 9.74401 86.3296 10.32 88.2496 10.32C90.2976 10.32 92.5376 9.61601 94.9696 8.14401C97.4016 6.67201 99.6416 4.56001 101.626 1.80801ZM118.178 18.448C122.082 18.512 124.066 19.6 124.066 21.776C124.066 22.544 123.746 23.568 123.106 24.912C122.466 26.256 121.826 27.472 121.122 28.624C120.418 29.776 119.394 31.312 118.05 33.296C114.658 38.48 112.93 41.936 112.93 43.664C112.93 44.368 113.122 44.944 113.57 45.392C114.018 45.84 114.594 46.032 115.362 46.032C117.218 46.032 119.33 45.072 121.634 43.152C123.938 41.232 125.73 39.312 126.946 37.456C127.458 37.712 127.522 38.224 127.202 38.928C126.626 40.144 124.898 41.936 122.018 44.24C119.138 46.544 116.322 47.696 113.634 47.696C112.034 47.696 110.754 47.248 109.794 46.416C108.834 45.584 108.386 44.432 108.386 43.024C108.386 40.272 110.498 35.92 114.722 29.904C112.802 32.016 110.69 34.192 108.386 36.496C106.082 38.8 103.394 41.168 100.386 43.536C97.3781 45.904 95.2021 47.12 93.8581 47.12C92.8981 47.12 92.1301 46.864 91.5541 46.352C90.9781 45.84 90.7221 45.072 90.7221 44.048C90.7221 42.576 92.0021 40.08 94.5621 36.624C97.1221 33.168 98.4021 30.736 98.4021 29.392C98.4021 29.328 98.4021 29.264 98.4021 29.136C98.4021 29.008 98.4021 28.944 98.4021 28.88C99.7461 29.456 100.706 30.032 101.218 30.608C101.73 31.184 101.986 32.08 101.986 33.296C101.986 34.256 101.602 35.408 100.834 36.752C100.066 38.096 99.2341 39.312 98.3381 40.336L95.7781 43.216C95.0101 44.112 94.6261 44.688 94.6261 44.944C94.6261 45.264 94.8181 45.456 95.2021 45.456C96.1621 45.456 98.2741 44.048 101.538 41.232C104.802 38.416 108.066 35.28 111.33 31.824C114.21 28.752 116.13 26.576 117.026 25.36C118.114 23.824 118.626 22.224 118.626 20.496C118.626 19.728 118.498 19.024 118.178 18.448ZM135.478 19.024L135.094 19.408C135.35 19.344 135.99 19.344 136.95 19.344C139.446 19.344 140.726 20.24 140.726 22.032C140.726 22.672 140.598 23.312 140.342 24.016C139.638 25.936 138.102 28.496 135.67 31.632L129.078 40.144C127.094 42.64 126.07 44.304 126.07 45.072C126.07 45.712 126.454 46.032 127.158 46.032C128.822 46.032 130.87 44.816 133.238 42.448C135.606 40.08 136.822 37.328 136.822 34.192C136.822 33.488 136.694 32.848 136.438 32.272C137.206 32.016 137.974 31.888 138.678 31.888C139.766 31.888 140.662 32.08 141.366 32.464C144.758 31.568 147.894 30.096 150.774 27.984C155.19 22.096 158.518 19.152 160.758 19.152C161.59 19.152 162.294 19.28 162.87 19.536C163.446 19.792 164.086 20.368 164.79 21.2C160.758 24.08 157.046 28.112 153.654 33.232C150.262 38.352 148.598 41.936 148.598 44.048C148.598 45.2 149.238 45.776 150.582 45.776C153.014 45.776 156.15 43.984 159.99 40.4C163.83 36.816 166.774 33.552 168.758 30.544C169.014 30.608 169.206 30.8 169.27 31.12C169.334 31.44 169.27 31.76 169.078 32.08C166.71 35.408 163.574 38.736 159.606 42.128C155.638 45.52 152.118 47.184 148.982 47.184C147.574 47.184 146.486 46.736 145.718 45.904C144.95 45.072 144.566 43.984 144.566 42.64C144.566 38.992 146.294 34.64 149.686 29.584C147.766 30.928 145.334 32.144 142.326 33.232C142.39 33.424 142.454 33.744 142.454 34.192C142.39 36.176 140.726 38.672 137.462 41.68C133.814 45.072 130.23 46.736 126.774 46.736C124.342 46.736 123.126 45.712 123.126 43.664C123.126 42.768 123.574 41.552 124.406 40.016C125.238 38.48 126.582 36.368 128.438 33.616C130.294 30.864 131.638 28.816 132.47 27.472C133.238 26.256 133.942 24.784 134.646 23.056C135.35 21.328 135.606 19.984 135.478 19.024ZM176.505 36.944C177.273 38.672 179.065 45.264 181.625 45.264C183.225 45.264 184.249 44.816 186.809 41.808H186.425C187.641 40.464 188.473 39.76 188.921 39.76C189.113 39.76 189.241 39.76 189.369 39.824L189.625 40.016L189.689 40.08C188.473 41.168 186.489 43.472 183.801 47.056C180.985 50.64 178.297 53.52 175.673 55.76C173.049 58 170.297 59.088 167.417 59.088C165.945 59.088 164.729 58.704 163.833 58C162.937 57.296 162.489 56.208 162.489 54.736C162.489 53.008 163.129 51.344 164.345 49.744C164.537 51.28 165.113 52.432 166.137 53.2C167.161 53.968 168.377 54.352 169.785 54.352C174.073 54.352 178.937 51.344 184.377 45.328C182.649 46.928 180.985 47.696 179.385 47.696C177.273 47.696 175.929 46.928 173.945 41.424L172.793 38.16C172.345 36.816 171.513 35.984 170.233 35.664C169.273 36.752 167.545 38.8 165.049 41.808C162.937 44.432 161.593 46.352 161.017 47.504C159.801 46.928 159.161 45.968 159.161 44.624C159.161 43.792 159.545 42.768 160.249 41.616C160.697 40.912 162.169 38.928 164.665 35.6C167.161 32.272 169.081 29.328 170.361 26.832C171.641 24.336 172.281 21.904 172.281 19.664C174.137 19.664 177.657 19.728 177.657 22.544C177.657 24.144 177.081 25.936 175.865 27.92C174.649 29.904 173.305 31.696 171.833 33.296C171.705 33.488 171.705 33.552 171.769 33.552C171.833 33.552 171.961 33.488 172.089 33.424C178.105 28.624 181.881 25.68 183.353 24.592C184.825 23.504 186.617 22.416 188.793 21.264C190.969 20.112 192.633 19.536 193.849 19.536C195.193 19.536 195.897 20.048 195.897 21.072C195.897 21.584 195.641 22.224 195.193 22.992C194.745 23.76 193.977 24.656 192.889 25.744C191.801 26.832 190.841 27.728 190.009 28.432L186.425 31.632L183.161 34.512C182.073 33.872 181.561 32.976 181.561 31.888C181.561 30.608 182.329 29.328 183.801 28.112C184.505 27.536 185.657 26.768 187.193 25.808C188.729 24.848 189.945 24.016 190.905 23.312C191.865 22.608 192.313 22.096 192.313 21.776C192.313 21.584 192.185 21.52 191.865 21.52C191.097 21.52 189.561 22.224 187.193 23.632C184.825 25.04 182.649 26.448 180.665 27.92L173.049 33.936C174.393 34.32 175.737 35.216 176.505 36.944Z" fill="white"></path></svg> 