<?xml version="1.0" encoding="UTF-8"?> <svg xmlns="http://www.w3.org/2000/svg" width="301" height="63" viewBox="0 0 301 63" fill="none"><path d="M27.0476 24.088L26.5356 24.216C25.1276 23.384 24.4236 22.168 24.4236 20.504C24.4236 17.24 26.7276 13.208 31.2716 8.472C31.2076 8.152 30.8876 7.96 30.3116 7.96C28.1996 7.96 25.2556 9.816 21.4796 13.528C17.7036 17.24 14.2476 21.848 11.1116 27.416C7.97556 32.984 6.43956 37.912 6.43956 42.264C6.43956 45.528 7.97556 47.128 11.0476 47.128C13.0316 47.128 15.2076 46.424 17.6396 45.08C20.0716 43.736 21.9276 42.008 23.2716 39.96C23.7196 40.216 23.9116 40.536 23.9116 40.984C23.9116 42.136 22.3756 43.672 19.3036 45.656C16.2316 47.64 13.0316 48.6 9.76756 48.6C6.82356 48.6 4.58356 47.96 3.04756 46.68C1.51156 45.4 0.743563 43.48 0.743563 40.984C0.743563 36.824 2.27956 32.152 5.35156 27.032C8.42356 21.912 12.1996 17.304 16.6156 13.144C19.1116 10.776 21.4796 9.112 23.7196 8.088C25.9596 7.064 27.8796 6.552 29.4796 6.552C30.0556 6.552 30.6316 6.68 31.2076 6.936C31.7836 7.192 32.0396 7.512 32.0396 7.896C33.7676 6.04 36.1356 3.672 39.1436 0.791996C40.3596 1.752 40.9996 2.84 40.9996 4.056C40.9996 4.824 40.7436 5.592 40.1676 6.296C39.8476 6.744 39.1436 7.576 37.9916 8.792C36.8396 10.008 35.8796 11.096 35.1116 11.992C31.4636 16.408 28.7756 20.44 27.0476 24.088ZM52.4846 23.32L52.7406 23.576C52.2286 23.128 51.3966 22.936 50.3086 22.936C47.8126 22.936 44.4206 25.176 40.1326 29.72C38.2126 31.704 36.3566 34.2 34.5646 37.272C32.7726 40.344 31.8766 42.712 31.8766 44.44C31.8766 45.4 32.2606 45.848 33.0926 45.848C33.7966 45.848 34.7566 45.336 35.9726 44.376C37.1886 43.416 38.4686 42.2 39.8126 40.728C41.1566 39.256 42.3726 37.784 43.5246 36.376L46.7246 32.408L48.1966 30.488C48.2606 30.424 49.2206 29.08 51.0766 26.52C52.9326 23.96 53.9566 22.552 54.1486 22.36C54.8526 21.528 55.4286 20.952 55.8766 20.632C56.3246 20.312 56.8366 20.12 57.4126 20.12C59.0766 20.12 60.5486 21.144 61.7646 23.256C60.6126 24.216 59.0126 25.88 56.9006 28.248C54.7246 30.744 52.5486 33.624 50.3726 36.888C48.1966 40.152 47.1086 42.776 47.1086 44.76C47.1086 46.168 47.6846 46.872 48.9006 46.872C51.1406 46.872 54.4046 44.76 58.6286 40.6C62.8526 36.44 65.6046 33.304 66.8206 31.192C67.1406 31.32 67.3326 31.576 67.3326 31.96C67.3326 32.344 67.2686 32.728 67.0766 33.048C66.7566 33.496 65.9246 34.456 64.5806 35.928C63.2366 37.4 61.6366 39.128 59.7166 41.048C57.7966 42.968 55.6846 44.696 53.3806 46.168C51.0766 47.64 49.0926 48.344 47.4286 48.344C46.0206 48.344 44.9326 47.896 44.1646 47.064C43.3966 46.232 43.0126 45.016 43.0126 43.48C43.0126 41.368 43.7806 38.616 45.3806 35.224C42.0526 39.704 39.4286 42.84 37.4446 44.632C34.7566 47.064 32.3886 48.28 30.4046 48.28C29.1246 48.28 28.1646 47.832 27.4606 46.936C26.7566 46.04 26.4366 44.824 26.4366 43.224C26.4366 41.432 26.8846 39.448 27.7806 37.336C29.8286 32.6 33.0286 28.504 37.3166 25.048C41.6046 21.592 45.5726 19.864 49.1566 19.864C51.3966 19.864 52.4846 20.888 52.4846 22.872V23.32ZM68.7106 19.544L69.6066 19.352C70.6306 19.352 71.6546 19.608 72.6786 20.056C74.2786 20.888 75.1106 22.104 75.1106 23.768C75.1106 24.472 74.9826 25.24 74.7266 26.072C74.4706 26.904 74.0866 27.8 73.6386 28.696C73.1906 29.592 72.6786 30.552 72.1026 31.512C71.5266 32.472 70.8866 33.432 70.1826 34.392L68.2626 37.08C67.6226 37.912 66.9826 38.744 66.2786 39.576L64.6146 41.624L63.3986 43.096C63.0146 43.544 62.8226 43.8 62.7586 43.864C62.5666 44.056 62.5026 44.248 62.5666 44.44C62.6306 44.632 62.7586 44.696 62.9506 44.696C63.3986 44.696 64.4866 44.056 66.2146 42.776C67.9426 41.496 69.4146 40.28 70.6306 39.192C72.8706 37.208 75.2386 34.84 77.6706 32.088C80.1026 29.336 82.2146 26.84 84.0066 24.6C85.7986 22.36 86.8866 21.08 87.2066 20.76C88.1026 19.864 89.0626 19.416 90.1506 19.416C91.3666 19.416 92.7106 19.928 94.1826 20.888C89.1266 28.568 83.6226 36.12 77.7346 43.544C72.2306 50.52 67.3666 55.512 63.0786 58.52C58.7906 61.528 54.7586 63 50.9186 63C49.2546 63 47.7826 62.68 46.5666 62.04C45.3506 61.4 44.4546 60.632 43.8786 59.8C43.3026 58.968 42.8546 58.008 42.5346 56.92C42.2146 55.832 42.0226 55 41.9586 54.488C41.8946 53.976 41.8946 53.528 41.8946 53.144L41.9586 53.336C41.9586 53.464 42.0226 53.656 42.1506 53.912L42.5346 54.808C42.6626 55.128 42.8546 55.448 43.1106 55.832C43.3666 56.216 43.6226 56.6 43.9426 56.984C44.2626 57.368 44.6466 57.688 45.0946 58.008C45.5426 58.328 46.0546 58.648 46.5666 58.904C47.0786 59.16 47.7186 59.352 48.4226 59.48C49.1266 59.608 49.8946 59.672 50.7266 59.672C52.5826 59.672 54.5026 59.224 56.4866 58.264C58.4706 57.304 60.3906 56.024 62.2466 54.36C64.1026 52.696 65.6386 51.16 66.8546 49.816C68.0706 48.472 69.4146 46.936 70.8866 45.208C72.6146 43.16 74.6626 40.536 77.0306 37.336C79.3986 34.136 80.8706 32.088 81.4466 31.256C81.6386 30.936 81.6386 30.744 81.4466 30.68C81.3186 30.616 81.1906 30.68 81.0626 30.808C79.1426 32.92 77.0946 35.096 74.9186 37.272C72.7426 39.448 70.1826 41.688 67.1746 43.992C64.1666 46.296 61.9266 47.448 60.4546 47.448C59.2386 47.448 58.1506 47 57.1906 46.04C58.9826 43.928 61.4146 40.216 64.5506 34.904C67.6866 29.592 69.2226 25.432 69.2226 22.36C69.2226 21.4 69.0306 20.44 68.7106 19.544ZM114.61 23.32L114.866 23.576C114.354 23.128 113.522 22.936 112.434 22.936C109.938 22.936 106.546 25.176 102.258 29.72C100.338 31.704 98.4816 34.2 96.6896 37.272C94.8976 40.344 94.0016 42.712 94.0016 44.44C94.0016 45.4 94.3856 45.848 95.2176 45.848C95.9216 45.848 96.8816 45.336 98.0976 44.376C99.3136 43.416 100.594 42.2 101.938 40.728C103.282 39.256 104.498 37.784 105.65 36.376L108.85 32.408L110.322 30.488C110.386 30.424 111.346 29.08 113.202 26.52C115.058 23.96 116.082 22.552 116.274 22.36C116.978 21.528 117.554 20.952 118.002 20.632C118.45 20.312 118.962 20.12 119.538 20.12C121.202 20.12 122.674 21.144 123.89 23.256C122.738 24.216 121.138 25.88 119.026 28.248C116.85 30.744 114.674 33.624 112.498 36.888C110.322 40.152 109.234 42.776 109.234 44.76C109.234 46.168 109.81 46.872 111.026 46.872C113.266 46.872 116.53 44.76 120.754 40.6C124.978 36.44 127.73 33.304 128.946 31.192C129.266 31.32 129.458 31.576 129.458 31.96C129.458 32.344 129.394 32.728 129.202 33.048C128.882 33.496 128.05 34.456 126.706 35.928C125.362 37.4 123.762 39.128 121.842 41.048C119.922 42.968 117.81 44.696 115.506 46.168C113.202 47.64 111.218 48.344 109.554 48.344C108.146 48.344 107.058 47.896 106.29 47.064C105.522 46.232 105.138 45.016 105.138 43.48C105.138 41.368 105.906 38.616 107.506 35.224C104.178 39.704 101.554 42.84 99.5696 44.632C96.8816 47.064 94.5136 48.28 92.5296 48.28C91.2496 48.28 90.2896 47.832 89.5856 46.936C88.8816 46.04 88.5616 44.824 88.5616 43.224C88.5616 41.432 89.0096 39.448 89.9056 37.336C91.9536 32.6 95.1536 28.504 99.4416 25.048C103.73 21.592 107.698 19.864 111.282 19.864C113.522 19.864 114.61 20.888 114.61 22.872V23.32ZM147.284 19.032C151.188 19.096 153.172 20.184 153.172 22.36C153.172 23.128 152.852 24.152 152.212 25.496C151.572 26.84 150.932 28.056 150.228 29.208C149.524 30.36 148.5 31.896 147.156 33.88C143.764 39.064 142.036 42.52 142.036 44.248C142.036 44.952 142.228 45.528 142.676 45.976C143.124 46.424 143.7 46.616 144.468 46.616C146.324 46.616 148.436 45.656 150.74 43.736C153.044 41.816 154.836 39.896 156.052 38.04C156.564 38.296 156.628 38.808 156.308 39.512C155.732 40.728 154.004 42.52 151.124 44.824C148.244 47.128 145.428 48.28 142.74 48.28C141.14 48.28 139.86 47.832 138.9 47C137.94 46.168 137.492 45.016 137.492 43.608C137.492 40.856 139.604 36.504 143.828 30.488C141.908 32.6 139.796 34.776 137.492 37.08C135.188 39.384 132.5 41.752 129.492 44.12C126.484 46.488 124.308 47.704 122.964 47.704C122.004 47.704 121.236 47.448 120.66 46.936C120.084 46.424 119.828 45.656 119.828 44.632C119.828 43.16 121.108 40.664 123.668 37.208C126.228 33.752 127.508 31.32 127.508 29.976C127.508 29.912 127.508 29.848 127.508 29.72C127.508 29.592 127.508 29.528 127.508 29.464C128.852 30.04 129.812 30.616 130.324 31.192C130.836 31.768 131.092 32.664 131.092 33.88C131.092 34.84 130.708 35.992 129.94 37.336C129.172 38.68 128.34 39.896 127.444 40.92L124.884 43.8C124.116 44.696 123.732 45.272 123.732 45.528C123.732 45.848 123.924 46.04 124.308 46.04C125.268 46.04 127.38 44.632 130.644 41.816C133.908 39 137.172 35.864 140.436 32.408C143.316 29.336 145.236 27.16 146.132 25.944C147.22 24.408 147.732 22.808 147.732 21.08C147.732 20.312 147.604 19.608 147.284 19.032ZM170.023 23.576L169.895 23.384C169.895 24.472 169.447 25.88 168.487 27.608C167.527 29.336 166.567 30.744 165.607 31.896L164.199 33.688C168.039 33.112 170.599 32.664 171.943 32.28C173.095 30.936 174.631 28.824 176.487 25.944C178.343 23.064 179.431 20.888 179.687 19.416C181.031 19.608 182.183 19.992 183.143 20.568C184.103 21.144 184.615 21.912 184.615 22.936C184.615 23.896 183.911 25.368 182.567 27.352C181.223 29.336 179.495 31.64 177.383 34.264C175.271 36.888 173.799 38.872 172.903 40.28C171.687 42.2 171.111 43.736 171.111 44.888C171.111 45.848 171.559 46.36 172.519 46.36C174.759 46.36 177.895 44.376 181.927 40.408C185.959 36.44 188.583 33.432 189.799 31.384C190.119 31.576 190.311 31.896 190.311 32.28C190.311 32.728 190.119 33.24 189.735 33.816C189.351 34.392 188.583 35.288 187.431 36.568C186.279 37.848 184.743 39.384 182.823 41.24C180.903 43.096 178.791 44.696 176.551 46.04C174.311 47.384 172.327 48.024 170.599 48.024C169.255 48.024 168.231 47.64 167.463 46.936C166.695 46.232 166.311 45.272 166.311 44.056C166.311 41.56 167.975 38.104 171.303 33.688C166.631 34.584 163.943 35.096 163.239 35.224C158.439 40.664 154.983 45.208 152.807 48.856C151.463 48.344 150.759 47.448 150.759 46.232C150.759 45.848 150.887 45.4 151.079 44.888C151.271 44.376 151.655 43.672 152.167 42.84C152.679 42.008 153.127 41.304 153.447 40.792L155.303 38.04L157.159 35.288C158.631 33.048 159.719 31.32 160.423 30.104C161.127 28.888 161.959 27.288 162.855 25.304C163.751 23.32 164.199 21.72 164.199 20.504C164.199 20.184 164.199 19.992 164.135 19.864C166.247 19.928 167.783 20.248 168.679 20.888C169.575 21.528 170.023 22.424 170.023 23.576ZM209.11 23.32L209.366 23.576C208.854 23.128 208.022 22.936 206.934 22.936C204.438 22.936 201.046 25.176 196.758 29.72C194.838 31.704 192.982 34.2 191.19 37.272C189.398 40.344 188.502 42.712 188.502 44.44C188.502 45.4 188.886 45.848 189.718 45.848C190.422 45.848 191.382 45.336 192.598 44.376C193.814 43.416 195.094 42.2 196.438 40.728C197.782 39.256 198.998 37.784 200.15 36.376L203.35 32.408L204.822 30.488C204.886 30.424 205.846 29.08 207.702 26.52C209.558 23.96 210.582 22.552 210.774 22.36C211.478 21.528 212.054 20.952 212.502 20.632C212.95 20.312 213.462 20.12 214.038 20.12C215.702 20.12 217.174 21.144 218.39 23.256C217.238 24.216 215.638 25.88 213.526 28.248C211.35 30.744 209.174 33.624 206.998 36.888C204.822 40.152 203.734 42.776 203.734 44.76C203.734 46.168 204.31 46.872 205.526 46.872C207.766 46.872 211.03 44.76 215.254 40.6C219.478 36.44 222.23 33.304 223.446 31.192C223.766 31.32 223.958 31.576 223.958 31.96C223.958 32.344 223.894 32.728 223.702 33.048C223.382 33.496 222.55 34.456 221.206 35.928C219.862 37.4 218.262 39.128 216.342 41.048C214.422 42.968 212.31 44.696 210.006 46.168C207.702 47.64 205.718 48.344 204.054 48.344C202.646 48.344 201.558 47.896 200.79 47.064C200.022 46.232 199.638 45.016 199.638 43.48C199.638 41.368 200.406 38.616 202.006 35.224C198.678 39.704 196.054 42.84 194.07 44.632C191.382 47.064 189.014 48.28 187.03 48.28C185.75 48.28 184.79 47.832 184.086 46.936C183.382 46.04 183.062 44.824 183.062 43.224C183.062 41.432 183.51 39.448 184.406 37.336C186.454 32.6 189.654 28.504 193.942 25.048C198.23 21.592 202.198 19.864 205.782 19.864C208.022 19.864 209.11 20.888 209.11 22.872V23.32ZM238.264 41.88L238.136 42.264C239.672 40.664 241.272 39.128 243 37.72L248.248 33.56C250.04 32.216 251.32 31.192 252.088 30.552C254.84 28.184 256.696 25.56 257.656 22.744C258.168 21.208 258.424 20.12 258.424 19.416C261.496 19.48 263.032 20.376 263.032 22.04C263.032 23.192 262.456 24.728 261.304 26.648C260.152 28.568 258.936 30.488 257.592 32.344C256.248 34.2 255.032 36.376 253.88 38.872C252.728 41.368 252.152 43.672 252.152 45.784C252.152 47.192 252.408 48.216 252.856 48.856C252.6 48.92 252.216 48.92 251.768 48.92C249.976 48.92 248.568 48.536 247.608 47.768C246.648 47 246.136 45.848 246.136 44.376C246.136 40.6 248.44 36.248 253.048 31.32L248.824 34.584C246.968 36.056 245.624 37.144 244.728 37.912L241.336 40.92C239.928 42.2 238.648 43.544 237.496 44.952C236.344 46.36 235.192 47.96 234.04 49.752C232.44 48.664 231.608 47.256 231.608 45.592C231.608 43.736 232.76 40.856 235 37.016C237.24 33.176 238.648 30.488 239.224 28.952L232.12 36.76C229.688 39.256 226.872 41.816 223.672 44.376C220.472 46.936 218.04 48.216 216.44 48.216C215.608 48.216 214.968 47.96 214.52 47.512C214.072 47.064 213.88 46.424 213.88 45.592C213.88 44.632 214.136 43.608 214.712 42.52C215.288 41.432 216.248 39.96 217.656 38.104L220.28 34.648C221.752 32.472 222.52 30.616 222.584 29.08C224.888 30.104 226.04 31.512 226.04 33.368C226.04 34.712 225.464 36.248 224.248 37.976C223.032 39.704 221.816 41.24 220.6 42.52C219.384 43.8 218.808 44.632 218.808 45.016C218.808 45.272 218.872 45.4 219 45.4C220.472 45.4 223.864 42.84 229.176 37.72C234.488 32.6 237.88 28.888 239.288 26.648C240.376 24.92 240.888 23.256 240.888 21.592C240.888 21.016 240.824 20.312 240.632 19.544C242.488 19.8 243.832 20.312 244.6 21.08C245.368 21.848 245.752 22.936 245.752 24.408C245.752 27.288 243.256 33.112 238.264 41.88ZM285.735 23.32L285.991 23.576C285.479 23.128 284.647 22.936 283.559 22.936C281.063 22.936 277.671 25.176 273.383 29.72C271.463 31.704 269.607 34.2 267.815 37.272C266.023 40.344 265.127 42.712 265.127 44.44C265.127 45.4 265.511 45.848 266.343 45.848C267.047 45.848 268.007 45.336 269.223 44.376C270.439 43.416 271.719 42.2 273.063 40.728C274.407 39.256 275.623 37.784 276.775 36.376L279.975 32.408L281.447 30.488C281.511 30.424 282.471 29.08 284.327 26.52C286.183 23.96 287.207 22.552 287.399 22.36C288.103 21.528 288.679 20.952 289.127 20.632C289.575 20.312 290.087 20.12 290.663 20.12C292.327 20.12 293.799 21.144 295.015 23.256C293.863 24.216 292.263 25.88 290.151 28.248C287.975 30.744 285.799 33.624 283.623 36.888C281.447 40.152 280.359 42.776 280.359 44.76C280.359 46.168 280.935 46.872 282.151 46.872C284.391 46.872 287.655 44.76 291.879 40.6C296.103 36.44 298.855 33.304 300.071 31.192C300.391 31.32 300.583 31.576 300.583 31.96C300.583 32.344 300.519 32.728 300.327 33.048C300.007 33.496 299.175 34.456 297.831 35.928C296.487 37.4 294.887 39.128 292.967 41.048C291.047 42.968 288.935 44.696 286.631 46.168C284.327 47.64 282.343 48.344 280.679 48.344C279.271 48.344 278.183 47.896 277.415 47.064C276.647 46.232 276.263 45.016 276.263 43.48C276.263 41.368 277.031 38.616 278.631 35.224C275.303 39.704 272.679 42.84 270.695 44.632C268.007 47.064 265.639 48.28 263.655 48.28C262.375 48.28 261.415 47.832 260.711 46.936C260.007 46.04 259.687 44.824 259.687 43.224C259.687 41.432 260.135 39.448 261.031 37.336C263.079 32.6 266.279 28.504 270.567 25.048C274.855 21.592 278.823 19.864 282.407 19.864C284.647 19.864 285.735 20.888 285.735 22.872V23.32Z" fill="#181818"></path></svg> 