<?xml version="1.0" encoding="UTF-8"?> <svg xmlns="http://www.w3.org/2000/svg" width="256" height="66" viewBox="0 0 256 66" fill="none"><path d="M6.26687 5.32885L6.13887 5.07285C8.18687 5.26485 9.46687 6.09685 9.91487 7.56885C14.7789 7.56885 18.7469 7.50485 21.8829 7.37685C24.3789 7.31285 27.5149 7.18485 31.2909 7.05685C35.0669 6.92885 37.4349 6.86485 38.3949 6.80085C40.7629 4.43285 42.4269 2.44885 43.4509 0.784851C44.2189 0.976849 44.8589 1.36085 45.3069 2.00085C45.7549 2.64085 46.0109 3.28085 46.0109 3.92085C46.0109 4.24085 45.9469 4.56085 45.8189 4.94485C45.6909 5.32885 45.4989 5.71285 45.2429 6.16085L44.4749 7.31285C44.2189 7.69685 43.8349 8.14485 43.3869 8.65685L42.2349 9.93685C41.9149 10.2569 41.4669 10.7048 40.8909 11.2808C40.3149 11.8568 39.9309 12.3049 39.6749 12.6249C36.9869 15.5688 35.0029 18.5128 33.6589 21.3929C32.6349 20.1768 32.1229 18.8328 32.1229 17.3608C32.1229 16.1448 32.5069 14.7369 33.2109 13.2009C33.9149 11.6648 35.0029 10.2569 36.4109 8.97685C35.5149 9.10485 34.2989 9.23285 32.6989 9.36085C31.0989 9.48885 29.1149 9.61685 26.7469 9.74485C24.3789 9.87285 22.5869 10.0009 21.3069 10.0648C23.0349 11.1529 23.9309 12.5608 23.9309 14.2888C23.9309 14.8649 23.8029 15.5688 23.5469 16.4009C23.2909 17.2329 23.0349 18.0009 22.7149 18.7049C22.3949 19.4088 21.9469 20.3048 21.3069 21.3929L19.8349 23.8889C19.5149 24.4649 18.9389 25.3609 18.1709 26.5769C17.4029 27.7929 16.9549 28.5609 16.7629 28.8808L14.8429 31.8249L12.2829 35.8569C11.7069 36.8169 11.0029 38.0969 10.1069 39.6969C9.21087 41.2969 8.57087 42.7049 8.12287 43.9849C7.67487 45.2649 7.41887 46.4169 7.35487 47.5049C4.98687 46.6729 3.77087 45.0729 3.77087 42.7049C3.77087 40.3369 5.49887 36.4969 8.89087 31.1849C9.72287 29.8409 11.3869 27.4088 13.8189 23.9529C16.2509 20.4969 17.9789 17.8729 19.0029 16.0168C20.0269 14.1609 20.5389 12.7528 20.5389 11.7929C20.5389 11.2169 20.4749 10.7688 20.3469 10.4488C19.2589 10.5129 17.5949 10.6409 15.2909 10.8329C12.9869 11.0248 11.1949 11.1529 9.97887 11.2169C9.78687 12.1129 8.95487 13.6488 7.48287 15.8249C5.88287 18.1929 4.47487 20.5609 3.25887 22.9289C1.53087 21.8409 0.634868 20.6249 0.634868 19.2169C0.634868 18.4489 0.890868 17.6168 1.33887 16.7208C1.78687 15.8249 2.42687 14.6729 3.25887 13.3288C4.09087 11.9848 4.79487 10.7688 5.30687 9.68085C5.94687 8.27285 6.26687 6.80085 6.26687 5.32885ZM52.2769 27.8569L51.8929 28.0489C51.8929 29.6489 51.1889 31.5689 49.7809 33.8729C48.3729 36.1769 46.6449 38.4169 44.5329 40.5289C42.4209 42.6409 40.1169 44.4329 37.5569 45.9049C34.9969 47.3769 32.6929 48.1449 30.6449 48.1449C29.1729 48.1449 28.0209 47.6969 27.2529 46.8009C26.4849 45.9049 26.1009 44.6249 26.1009 42.9609C26.1009 39.7609 27.2529 36.3049 29.4929 32.5929C31.7329 28.8808 34.7409 25.6809 38.4529 23.0569C42.1649 20.4328 45.8129 19.0889 49.3969 19.0889C51.6369 19.0889 52.7889 20.0489 52.7889 21.9049C52.7889 21.9689 52.7889 22.0329 52.7889 22.1609C52.7889 22.2889 52.7889 22.4169 52.7889 22.4809C52.2129 22.0329 51.3809 21.8409 50.3569 21.8409C48.1809 21.8409 45.5569 23.1849 42.4849 25.8089C39.4129 28.4328 36.7889 31.5689 34.5489 35.2169C32.3089 38.8649 31.2209 41.9369 31.2209 44.4329C31.2209 45.6489 31.8609 46.2889 33.1409 46.2889C34.9329 46.2889 37.1729 44.9449 39.9249 42.1929C42.6769 39.4409 45.0449 36.3049 47.0929 32.8489C49.1409 29.3929 50.1649 26.6409 50.1649 24.5928C51.5729 25.1688 52.2769 26.2569 52.2769 27.8569ZM61.2189 19.5368V19.4088C62.0509 19.3449 62.6909 19.2808 63.0749 19.2808C66.0189 19.2808 67.4909 20.1129 67.4909 21.7768C67.4909 23.6968 65.7629 26.9608 62.3709 31.5689L58.5949 36.6249L54.8189 41.6169C53.8589 42.9609 53.2189 43.8569 52.9629 44.3049C52.7709 44.5609 52.7069 44.8169 52.7069 45.0089C52.7069 45.3289 52.8989 45.5209 53.2829 45.5209C54.5629 45.5209 56.8029 44.1769 60.0029 41.5529C63.2029 38.9289 65.9549 36.2409 68.1949 33.4889C68.4509 33.1689 69.4109 31.7609 71.1389 29.2649C72.8669 26.7689 74.2749 24.8489 75.3629 23.5049C77.4749 20.7528 79.5229 19.3449 81.4429 19.3449C83.1709 19.3449 84.7069 19.9209 86.0509 21.1369C83.2989 23.3769 80.2269 26.4489 76.8349 30.3528C71.6509 36.4329 69.0909 41.1049 69.0909 44.3689C69.0909 45.7129 69.7949 46.3529 71.2029 46.3529C72.2909 46.3529 73.2509 46.1609 74.0829 45.7129C72.7389 47.0569 71.2029 47.7609 69.5389 47.7609C67.8749 47.7609 66.6589 47.3769 65.8909 46.5449C65.1229 45.7129 64.7389 44.6889 64.7389 43.4089C64.7389 41.3609 65.3789 39.1849 66.7229 36.8169C64.6749 39.1849 62.1789 41.4889 59.1709 43.7929C56.1629 46.0969 53.6669 47.2489 51.6829 47.2489C49.9549 47.2489 49.0589 46.3529 49.0589 44.6249C49.0589 43.7929 49.3149 42.8329 49.7629 41.8089C50.2109 40.7849 51.2349 39.1209 52.8349 36.8169C55.9709 32.3369 58.2109 28.7529 59.4909 26.0009C60.7709 23.2488 61.4109 21.3929 61.4109 20.3689C61.4109 20.1129 61.3469 19.8568 61.2189 19.5368ZM88.4829 2.25685L88.8029 3.08885C86.9469 6.28885 84.5789 9.10485 81.7629 11.6008C78.9469 14.0969 76.0669 15.3129 73.1229 15.3129C71.5229 15.3129 70.2429 14.8649 69.3469 13.9688C68.4509 13.0728 68.0029 11.9208 68.0029 10.5769C68.0029 8.78485 68.7069 6.60885 70.0509 3.98485C70.0509 6.22485 70.4349 7.88885 71.1389 9.04085C71.8429 10.1928 73.1869 10.7688 75.1069 10.7688C77.1549 10.7688 79.3949 10.0648 81.8269 8.59285C84.2589 7.12085 86.4989 5.00885 88.4829 2.25685ZM103.999 19.5368L104.127 19.2169C104.959 19.1529 105.599 19.0889 105.983 19.0889C108.927 19.0889 110.399 19.9209 110.399 21.5849C110.399 23.5049 108.671 26.7689 105.279 31.3769L101.503 36.4329L97.7269 41.4249C96.7669 42.7689 96.1269 43.6649 95.8709 44.1129C95.6789 44.3689 95.6149 44.6249 95.6149 44.8169C95.6149 45.1369 95.8069 45.3289 96.1909 45.3289C97.4709 45.3289 99.7109 43.9849 102.911 41.3609C106.111 38.7369 108.863 36.0489 111.103 33.2969C111.359 32.9769 112.319 31.5689 114.047 29.0729C115.775 26.5769 117.183 24.6569 118.271 23.3129C120.383 20.5609 122.431 19.1529 124.351 19.1529C126.079 19.1529 127.615 19.7288 128.959 20.9449C126.207 23.1849 123.135 26.2569 119.743 30.1609C114.559 36.2409 111.999 40.9129 111.999 44.1769C111.999 45.5209 112.639 46.1609 113.855 46.1609C116.287 46.1609 119.359 44.6889 123.071 41.7449C126.783 38.8009 129.279 36.4329 130.495 34.7049C130.943 35.0249 130.943 35.6009 130.495 36.4329C130.303 36.7529 129.599 37.4569 128.383 38.6089C127.167 39.7609 125.695 41.0409 123.967 42.4489C122.239 43.8569 120.319 45.0729 118.143 46.1609C115.967 47.2489 114.047 47.7609 112.319 47.7609C110.655 47.7609 109.439 47.3769 108.671 46.5449C107.903 45.7129 107.519 44.6889 107.519 43.4089C107.519 41.3609 108.159 39.1849 109.503 36.8169C107.455 39.1849 104.959 41.4889 101.951 43.7929C98.9429 46.0969 96.4469 47.2489 94.4629 47.2489C92.7349 47.2489 91.8389 46.3529 91.8389 44.6249C91.8389 43.7929 92.0949 42.8329 92.5429 41.8089C92.9909 40.7849 94.0149 39.1209 95.6149 36.8169C98.7509 32.3369 100.991 28.7529 102.271 26.0009C103.551 23.2488 104.191 21.3929 104.191 20.3689C104.191 20.1129 104.127 19.8568 103.999 19.5368ZM152.271 22.8008L152.143 22.9289C152.143 23.7609 151.887 24.5928 151.311 25.4249C150.735 26.2569 149.839 27.1529 148.559 28.1129C147.279 29.0729 145.359 29.9689 142.735 30.8009C140.111 31.6329 137.039 32.2729 133.455 32.7209C131.087 36.3689 129.871 39.5689 129.871 42.3209C129.871 44.5609 130.959 45.7129 133.135 45.7129C136.527 45.7129 140.367 43.9849 144.655 40.5929C148.943 37.2009 152.079 34.1289 153.999 31.4409C154.255 31.6329 154.383 31.8889 154.383 32.2729C154.383 32.6569 154.319 32.9769 154.127 33.2969C150.991 37.0729 147.215 40.4009 142.799 43.2809C138.383 46.1609 134.095 47.5689 129.871 47.5689C128.015 47.5689 126.607 47.1209 125.583 46.2249C124.559 45.3289 124.047 44.0489 124.047 42.3209C124.047 39.1849 125.327 35.7929 127.951 32.1449C130.575 28.4969 133.775 25.4888 137.551 23.0569C141.327 20.6249 144.783 19.4088 147.919 19.4088C150.799 19.4088 152.271 20.5609 152.271 22.8008ZM134.159 31.6969H134.031C137.807 30.9929 141.007 29.7129 143.631 27.7929C146.255 25.8729 147.535 24.0169 147.535 22.1609C147.535 21.4569 147.215 21.1369 146.575 21.1369C144.911 21.1369 142.799 22.3528 140.303 24.7849C137.807 27.2169 135.759 29.5209 134.159 31.6969ZM173.021 18.7049C176.925 18.7689 178.909 19.8568 178.909 22.0329C178.909 22.8008 178.589 23.8249 177.949 25.1688C177.309 26.5128 176.669 27.7289 175.965 28.8808C175.261 30.0329 174.237 31.5689 172.893 33.5529C169.501 38.7369 167.773 42.1929 167.773 43.9209C167.773 44.6249 167.965 45.2009 168.413 45.6489C168.861 46.0969 169.437 46.2889 170.205 46.2889C172.061 46.2889 174.173 45.3289 176.477 43.4089C178.781 41.4889 180.573 39.5689 181.789 37.7129C182.301 37.9689 182.365 38.4809 182.045 39.1849C181.469 40.4009 179.741 42.1929 176.861 44.4969C173.981 46.8009 171.165 47.9529 168.477 47.9529C166.877 47.9529 165.597 47.5049 164.637 46.6729C163.677 45.8409 163.229 44.6889 163.229 43.2809C163.229 40.5289 165.341 36.1769 169.565 30.1609C167.645 32.2729 165.533 34.4489 163.229 36.7529C160.925 39.0569 158.237 41.4249 155.229 43.7929C152.221 46.1609 150.045 47.3769 148.701 47.3769C147.741 47.3769 146.973 47.1209 146.397 46.6089C145.821 46.0969 145.565 45.3289 145.565 44.3049C145.565 42.8329 146.845 40.3369 149.405 36.8809C151.965 33.4249 153.245 30.9929 153.245 29.6489C153.245 29.5849 153.245 29.5209 153.245 29.3929C153.245 29.2649 153.245 29.2009 153.245 29.1369C154.589 29.7129 155.549 30.2889 156.061 30.8649C156.573 31.4409 156.829 32.3369 156.829 33.5529C156.829 34.5129 156.445 35.6649 155.677 37.0089C154.909 38.3529 154.077 39.5689 153.181 40.5929L150.621 43.4729C149.853 44.3689 149.469 44.9449 149.469 45.2009C149.469 45.5209 149.661 45.7129 150.045 45.7129C151.005 45.7129 153.117 44.3049 156.381 41.4889C159.645 38.6729 162.909 35.5369 166.173 32.0809C169.053 29.0089 170.973 26.8329 171.869 25.6168C172.957 24.0809 173.469 22.4809 173.469 20.7528C173.469 19.9848 173.341 19.2808 173.021 18.7049ZM206.896 22.8008L206.768 22.9289C206.768 23.7609 206.512 24.5928 205.936 25.4249C205.36 26.2569 204.464 27.1529 203.184 28.1129C201.904 29.0729 199.984 29.9689 197.36 30.8009C194.736 31.6329 191.664 32.2729 188.08 32.7209C185.712 36.3689 184.496 39.5689 184.496 42.3209C184.496 44.5609 185.584 45.7129 187.76 45.7129C191.152 45.7129 194.992 43.9849 199.28 40.5929C203.568 37.2009 206.704 34.1289 208.624 31.4409C208.88 31.6329 209.008 31.8889 209.008 32.2729C209.008 32.6569 208.944 32.9769 208.752 33.2969C205.616 37.0729 201.84 40.4009 197.424 43.2809C193.008 46.1609 188.72 47.5689 184.496 47.5689C182.64 47.5689 181.232 47.1209 180.208 46.2249C179.184 45.3289 178.672 44.0489 178.672 42.3209C178.672 39.1849 179.952 35.7929 182.576 32.1449C185.2 28.4969 188.4 25.4888 192.176 23.0569C195.952 20.6249 199.408 19.4088 202.544 19.4088C205.424 19.4088 206.896 20.5609 206.896 22.8008ZM188.784 31.6969H188.656C192.432 30.9929 195.632 29.7129 198.256 27.7929C200.88 25.8729 202.16 24.0169 202.16 22.1609C202.16 21.4569 201.84 21.1369 201.2 21.1369C199.536 21.1369 197.424 22.3528 194.928 24.7849C192.432 27.2169 190.384 29.5209 188.784 31.6969ZM210.302 45.5849V45.6489C212.35 45.6489 214.974 44.2409 218.174 41.4249C221.374 38.6089 224.19 35.4089 226.622 31.8249C229.054 28.2409 230.27 25.4888 230.27 23.5688C230.27 22.6089 229.694 22.0969 228.606 22.0969C227.07 22.0969 224.19 24.0809 219.966 27.9848C215.742 31.8889 212.606 35.2809 210.558 38.1609C209.086 40.1449 208.318 42.0009 208.318 43.7289C208.318 44.9449 208.958 45.5849 210.302 45.5849ZM215.934 18.5128V18.5769C218.366 18.5769 219.582 19.4729 219.582 21.3288C219.582 23.2488 217.79 26.7689 214.206 31.9529C216.83 29.2649 218.942 27.1529 220.542 25.6809C222.142 24.2089 223.998 22.8008 226.046 21.5209C228.094 20.2409 229.886 19.6009 231.422 19.6009C234.622 19.6009 236.222 20.9449 236.222 23.6329C236.222 26.2569 234.814 29.4569 232.062 33.2329C229.31 37.0089 225.918 40.3369 221.886 43.2169C217.854 46.0969 214.27 47.5049 211.134 47.5049C208.382 47.5049 206.974 46.4809 206.974 44.4969C206.974 44.0489 207.038 43.5369 207.102 43.0249C199.742 52.8169 194.494 60.4329 191.422 65.8729C190.206 65.0409 189.63 63.8889 189.63 62.4169C189.63 61.3289 190.014 60.1769 190.718 58.9609C191.038 58.4489 193.086 55.4409 196.862 50.0009C200.638 44.5609 204.158 39.1209 207.486 33.7449C210.814 28.3689 212.798 24.4649 213.374 21.9689C213.63 20.8808 213.758 19.7929 213.758 18.7049C214.462 18.5769 215.166 18.5128 215.934 18.5128ZM253.081 3.79285V3.72885C254.489 4.88085 255.193 6.35285 255.193 8.08085C255.193 9.93685 254.553 11.4089 253.209 12.5608C251.865 13.7128 250.265 14.2888 248.409 14.2888C247.577 14.2888 246.617 14.0969 245.529 13.7769C247.129 12.7528 248.793 11.0248 250.521 8.52885C251.097 7.69685 251.609 6.86485 252.057 6.09685C252.505 5.32885 252.761 4.75285 252.889 4.36885L253.081 3.79285ZM242.521 25.2969L242.457 25.3609C243.033 23.8889 243.353 22.1609 243.353 20.1768C245.593 20.1129 247.193 20.3048 248.089 20.7528C248.985 21.2008 249.433 21.9689 249.433 23.0569C249.433 24.4009 248.409 26.7049 246.297 29.9689L239.961 39.9529C237.849 43.3449 236.761 45.8409 236.761 47.4409C234.585 46.5449 233.625 44.8809 233.881 42.4489C234.009 41.3609 234.521 40.0169 235.417 38.4809L238.937 32.5289C240.345 30.0969 241.561 27.6649 242.521 25.2969Z" fill="#181818"></path></svg> 