<?xml version="1.0" encoding="UTF-8"?> <svg xmlns="http://www.w3.org/2000/svg" width="269" height="169" viewBox="0 0 269 169" fill="none"><path d="M26.8562 26.4151L26.3442 26.5431C24.9362 25.7111 24.2322 24.4951 24.2322 22.8311C24.2322 19.5671 26.5362 15.5351 31.0802 10.7991C31.0162 10.4791 30.6962 10.2871 30.1202 10.2871C28.0082 10.2871 25.0642 12.1431 21.2882 15.8551C17.5122 19.5671 14.0562 24.1751 10.9202 29.7431C7.78416 35.3111 6.24816 40.2391 6.24816 44.5911C6.24816 47.8551 7.78416 49.4551 10.8562 49.4551C12.8402 49.4551 15.0162 48.7511 17.4482 47.4071C19.8802 46.0631 21.7362 44.3351 23.0802 42.2871C23.5282 42.5431 23.7202 42.8631 23.7202 43.3111C23.7202 44.4631 22.1842 45.9991 19.1122 47.9831C16.0402 49.9671 12.8402 50.9271 9.57616 50.9271C6.63216 50.9271 4.39216 50.2871 2.85616 49.0071C1.32016 47.7271 0.552156 45.8071 0.552156 43.3111C0.552156 39.1511 2.08816 34.4791 5.16016 29.3591C8.23216 24.2391 12.0082 19.6311 16.4242 15.4711C18.9202 13.1031 21.2882 11.4391 23.5282 10.4151C25.7682 9.39115 27.6882 8.87915 29.2882 8.87915C29.8642 8.87915 30.4402 9.00714 31.0162 9.26315C31.5922 9.51915 31.8482 9.83915 31.8482 10.2231C33.5762 8.36715 35.9442 5.99915 38.9522 3.11914C40.1682 4.07915 40.8082 5.16714 40.8082 6.38315C40.8082 7.15115 40.5522 7.91915 39.9762 8.62315C39.6562 9.07115 38.9522 9.90314 37.8002 11.1191C36.6482 12.3351 35.6882 13.4231 34.9202 14.3191C31.2722 18.7351 28.5842 22.7671 26.8562 26.4151ZM69.2532 22.3191V22.5751C72.3892 22.5751 73.9892 23.4711 73.9892 25.3271C73.9892 27.0551 72.8372 28.9111 70.5332 30.8311C68.2292 32.7511 65.0292 34.5431 60.8692 36.2711L60.9332 36.5911C62.7252 35.8871 64.5172 35.5671 66.3092 35.5671C68.9332 35.5671 70.2772 36.5911 70.2772 38.6391C70.2772 41.8391 68.6132 44.7191 65.2852 47.2791C61.9572 49.8391 58.6292 51.1191 55.3012 51.1191C52.6772 51.1191 50.5652 50.5431 48.9652 49.3271C47.3652 48.1111 46.5972 46.2551 46.6612 43.7591C48.1972 45.8071 50.5012 46.8311 53.6372 46.8311C56.6452 46.8311 59.3332 45.8711 61.7012 43.8871C64.0692 41.9031 65.2852 39.9831 65.2852 38.1271C65.2852 37.2951 64.6452 36.8471 63.4292 36.8471C62.5972 36.8471 61.5092 37.1031 60.2292 37.5511C58.9492 37.9991 57.7972 38.6391 56.7092 39.4711C56.5172 38.8951 56.4532 38.5111 56.4532 38.3191C56.4532 37.7431 56.7732 37.2311 57.3492 36.7831C57.4772 36.7191 57.8612 36.4631 58.5012 36.0791C59.1412 35.6951 59.6532 35.3751 60.0372 35.1191C65.2852 31.7271 67.9092 28.4631 67.9092 25.3271C67.9092 24.3671 67.3972 23.9191 66.3092 23.9191C64.4532 23.9191 62.4052 25.0711 60.1012 27.3751C57.7972 29.6791 56.3252 31.9191 55.6852 34.0951C54.9172 33.2631 54.5332 32.3031 54.5332 31.2151C54.5332 29.0391 55.9412 26.9911 58.7572 25.1351C61.5732 23.2791 65.0932 22.3191 69.2532 22.3191ZM54.5332 25.7111L54.2772 25.8391C54.2772 26.6711 54.0212 27.5031 53.4452 28.3351C52.8692 29.1671 51.9732 30.0631 50.6932 31.0231C49.4132 31.9831 47.4932 32.8791 44.8692 33.7111C42.2452 34.5431 39.1732 35.1831 35.5892 35.6311C33.2212 39.2791 32.0052 42.4791 32.0052 45.2311C32.0052 47.5351 33.0292 48.6871 35.0772 48.6871C36.5492 48.6871 38.2772 48.2391 40.1972 47.3431C42.1172 46.4471 43.7812 45.2311 45.2532 43.7591C45.5092 43.9511 45.6372 44.2071 45.5732 44.5911C45.5092 44.9751 45.3812 45.2951 45.1252 45.5511C41.4772 48.8151 37.1252 50.4791 32.1332 50.4791C30.2772 50.4791 28.8692 50.0311 27.8452 49.1351C26.8212 48.2391 26.3092 46.9591 26.3092 45.2311C26.3092 42.0951 27.5892 38.7031 30.2132 35.0551C32.8372 31.4071 36.0372 28.3991 39.8132 25.9671C43.5892 23.5351 47.0452 22.3191 50.1812 22.3191C53.0612 22.3191 54.5332 23.4711 54.5332 25.7111ZM36.2932 34.6071H36.1652C39.9412 33.9031 43.1412 32.6231 45.7652 30.7031C48.3892 28.7831 49.6692 26.9271 49.6692 25.0711C49.6692 24.3671 49.3492 24.0471 48.7092 24.0471C47.0452 24.0471 44.9332 25.2631 42.4372 27.6951C39.9412 30.1271 37.8932 32.4311 36.2932 34.6071ZM92.4022 6.44715V6.38315C93.8102 7.53514 94.5142 9.00714 94.5142 10.7351C94.5142 12.5911 93.8742 14.0631 92.5302 15.2151C91.1862 16.3671 89.5862 16.9431 87.7302 16.9431C86.8982 16.9431 85.9382 16.7511 84.8502 16.4311C86.4502 15.4071 88.1142 13.6791 89.8422 11.1831C90.4182 10.3511 90.9302 9.51915 91.3782 8.75115C91.8262 7.98315 92.0822 7.40715 92.2102 7.02315L92.4022 6.44715ZM81.8422 27.9511L81.7782 28.0151C82.3542 26.5431 82.6742 24.8151 82.6742 22.8311C84.9142 22.7671 86.5142 22.9591 87.4102 23.4071C88.3062 23.8551 88.7542 24.6231 88.7542 25.7111C88.7542 27.0551 87.7302 29.3591 85.6182 32.6231L79.2822 42.6071C77.1702 45.9991 76.0822 48.4951 76.0822 50.0951C73.9062 49.1991 72.9462 47.5351 73.2022 45.1031C73.3302 44.0151 73.8422 42.6711 74.7382 41.1351L78.2582 35.1831C79.6662 32.7511 80.8822 30.3191 81.8422 27.9511ZM110.346 44.0791L110.026 44.3991C111.882 42.4151 114.634 40.0471 118.218 37.3591C121.802 34.6711 123.786 33.1991 124.106 32.8791C126.666 30.6391 128.458 28.1431 129.546 25.4551C130.122 24.1111 130.378 23.0231 130.378 22.1911V21.6151H130.634C133.386 21.6151 134.794 22.5111 134.794 24.3671C134.794 25.2631 134.282 26.6071 133.194 28.3991C132.106 30.1911 130.954 32.0471 129.674 33.9031C128.394 35.7591 127.242 37.9991 126.154 40.5591C125.066 43.1191 124.554 45.5511 124.554 47.7911C124.554 51.4391 125.514 54.3831 127.498 56.5591C126.602 56.5591 125.706 56.4311 124.746 56.1111C123.786 55.7911 122.826 55.3431 121.866 54.7031C120.906 54.0631 120.138 53.1031 119.562 51.8231C118.986 50.5431 118.73 49.0711 118.73 47.3431C118.73 45.0391 119.306 42.6711 120.458 40.2391C121.61 37.8071 122.89 35.7591 124.298 34.0951L120.33 37.1031C118.346 38.5751 117.002 39.6631 116.234 40.3031C115.466 40.9431 114.378 41.9671 112.906 43.3111C111.434 44.6551 110.154 46.1271 109.002 47.6631C107.85 49.1991 106.634 50.9271 105.418 52.9111C103.626 51.6951 102.73 50.0311 102.73 47.9191C102.73 46.0631 104.01 43.0551 106.57 38.9591C109.13 34.8631 110.666 31.9191 111.178 30.1911C109.066 32.8151 106.698 35.5031 104.074 38.3191C101.45 41.1351 98.5062 43.8231 95.3062 46.3831C92.1062 48.9431 89.6742 50.2231 88.0742 50.2231C86.2822 50.2231 85.3862 49.3911 85.3862 47.7911C85.3862 46.7031 85.7062 45.5511 86.3462 44.3991C86.9862 43.2471 87.8182 41.9031 88.9062 40.3671C89.9942 38.8311 90.7622 37.6151 91.2102 36.7831C92.2982 34.8631 92.9382 32.9431 93.1302 31.0231C94.4102 31.6631 95.3062 32.3671 95.8822 33.1351C96.4582 33.9031 96.7142 34.9271 96.7142 36.2711C96.7142 37.6151 96.2022 39.0231 95.1782 40.5591C94.1542 42.0951 93.1302 43.4391 92.1062 44.5911C91.0822 45.7431 90.5702 46.5111 90.5702 46.8951C90.5702 47.1511 90.6982 47.2791 90.8902 47.2791C92.4902 47.2791 95.8822 44.7191 101.13 39.6631C106.378 34.6071 109.578 30.9591 110.794 28.7831C111.562 27.4391 111.946 26.1591 111.946 24.9431C111.946 24.1751 111.69 23.2791 111.178 22.3191C115.018 22.7671 116.938 24.5591 116.938 27.7591C116.938 28.8471 116.682 30.2551 116.106 31.9831C115.53 33.7111 114.954 35.1831 114.378 36.3991L112.01 40.9431C111.05 42.7991 110.474 43.8231 110.346 44.0791ZM203.106 0.623146L202.722 0.559147C203.298 0.943146 203.618 1.71115 203.618 2.79914C203.618 5.99915 202.146 8.36715 199.202 9.90314C196.258 11.4391 192.29 12.2071 187.298 12.2071C186.082 12.2071 184.29 12.0791 181.922 11.8871C179.554 11.6951 177.89 11.5671 176.93 11.5671C174.882 11.5671 172.962 12.0791 171.17 13.1031C169.378 14.1271 167.138 16.1751 164.45 19.2471C163.874 19.8231 163.362 20.3991 162.914 21.0391C162.466 21.6791 161.954 22.3831 161.378 23.2151L160.162 25.0711L158.69 27.4391L157.282 29.6791C160.034 27.3111 162.338 25.6471 164.194 24.7511C166.05 23.8551 167.842 23.4071 169.57 23.4071C172.45 23.4071 173.922 25.1351 173.922 28.6551C173.922 30.6391 173.218 32.8791 171.81 35.3751C170.402 37.8711 168.61 40.1751 166.434 42.2871C164.258 44.3991 161.762 46.1911 158.946 47.6631C156.13 49.1351 153.442 49.8391 150.818 49.8391C149.218 49.8391 147.874 49.3911 146.722 48.4951C145.57 47.5991 144.994 46.1271 144.994 44.1431C144.994 41.9671 145.634 39.5351 146.978 36.9111C149.09 32.7511 151.586 29.0391 154.466 25.8391C157.346 22.6391 160.994 19.1831 165.41 15.5351C169.442 12.2711 173.218 9.90314 176.738 8.43114C180.258 6.95914 183.906 6.19115 187.682 6.19115C188.514 6.19115 189.282 6.19115 189.986 6.19115C190.69 6.19115 191.33 6.19115 191.842 6.19115C193.826 6.19115 195.362 6.12715 196.514 5.99915C197.666 5.87115 198.818 5.61515 199.906 5.29515C200.994 4.97515 201.826 4.39915 202.338 3.63115C202.85 2.86315 203.106 1.83915 203.106 0.623146ZM157.73 30.6391L157.474 30.5111C155.426 32.3671 153.378 34.9911 151.33 38.4471C149.282 41.9031 148.258 44.5911 148.258 46.5751C148.258 47.7911 148.77 48.3671 149.794 48.3671C151.394 48.3671 153.826 46.9591 157.026 44.1431C160.226 41.3271 163.106 38.1271 165.666 34.5431C168.226 30.9591 169.506 28.2071 169.506 26.3511C169.506 25.3271 169.058 24.8151 168.162 24.8151C166.626 24.8151 164.898 25.3911 162.978 26.6071C161.058 27.8231 159.33 29.1671 157.73 30.6391ZM199.168 25.6471V25.5831C198.656 25.1351 197.824 24.9431 196.736 24.9431C194.24 24.9431 190.848 27.1831 186.56 31.7271C184.64 33.7111 182.784 36.2071 180.992 39.2791C179.2 42.3511 178.304 44.7191 178.304 46.4471C178.304 47.4071 178.688 47.8551 179.52 47.8551C180.224 47.8551 181.184 47.3431 182.4 46.3831C183.616 45.4231 184.896 44.2071 186.24 42.7351C187.584 41.2631 188.8 39.7911 189.952 38.3831L193.152 34.4151L194.624 32.4951L197.504 28.5271C199.36 25.9671 200.384 24.5591 200.576 24.3671C201.28 23.5351 201.856 22.9591 202.304 22.6391C202.752 22.3191 203.264 22.1271 203.84 22.1271C205.504 22.1271 206.976 23.1511 208.192 25.2631C207.04 26.2231 205.44 27.8871 203.328 30.2551C196.864 37.6151 193.6 43.1831 193.6 46.9591C193.6 47.4711 193.792 47.9191 194.112 48.3031C194.432 48.6871 194.88 48.8791 195.456 48.8791C196.288 48.8791 197.248 48.6231 198.336 48.0471C197.312 49.7111 195.776 50.5431 193.664 50.5431C192.448 50.5431 191.424 50.0951 190.656 49.2631C189.888 48.4311 189.504 47.2791 189.504 45.8071C189.504 43.6951 190.208 41.1991 191.68 38.3191C191.744 38.1271 191.744 37.9991 191.68 37.9351C191.616 37.8711 191.552 37.9351 191.488 38.0631C188.096 42.7351 185.28 45.9991 183.04 47.8551C180.8 49.7111 178.816 50.6071 177.088 50.6071C175.808 50.6071 174.848 50.1591 174.144 49.2631C173.44 48.3671 173.12 47.1511 173.12 45.5511C173.12 43.7591 173.568 41.7751 174.464 39.6631C176.512 34.9271 179.712 30.8311 184 27.3751C188.288 23.9191 192.256 22.1911 195.84 22.1911C198.08 22.1911 199.168 23.2151 199.168 25.1991V25.6471ZM205.696 46.7671L205.44 47.2151C205.44 48.8791 206.336 49.7111 208.192 49.7111C210.624 49.7111 213.376 48.6871 216.448 46.7031C219.52 44.7191 222.144 42.5431 224.32 40.2391C226.496 37.9351 228.16 35.8231 229.376 33.9671L229.568 34.2231L229.888 34.8631C230.016 35.1831 229.952 35.4391 229.76 35.6311C227.648 38.8951 224.384 42.2231 219.904 45.6151C215.424 49.0071 211.392 50.6711 207.744 50.6711C205.952 50.6711 204.544 50.2231 203.52 49.3271C202.496 48.4311 201.984 47.1511 201.984 45.4871C201.984 44.2071 202.304 42.9271 202.944 41.7111C203.584 40.4951 204.48 39.3431 205.632 38.2551L206.848 37.1031L203.712 37.2311C203.776 36.1431 204.16 35.3751 204.8 34.9911C205.44 34.6071 206.592 34.4151 208.256 34.4151H210.24C210.752 34.0311 211.328 33.7111 211.968 33.2631L216.832 30.1271C220.224 27.6951 221.952 25.8391 221.952 24.6231C221.952 23.9191 221.44 23.5351 220.48 23.5351C218.24 23.5351 216 24.3671 213.76 26.0951C211.52 27.8231 209.92 29.5511 208.96 31.2791C208.576 31.2151 208.32 30.9591 208.192 30.5751C208.064 30.1911 208.128 29.8071 208.32 29.3591C209.152 27.8231 211.072 26.2231 214.08 24.5591C217.088 22.8951 219.776 22.0631 222.208 22.0631C225.088 22.0631 226.56 23.2791 226.56 25.7751C226.56 28.4631 224.128 31.4071 219.2 34.6071C223.104 34.4791 225.728 34.3511 226.944 34.1591C226.88 34.6711 226.496 35.0551 225.792 35.3111C224.192 35.8871 220.8 36.5271 215.488 36.9111L213.12 38.4471L210.752 40.0471C207.36 42.5431 205.696 44.7831 205.696 46.7671ZM234.517 21.9351L234.133 22.3191C234.389 22.2551 235.029 22.2551 235.989 22.2551C238.485 22.2551 239.765 23.1511 239.765 24.9431C239.765 25.5831 239.637 26.2231 239.381 26.9271C238.677 28.8471 237.141 31.4071 234.709 34.5431L228.117 43.0551C226.133 45.5511 225.109 47.2151 225.109 47.9831C225.109 48.6231 225.493 48.9431 226.197 48.9431C227.861 48.9431 229.909 47.7271 232.277 45.3591C234.645 42.9911 235.861 40.2391 235.861 37.1031C235.861 36.3991 235.733 35.7591 235.477 35.1831C236.245 34.9271 237.013 34.7991 237.717 34.7991C238.805 34.7991 239.701 34.9911 240.405 35.3751C243.797 34.4791 246.933 33.0071 249.813 30.8951C254.229 25.0071 257.557 22.0631 259.797 22.0631C260.629 22.0631 261.333 22.1911 261.909 22.4471C262.485 22.7031 263.125 23.2791 263.829 24.1111C259.797 26.9911 256.085 31.0231 252.693 36.1431C249.301 41.2631 247.637 44.8471 247.637 46.9591C247.637 48.1111 248.277 48.6871 249.621 48.6871C252.053 48.6871 255.189 46.8951 259.029 43.3111C262.869 39.7271 265.813 36.4631 267.797 33.4551C268.053 33.5191 268.245 33.7111 268.309 34.0311C268.373 34.3511 268.309 34.6711 268.117 34.9911C265.749 38.3191 262.613 41.6471 258.645 45.0391C254.677 48.4311 251.157 50.0951 248.021 50.0951C246.613 50.0951 245.525 49.6471 244.757 48.8151C243.989 47.9831 243.605 46.8951 243.605 45.5511C243.605 41.9031 245.333 37.5511 248.725 32.4951C246.805 33.8391 244.373 35.0551 241.365 36.1431C241.429 36.3351 241.493 36.6551 241.493 37.1031C241.429 39.0871 239.765 41.5831 236.501 44.5911C232.853 47.9831 229.269 49.6471 225.813 49.6471C223.381 49.6471 222.165 48.6231 222.165 46.5751C222.165 45.6791 222.613 44.4631 223.445 42.9271C224.277 41.3911 225.621 39.2791 227.477 36.5271C229.333 33.7751 230.677 31.7271 231.509 30.3831C232.277 29.1671 232.981 27.6951 233.685 25.9671C234.389 24.2391 234.645 22.8951 234.517 21.9351ZM26.8562 82.4151L26.3442 82.5431C24.9362 81.7111 24.2322 80.4951 24.2322 78.8311C24.2322 75.5671 26.5362 71.5351 31.0802 66.7991C31.0162 66.4791 30.6962 66.2871 30.1202 66.2871C28.0082 66.2871 25.0642 68.1431 21.2882 71.8551C17.5122 75.5671 14.0562 80.1751 10.9202 85.7431C7.78416 91.3111 6.24816 96.2391 6.24816 100.591C6.24816 103.855 7.78416 105.455 10.8562 105.455C12.8402 105.455 15.0162 104.751 17.4482 103.407C19.8802 102.063 21.7362 100.335 23.0802 98.2871C23.5282 98.5431 23.7202 98.8631 23.7202 99.3111C23.7202 100.463 22.1842 101.999 19.1122 103.983C16.0402 105.967 12.8402 106.927 9.57616 106.927C6.63216 106.927 4.39216 106.287 2.85616 105.007C1.32016 103.727 0.552156 101.807 0.552156 99.3111C0.552156 95.1511 2.08816 90.4791 5.16016 85.3591C8.23216 80.2391 12.0082 75.6311 16.4242 71.4711C18.9202 69.1031 21.2882 67.4391 23.5282 66.4151C25.7682 65.3911 27.6882 64.8791 29.2882 64.8791C29.8642 64.8791 30.4402 65.0071 31.0162 65.2631C31.5922 65.5191 31.8482 65.8391 31.8482 66.2231C33.5762 64.3671 35.9442 61.9991 38.9522 59.1191C40.1682 60.0791 40.8082 61.1671 40.8082 62.3831C40.8082 63.1511 40.5522 63.9191 39.9762 64.6231C39.6562 65.0711 38.9522 65.9031 37.8002 67.1191C36.6482 68.3351 35.6882 69.4231 34.9202 70.3191C31.2722 74.7351 28.5842 78.7671 26.8562 82.4151ZM69.2532 78.3191V78.5751C72.3892 78.5751 73.9892 79.4711 73.9892 81.3271C73.9892 83.0551 72.8372 84.9111 70.5332 86.8311C68.2292 88.7511 65.0292 90.5431 60.8692 92.2711L60.9332 92.5911C62.7252 91.8871 64.5172 91.5671 66.3092 91.5671C68.9332 91.5671 70.2772 92.5911 70.2772 94.6391C70.2772 97.8391 68.6132 100.719 65.2852 103.279C61.9572 105.839 58.6292 107.119 55.3012 107.119C52.6772 107.119 50.5652 106.543 48.9652 105.327C47.3652 104.111 46.5972 102.255 46.6612 99.7591C48.1972 101.807 50.5012 102.831 53.6372 102.831C56.6452 102.831 59.3332 101.871 61.7012 99.8871C64.0692 97.9031 65.2852 95.9831 65.2852 94.1271C65.2852 93.2951 64.6452 92.8471 63.4292 92.8471C62.5972 92.8471 61.5092 93.1031 60.2292 93.5511C58.9492 93.9991 57.7972 94.6391 56.7092 95.4711C56.5172 94.8951 56.4532 94.5111 56.4532 94.3191C56.4532 93.7431 56.7732 93.2311 57.3492 92.7831C57.4772 92.7191 57.8612 92.4631 58.5012 92.0791C59.1412 91.6951 59.6532 91.3751 60.0372 91.1191C65.2852 87.7271 67.9092 84.4631 67.9092 81.3271C67.9092 80.3671 67.3972 79.9191 66.3092 79.9191C64.4532 79.9191 62.4052 81.0711 60.1012 83.3751C57.7972 85.6791 56.3252 87.9191 55.6852 90.0951C54.9172 89.2631 54.5332 88.3031 54.5332 87.2151C54.5332 85.0391 55.9412 82.9911 58.7572 81.1351C61.5732 79.2791 65.0932 78.3191 69.2532 78.3191ZM54.5332 81.7111L54.2772 81.8391C54.2772 82.6711 54.0212 83.5031 53.4452 84.3351C52.8692 85.1671 51.9732 86.0631 50.6932 87.0231C49.4132 87.9831 47.4932 88.8791 44.8692 89.7111C42.2452 90.5431 39.1732 91.1831 35.5892 91.6311C33.2212 95.2791 32.0052 98.4791 32.0052 101.231C32.0052 103.535 33.0292 104.687 35.0772 104.687C36.5492 104.687 38.2772 104.239 40.1972 103.343C42.1172 102.447 43.7812 101.231 45.2532 99.7591C45.5092 99.9511 45.6372 100.207 45.5732 100.591C45.5092 100.975 45.3812 101.295 45.1252 101.551C41.4772 104.815 37.1252 106.479 32.1332 106.479C30.2772 106.479 28.8692 106.031 27.8452 105.135C26.8212 104.239 26.3092 102.959 26.3092 101.231C26.3092 98.0951 27.5892 94.7031 30.2132 91.0551C32.8372 87.4071 36.0372 84.3991 39.8132 81.9671C43.5892 79.5351 47.0452 78.3191 50.1812 78.3191C53.0612 78.3191 54.5332 79.4711 54.5332 81.7111ZM36.2932 90.6071H36.1652C39.9412 89.9031 43.1412 88.6231 45.7652 86.7031C48.3892 84.7831 49.6692 82.9271 49.6692 81.0711C49.6692 80.3671 49.3492 80.0471 48.7092 80.0471C47.0452 80.0471 44.9332 81.2631 42.4372 83.6951C39.9412 86.1271 37.8932 88.4311 36.2932 90.6071ZM92.4022 62.4471V62.3831C93.8102 63.5351 94.5142 65.0071 94.5142 66.7351C94.5142 68.5911 93.8742 70.0631 92.5302 71.2151C91.1862 72.3671 89.5862 72.9431 87.7302 72.9431C86.8982 72.9431 85.9382 72.7511 84.8502 72.4311C86.4502 71.4071 88.1142 69.6791 89.8422 67.1831C90.4182 66.3511 90.9302 65.5191 91.3782 64.7511C91.8262 63.9831 92.0822 63.4071 92.2102 63.0231L92.4022 62.4471ZM81.8422 83.9511L81.7782 84.0151C82.3542 82.5431 82.6742 80.8151 82.6742 78.8311C84.9142 78.7671 86.5142 78.9591 87.4102 79.4071C88.3062 79.8551 88.7542 80.6231 88.7542 81.7111C88.7542 83.0551 87.7302 85.3591 85.6182 88.6231L79.2822 98.6071C77.1702 101.999 76.0822 104.495 76.0822 106.095C73.9062 105.199 72.9462 103.535 73.2022 101.103C73.3302 100.015 73.8422 98.6711 74.7382 97.1351L78.2582 91.1831C79.6662 88.7511 80.8822 86.3191 81.8422 83.9511ZM110.346 100.079L110.026 100.399C111.882 98.4151 114.634 96.0471 118.218 93.3591C121.802 90.6711 123.786 89.1991 124.106 88.8791C126.666 86.6391 128.458 84.1431 129.546 81.4551C130.122 80.1111 130.378 79.0231 130.378 78.1911V77.6151H130.634C133.386 77.6151 134.794 78.5111 134.794 80.3671C134.794 81.2631 134.282 82.6071 133.194 84.3991C132.106 86.1911 130.954 88.0471 129.674 89.9031C128.394 91.7591 127.242 93.9991 126.154 96.5591C125.066 99.1191 124.554 101.551 124.554 103.791C124.554 107.439 125.514 110.383 127.498 112.559C126.602 112.559 125.706 112.431 124.746 112.111C123.786 111.791 122.826 111.343 121.866 110.703C120.906 110.063 120.138 109.103 119.562 107.823C118.986 106.543 118.73 105.071 118.73 103.343C118.73 101.039 119.306 98.6711 120.458 96.2391C121.61 93.8071 122.89 91.7591 124.298 90.0951L120.33 93.1031C118.346 94.5751 117.002 95.6631 116.234 96.3031C115.466 96.9431 114.378 97.9671 112.906 99.3111C111.434 100.655 110.154 102.127 109.002 103.663C107.85 105.199 106.634 106.927 105.418 108.911C103.626 107.695 102.73 106.031 102.73 103.919C102.73 102.063 104.01 99.0551 106.57 94.9591C109.13 90.8631 110.666 87.9191 111.178 86.1911C109.066 88.8151 106.698 91.5031 104.074 94.3191C101.45 97.1351 98.5062 99.8231 95.3062 102.383C92.1062 104.943 89.6742 106.223 88.0742 106.223C86.2822 106.223 85.3862 105.391 85.3862 103.791C85.3862 102.703 85.7062 101.551 86.3462 100.399C86.9862 99.2471 87.8182 97.9031 88.9062 96.3671C89.9942 94.8311 90.7622 93.6151 91.2102 92.7831C92.2982 90.8631 92.9382 88.9431 93.1302 87.0231C94.4102 87.6631 95.3062 88.3671 95.8822 89.1351C96.4582 89.9031 96.7142 90.9271 96.7142 92.2711C96.7142 93.6151 96.2022 95.0231 95.1782 96.5591C94.1542 98.0951 93.1302 99.4391 92.1062 100.591C91.0822 101.743 90.5702 102.511 90.5702 102.895C90.5702 103.151 90.6982 103.279 90.8902 103.279C92.4902 103.279 95.8822 100.719 101.13 95.6631C106.378 90.6071 109.578 86.9591 110.794 84.7831C111.562 83.4391 111.946 82.1591 111.946 80.9431C111.946 80.1751 111.69 79.2791 111.178 78.3191C115.018 78.7671 116.938 80.5591 116.938 83.7591C116.938 84.8471 116.682 86.2551 116.106 87.9831C115.53 89.7111 114.954 91.1831 114.378 92.3991L112.01 96.9431C111.05 98.7991 110.474 99.8231 110.346 100.079ZM203.106 56.6231L202.722 56.5591C203.298 56.9431 203.618 57.7111 203.618 58.7991C203.618 61.9991 202.146 64.3671 199.202 65.9031C196.258 67.4391 192.29 68.2071 187.298 68.2071C186.082 68.2071 184.29 68.0791 181.922 67.8871C179.554 67.6951 177.89 67.5671 176.93 67.5671C174.882 67.5671 172.962 68.0791 171.17 69.1031C169.378 70.1271 167.138 72.1751 164.45 75.2471C163.874 75.8231 163.362 76.3991 162.914 77.0391C162.466 77.6791 161.954 78.3831 161.378 79.2151L160.162 81.0711L158.69 83.4391L157.282 85.6791C160.034 83.3111 162.338 81.6471 164.194 80.7511C166.05 79.8551 167.842 79.4071 169.57 79.4071C172.45 79.4071 173.922 81.1351 173.922 84.6551C173.922 86.6391 173.218 88.8791 171.81 91.3751C170.402 93.8711 168.61 96.1751 166.434 98.2871C164.258 100.399 161.762 102.191 158.946 103.663C156.13 105.135 153.442 105.839 150.818 105.839C149.218 105.839 147.874 105.391 146.722 104.495C145.57 103.599 144.994 102.127 144.994 100.143C144.994 97.9671 145.634 95.5351 146.978 92.9111C149.09 88.7511 151.586 85.0391 154.466 81.8391C157.346 78.6391 160.994 75.1831 165.41 71.5351C169.442 68.2711 173.218 65.9031 176.738 64.4311C180.258 62.9591 183.906 62.1911 187.682 62.1911C188.514 62.1911 189.282 62.1911 189.986 62.1911C190.69 62.1911 191.33 62.1911 191.842 62.1911C193.826 62.1911 195.362 62.1271 196.514 61.9991C197.666 61.8711 198.818 61.6151 199.906 61.2951C200.994 60.9751 201.826 60.3991 202.338 59.6311C202.85 58.8631 203.106 57.8391 203.106 56.6231ZM157.73 86.6391L157.474 86.5111C155.426 88.3671 153.378 90.9911 151.33 94.4471C149.282 97.9031 148.258 100.591 148.258 102.575C148.258 103.791 148.77 104.367 149.794 104.367C151.394 104.367 153.826 102.959 157.026 100.143C160.226 97.3271 163.106 94.1271 165.666 90.5431C168.226 86.9591 169.506 84.2071 169.506 82.3511C169.506 81.3271 169.058 80.8151 168.162 80.8151C166.626 80.8151 164.898 81.3911 162.978 82.6071C161.058 83.8231 159.33 85.1671 157.73 86.6391ZM199.168 81.6471V81.5831C198.656 81.1351 197.824 80.9431 196.736 80.9431C194.24 80.9431 190.848 83.1831 186.56 87.7271C184.64 89.7111 182.784 92.2071 180.992 95.2791C179.2 98.3511 178.304 100.719 178.304 102.447C178.304 103.407 178.688 103.855 179.52 103.855C180.224 103.855 181.184 103.343 182.4 102.383C183.616 101.423 184.896 100.207 186.24 98.7351C187.584 97.2631 188.8 95.7911 189.952 94.3831L193.152 90.4151L194.624 88.4951L197.504 84.5271C199.36 81.9671 200.384 80.5591 200.576 80.3671C201.28 79.5351 201.856 78.9591 202.304 78.6391C202.752 78.3191 203.264 78.1271 203.84 78.1271C205.504 78.1271 206.976 79.1511 208.192 81.2631C207.04 82.2231 205.44 83.8871 203.328 86.2551C196.864 93.6151 193.6 99.1831 193.6 102.959C193.6 103.471 193.792 103.919 194.112 104.303C194.432 104.687 194.88 104.879 195.456 104.879C196.288 104.879 197.248 104.623 198.336 104.047C197.312 105.711 195.776 106.543 193.664 106.543C192.448 106.543 191.424 106.095 190.656 105.263C189.888 104.431 189.504 103.279 189.504 101.807C189.504 99.6951 190.208 97.1991 191.68 94.3191C191.744 94.1271 191.744 93.9991 191.68 93.9351C191.616 93.8711 191.552 93.9351 191.488 94.0631C188.096 98.7351 185.28 101.999 183.04 103.855C180.8 105.711 178.816 106.607 177.088 106.607C175.808 106.607 174.848 106.159 174.144 105.263C173.44 104.367 173.12 103.151 173.12 101.551C173.12 99.7591 173.568 97.7751 174.464 95.6631C176.512 90.9271 179.712 86.8311 184 83.3751C188.288 79.9191 192.256 78.1911 195.84 78.1911C198.08 78.1911 199.168 79.2151 199.168 81.1991V81.6471ZM205.696 102.767L205.44 103.215C205.44 104.879 206.336 105.711 208.192 105.711C210.624 105.711 213.376 104.687 216.448 102.703C219.52 100.719 222.144 98.5431 224.32 96.2391C226.496 93.9351 228.16 91.8231 229.376 89.9671L229.568 90.2231L229.888 90.8631C230.016 91.1831 229.952 91.4391 229.76 91.6311C227.648 94.8951 224.384 98.2231 219.904 101.615C215.424 105.007 211.392 106.671 207.744 106.671C205.952 106.671 204.544 106.223 203.52 105.327C202.496 104.431 201.984 103.151 201.984 101.487C201.984 100.207 202.304 98.9271 202.944 97.7111C203.584 96.4951 204.48 95.3431 205.632 94.2551L206.848 93.1031L203.712 93.2311C203.776 92.1431 204.16 91.3751 204.8 90.9911C205.44 90.6071 206.592 90.4151 208.256 90.4151H210.24C210.752 90.0311 211.328 89.7111 211.968 89.2631L216.832 86.1271C220.224 83.6951 221.952 81.8391 221.952 80.6231C221.952 79.9191 221.44 79.5351 220.48 79.5351C218.24 79.5351 216 80.3671 213.76 82.0951C211.52 83.8231 209.92 85.5511 208.96 87.2791C208.576 87.2151 208.32 86.9591 208.192 86.5751C208.064 86.1911 208.128 85.8071 208.32 85.3591C209.152 83.8231 211.072 82.2231 214.08 80.5591C217.088 78.8951 219.776 78.0631 222.208 78.0631C225.088 78.0631 226.56 79.2791 226.56 81.7751C226.56 84.4631 224.128 87.4071 219.2 90.6071C223.104 90.4791 225.728 90.3511 226.944 90.1591C226.88 90.6711 226.496 91.0551 225.792 91.3111C224.192 91.8871 220.8 92.5271 215.488 92.9111L213.12 94.4471L210.752 96.0471C207.36 98.5431 205.696 100.783 205.696 102.767ZM234.517 77.9351L234.133 78.3191C234.389 78.2551 235.029 78.2551 235.989 78.2551C238.485 78.2551 239.765 79.1511 239.765 80.9431C239.765 81.5831 239.637 82.2231 239.381 82.9271C238.677 84.8471 237.141 87.4071 234.709 90.5431L228.117 99.0551C226.133 101.551 225.109 103.215 225.109 103.983C225.109 104.623 225.493 104.943 226.197 104.943C227.861 104.943 229.909 103.727 232.277 101.359C234.645 98.9911 235.861 96.2391 235.861 93.1031C235.861 92.3991 235.733 91.7591 235.477 91.1831C236.245 90.9271 237.013 90.7991 237.717 90.7991C238.805 90.7991 239.701 90.9911 240.405 91.3751C243.797 90.4791 246.933 89.0071 249.813 86.8951C254.229 81.0071 257.557 78.0631 259.797 78.0631C260.629 78.0631 261.333 78.1911 261.909 78.4471C262.485 78.7031 263.125 79.2791 263.829 80.1111C259.797 82.9911 256.085 87.0231 252.693 92.1431C249.301 97.2631 247.637 100.847 247.637 102.959C247.637 104.111 248.277 104.687 249.621 104.687C252.053 104.687 255.189 102.895 259.029 99.3111C262.869 95.7271 265.813 92.4631 267.797 89.4551C268.053 89.5191 268.245 89.7111 268.309 90.0311C268.373 90.3511 268.309 90.6711 268.117 90.9911C265.749 94.3191 262.613 97.6471 258.645 101.039C254.677 104.431 251.157 106.095 248.021 106.095C246.613 106.095 245.525 105.647 244.757 104.815C243.989 103.983 243.605 102.895 243.605 101.551C243.605 97.9031 245.333 93.5511 248.725 88.4951C246.805 89.8391 244.373 91.0551 241.365 92.1431C241.429 92.3351 241.493 92.6551 241.493 93.1031C241.429 95.0871 239.765 97.5831 236.501 100.591C232.853 103.983 229.269 105.647 225.813 105.647C223.381 105.647 222.165 104.623 222.165 102.575C222.165 101.679 222.613 100.463 223.445 98.9271C224.277 97.3911 225.621 95.2791 227.477 92.5271C229.333 89.7751 230.677 87.7271 231.509 86.3831C232.277 85.1671 232.981 83.6951 233.685 81.9671C234.389 80.2391 234.645 78.8951 234.517 77.9351ZM26.8562 138.415L26.3442 138.543C24.9362 137.711 24.2322 136.495 24.2322 134.831C24.2322 131.567 26.5362 127.535 31.0802 122.799C31.0162 122.479 30.6962 122.287 30.1202 122.287C28.0082 122.287 25.0642 124.143 21.2882 127.855C17.5122 131.567 14.0562 136.175 10.9202 141.743C7.78416 147.311 6.24816 152.239 6.24816 156.591C6.24816 159.855 7.78416 161.455 10.8562 161.455C12.8402 161.455 15.0162 160.751 17.4482 159.407C19.8802 158.063 21.7362 156.335 23.0802 154.287C23.5282 154.543 23.7202 154.863 23.7202 155.311C23.7202 156.463 22.1842 157.999 19.1122 159.983C16.0402 161.967 12.8402 162.927 9.57616 162.927C6.63216 162.927 4.39216 162.287 2.85616 161.007C1.32016 159.727 0.552156 157.807 0.552156 155.311C0.552156 151.151 2.08816 146.479 5.16016 141.359C8.23216 136.239 12.0082 131.631 16.4242 127.471C18.9202 125.103 21.2882 123.439 23.5282 122.415C25.7682 121.391 27.6882 120.879 29.2882 120.879C29.8642 120.879 30.4402 121.007 31.0162 121.263C31.5922 121.519 31.8482 121.839 31.8482 122.223C33.5762 120.367 35.9442 117.999 38.9522 115.119C40.1682 116.079 40.8082 117.167 40.8082 118.383C40.8082 119.151 40.5522 119.919 39.9762 120.623C39.6562 121.071 38.9522 121.903 37.8002 123.119C36.6482 124.335 35.6882 125.423 34.9202 126.319C31.2722 130.735 28.5842 134.767 26.8562 138.415ZM69.2532 134.319V134.575C72.3892 134.575 73.9892 135.471 73.9892 137.327C73.9892 139.055 72.8372 140.911 70.5332 142.831C68.2292 144.751 65.0292 146.543 60.8692 148.271L60.9332 148.591C62.7252 147.887 64.5172 147.567 66.3092 147.567C68.9332 147.567 70.2772 148.591 70.2772 150.639C70.2772 153.839 68.6132 156.719 65.2852 159.279C61.9572 161.839 58.6292 163.119 55.3012 163.119C52.6772 163.119 50.5652 162.543 48.9652 161.327C47.3652 160.111 46.5972 158.255 46.6612 155.759C48.1972 157.807 50.5012 158.831 53.6372 158.831C56.6452 158.831 59.3332 157.871 61.7012 155.887C64.0692 153.903 65.2852 151.983 65.2852 150.127C65.2852 149.295 64.6452 148.847 63.4292 148.847C62.5972 148.847 61.5092 149.103 60.2292 149.551C58.9492 149.999 57.7972 150.639 56.7092 151.471C56.5172 150.895 56.4532 150.511 56.4532 150.319C56.4532 149.743 56.7732 149.231 57.3492 148.783C57.4772 148.719 57.8612 148.463 58.5012 148.079C59.1412 147.695 59.6532 147.375 60.0372 147.119C65.2852 143.727 67.9092 140.463 67.9092 137.327C67.9092 136.367 67.3972 135.919 66.3092 135.919C64.4532 135.919 62.4052 137.071 60.1012 139.375C57.7972 141.679 56.3252 143.919 55.6852 146.095C54.9172 145.263 54.5332 144.303 54.5332 143.215C54.5332 141.039 55.9412 138.991 58.7572 137.135C61.5732 135.279 65.0932 134.319 69.2532 134.319ZM54.5332 137.711L54.2772 137.839C54.2772 138.671 54.0212 139.503 53.4452 140.335C52.8692 141.167 51.9732 142.063 50.6932 143.023C49.4132 143.983 47.4932 144.879 44.8692 145.711C42.2452 146.543 39.1732 147.183 35.5892 147.631C33.2212 151.279 32.0052 154.479 32.0052 157.231C32.0052 159.535 33.0292 160.687 35.0772 160.687C36.5492 160.687 38.2772 160.239 40.1972 159.343C42.1172 158.447 43.7812 157.231 45.2532 155.759C45.5092 155.951 45.6372 156.207 45.5732 156.591C45.5092 156.975 45.3812 157.295 45.1252 157.551C41.4772 160.815 37.1252 162.479 32.1332 162.479C30.2772 162.479 28.8692 162.031 27.8452 161.135C26.8212 160.239 26.3092 158.959 26.3092 157.231C26.3092 154.095 27.5892 150.703 30.2132 147.055C32.8372 143.407 36.0372 140.399 39.8132 137.967C43.5892 135.535 47.0452 134.319 50.1812 134.319C53.0612 134.319 54.5332 135.471 54.5332 137.711ZM36.2932 146.607H36.1652C39.9412 145.903 43.1412 144.623 45.7652 142.703C48.3892 140.783 49.6692 138.927 49.6692 137.071C49.6692 136.367 49.3492 136.047 48.7092 136.047C47.0452 136.047 44.9332 137.263 42.4372 139.695C39.9412 142.127 37.8932 144.431 36.2932 146.607ZM92.4022 118.447V118.383C93.8102 119.535 94.5142 121.007 94.5142 122.735C94.5142 124.591 93.8742 126.063 92.5302 127.215C91.1862 128.367 89.5862 128.943 87.7302 128.943C86.8982 128.943 85.9382 128.751 84.8502 128.431C86.4502 127.407 88.1142 125.679 89.8422 123.183C90.4182 122.351 90.9302 121.519 91.3782 120.751C91.8262 119.983 92.0822 119.407 92.2102 119.023L92.4022 118.447ZM81.8422 139.951L81.7782 140.015C82.3542 138.543 82.6742 136.815 82.6742 134.831C84.9142 134.767 86.5142 134.959 87.4102 135.407C88.3062 135.855 88.7542 136.623 88.7542 137.711C88.7542 139.055 87.7302 141.359 85.6182 144.623L79.2822 154.607C77.1702 157.999 76.0822 160.495 76.0822 162.095C73.9062 161.199 72.9462 159.535 73.2022 157.103C73.3302 156.015 73.8422 154.671 74.7382 153.135L78.2582 147.183C79.6662 144.751 80.8822 142.319 81.8422 139.951ZM110.346 156.079L110.026 156.399C111.882 154.415 114.634 152.047 118.218 149.359C121.802 146.671 123.786 145.199 124.106 144.879C126.666 142.639 128.458 140.143 129.546 137.455C130.122 136.111 130.378 135.023 130.378 134.191V133.615H130.634C133.386 133.615 134.794 134.511 134.794 136.367C134.794 137.263 134.282 138.607 133.194 140.399C132.106 142.191 130.954 144.047 129.674 145.903C128.394 147.759 127.242 149.999 126.154 152.559C125.066 155.119 124.554 157.551 124.554 159.791C124.554 163.439 125.514 166.383 127.498 168.559C126.602 168.559 125.706 168.431 124.746 168.111C123.786 167.791 122.826 167.343 121.866 166.703C120.906 166.063 120.138 165.103 119.562 163.823C118.986 162.543 118.73 161.071 118.73 159.343C118.73 157.039 119.306 154.671 120.458 152.239C121.61 149.807 122.89 147.759 124.298 146.095L120.33 149.103C118.346 150.575 117.002 151.663 116.234 152.303C115.466 152.943 114.378 153.967 112.906 155.311C111.434 156.655 110.154 158.127 109.002 159.663C107.85 161.199 106.634 162.927 105.418 164.911C103.626 163.695 102.73 162.031 102.73 159.919C102.73 158.063 104.01 155.055 106.57 150.959C109.13 146.863 110.666 143.919 111.178 142.191C109.066 144.815 106.698 147.503 104.074 150.319C101.45 153.135 98.5062 155.823 95.3062 158.383C92.1062 160.943 89.6742 162.223 88.0742 162.223C86.2822 162.223 85.3862 161.391 85.3862 159.791C85.3862 158.703 85.7062 157.551 86.3462 156.399C86.9862 155.247 87.8182 153.903 88.9062 152.367C89.9942 150.831 90.7622 149.615 91.2102 148.783C92.2982 146.863 92.9382 144.943 93.1302 143.023C94.4102 143.663 95.3062 144.367 95.8822 145.135C96.4582 145.903 96.7142 146.927 96.7142 148.271C96.7142 149.615 96.2022 151.023 95.1782 152.559C94.1542 154.095 93.1302 155.439 92.1062 156.591C91.0822 157.743 90.5702 158.511 90.5702 158.895C90.5702 159.151 90.6982 159.279 90.8902 159.279C92.4902 159.279 95.8822 156.719 101.13 151.663C106.378 146.607 109.578 142.959 110.794 140.783C111.562 139.439 111.946 138.159 111.946 136.943C111.946 136.175 111.69 135.279 111.178 134.319C115.018 134.767 116.938 136.559 116.938 139.759C116.938 140.847 116.682 142.255 116.106 143.983C115.53 145.711 114.954 147.183 114.378 148.399L112.01 152.943C111.05 154.799 110.474 155.823 110.346 156.079ZM203.106 112.623L202.722 112.559C203.298 112.943 203.618 113.711 203.618 114.799C203.618 117.999 202.146 120.367 199.202 121.903C196.258 123.439 192.29 124.207 187.298 124.207C186.082 124.207 184.29 124.079 181.922 123.887C179.554 123.695 177.89 123.567 176.93 123.567C174.882 123.567 172.962 124.079 171.17 125.103C169.378 126.127 167.138 128.175 164.45 131.247C163.874 131.823 163.362 132.399 162.914 133.039C162.466 133.679 161.954 134.383 161.378 135.215L160.162 137.071L158.69 139.439L157.282 141.679C160.034 139.311 162.338 137.647 164.194 136.751C166.05 135.855 167.842 135.407 169.57 135.407C172.45 135.407 173.922 137.135 173.922 140.655C173.922 142.639 173.218 144.879 171.81 147.375C170.402 149.871 168.61 152.175 166.434 154.287C164.258 156.399 161.762 158.191 158.946 159.663C156.13 161.135 153.442 161.839 150.818 161.839C149.218 161.839 147.874 161.391 146.722 160.495C145.57 159.599 144.994 158.127 144.994 156.143C144.994 153.967 145.634 151.535 146.978 148.911C149.09 144.751 151.586 141.039 154.466 137.839C157.346 134.639 160.994 131.183 165.41 127.535C169.442 124.271 173.218 121.903 176.738 120.431C180.258 118.959 183.906 118.191 187.682 118.191C188.514 118.191 189.282 118.191 189.986 118.191C190.69 118.191 191.33 118.191 191.842 118.191C193.826 118.191 195.362 118.127 196.514 117.999C197.666 117.871 198.818 117.615 199.906 117.295C200.994 116.975 201.826 116.399 202.338 115.631C202.85 114.863 203.106 113.839 203.106 112.623ZM157.73 142.639L157.474 142.511C155.426 144.367 153.378 146.991 151.33 150.447C149.282 153.903 148.258 156.591 148.258 158.575C148.258 159.791 148.77 160.367 149.794 160.367C151.394 160.367 153.826 158.959 157.026 156.143C160.226 153.327 163.106 150.127 165.666 146.543C168.226 142.959 169.506 140.207 169.506 138.351C169.506 137.327 169.058 136.815 168.162 136.815C166.626 136.815 164.898 137.391 162.978 138.607C161.058 139.823 159.33 141.167 157.73 142.639ZM199.168 137.647V137.583C198.656 137.135 197.824 136.943 196.736 136.943C194.24 136.943 190.848 139.183 186.56 143.727C184.64 145.711 182.784 148.207 180.992 151.279C179.2 154.351 178.304 156.719 178.304 158.447C178.304 159.407 178.688 159.855 179.52 159.855C180.224 159.855 181.184 159.343 182.4 158.383C183.616 157.423 184.896 156.207 186.24 154.735C187.584 153.263 188.8 151.791 189.952 150.383L193.152 146.415L194.624 144.495L197.504 140.527C199.36 137.967 200.384 136.559 200.576 136.367C201.28 135.535 201.856 134.959 202.304 134.639C202.752 134.319 203.264 134.127 203.84 134.127C205.504 134.127 206.976 135.151 208.192 137.263C207.04 138.223 205.44 139.887 203.328 142.255C196.864 149.615 193.6 155.183 193.6 158.959C193.6 159.471 193.792 159.919 194.112 160.303C194.432 160.687 194.88 160.879 195.456 160.879C196.288 160.879 197.248 160.623 198.336 160.047C197.312 161.711 195.776 162.543 193.664 162.543C192.448 162.543 191.424 162.095 190.656 161.263C189.888 160.431 189.504 159.279 189.504 157.807C189.504 155.695 190.208 153.199 191.68 150.319C191.744 150.127 191.744 149.999 191.68 149.935C191.616 149.871 191.552 149.935 191.488 150.063C188.096 154.735 185.28 157.999 183.04 159.855C180.8 161.711 178.816 162.607 177.088 162.607C175.808 162.607 174.848 162.159 174.144 161.263C173.44 160.367 173.12 159.151 173.12 157.551C173.12 155.759 173.568 153.775 174.464 151.663C176.512 146.927 179.712 142.831 184 139.375C188.288 135.919 192.256 134.191 195.84 134.191C198.08 134.191 199.168 135.215 199.168 137.199V137.647ZM205.696 158.767L205.44 159.215C205.44 160.879 206.336 161.711 208.192 161.711C210.624 161.711 213.376 160.687 216.448 158.703C219.52 156.719 222.144 154.543 224.32 152.239C226.496 149.935 228.16 147.823 229.376 145.967L229.568 146.223L229.888 146.863C230.016 147.183 229.952 147.439 229.76 147.631C227.648 150.895 224.384 154.223 219.904 157.615C215.424 161.007 211.392 162.671 207.744 162.671C205.952 162.671 204.544 162.223 203.52 161.327C202.496 160.431 201.984 159.151 201.984 157.487C201.984 156.207 202.304 154.927 202.944 153.711C203.584 152.495 204.48 151.343 205.632 150.255L206.848 149.103L203.712 149.231C203.776 148.143 204.16 147.375 204.8 146.991C205.44 146.607 206.592 146.415 208.256 146.415H210.24C210.752 146.031 211.328 145.711 211.968 145.263L216.832 142.127C220.224 139.695 221.952 137.839 221.952 136.623C221.952 135.919 221.44 135.535 220.48 135.535C218.24 135.535 216 136.367 213.76 138.095C211.52 139.823 209.92 141.551 208.96 143.279C208.576 143.215 208.32 142.959 208.192 142.575C208.064 142.191 208.128 141.807 208.32 141.359C209.152 139.823 211.072 138.223 214.08 136.559C217.088 134.895 219.776 134.063 222.208 134.063C225.088 134.063 226.56 135.279 226.56 137.775C226.56 140.463 224.128 143.407 219.2 146.607C223.104 146.479 225.728 146.351 226.944 146.159C226.88 146.671 226.496 147.055 225.792 147.311C224.192 147.887 220.8 148.527 215.488 148.911L213.12 150.447L210.752 152.047C207.36 154.543 205.696 156.783 205.696 158.767ZM234.517 133.935L234.133 134.319C234.389 134.255 235.029 134.255 235.989 134.255C238.485 134.255 239.765 135.151 239.765 136.943C239.765 137.583 239.637 138.223 239.381 138.927C238.677 140.847 237.141 143.407 234.709 146.543L228.117 155.055C226.133 157.551 225.109 159.215 225.109 159.983C225.109 160.623 225.493 160.943 226.197 160.943C227.861 160.943 229.909 159.727 232.277 157.359C234.645 154.991 235.861 152.239 235.861 149.103C235.861 148.399 235.733 147.759 235.477 147.183C236.245 146.927 237.013 146.799 237.717 146.799C238.805 146.799 239.701 146.991 240.405 147.375C243.797 146.479 246.933 145.007 249.813 142.895C254.229 137.007 257.557 134.063 259.797 134.063C260.629 134.063 261.333 134.191 261.909 134.447C262.485 134.703 263.125 135.279 263.829 136.111C259.797 138.991 256.085 143.023 252.693 148.143C249.301 153.263 247.637 156.847 247.637 158.959C247.637 160.111 248.277 160.687 249.621 160.687C252.053 160.687 255.189 158.895 259.029 155.311C262.869 151.727 265.813 148.463 267.797 145.455C268.053 145.519 268.245 145.711 268.309 146.031C268.373 146.351 268.309 146.671 268.117 146.991C265.749 150.319 262.613 153.647 258.645 157.039C254.677 160.431 251.157 162.095 248.021 162.095C246.613 162.095 245.525 161.647 244.757 160.815C243.989 159.983 243.605 158.895 243.605 157.551C243.605 153.903 245.333 149.551 248.725 144.495C246.805 145.839 244.373 147.055 241.365 148.143C241.429 148.335 241.493 148.655 241.493 149.103C241.429 151.087 239.765 153.583 236.501 156.591C232.853 159.983 229.269 161.647 225.813 161.647C223.381 161.647 222.165 160.623 222.165 158.575C222.165 157.679 222.613 156.463 223.445 154.927C224.277 153.391 225.621 151.279 227.477 148.527C229.333 145.775 230.677 143.727 231.509 142.383C232.277 141.167 232.981 139.695 233.685 137.967C234.389 136.239 234.645 134.895 234.517 133.935Z" fill="#7E1023"></path></svg> 