<?xml version="1.0" encoding="UTF-8"?> <svg xmlns="http://www.w3.org/2000/svg" width="293" height="119" viewBox="0 0 293 119" fill="none"><path d="M35.8323 41.016C38.2003 41.016 40.4403 39.928 46.1363 33.848C46.5203 33.4 46.9683 33.144 47.4803 33.144C47.8003 33.144 48.0563 33.208 48.2483 33.4C45.6243 37.88 43.3843 41.528 41.5283 44.28C39.8003 46.904 38.3283 49.016 37.1123 50.68C35.8963 52.344 34.4883 54.008 32.8243 55.672C31.1603 57.336 29.4963 58.552 27.8323 59.32C26.1683 60.088 24.3763 60.472 22.5203 60.472C20.1523 60.472 18.2963 59.768 16.9523 58.36C15.6083 56.952 14.9683 54.904 14.9683 52.28C14.9683 51.192 15.0963 50.168 15.3523 49.144C16.5683 52.344 19.1923 53.944 23.2243 53.944C25.0803 53.944 27.0643 53.432 29.1123 52.472C31.1603 51.512 32.9523 50.424 34.4243 49.144C35.8963 47.864 37.3683 46.392 38.8403 44.728C40.3123 43.064 41.4003 41.72 42.1043 40.696C42.8083 39.672 43.4483 38.776 43.9603 37.944C44.0243 37.752 43.9603 37.688 43.7683 37.752C43.7043 37.752 43.6403 37.752 43.5763 37.816C39.4163 42.232 35.8323 44.408 32.8243 44.408C29.3043 44.408 27.5123 42.168 26.3603 38.776C25.9123 37.56 25.4003 35.768 24.8243 33.464C24.2483 31.16 23.6723 29.24 23.0963 27.768C22.5203 26.296 21.8163 25.144 20.9203 24.312C15.9923 30.648 11.5123 37.112 7.48031 43.64C5.24031 42.808 4.08831 41.4 4.08831 39.352C4.08831 38.264 4.66431 36.856 5.81631 35.064C6.96831 33.272 8.50431 31.288 10.3603 29.048L16.1203 22.136C18.1043 19.768 20.0243 17.144 21.9443 14.264C23.8643 11.384 25.2723 8.696 26.2323 6.2C26.6803 4.92 26.9363 3.896 26.9363 3.192C26.9363 1.976 25.9763 1.4 24.1203 1.4C21.2403 1.4 18.1683 2.616 14.9683 4.984C11.7683 7.352 10.1683 10.104 10.1683 13.176C10.1683 14.968 11.0643 15.992 12.9203 16.248C12.5363 17.208 11.8323 17.656 10.7443 17.656C9.59231 17.656 8.69631 17.272 7.99231 16.568C7.28831 15.864 6.96831 14.904 6.96831 13.688C6.96831 10.168 8.82431 7.096 12.6003 4.408C16.3763 1.72 20.4083 0.375999 24.6963 0.375999L24.1203 0.631996C26.1683 0.631996 27.7043 1.08 28.7283 1.976C29.7523 2.872 30.2643 3.96 30.2643 5.304C30.2643 9.528 27.4483 15.288 21.8163 22.648L22.0723 22.84L29.5603 15.672C31.6083 13.816 33.9763 11.768 36.7283 9.528C39.4803 7.288 41.9763 5.56 44.2803 4.408C46.5843 3.256 48.6323 2.68 50.4243 2.68C52.7923 2.68 53.9443 3.768 53.9443 6.008C53.9443 7.736 52.9843 9.4 51.0003 11.064C49.0163 12.728 45.4323 15.16 40.1843 18.424C39.6083 17.464 39.2883 16.568 39.2883 15.736C39.2883 14.072 39.9923 12.6 41.4643 11.384C42.5523 10.424 43.8963 9.464 45.4323 8.504C46.9683 7.544 48.1203 6.776 48.8883 6.2C49.6563 5.624 50.0403 5.048 50.0403 4.472C50.0403 3.896 49.6563 3.704 48.8883 3.896C43.1283 5.56 34.7443 12.024 23.6723 23.352C25.4643 25.08 27.0003 27.32 28.2163 30.072L29.7523 33.336C30.9043 35.96 32.8243 41.016 35.8323 41.016ZM56.4273 56.12C56.4273 53.432 57.1313 50.36 58.6673 46.776L52.9073 47.032C52.9713 45.944 53.3553 45.176 53.9953 44.792C54.6353 44.408 55.7873 44.216 57.4513 44.216C58.4753 44.216 59.3073 44.152 59.9473 44.216C63.0833 38.136 68.0113 32.952 71.9153 27.256C72.1073 26.936 72.1073 26.744 71.9153 26.68C71.7873 26.616 71.6593 26.68 71.5313 26.808C69.6113 28.92 67.5633 31.096 65.3873 33.272C63.2113 35.448 60.6513 37.688 57.6433 39.992C54.6353 42.296 52.3953 43.448 50.9233 43.448C49.7073 43.448 48.6193 43 47.6593 42.04C49.4513 39.928 51.8833 36.216 55.0193 30.904C58.1553 25.592 59.6913 21.432 59.6913 18.36C59.6913 17.4 59.4993 16.44 59.1793 15.544L60.0753 15.352C61.0993 15.352 62.1233 15.608 63.1473 16.056C64.7473 16.888 65.5793 18.104 65.5793 19.768C65.5793 20.472 65.4513 21.24 65.1953 22.072C64.9393 22.904 64.5553 23.8 64.1073 24.696C63.6593 25.592 63.1473 26.552 62.5713 27.512C61.9953 28.472 61.3553 29.432 60.6513 30.392L58.7313 33.08C58.0913 33.912 57.4513 34.744 56.7473 35.576L55.0833 37.624L53.8673 39.096L53.2273 39.864C53.0353 40.056 52.9713 40.248 53.0353 40.44C53.0993 40.632 53.2273 40.696 53.4193 40.696C53.8673 40.696 54.9553 40.056 56.6833 38.776C58.4113 37.496 59.8833 36.28 61.0993 35.192C63.3393 33.208 65.7073 30.84 68.1393 28.088C70.5713 25.336 72.6833 22.84 74.4753 20.6C76.2673 18.36 77.3553 17.08 77.6753 16.76C78.5713 15.864 79.5313 15.416 80.6193 15.416C81.8353 15.416 83.1793 15.928 84.6513 16.888C79.4033 25.592 70.7633 35.384 65.3873 44.344C69.4193 44.216 71.9793 44.088 73.1953 43.896C73.1313 44.408 72.7473 44.792 72.0433 45.048C70.3793 45.624 67.7553 46.072 64.1713 46.392L63.5953 47.544C61.3553 51.832 60.2673 55.544 60.2673 58.744C60.2673 59.384 60.3313 59.96 60.3953 60.472L60.5873 61.56L60.6513 61.88C57.8993 61.432 56.5553 59.32 56.5553 55.544L56.4273 56.12ZM87.1583 41.912V41.976C89.2063 41.976 91.8303 40.568 95.0303 37.752C98.2303 34.936 101.046 31.736 103.478 28.152C105.91 24.568 107.126 21.816 107.126 19.896C107.126 18.936 106.55 18.424 105.462 18.424C103.926 18.424 101.046 20.408 96.8223 24.312C92.5983 28.216 89.4623 31.608 87.4143 34.488C85.9423 36.472 85.1743 38.328 85.1743 40.056C85.1743 41.272 85.8143 41.912 87.1583 41.912ZM92.7903 14.84V14.904C95.2223 14.904 96.4383 15.8 96.4383 17.656C96.4383 19.576 94.6463 23.096 91.0623 28.28C93.6863 25.592 95.7983 23.48 97.3983 22.008C98.9983 20.536 100.854 19.128 102.902 17.848C104.95 16.568 106.742 15.928 108.278 15.928C111.478 15.928 113.078 17.272 113.078 19.96C113.078 22.584 111.67 25.784 108.918 29.56C106.166 33.336 102.774 36.664 98.7423 39.544C94.7103 42.424 91.1263 43.832 87.9903 43.832C85.2383 43.832 83.8303 42.808 83.8303 40.824C83.8303 40.376 83.8943 39.864 83.9583 39.352C76.5983 49.144 71.3503 56.76 68.2783 62.2C67.0623 61.368 66.4863 60.216 66.4863 58.744C66.4863 57.656 66.8703 56.504 67.5743 55.288C67.8943 54.776 69.9423 51.768 73.7183 46.328C77.4943 40.888 81.0143 35.448 84.3423 30.072C87.6703 24.696 89.6543 20.792 90.2303 18.296C90.4863 17.208 90.6143 16.12 90.6143 15.032C91.3183 14.904 92.0223 14.84 92.7903 14.84ZM131.857 37.88L131.729 38.264C133.265 36.664 134.865 35.128 136.593 33.72L141.841 29.56C143.633 28.216 144.913 27.192 145.681 26.552C148.433 24.184 150.289 21.56 151.249 18.744C151.761 17.208 152.017 16.12 152.017 15.416C155.089 15.48 156.625 16.376 156.625 18.04C156.625 19.192 156.049 20.728 154.897 22.648C153.745 24.568 152.529 26.488 151.185 28.344C149.841 30.2 148.625 32.376 147.473 34.872C146.321 37.368 145.745 39.672 145.745 41.784C145.745 43.192 146.001 44.216 146.449 44.856C146.193 44.92 145.809 44.92 145.361 44.92C143.569 44.92 142.161 44.536 141.201 43.768C140.241 43 139.729 41.848 139.729 40.376C139.729 36.6 142.033 32.248 146.641 27.32L142.417 30.584C140.561 32.056 139.217 33.144 138.321 33.912L134.929 36.92C133.521 38.2 132.241 39.544 131.089 40.952C129.937 42.36 128.785 43.96 127.633 45.752C126.033 44.664 125.201 43.256 125.201 41.592C125.201 39.736 126.353 36.856 128.593 33.016C130.833 29.176 132.241 26.488 132.817 24.952L125.713 32.76C123.281 35.256 120.465 37.816 117.265 40.376C114.065 42.936 111.633 44.216 110.033 44.216C109.201 44.216 108.561 43.96 108.113 43.512C107.665 43.064 107.473 42.424 107.473 41.592C107.473 40.632 107.729 39.608 108.305 38.52C108.881 37.432 109.841 35.96 111.249 34.104L113.873 30.648C115.345 28.472 116.113 26.616 116.177 25.08C118.481 26.104 119.633 27.512 119.633 29.368C119.633 30.712 119.057 32.248 117.841 33.976C116.625 35.704 115.409 37.24 114.193 38.52C112.977 39.8 112.401 40.632 112.401 41.016C112.401 41.272 112.465 41.4 112.593 41.4C114.065 41.4 117.457 38.84 122.769 33.72C128.081 28.6 131.473 24.888 132.881 22.648C133.969 20.92 134.481 19.256 134.481 17.592C134.481 17.016 134.417 16.312 134.225 15.544C136.081 15.8 137.425 16.312 138.193 17.08C138.961 17.848 139.345 18.936 139.345 20.408C139.345 23.288 136.849 29.112 131.857 37.88ZM181.44 19.128L181.312 19.256C181.312 20.088 181.056 20.92 180.48 21.752C179.904 22.584 179.008 23.48 177.728 24.44C176.448 25.4 174.528 26.296 171.904 27.128C169.28 27.96 166.208 28.6 162.624 29.048C160.256 32.696 159.04 35.896 159.04 38.648C159.04 40.888 160.128 42.04 162.304 42.04C165.696 42.04 169.536 40.312 173.824 36.92C178.112 33.528 181.248 30.456 183.168 27.768C183.424 27.96 183.552 28.216 183.552 28.6C183.552 28.984 183.488 29.304 183.296 29.624C180.16 33.4 176.384 36.728 171.968 39.608C167.552 42.488 163.264 43.896 159.04 43.896C157.184 43.896 155.776 43.448 154.752 42.552C153.728 41.656 153.216 40.376 153.216 38.648C153.216 35.512 154.496 32.12 157.12 28.472C159.744 24.824 162.944 21.816 166.72 19.384C170.496 16.952 173.952 15.736 177.088 15.736C179.968 15.736 181.44 16.888 181.44 19.128ZM163.328 28.024H163.2C166.976 27.32 170.176 26.04 172.8 24.12C175.424 22.2 176.704 20.344 176.704 18.488C176.704 17.784 176.384 17.464 175.744 17.464C174.08 17.464 171.968 18.68 169.472 21.112C166.976 23.544 164.928 25.848 163.328 28.024ZM188.494 15.16L188.75 15.864C191.758 15.864 193.294 17.016 193.294 19.32C193.294 20.728 192.782 22.392 191.758 24.312C190.734 26.232 189.774 27.832 188.814 29.048L187.278 30.84C188.878 29.304 191.502 27.064 195.15 24.12C198.798 21.176 201.678 19.064 203.79 17.848C205.262 17.016 206.478 16.568 207.374 16.568C208.846 16.568 210.062 17.336 210.958 18.872C208.974 20.6 206.542 23.224 203.598 26.744C200.654 30.264 198.414 33.272 196.942 35.768C200.654 31.608 205.518 27.32 211.47 22.84C217.422 18.36 221.39 16.12 223.374 16.12C224.846 16.12 226.062 17.016 227.086 18.808C227.022 18.872 226.638 19.192 225.934 19.832L223.566 22.008L220.558 24.952C219.406 26.104 218.318 27.32 217.294 28.536C216.27 29.752 215.31 31.032 214.414 32.312C213.518 33.592 212.814 34.872 212.302 36.152C211.79 37.432 211.534 38.584 211.534 39.608C211.534 41.464 212.366 42.36 213.966 42.36C215.374 42.36 217.038 41.72 218.894 40.504C220.75 39.288 222.542 37.752 224.27 35.96C225.998 34.168 227.342 32.632 228.366 31.416C229.39 30.2 230.222 29.112 230.862 28.216C231.118 28.344 231.246 28.6 231.31 28.92C231.374 29.24 231.246 29.624 230.99 30.008L229.646 31.736C229.134 32.312 228.11 33.4 226.574 35C225.038 36.6 223.566 38.008 222.158 39.16C220.75 40.312 219.15 41.336 217.358 42.296C215.566 43.256 213.966 43.704 212.494 43.704C211.086 43.704 209.934 43.192 208.974 42.232C208.014 41.272 207.566 39.864 207.566 38.008C207.566 36.536 207.95 34.872 208.718 33.016C209.486 31.16 210.382 29.432 211.47 27.832C212.558 26.232 213.518 24.952 214.286 23.992C215.054 23.032 215.694 22.264 216.142 21.752C216.334 21.56 216.398 21.368 216.398 21.24C216.398 21.112 216.334 21.048 216.206 21.048C216.078 21.048 215.95 21.048 215.822 21.112C214.222 21.944 211.278 24.12 206.99 27.64C202.702 31.16 199.118 34.744 196.238 38.392C194.638 40.376 193.486 42.104 192.718 43.576C191.95 43.512 191.374 43.256 190.99 42.808C190.606 42.36 190.414 41.912 190.414 41.4C190.414 40.312 190.926 38.776 192.014 36.728C193.23 34.488 194.574 32.248 196.046 30.008C197.518 27.768 198.798 25.848 199.886 24.312C200.974 22.776 201.55 21.944 201.614 21.88C201.678 21.752 201.678 21.624 201.614 21.496C201.55 21.368 201.422 21.304 201.294 21.304C200.91 21.304 199.63 22.072 197.518 23.608C195.406 25.144 192.846 27.256 189.774 29.944C186.702 32.632 184.142 35.256 182.03 37.752C179.534 40.76 177.934 42.872 177.23 44.088C175.95 43.512 175.31 42.744 175.31 41.784C175.31 41.208 175.63 40.376 176.27 39.288C176.91 38.2 177.998 36.536 179.47 34.296C180.942 32.056 182.222 30.008 183.31 28.152C185.294 24.76 186.574 22.264 187.15 20.728C187.726 19.192 188.174 17.336 188.494 15.16ZM216.334 11.704V11.832C215.758 11.832 214.158 11.768 211.534 11.576C208.91 11.384 206.67 11.32 204.878 11.32C200.334 11.32 197.198 12.152 195.406 13.816C195.214 13.176 195.086 12.6 195.086 12.024C195.086 10.552 195.662 9.272 196.75 8.184C197.838 7.096 199.31 6.584 201.102 6.584C203.47 6.584 206.542 6.84 210.382 7.416C214.222 7.992 216.974 8.248 218.638 8.248C222.606 8.248 225.102 7.8 226.19 6.84C226.062 8.44 225.102 9.656 223.246 10.488C221.39 11.32 219.086 11.704 216.334 11.704ZM235.119 15.16L235.375 15.864C238.383 15.864 239.919 17.016 239.919 19.32C239.919 20.728 239.407 22.392 238.383 24.312C237.359 26.232 236.399 27.832 235.439 29.048L233.903 30.84C235.503 29.304 238.127 27.064 241.775 24.12C245.423 21.176 248.303 19.064 250.415 17.848C251.887 17.016 253.103 16.568 253.999 16.568C255.471 16.568 256.687 17.336 257.583 18.872C255.599 20.6 253.167 23.224 250.223 26.744C247.279 30.264 245.039 33.272 243.567 35.768C247.279 31.608 252.143 27.32 258.095 22.84C264.047 18.36 268.015 16.12 269.999 16.12C271.471 16.12 272.687 17.016 273.711 18.808C273.647 18.872 273.263 19.192 272.559 19.832L270.191 22.008L267.183 24.952C266.031 26.104 264.943 27.32 263.919 28.536C262.895 29.752 261.935 31.032 261.039 32.312C260.143 33.592 259.439 34.872 258.927 36.152C258.415 37.432 258.159 38.584 258.159 39.608C258.159 41.464 258.991 42.36 260.591 42.36C261.999 42.36 263.663 41.72 265.519 40.504C267.375 39.288 269.167 37.752 270.895 35.96C272.623 34.168 273.967 32.632 274.991 31.416C276.015 30.2 276.847 29.112 277.487 28.216C277.743 28.344 277.871 28.6 277.935 28.92C277.999 29.24 277.871 29.624 277.615 30.008L276.271 31.736C275.759 32.312 274.735 33.4 273.199 35C271.663 36.6 270.191 38.008 268.783 39.16C267.375 40.312 265.775 41.336 263.983 42.296C262.191 43.256 260.591 43.704 259.119 43.704C257.711 43.704 256.559 43.192 255.599 42.232C254.639 41.272 254.191 39.864 254.191 38.008C254.191 36.536 254.575 34.872 255.343 33.016C256.111 31.16 257.007 29.432 258.095 27.832C259.183 26.232 260.143 24.952 260.911 23.992C261.679 23.032 262.319 22.264 262.767 21.752C262.959 21.56 263.023 21.368 263.023 21.24C263.023 21.112 262.959 21.048 262.831 21.048C262.703 21.048 262.575 21.048 262.447 21.112C260.847 21.944 257.903 24.12 253.615 27.64C249.327 31.16 245.743 34.744 242.863 38.392C241.263 40.376 240.111 42.104 239.343 43.576C238.575 43.512 237.999 43.256 237.615 42.808C237.231 42.36 237.039 41.912 237.039 41.4C237.039 40.312 237.551 38.776 238.639 36.728C239.855 34.488 241.199 32.248 242.671 30.008C244.143 27.768 245.423 25.848 246.511 24.312C247.599 22.776 248.175 21.944 248.239 21.88C248.303 21.752 248.303 21.624 248.239 21.496C248.175 21.368 248.047 21.304 247.919 21.304C247.535 21.304 246.255 22.072 244.143 23.608C242.031 25.144 239.471 27.256 236.399 29.944C233.327 32.632 230.767 35.256 228.655 37.752C226.159 40.76 224.559 42.872 223.855 44.088C222.575 43.512 221.935 42.744 221.935 41.784C221.935 41.208 222.255 40.376 222.895 39.288C223.535 38.2 224.623 36.536 226.095 34.296C227.567 32.056 228.847 30.008 229.935 28.152C231.919 24.76 233.199 22.264 233.775 20.728C234.351 19.192 234.799 17.336 235.119 15.16ZM262.959 11.704V11.832C262.383 11.832 260.783 11.768 258.159 11.576C255.535 11.384 253.295 11.32 251.503 11.32C246.959 11.32 243.823 12.152 242.031 13.816C241.839 13.176 241.711 12.6 241.711 12.024C241.711 10.552 242.287 9.272 243.375 8.184C244.463 7.096 245.935 6.584 247.727 6.584C250.095 6.584 253.167 6.84 257.007 7.416C260.847 7.992 263.599 8.248 265.263 8.248C269.231 8.248 271.727 7.8 272.815 6.84C272.687 8.44 271.727 9.656 269.871 10.488C268.015 11.32 265.711 11.704 262.959 11.704ZM290 0.119999V0.0559998C291.408 1.208 292.112 2.68 292.112 4.408C292.112 6.264 291.472 7.736 290.128 8.888C288.784 10.04 287.184 10.616 285.328 10.616C284.496 10.616 283.536 10.424 282.448 10.104C284.048 9.08 285.712 7.352 287.44 4.856C288.016 4.024 288.528 3.192 288.976 2.424C289.424 1.656 289.68 1.08 289.808 0.695999L290 0.119999ZM279.44 21.624L279.376 21.688C279.952 20.216 280.272 18.488 280.272 16.504C282.512 16.44 284.112 16.632 285.008 17.08C285.904 17.528 286.352 18.296 286.352 19.384C286.352 20.728 285.328 23.032 283.216 26.296L276.88 36.28C274.768 39.672 273.68 42.168 273.68 43.768C271.504 42.872 270.544 41.208 270.8 38.776C270.928 37.688 271.44 36.344 272.336 34.808L275.856 28.856C277.264 26.424 278.48 23.992 279.44 21.624ZM18.0168 89.528C18.7848 91.256 20.5768 97.848 23.1368 97.848C24.7368 97.848 25.7608 97.4 28.3208 94.392H27.9368C29.1528 93.048 29.9848 92.344 30.4328 92.344C30.6248 92.344 30.7528 92.344 30.8808 92.408L31.1368 92.6L31.2008 92.664C29.9848 93.752 28.0008 96.056 25.3128 99.64C22.4968 103.224 19.8088 106.104 17.1848 108.344C14.5608 110.584 11.8088 111.672 8.92881 111.672C7.45681 111.672 6.24081 111.288 5.34481 110.584C4.44881 109.88 4.00081 108.792 4.00081 107.32C4.00081 105.592 4.64081 103.928 5.85681 102.328C6.04881 103.864 6.62481 105.016 7.64881 105.784C8.67281 106.552 9.88881 106.936 11.2968 106.936C15.5848 106.936 20.4488 103.928 25.8888 97.912C24.1608 99.512 22.4968 100.28 20.8968 100.28C18.7848 100.28 17.4408 99.512 15.4568 94.008L14.3048 90.744C13.8568 89.4 13.0248 88.568 11.7448 88.248C10.7848 89.336 9.05681 91.384 6.56081 94.392C4.44881 97.016 3.10481 98.936 2.52881 100.088C1.31281 99.512 0.672812 98.552 0.672812 97.208C0.672812 96.376 1.05681 95.352 1.76081 94.2C2.20881 93.496 3.68081 91.512 6.17681 88.184C8.67281 84.856 10.5928 81.912 11.8728 79.416C13.1528 76.92 13.7928 74.488 13.7928 72.248C15.6488 72.248 19.1688 72.312 19.1688 75.128C19.1688 76.728 18.5928 78.52 17.3768 80.504C16.1608 82.488 14.8168 84.28 13.3448 85.88C13.2168 86.072 13.2168 86.136 13.2808 86.136C13.3448 86.136 13.4728 86.072 13.6008 86.008C19.6168 81.208 23.3928 78.264 24.8648 77.176C26.3368 76.088 28.1288 75 30.3048 73.848C32.4808 72.696 34.1448 72.12 35.3608 72.12C36.7048 72.12 37.4088 72.632 37.4088 73.656C37.4088 74.168 37.1528 74.808 36.7048 75.576C36.2568 76.344 35.4888 77.24 34.4008 78.328C33.3128 79.416 32.3528 80.312 31.5208 81.016L27.9368 84.216L24.6728 87.096C23.5848 86.456 23.0728 85.56 23.0728 84.472C23.0728 83.192 23.8408 81.912 25.3128 80.696C26.0168 80.12 27.1688 79.352 28.7048 78.392C30.2408 77.432 31.4568 76.6 32.4168 75.896C33.3768 75.192 33.8248 74.68 33.8248 74.36C33.8248 74.168 33.6968 74.104 33.3768 74.104C32.6088 74.104 31.0728 74.808 28.7048 76.216C26.3368 77.624 24.1608 79.032 22.1768 80.504L14.5608 86.52C15.9048 86.904 17.2488 87.8 18.0168 89.528ZM59.1333 80.184L58.7493 80.376C58.7493 81.976 58.0453 83.896 56.6373 86.2C55.2293 88.504 53.5013 90.744 51.3893 92.856C49.2773 94.968 46.9733 96.76 44.4133 98.232C41.8533 99.704 39.5493 100.472 37.5013 100.472C36.0293 100.472 34.8773 100.024 34.1093 99.128C33.3413 98.232 32.9573 96.952 32.9573 95.288C32.9573 92.088 34.1093 88.632 36.3493 84.92C38.5893 81.208 41.5973 78.008 45.3093 75.384C49.0213 72.76 52.6693 71.416 56.2533 71.416C58.4933 71.416 59.6453 72.376 59.6453 74.232C59.6453 74.296 59.6453 74.36 59.6453 74.488C59.6453 74.616 59.6453 74.744 59.6453 74.808C59.0693 74.36 58.2373 74.168 57.2133 74.168C55.0373 74.168 52.4133 75.512 49.3413 78.136C46.2693 80.76 43.6453 83.896 41.4053 87.544C39.1653 91.192 38.0773 94.264 38.0773 96.76C38.0773 97.976 38.7173 98.616 39.9973 98.616C41.7893 98.616 44.0293 97.272 46.7813 94.52C49.5333 91.768 51.9013 88.632 53.9493 85.176C55.9973 81.72 57.0213 78.968 57.0213 76.92C58.4293 77.496 59.1333 78.584 59.1333 80.184ZM75.1793 75.576L75.0513 75.384C75.0513 76.472 74.6033 77.88 73.6433 79.608C72.6833 81.336 71.7233 82.744 70.7633 83.896L69.3553 85.688C73.1953 85.112 75.7553 84.664 77.0993 84.28C78.2513 82.936 79.7873 80.824 81.6433 77.944C83.4993 75.064 84.5873 72.888 84.8433 71.416C86.1873 71.608 87.3393 71.992 88.2993 72.568C89.2593 73.144 89.7713 73.912 89.7713 74.936C89.7713 75.896 89.0673 77.368 87.7233 79.352C86.3793 81.336 84.6513 83.64 82.5393 86.264C80.4273 88.888 78.9553 90.872 78.0593 92.28C76.8433 94.2 76.2673 95.736 76.2673 96.888C76.2673 97.848 76.7153 98.36 77.6753 98.36C79.9153 98.36 83.0513 96.376 87.0833 92.408C91.1153 88.44 93.7393 85.432 94.9553 83.384C95.2753 83.576 95.4673 83.896 95.4673 84.28C95.4673 84.728 95.2753 85.24 94.8913 85.816C94.5073 86.392 93.7393 87.288 92.5873 88.568C91.4353 89.848 89.8993 91.384 87.9793 93.24C86.0593 95.096 83.9473 96.696 81.7073 98.04C79.4673 99.384 77.4833 100.024 75.7553 100.024C74.4113 100.024 73.3873 99.64 72.6193 98.936C71.8513 98.232 71.4673 97.272 71.4673 96.056C71.4673 93.56 73.1313 90.104 76.4593 85.688C71.7873 86.584 69.0993 87.096 68.3953 87.224C63.5953 92.664 60.1393 97.208 57.9633 100.856C56.6193 100.344 55.9153 99.448 55.9153 98.232C55.9153 97.848 56.0433 97.4 56.2353 96.888C56.4273 96.376 56.8113 95.672 57.3233 94.84C57.8353 94.008 58.2833 93.304 58.6033 92.792L60.4593 90.04L62.3153 87.288C63.7873 85.048 64.8753 83.32 65.5793 82.104C66.2833 80.888 67.1153 79.288 68.0113 77.304C68.9073 75.32 69.3553 73.72 69.3553 72.504C69.3553 72.184 69.3553 71.992 69.2913 71.864C71.4033 71.928 72.9393 72.248 73.8353 72.888C74.7313 73.528 75.1793 74.424 75.1793 75.576ZM114.266 75.32L114.522 75.576C114.01 75.128 113.178 74.936 112.09 74.936C109.594 74.936 106.202 77.176 101.914 81.72C99.9938 83.704 98.1378 86.2 96.3458 89.272C94.5538 92.344 93.6578 94.712 93.6578 96.44C93.6578 97.4 94.0418 97.848 94.8738 97.848C95.5778 97.848 96.5378 97.336 97.7538 96.376C98.9698 95.416 100.25 94.2 101.594 92.728C102.938 91.256 104.154 89.784 105.306 88.376L108.506 84.408L109.978 82.488C110.042 82.424 111.002 81.08 112.858 78.52C114.714 75.96 115.738 74.552 115.93 74.36C116.634 73.528 117.21 72.952 117.658 72.632C118.106 72.312 118.618 72.12 119.194 72.12C120.858 72.12 122.33 73.144 123.546 75.256C122.394 76.216 120.794 77.88 118.682 80.248C116.506 82.744 114.33 85.624 112.154 88.888C109.978 92.152 108.89 94.776 108.89 96.76C108.89 98.168 109.466 98.872 110.682 98.872C112.922 98.872 116.186 96.76 120.41 92.6C124.634 88.44 127.386 85.304 128.602 83.192C128.922 83.32 129.114 83.576 129.114 83.96C129.114 84.344 129.05 84.728 128.858 85.048C128.538 85.496 127.706 86.456 126.362 87.928C125.018 89.4 123.418 91.128 121.498 93.048C119.578 94.968 117.466 96.696 115.162 98.168C112.858 99.64 110.874 100.344 109.21 100.344C107.802 100.344 106.714 99.896 105.946 99.064C105.178 98.232 104.794 97.016 104.794 95.48C104.794 93.368 105.562 90.616 107.162 87.224C103.834 91.704 101.21 94.84 99.2258 96.632C96.5378 99.064 94.1698 100.28 92.1858 100.28C90.9058 100.28 89.9458 99.832 89.2418 98.936C88.5378 98.04 88.2178 96.824 88.2178 95.224C88.2178 93.432 88.6658 91.448 89.5618 89.336C91.6098 84.6 94.8098 80.504 99.0978 77.048C103.386 73.592 107.354 71.864 110.938 71.864C113.178 71.864 114.266 72.888 114.266 74.872V75.32ZM136.892 89.528C137.66 91.256 139.452 97.848 142.012 97.848C143.612 97.848 144.636 97.4 147.196 94.392H146.812C148.028 93.048 148.86 92.344 149.308 92.344C149.5 92.344 149.628 92.344 149.756 92.408L150.012 92.6L150.076 92.664C148.86 93.752 146.876 96.056 144.188 99.64C141.372 103.224 138.684 106.104 136.06 108.344C133.436 110.584 130.684 111.672 127.804 111.672C126.332 111.672 125.116 111.288 124.22 110.584C123.324 109.88 122.876 108.792 122.876 107.32C122.876 105.592 123.516 103.928 124.732 102.328C124.924 103.864 125.5 105.016 126.524 105.784C127.548 106.552 128.764 106.936 130.172 106.936C134.46 106.936 139.324 103.928 144.764 97.912C143.036 99.512 141.372 100.28 139.772 100.28C137.66 100.28 136.316 99.512 134.332 94.008L133.18 90.744C132.732 89.4 131.9 88.568 130.62 88.248C129.66 89.336 127.932 91.384 125.436 94.392C123.324 97.016 121.98 98.936 121.404 100.088C120.188 99.512 119.548 98.552 119.548 97.208C119.548 96.376 119.932 95.352 120.636 94.2C121.084 93.496 122.556 91.512 125.052 88.184C127.548 84.856 129.468 81.912 130.748 79.416C132.028 76.92 132.668 74.488 132.668 72.248C134.524 72.248 138.044 72.312 138.044 75.128C138.044 76.728 137.468 78.52 136.252 80.504C135.036 82.488 133.692 84.28 132.22 85.88C132.092 86.072 132.092 86.136 132.156 86.136C132.22 86.136 132.348 86.072 132.476 86.008C138.492 81.208 142.268 78.264 143.74 77.176C145.212 76.088 147.004 75 149.18 73.848C151.356 72.696 153.02 72.12 154.236 72.12C155.58 72.12 156.284 72.632 156.284 73.656C156.284 74.168 156.028 74.808 155.58 75.576C155.132 76.344 154.364 77.24 153.276 78.328C152.188 79.416 151.228 80.312 150.396 81.016L146.812 84.216L143.548 87.096C142.46 86.456 141.948 85.56 141.948 84.472C141.948 83.192 142.716 81.912 144.188 80.696C144.892 80.12 146.044 79.352 147.58 78.392C149.116 77.432 150.332 76.6 151.292 75.896C152.252 75.192 152.7 74.68 152.7 74.36C152.7 74.168 152.572 74.104 152.252 74.104C151.484 74.104 149.948 74.808 147.58 76.216C145.212 77.624 143.036 79.032 141.052 80.504L133.436 86.52C134.78 86.904 136.124 87.8 136.892 89.528ZM164.056 71.16L164.312 71.864C167.32 71.864 168.856 73.016 168.856 75.32C168.856 76.728 168.344 78.392 167.32 80.312C166.296 82.232 165.336 83.832 164.376 85.048L162.84 86.84C164.44 85.304 167.064 83.064 170.712 80.12C174.36 77.176 177.24 75.064 179.352 73.848C180.824 73.016 182.04 72.568 182.936 72.568C184.408 72.568 185.624 73.336 186.52 74.872C184.536 76.6 182.104 79.224 179.16 82.744C176.216 86.264 173.976 89.272 172.504 91.768C176.216 87.608 181.08 83.32 187.032 78.84C192.984 74.36 196.952 72.12 198.936 72.12C200.408 72.12 201.624 73.016 202.648 74.808C202.584 74.872 202.2 75.192 201.496 75.832L199.128 78.008L196.12 80.952C194.968 82.104 193.88 83.32 192.856 84.536C191.832 85.752 190.872 87.032 189.976 88.312C189.08 89.592 188.376 90.872 187.864 92.152C187.352 93.432 187.096 94.584 187.096 95.608C187.096 97.464 187.928 98.36 189.528 98.36C190.936 98.36 192.6 97.72 194.456 96.504C196.312 95.288 198.104 93.752 199.832 91.96C201.56 90.168 202.904 88.632 203.928 87.416C204.952 86.2 205.784 85.112 206.424 84.216C206.68 84.344 206.808 84.6 206.872 84.92C206.936 85.24 206.808 85.624 206.552 86.008L205.208 87.736C204.696 88.312 203.672 89.4 202.136 91C200.6 92.6 199.128 94.008 197.72 95.16C196.312 96.312 194.712 97.336 192.92 98.296C191.128 99.256 189.528 99.704 188.056 99.704C186.648 99.704 185.496 99.192 184.536 98.232C183.576 97.272 183.128 95.864 183.128 94.008C183.128 92.536 183.512 90.872 184.28 89.016C185.048 87.16 185.944 85.432 187.032 83.832C188.12 82.232 189.08 80.952 189.848 79.992C190.616 79.032 191.256 78.264 191.704 77.752C191.896 77.56 191.96 77.368 191.96 77.24C191.96 77.112 191.896 77.048 191.768 77.048C191.64 77.048 191.512 77.048 191.384 77.112C189.784 77.944 186.84 80.12 182.552 83.64C178.264 87.16 174.68 90.744 171.8 94.392C170.2 96.376 169.048 98.104 168.28 99.576C167.512 99.512 166.936 99.256 166.552 98.808C166.168 98.36 165.976 97.912 165.976 97.4C165.976 96.312 166.488 94.776 167.576 92.728C168.792 90.488 170.136 88.248 171.608 86.008C173.08 83.768 174.36 81.848 175.448 80.312C176.536 78.776 177.112 77.944 177.176 77.88C177.24 77.752 177.24 77.624 177.176 77.496C177.112 77.368 176.984 77.304 176.856 77.304C176.472 77.304 175.192 78.072 173.08 79.608C170.968 81.144 168.408 83.256 165.336 85.944C162.264 88.632 159.704 91.256 157.592 93.752C155.096 96.76 153.496 98.872 152.792 100.088C151.512 99.512 150.872 98.744 150.872 97.784C150.872 97.208 151.192 96.376 151.832 95.288C152.472 94.2 153.56 92.536 155.032 90.296C156.504 88.056 157.784 86.008 158.872 84.152C160.856 80.76 162.136 78.264 162.712 76.728C163.288 75.192 163.736 73.336 164.056 71.16ZM191.896 67.704V67.832C191.32 67.832 189.72 67.768 187.096 67.576C184.472 67.384 182.232 67.32 180.44 67.32C175.896 67.32 172.76 68.152 170.968 69.816C170.776 69.176 170.648 68.6 170.648 68.024C170.648 66.552 171.224 65.272 172.312 64.184C173.4 63.096 174.872 62.584 176.664 62.584C179.032 62.584 182.104 62.84 185.944 63.416C189.784 63.992 192.536 64.248 194.2 64.248C198.168 64.248 200.664 63.8 201.752 62.84C201.624 64.44 200.664 65.656 198.808 66.488C196.952 67.32 194.648 67.704 191.896 67.704ZM224.953 75.32L225.209 75.576C224.697 75.128 223.865 74.936 222.777 74.936C220.281 74.936 216.889 77.176 212.601 81.72C210.681 83.704 208.825 86.2 207.033 89.272C205.241 92.344 204.345 94.712 204.345 96.44C204.345 97.4 204.729 97.848 205.561 97.848C206.265 97.848 207.225 97.336 208.441 96.376C209.657 95.416 210.937 94.2 212.281 92.728C213.625 91.256 214.841 89.784 215.993 88.376L219.193 84.408L220.665 82.488C220.729 82.424 221.689 81.08 223.545 78.52C225.401 75.96 226.425 74.552 226.617 74.36C227.321 73.528 227.897 72.952 228.345 72.632C228.793 72.312 229.305 72.12 229.881 72.12C231.545 72.12 233.017 73.144 234.233 75.256C233.081 76.216 231.481 77.88 229.369 80.248C227.193 82.744 225.017 85.624 222.841 88.888C220.665 92.152 219.577 94.776 219.577 96.76C219.577 98.168 220.153 98.872 221.369 98.872C223.609 98.872 226.873 96.76 231.097 92.6C235.321 88.44 238.073 85.304 239.289 83.192C239.609 83.32 239.801 83.576 239.801 83.96C239.801 84.344 239.737 84.728 239.545 85.048C239.225 85.496 238.393 86.456 237.049 87.928C235.705 89.4 234.105 91.128 232.185 93.048C230.265 94.968 228.153 96.696 225.849 98.168C223.545 99.64 221.561 100.344 219.897 100.344C218.489 100.344 217.401 99.896 216.633 99.064C215.865 98.232 215.481 97.016 215.481 95.48C215.481 93.368 216.249 90.616 217.849 87.224C214.521 91.704 211.897 94.84 209.913 96.632C207.225 99.064 204.857 100.28 202.873 100.28C201.593 100.28 200.633 99.832 199.929 98.936C199.225 98.04 198.905 96.824 198.905 95.224C198.905 93.432 199.353 91.448 200.249 89.336C202.297 84.6 205.497 80.504 209.785 77.048C214.073 73.592 218.041 71.864 221.625 71.864C223.865 71.864 224.953 72.888 224.953 74.872V75.32ZM240.283 97.912V97.976C242.331 97.976 244.955 96.568 248.155 93.752C251.355 90.936 254.171 87.736 256.603 84.152C259.035 80.568 260.251 77.816 260.251 75.896C260.251 74.936 259.675 74.424 258.587 74.424C257.051 74.424 254.171 76.408 249.947 80.312C245.723 84.216 242.587 87.608 240.539 90.488C239.067 92.472 238.299 94.328 238.299 96.056C238.299 97.272 238.939 97.912 240.283 97.912ZM245.915 70.84V70.904C248.347 70.904 249.563 71.8 249.563 73.656C249.563 75.576 247.771 79.096 244.187 84.28C246.811 81.592 248.923 79.48 250.523 78.008C252.123 76.536 253.979 75.128 256.027 73.848C258.075 72.568 259.867 71.928 261.403 71.928C264.603 71.928 266.203 73.272 266.203 75.96C266.203 78.584 264.795 81.784 262.043 85.56C259.291 89.336 255.899 92.664 251.867 95.544C247.835 98.424 244.251 99.832 241.115 99.832C238.363 99.832 236.955 98.808 236.955 96.824C236.955 96.376 237.019 95.864 237.083 95.352C229.723 105.144 224.475 112.76 221.403 118.2C220.187 117.368 219.611 116.216 219.611 114.744C219.611 113.656 219.995 112.504 220.699 111.288C221.019 110.776 223.067 107.768 226.843 102.328C230.619 96.888 234.139 91.448 237.467 86.072C240.795 80.696 242.779 76.792 243.355 74.296C243.611 73.208 243.739 72.12 243.739 71.032C244.443 70.904 245.147 70.84 245.915 70.84ZM284.47 56.824L284.342 57.016C286.966 58.424 288.31 60.152 288.31 62.136C288.31 63.224 287.99 64.44 287.35 65.848C286.71 67.256 286.134 68.344 285.622 69.112C285.11 69.88 284.214 71.16 282.87 72.952L280.63 75.896C276.534 81.592 273.27 86.264 270.902 89.912C269.814 88.504 269.366 86.968 269.558 85.304C269.75 83.704 271.862 79.8 275.894 73.592C279.926 67.384 282.422 63.224 283.382 61.176C284.022 59.832 284.406 58.36 284.47 56.824ZM266.358 92.92L266.294 92.984C269.174 94.136 271.03 95.544 271.862 97.208C271.222 98.36 270.134 99.448 268.598 100.408C267.062 101.368 265.654 101.88 264.438 101.88C263.862 101.88 263.478 101.432 263.35 100.6C263.222 99.768 263.286 98.936 263.542 98.104C263.99 95.992 264.95 94.264 266.358 92.92Z" fill="#181818"></path></svg> 