<?xml version="1.0" encoding="UTF-8"?> <svg xmlns="http://www.w3.org/2000/svg" width="475" height="105" viewBox="0 0 475 105" fill="none"><path d="M6.32937 5.32885L6.20137 5.07285C8.24937 5.26485 9.52937 6.09685 9.97737 7.56885C14.8414 7.56885 18.8094 7.50485 21.9454 7.37685C24.4414 7.31285 27.5774 7.18485 31.3534 7.05685C35.1294 6.92885 37.4974 6.86485 38.4574 6.80085C40.8254 4.43285 42.4894 2.44885 43.5134 0.784851C44.2814 0.976849 44.9214 1.36085 45.3694 2.00085C45.8174 2.64085 46.0734 3.28085 46.0734 3.92085C46.0734 4.24085 46.0094 4.56085 45.8814 4.94485C45.7534 5.32885 45.5614 5.71285 45.3054 6.16085L44.5374 7.31285C44.2814 7.69685 43.8974 8.14485 43.4494 8.65685L42.2974 9.93685C41.9774 10.2569 41.5294 10.7048 40.9534 11.2808C40.3774 11.8568 39.9934 12.3049 39.7374 12.6249C37.0494 15.5688 35.0654 18.5128 33.7214 21.3929C32.6974 20.1768 32.1854 18.8328 32.1854 17.3608C32.1854 16.1448 32.5694 14.7369 33.2734 13.2009C33.9774 11.6648 35.0654 10.2569 36.4734 8.97685C35.5774 9.10485 34.3614 9.23285 32.7614 9.36085C31.1614 9.48885 29.1774 9.61685 26.8094 9.74485C24.4414 9.87285 22.6494 10.0009 21.3694 10.0648C23.0974 11.1529 23.9934 12.5608 23.9934 14.2888C23.9934 14.8649 23.8654 15.5688 23.6094 16.4009C23.3534 17.2329 23.0974 18.0009 22.7774 18.7049C22.4574 19.4088 22.0094 20.3048 21.3694 21.3929L19.8974 23.8889C19.5774 24.4649 19.0014 25.3609 18.2334 26.5769C17.4654 27.7929 17.0174 28.5609 16.8254 28.8808L14.9054 31.8249L12.3454 35.8569C11.7694 36.8169 11.0654 38.0969 10.1694 39.6969C9.27337 41.2969 8.63337 42.7049 8.18537 43.9849C7.73737 45.2649 7.48137 46.4169 7.41737 47.5049C5.04937 46.6729 3.83337 45.0729 3.83337 42.7049C3.83337 40.3369 5.56137 36.4969 8.95337 31.1849C9.78537 29.8409 11.4494 27.4088 13.8814 23.9529C16.3134 20.4969 18.0414 17.8729 19.0654 16.0168C20.0894 14.1609 20.6014 12.7528 20.6014 11.7929C20.6014 11.2169 20.5374 10.7688 20.4094 10.4488C19.3214 10.5129 17.6574 10.6409 15.3534 10.8329C13.0494 11.0248 11.2574 11.1529 10.0414 11.2169C9.84937 12.1129 9.01737 13.6488 7.54537 15.8249C5.94537 18.1929 4.53737 20.5609 3.32137 22.9289C1.59337 21.8409 0.697368 20.6249 0.697368 19.2169C0.697368 18.4489 0.953368 17.6168 1.40137 16.7208C1.84937 15.8249 2.48937 14.6729 3.32137 13.3288C4.15337 11.9848 4.85737 10.7688 5.36937 9.68085C6.00937 8.27285 6.32937 6.80085 6.32937 5.32885ZM52.3394 27.8569L51.9554 28.0489C51.9554 29.6489 51.2514 31.5689 49.8434 33.8729C48.4354 36.1769 46.7074 38.4169 44.5954 40.5289C42.4834 42.6409 40.1794 44.4329 37.6194 45.9049C35.0594 47.3769 32.7554 48.1449 30.7074 48.1449C29.2354 48.1449 28.0834 47.6969 27.3154 46.8009C26.5474 45.9049 26.1634 44.6249 26.1634 42.9609C26.1634 39.7609 27.3154 36.3049 29.5554 32.5929C31.7954 28.8808 34.8034 25.6809 38.5154 23.0569C42.2274 20.4328 45.8754 19.0889 49.4594 19.0889C51.6994 19.0889 52.8514 20.0489 52.8514 21.9049C52.8514 21.9689 52.8514 22.0329 52.8514 22.1609C52.8514 22.2889 52.8514 22.4169 52.8514 22.4809C52.2754 22.0329 51.4434 21.8409 50.4194 21.8409C48.2434 21.8409 45.6194 23.1849 42.5474 25.8089C39.4754 28.4328 36.8514 31.5689 34.6114 35.2169C32.3714 38.8649 31.2834 41.9369 31.2834 44.4329C31.2834 45.6489 31.9234 46.2889 33.2034 46.2889C34.9954 46.2889 37.2354 44.9449 39.9874 42.1929C42.7394 39.4409 45.1074 36.3049 47.1554 32.8489C49.2034 29.3929 50.2274 26.6409 50.2274 24.5928C51.6354 25.1688 52.3394 26.2569 52.3394 27.8569ZM61.2814 19.5368V19.4088C62.1134 19.3449 62.7534 19.2808 63.1374 19.2808C66.0814 19.2808 67.5534 20.1129 67.5534 21.7768C67.5534 23.6968 65.8254 26.9608 62.4334 31.5689L58.6574 36.6249L54.8814 41.6169C53.9214 42.9609 53.2814 43.8569 53.0254 44.3049C52.8334 44.5609 52.7694 44.8169 52.7694 45.0089C52.7694 45.3289 52.9614 45.5209 53.3454 45.5209C54.6254 45.5209 56.8654 44.1769 60.0654 41.5529C63.2654 38.9289 66.0174 36.2409 68.2574 33.4889C68.5134 33.1689 69.4734 31.7609 71.2014 29.2649C72.9294 26.7689 74.3374 24.8489 75.4254 23.5049C77.5374 20.7528 79.5854 19.3449 81.5054 19.3449C83.2334 19.3449 84.7694 19.9209 86.1134 21.1369C83.3614 23.3769 80.2894 26.4489 76.8974 30.3528C71.7134 36.4329 69.1534 41.1049 69.1534 44.3689C69.1534 45.7129 69.8574 46.3529 71.2654 46.3529C72.3534 46.3529 73.3134 46.1609 74.1454 45.7129C72.8014 47.0569 71.2654 47.7609 69.6014 47.7609C67.9374 47.7609 66.7214 47.3769 65.9534 46.5449C65.1854 45.7129 64.8014 44.6889 64.8014 43.4089C64.8014 41.3609 65.4414 39.1849 66.7854 36.8169C64.7374 39.1849 62.2414 41.4889 59.2334 43.7929C56.2254 46.0969 53.7294 47.2489 51.7454 47.2489C50.0174 47.2489 49.1214 46.3529 49.1214 44.6249C49.1214 43.7929 49.3774 42.8329 49.8254 41.8089C50.2734 40.7849 51.2974 39.1209 52.8974 36.8169C56.0334 32.3369 58.2734 28.7529 59.5534 26.0009C60.8334 23.2488 61.4734 21.3929 61.4734 20.3689C61.4734 20.1129 61.4094 19.8568 61.2814 19.5368ZM88.5454 2.25685L88.8654 3.08885C87.0094 6.28885 84.6414 9.10485 81.8254 11.6008C79.0094 14.0969 76.1294 15.3129 73.1854 15.3129C71.5854 15.3129 70.3054 14.8649 69.4094 13.9688C68.5134 13.0728 68.0654 11.9208 68.0654 10.5769C68.0654 8.78485 68.7694 6.60885 70.1134 3.98485C70.1134 6.22485 70.4974 7.88885 71.2014 9.04085C71.9054 10.1928 73.2494 10.7688 75.1694 10.7688C77.2174 10.7688 79.4574 10.0648 81.8894 8.59285C84.3214 7.12085 86.5614 5.00885 88.5454 2.25685ZM93.1174 42.1929L93.2454 42.3209C93.2454 38.6729 94.6534 35.0249 97.5334 31.3769C100.413 27.7289 103.741 24.8489 107.517 22.6728C111.293 20.4969 114.621 19.4088 117.565 19.4088C120.573 19.4088 122.109 20.3048 122.109 22.1609C122.109 23.1208 121.405 24.7208 119.997 26.8969C119.357 27.9209 118.781 28.9449 118.269 30.0329C117.757 31.1209 117.437 31.9529 117.245 32.5289L117.053 33.3609C114.429 32.5289 113.149 31.1849 113.149 29.3288C113.149 28.5609 113.469 27.7289 114.045 26.8329C114.621 25.9369 115.261 25.1688 115.965 24.5289C116.669 23.8889 117.309 23.2488 117.885 22.5449C118.461 21.8409 118.781 21.3288 118.781 20.9449C118.781 20.5609 118.525 20.3689 117.949 20.3689C116.861 20.3689 115.261 21.0089 113.149 22.2889C111.037 23.5688 108.925 25.2329 106.749 27.2169C104.573 29.2009 102.717 31.5689 101.117 34.3849C99.5174 37.2009 98.7494 39.8889 98.7494 42.5129C98.7494 44.8169 99.8374 45.9689 102.013 45.9689C105.533 45.9689 109.565 44.3049 114.109 40.9769C118.653 37.6489 122.045 34.4489 124.349 31.3769C124.605 31.5049 124.733 31.7609 124.733 32.2089C124.733 32.5289 124.605 32.9129 124.413 33.3609C124.157 33.8089 123.325 34.7049 121.917 36.1129C120.509 37.5209 118.717 39.1209 116.477 40.9769C114.237 42.8329 111.613 44.4329 108.541 45.7769C105.469 47.1209 102.525 47.8249 99.7094 47.8249C97.5974 47.8249 95.9974 47.3129 94.8454 46.3529C93.6934 45.3929 93.1174 43.9849 93.1174 42.1929ZM143.284 22.9929L143.54 23.2488C143.028 22.8008 142.196 22.6089 141.108 22.6089C138.612 22.6089 135.22 24.8489 130.932 29.3929C129.012 31.3769 127.156 33.8729 125.364 36.9449C123.572 40.0169 122.676 42.3849 122.676 44.1129C122.676 45.0729 123.06 45.5209 123.892 45.5209C124.596 45.5209 125.556 45.0089 126.772 44.0489C127.988 43.0889 129.268 41.8729 130.612 40.4009C131.956 38.9289 133.172 37.4569 134.324 36.0489L137.524 32.0809L138.996 30.1609C139.06 30.0969 140.02 28.7529 141.876 26.1929C143.732 23.6329 144.756 22.2248 144.948 22.0329C145.652 21.2008 146.228 20.6249 146.676 20.3048C147.124 19.9848 147.636 19.7929 148.212 19.7929C149.876 19.7929 151.348 20.8169 152.564 22.9289C151.412 23.8889 149.812 25.5529 147.7 27.9209C145.524 30.4169 143.348 33.2969 141.172 36.5609C138.996 39.8249 137.908 42.4489 137.908 44.4329C137.908 45.8409 138.484 46.5449 139.7 46.5449C141.94 46.5449 145.204 44.4329 149.428 40.2729C153.652 36.1129 156.404 32.9769 157.62 30.8649C157.94 30.9929 158.132 31.2489 158.132 31.6329C158.132 32.0169 158.068 32.4009 157.876 32.7209C157.556 33.1689 156.724 34.1289 155.38 35.6009C154.036 37.0729 152.436 38.8009 150.516 40.7209C148.596 42.6409 146.484 44.3689 144.18 45.8409C141.876 47.3129 139.892 48.0169 138.228 48.0169C136.82 48.0169 135.732 47.5689 134.964 46.7369C134.196 45.9049 133.812 44.6889 133.812 43.1529C133.812 41.0409 134.58 38.2889 136.18 34.8969C132.852 39.3769 130.228 42.5129 128.244 44.3049C125.556 46.7369 123.188 47.9529 121.204 47.9529C119.924 47.9529 118.964 47.5049 118.26 46.6089C117.556 45.7129 117.236 44.4969 117.236 42.8969C117.236 41.1049 117.684 39.1209 118.58 37.0089C120.628 32.2729 123.828 28.1769 128.116 24.7208C132.404 21.2649 136.372 19.5368 139.956 19.5368C142.196 19.5368 143.284 20.5609 143.284 22.5449V22.9929ZM175.958 18.7049C179.862 18.7689 181.846 19.8568 181.846 22.0329C181.846 22.8008 181.526 23.8249 180.886 25.1688C180.246 26.5128 179.606 27.7289 178.902 28.8808C178.198 30.0329 177.174 31.5689 175.83 33.5529C172.438 38.7369 170.71 42.1929 170.71 43.9209C170.71 44.6249 170.902 45.2009 171.35 45.6489C171.798 46.0969 172.374 46.2889 173.142 46.2889C174.998 46.2889 177.11 45.3289 179.414 43.4089C181.718 41.4889 183.51 39.5689 184.726 37.7129C185.238 37.9689 185.302 38.4809 184.982 39.1849C184.406 40.4009 182.678 42.1929 179.798 44.4969C176.918 46.8009 174.102 47.9529 171.414 47.9529C169.814 47.9529 168.534 47.5049 167.574 46.6729C166.614 45.8409 166.166 44.6889 166.166 43.2809C166.166 40.5289 168.278 36.1769 172.502 30.1609C170.582 32.2729 168.47 34.4489 166.166 36.7529C163.862 39.0569 161.174 41.4249 158.166 43.7929C155.158 46.1609 152.982 47.3769 151.638 47.3769C150.678 47.3769 149.91 47.1209 149.334 46.6089C148.758 46.0969 148.502 45.3289 148.502 44.3049C148.502 42.8329 149.782 40.3369 152.342 36.8809C154.902 33.4249 156.182 30.9929 156.182 29.6489C156.182 29.5849 156.182 29.5209 156.182 29.3929C156.182 29.2649 156.182 29.2009 156.182 29.1369C157.526 29.7129 158.486 30.2889 158.998 30.8649C159.51 31.4409 159.766 32.3369 159.766 33.5529C159.766 34.5129 159.382 35.6649 158.614 37.0089C157.846 38.3529 157.014 39.5689 156.118 40.5929L153.558 43.4729C152.79 44.3689 152.406 44.9449 152.406 45.2009C152.406 45.5209 152.598 45.7129 152.982 45.7129C153.942 45.7129 156.054 44.3049 159.318 41.4889C162.582 38.6729 165.846 35.5369 169.11 32.0809C171.99 29.0089 173.91 26.8329 174.806 25.6168C175.894 24.0809 176.406 22.4809 176.406 20.7528C176.406 19.9848 176.278 19.2808 175.958 18.7049ZM193.45 18.8328L193.706 19.5368C196.714 19.5368 198.25 20.6889 198.25 22.9929C198.25 24.4009 197.738 26.0648 196.714 27.9848C195.69 29.9049 194.73 31.5049 193.77 32.7209L192.234 34.5129C193.834 32.9769 196.458 30.7369 200.106 27.7929C203.754 24.8489 206.634 22.7369 208.746 21.5209C210.218 20.6889 211.434 20.2409 212.33 20.2409C213.802 20.2409 215.018 21.0089 215.914 22.5449C213.93 24.2729 211.498 26.8969 208.554 30.4169C205.61 33.9369 203.37 36.9449 201.898 39.4409C205.61 35.2809 210.474 30.9929 216.426 26.5128C222.378 22.0329 226.346 19.7929 228.33 19.7929C229.802 19.7929 231.018 20.6889 232.042 22.4809C231.978 22.5449 231.594 22.8649 230.89 23.5049L228.522 25.6809L225.514 28.6249C224.362 29.7769 223.274 30.9929 222.25 32.2089C221.226 33.4249 220.266 34.7049 219.37 35.9849C218.474 37.2649 217.77 38.5449 217.258 39.8249C216.746 41.1049 216.49 42.2569 216.49 43.2809C216.49 45.1369 217.322 46.0329 218.922 46.0329C220.33 46.0329 221.994 45.3929 223.85 44.1769C225.706 42.9609 227.498 41.4249 229.226 39.6329C230.954 37.8409 232.298 36.3049 233.322 35.0889C234.346 33.8729 235.178 32.7849 235.818 31.8889C236.074 32.0169 236.202 32.2729 236.266 32.5929C236.33 32.9129 236.202 33.2969 235.946 33.6809L234.602 35.4089C234.09 35.9849 233.066 37.0729 231.53 38.6729C229.994 40.2729 228.522 41.6809 227.114 42.8329C225.706 43.9849 224.106 45.0089 222.314 45.9689C220.522 46.9289 218.922 47.3769 217.45 47.3769C216.042 47.3769 214.89 46.8649 213.93 45.9049C212.97 44.9449 212.522 43.5369 212.522 41.6809C212.522 40.2089 212.906 38.5449 213.674 36.6889C214.442 34.8329 215.338 33.1049 216.426 31.5049C217.514 29.9049 218.474 28.6249 219.242 27.6649C220.01 26.7049 220.65 25.9369 221.098 25.4249C221.29 25.2329 221.354 25.0408 221.354 24.9129C221.354 24.7849 221.29 24.7208 221.162 24.7208C221.034 24.7208 220.906 24.7208 220.778 24.7849C219.178 25.6168 216.234 27.7929 211.946 31.3129C207.658 34.8329 204.074 38.4169 201.194 42.0649C199.594 44.0489 198.442 45.7769 197.674 47.2489C196.906 47.1849 196.33 46.9289 195.946 46.4809C195.562 46.0329 195.37 45.5849 195.37 45.0729C195.37 43.9849 195.882 42.4489 196.97 40.4009C198.186 38.1609 199.53 35.9209 201.002 33.6809C202.474 31.4409 203.754 29.5209 204.842 27.9848C205.93 26.4489 206.506 25.6168 206.57 25.5529C206.634 25.4249 206.634 25.2969 206.57 25.1688C206.506 25.0408 206.378 24.9769 206.25 24.9769C205.866 24.9769 204.586 25.7449 202.474 27.2809C200.362 28.8169 197.802 30.9289 194.73 33.6169C191.658 36.3049 189.098 38.9289 186.986 41.4249C184.49 44.4329 182.89 46.5449 182.186 47.7609C180.906 47.1849 180.266 46.4169 180.266 45.4569C180.266 44.8809 180.586 44.0489 181.226 42.9609C181.866 41.8729 182.954 40.2089 184.426 37.9689C185.898 35.7289 187.178 33.6809 188.266 31.8249C190.25 28.4328 191.53 25.9369 192.106 24.4009C192.682 22.8649 193.13 21.0089 193.45 18.8328ZM221.29 15.3769V15.5049C220.714 15.5049 219.114 15.4408 216.49 15.2488C213.866 15.0569 211.626 14.9928 209.834 14.9928C205.29 14.9928 202.154 15.8249 200.362 17.4888C200.17 16.8489 200.042 16.2729 200.042 15.6968C200.042 14.2248 200.618 12.9449 201.706 11.8568C202.794 10.7688 204.266 10.2569 206.058 10.2569C208.426 10.2569 211.498 10.5129 215.338 11.0888C219.178 11.6648 221.93 11.9208 223.594 11.9208C227.562 11.9208 230.058 11.4729 231.146 10.5129C231.018 12.1129 230.058 13.3288 228.202 14.1609C226.346 14.9928 224.042 15.3769 221.29 15.3769ZM254.347 22.9929L254.603 23.2488C254.091 22.8008 253.259 22.6089 252.171 22.6089C249.675 22.6089 246.283 24.8489 241.995 29.3929C240.075 31.3769 238.219 33.8729 236.427 36.9449C234.635 40.0169 233.739 42.3849 233.739 44.1129C233.739 45.0729 234.123 45.5209 234.955 45.5209C235.659 45.5209 236.619 45.0089 237.835 44.0489C239.051 43.0889 240.331 41.8729 241.675 40.4009C243.019 38.9289 244.235 37.4569 245.387 36.0489L248.587 32.0809L250.059 30.1609C250.123 30.0969 251.083 28.7529 252.939 26.1929C254.795 23.6329 255.819 22.2248 256.011 22.0329C256.715 21.2008 257.291 20.6249 257.739 20.3048C258.187 19.9848 258.699 19.7929 259.275 19.7929C260.939 19.7929 262.411 20.8169 263.627 22.9289C262.475 23.8889 260.875 25.5529 258.763 27.9209C256.587 30.4169 254.411 33.2969 252.235 36.5609C250.059 39.8249 248.971 42.4489 248.971 44.4329C248.971 45.8409 249.547 46.5449 250.763 46.5449C253.003 46.5449 256.267 44.4329 260.491 40.2729C264.715 36.1129 267.467 32.9769 268.683 30.8649C269.003 30.9929 269.195 31.2489 269.195 31.6329C269.195 32.0169 269.131 32.4009 268.939 32.7209C268.619 33.1689 267.787 34.1289 266.443 35.6009C265.099 37.0729 263.499 38.8009 261.579 40.7209C259.659 42.6409 257.547 44.3689 255.243 45.8409C252.939 47.3129 250.955 48.0169 249.291 48.0169C247.883 48.0169 246.795 47.5689 246.027 46.7369C245.259 45.9049 244.875 44.6889 244.875 43.1529C244.875 41.0409 245.643 38.2889 247.243 34.8969C243.915 39.3769 241.291 42.5129 239.307 44.3049C236.619 46.7369 234.251 47.9529 232.267 47.9529C230.987 47.9529 230.027 47.5049 229.323 46.6089C228.619 45.7129 228.299 44.4969 228.299 42.8969C228.299 41.1049 228.747 39.1209 229.643 37.0089C231.691 32.2729 234.891 28.1769 239.179 24.7208C243.467 21.2649 247.435 19.5368 251.019 19.5368C253.259 19.5368 254.347 20.5609 254.347 22.5449V22.9929ZM278.573 23.2488L278.445 23.0569C278.445 24.1448 277.997 25.5529 277.037 27.2809C276.077 29.0089 275.117 30.4169 274.157 31.5689L272.749 33.3609C276.589 32.7849 279.149 32.3369 280.493 31.9529C281.645 30.6089 283.181 28.4969 285.037 25.6168C286.893 22.7369 287.981 20.5609 288.237 19.0889C289.581 19.2808 290.733 19.6649 291.693 20.2409C292.653 20.8169 293.165 21.5849 293.165 22.6089C293.165 23.5688 292.461 25.0408 291.117 27.0249C289.773 29.0089 288.045 31.3129 285.933 33.9369C283.821 36.5609 282.349 38.5449 281.453 39.9529C280.237 41.8729 279.661 43.4089 279.661 44.5609C279.661 45.5209 280.109 46.0329 281.069 46.0329C283.309 46.0329 286.445 44.0489 290.477 40.0809C294.509 36.1129 297.133 33.1049 298.349 31.0569C298.669 31.2489 298.861 31.5689 298.861 31.9529C298.861 32.4009 298.669 32.9129 298.285 33.4889C297.901 34.0649 297.133 34.9609 295.981 36.2409C294.829 37.5209 293.293 39.0569 291.373 40.9129C289.453 42.7689 287.341 44.3689 285.101 45.7129C282.861 47.0569 280.877 47.6969 279.149 47.6969C277.805 47.6969 276.781 47.3129 276.013 46.6089C275.245 45.9049 274.861 44.9449 274.861 43.7289C274.861 41.2329 276.525 37.7769 279.853 33.3609C275.181 34.2569 272.493 34.7689 271.789 34.8969C266.989 40.3369 263.533 44.8809 261.357 48.5289C260.013 48.0169 259.309 47.1209 259.309 45.9049C259.309 45.5209 259.437 45.0729 259.629 44.5609C259.821 44.0489 260.205 43.3449 260.717 42.5129C261.229 41.6809 261.677 40.9769 261.997 40.4649L263.853 37.7129L265.709 34.9609C267.181 32.7209 268.269 30.9929 268.973 29.7769C269.677 28.5609 270.509 26.9608 271.405 24.9769C272.301 22.9929 272.749 21.3929 272.749 20.1768C272.749 19.8568 272.749 19.6649 272.685 19.5368C274.797 19.6009 276.333 19.9209 277.229 20.5609C278.125 21.2008 278.573 22.0969 278.573 23.2488ZM317.659 22.9929L317.915 23.2488C317.403 22.8008 316.571 22.6089 315.483 22.6089C312.987 22.6089 309.595 24.8489 305.307 29.3929C303.387 31.3769 301.531 33.8729 299.739 36.9449C297.947 40.0169 297.051 42.3849 297.051 44.1129C297.051 45.0729 297.435 45.5209 298.267 45.5209C298.971 45.5209 299.931 45.0089 301.147 44.0489C302.363 43.0889 303.643 41.8729 304.987 40.4009C306.331 38.9289 307.547 37.4569 308.699 36.0489L311.899 32.0809L313.371 30.1609C313.435 30.0969 314.395 28.7529 316.251 26.1929C318.107 23.6329 319.131 22.2248 319.323 22.0329C320.027 21.2008 320.603 20.6249 321.051 20.3048C321.499 19.9848 322.011 19.7929 322.587 19.7929C324.251 19.7929 325.723 20.8169 326.939 22.9289C325.787 23.8889 324.187 25.5529 322.075 27.9209C319.899 30.4169 317.723 33.2969 315.547 36.5609C313.371 39.8249 312.283 42.4489 312.283 44.4329C312.283 45.8409 312.859 46.5449 314.075 46.5449C316.315 46.5449 319.579 44.4329 323.803 40.2729C328.027 36.1129 330.779 32.9769 331.995 30.8649C332.315 30.9929 332.507 31.2489 332.507 31.6329C332.507 32.0169 332.443 32.4009 332.251 32.7209C331.931 33.1689 331.099 34.1289 329.755 35.6009C328.411 37.0729 326.811 38.8009 324.891 40.7209C322.971 42.6409 320.859 44.3689 318.555 45.8409C316.251 47.3129 314.267 48.0169 312.603 48.0169C311.195 48.0169 310.107 47.5689 309.339 46.7369C308.571 45.9049 308.187 44.6889 308.187 43.1529C308.187 41.0409 308.955 38.2889 310.555 34.8969C307.227 39.3769 304.603 42.5129 302.619 44.3049C299.931 46.7369 297.563 47.9529 295.579 47.9529C294.299 47.9529 293.339 47.5049 292.635 46.6089C291.931 45.7129 291.611 44.4969 291.611 42.8969C291.611 41.1049 292.059 39.1209 292.955 37.0089C295.003 32.2729 298.203 28.1769 302.491 24.7208C306.779 21.2649 310.747 19.5368 314.331 19.5368C316.571 19.5368 317.659 20.5609 317.659 22.5449V22.9929ZM336.637 18.8328L336.893 19.5368C339.901 19.5368 341.437 20.6889 341.437 22.9929C341.437 24.4009 340.925 26.0648 339.901 27.9848C338.877 29.9049 337.917 31.5049 336.957 32.7209L335.421 34.5129C337.021 32.9769 339.645 30.7369 343.293 27.7929C346.941 24.8489 349.821 22.7369 351.933 21.5209C353.405 20.6889 354.621 20.2409 355.517 20.2409C356.989 20.2409 358.205 21.0089 359.101 22.5449C357.117 24.2729 354.685 26.8969 351.741 30.4169C348.797 33.9369 346.557 36.9449 345.085 39.4409C348.797 35.2809 353.661 30.9929 359.613 26.5128C365.565 22.0329 369.533 19.7929 371.517 19.7929C372.989 19.7929 374.205 20.6889 375.229 22.4809C375.165 22.5449 374.781 22.8649 374.077 23.5049L371.709 25.6809L368.701 28.6249C367.549 29.7769 366.461 30.9929 365.437 32.2089C364.413 33.4249 363.453 34.7049 362.557 35.9849C361.661 37.2649 360.957 38.5449 360.445 39.8249C359.933 41.1049 359.677 42.2569 359.677 43.2809C359.677 45.1369 360.509 46.0329 362.109 46.0329C363.517 46.0329 365.181 45.3929 367.037 44.1769C368.893 42.9609 370.685 41.4249 372.413 39.6329C374.141 37.8409 375.485 36.3049 376.509 35.0889C377.533 33.8729 378.365 32.7849 379.005 31.8889C379.261 32.0169 379.389 32.2729 379.453 32.5929C379.517 32.9129 379.389 33.2969 379.133 33.6809L377.789 35.4089C377.277 35.9849 376.253 37.0729 374.717 38.6729C373.181 40.2729 371.709 41.6809 370.301 42.8329C368.893 43.9849 367.293 45.0089 365.501 45.9689C363.709 46.9289 362.109 47.3769 360.637 47.3769C359.229 47.3769 358.077 46.8649 357.117 45.9049C356.157 44.9449 355.709 43.5369 355.709 41.6809C355.709 40.2089 356.093 38.5449 356.861 36.6889C357.629 34.8329 358.525 33.1049 359.613 31.5049C360.701 29.9049 361.661 28.6249 362.429 27.6649C363.197 26.7049 363.837 25.9369 364.285 25.4249C364.477 25.2329 364.541 25.0408 364.541 24.9129C364.541 24.7849 364.477 24.7208 364.349 24.7208C364.221 24.7208 364.093 24.7208 363.965 24.7849C362.365 25.6168 359.421 27.7929 355.133 31.3129C350.845 34.8329 347.261 38.4169 344.381 42.0649C342.781 44.0489 341.629 45.7769 340.861 47.2489C340.093 47.1849 339.517 46.9289 339.133 46.4809C338.749 46.0329 338.557 45.5849 338.557 45.0729C338.557 43.9849 339.069 42.4489 340.157 40.4009C341.373 38.1609 342.717 35.9209 344.189 33.6809C345.661 31.4409 346.941 29.5209 348.029 27.9848C349.117 26.4489 349.693 25.6168 349.757 25.5529C349.821 25.4249 349.821 25.2969 349.757 25.1688C349.693 25.0408 349.565 24.9769 349.437 24.9769C349.053 24.9769 347.773 25.7449 345.661 27.2809C343.549 28.8169 340.989 30.9289 337.917 33.6169C334.845 36.3049 332.285 38.9289 330.173 41.4249C327.677 44.4329 326.077 46.5449 325.373 47.7609C324.093 47.1849 323.453 46.4169 323.453 45.4569C323.453 44.8809 323.773 44.0489 324.413 42.9609C325.053 41.8729 326.141 40.2089 327.613 37.9689C329.085 35.7289 330.365 33.6809 331.453 31.8249C333.437 28.4328 334.717 25.9369 335.293 24.4009C335.869 22.8649 336.317 21.0089 336.637 18.8328ZM364.477 15.3769V15.5049C363.901 15.5049 362.301 15.4408 359.677 15.2488C357.053 15.0569 354.813 14.9928 353.021 14.9928C348.477 14.9928 345.341 15.8249 343.549 17.4888C343.357 16.8489 343.229 16.2729 343.229 15.6968C343.229 14.2248 343.805 12.9449 344.893 11.8568C345.981 10.7688 347.453 10.2569 349.245 10.2569C351.613 10.2569 354.685 10.5129 358.525 11.0888C362.365 11.6648 365.117 11.9208 366.781 11.9208C370.749 11.9208 373.245 11.4729 374.333 10.5129C374.205 12.1129 373.245 13.3288 371.389 14.1609C369.533 14.9928 367.229 15.3769 364.477 15.3769ZM383.07 19.2808L382.686 19.6649C382.942 19.6009 383.582 19.6009 384.542 19.6009C387.038 19.6009 388.318 20.4969 388.318 22.2889C388.318 22.9289 388.19 23.5688 387.934 24.2729C387.23 26.1929 385.694 28.7529 383.262 31.8889L376.67 40.4009C374.686 42.8969 373.662 44.5609 373.662 45.3289C373.662 45.9689 374.046 46.2889 374.75 46.2889C376.414 46.2889 378.462 45.0729 380.83 42.7049C383.198 40.3369 384.414 37.5849 384.414 34.4489C384.414 33.7449 384.286 33.1049 384.03 32.5289C384.798 32.2729 385.566 32.1449 386.27 32.1449C387.358 32.1449 388.254 32.3369 388.958 32.7209C392.35 31.8249 395.486 30.3528 398.366 28.2409C402.782 22.3528 406.11 19.4088 408.35 19.4088C409.182 19.4088 409.886 19.5368 410.462 19.7929C411.038 20.0489 411.678 20.6249 412.382 21.4569C408.35 24.3369 404.638 28.3689 401.246 33.4889C397.854 38.6089 396.19 42.1929 396.19 44.3049C396.19 45.4569 396.83 46.0329 398.174 46.0329C400.606 46.0329 403.742 44.2409 407.582 40.6569C411.422 37.0729 414.366 33.8089 416.35 30.8009C416.606 30.8649 416.798 31.0569 416.862 31.3769C416.926 31.6969 416.862 32.0169 416.67 32.3369C414.302 35.6649 411.166 38.9929 407.198 42.3849C403.23 45.7769 399.71 47.4409 396.574 47.4409C395.166 47.4409 394.078 46.9929 393.31 46.1609C392.542 45.3289 392.158 44.2409 392.158 42.8969C392.158 39.2489 393.886 34.8969 397.278 29.8409C395.358 31.1849 392.926 32.4009 389.918 33.4889C389.982 33.6809 390.046 34.0009 390.046 34.4489C389.982 36.4329 388.318 38.9289 385.054 41.9369C381.406 45.3289 377.822 46.9929 374.366 46.9929C371.934 46.9929 370.718 45.9689 370.718 43.9209C370.718 43.0249 371.166 41.8089 371.998 40.2729C372.83 38.7369 374.174 36.6249 376.03 33.8729C377.886 31.1209 379.23 29.0729 380.062 27.7289C380.83 26.5128 381.534 25.0408 382.238 23.3129C382.942 21.5849 383.198 20.2409 383.07 19.2808ZM425.698 23.2488L425.57 23.0569C425.57 24.1448 425.122 25.5529 424.162 27.2809C423.202 29.0089 422.242 30.4169 421.282 31.5689L419.874 33.3609C423.714 32.7849 426.274 32.3369 427.618 31.9529C428.77 30.6089 430.306 28.4969 432.162 25.6168C434.018 22.7369 435.106 20.5609 435.362 19.0889C436.706 19.2808 437.858 19.6649 438.818 20.2409C439.778 20.8169 440.29 21.5849 440.29 22.6089C440.29 23.5688 439.586 25.0408 438.242 27.0249C436.898 29.0089 435.17 31.3129 433.058 33.9369C430.946 36.5609 429.474 38.5449 428.578 39.9529C427.362 41.8729 426.786 43.4089 426.786 44.5609C426.786 45.5209 427.234 46.0329 428.194 46.0329C430.434 46.0329 433.57 44.0489 437.602 40.0809C441.634 36.1129 444.258 33.1049 445.474 31.0569C445.794 31.2489 445.986 31.5689 445.986 31.9529C445.986 32.4009 445.794 32.9129 445.41 33.4889C445.026 34.0649 444.258 34.9609 443.106 36.2409C441.954 37.5209 440.418 39.0569 438.498 40.9129C436.578 42.7689 434.466 44.3689 432.226 45.7129C429.986 47.0569 428.002 47.6969 426.274 47.6969C424.93 47.6969 423.906 47.3129 423.138 46.6089C422.37 45.9049 421.986 44.9449 421.986 43.7289C421.986 41.2329 423.65 37.7769 426.978 33.3609C422.306 34.2569 419.618 34.7689 418.914 34.8969C414.114 40.3369 410.658 44.8809 408.482 48.5289C407.138 48.0169 406.434 47.1209 406.434 45.9049C406.434 45.5209 406.562 45.0729 406.754 44.5609C406.946 44.0489 407.33 43.3449 407.842 42.5129C408.354 41.6809 408.802 40.9769 409.122 40.4649L410.978 37.7129L412.834 34.9609C414.306 32.7209 415.394 30.9929 416.098 29.7769C416.802 28.5609 417.634 26.9608 418.53 24.9769C419.426 22.9929 419.874 21.3929 419.874 20.1768C419.874 19.8568 419.874 19.6649 419.81 19.5368C421.922 19.6009 423.458 19.9209 424.354 20.5609C425.25 21.2008 425.698 22.0969 425.698 23.2488ZM464.784 22.9929L465.104 23.0569C464.592 22.6089 463.76 22.4169 462.672 22.4169C460.176 22.4169 456.784 24.6569 452.496 29.2009C450.576 31.1849 448.72 33.6809 446.928 36.7529C445.136 39.8249 444.24 42.1929 444.24 43.9209C444.24 44.8809 444.624 45.3289 445.456 45.3289C446.16 45.3289 447.12 44.8169 448.336 43.8569C449.552 42.8969 450.832 41.6809 452.176 40.2089C453.52 38.7369 454.736 37.2649 455.888 35.8569L459.088 31.8889L460.56 29.9689C460.624 29.9049 461.584 28.5609 463.44 26.0009C465.296 23.4409 466.32 22.0329 466.512 21.8409C467.216 21.0089 467.792 20.4328 468.24 20.1129C468.688 19.7929 469.2 19.6009 469.776 19.6009C471.44 19.6009 472.912 20.6249 474.128 22.7369C472.976 23.6968 471.376 25.3609 469.264 27.7289C467.088 30.2249 464.912 33.1049 462.736 36.3689C460.56 39.6329 459.472 42.2569 459.472 44.2409C459.472 45.6489 460.112 46.3529 461.456 46.3529C462.288 46.3529 463.248 46.0329 464.336 45.3929C462.992 47.1209 461.456 48.0169 459.728 48.0169C458.32 48.0169 457.232 47.5689 456.464 46.7369C455.696 45.9049 455.312 44.6889 455.312 43.1529C455.312 41.0409 456.08 38.2889 457.68 34.8969C454.352 39.3769 451.728 42.5129 449.744 44.3049C447.056 46.7369 444.688 47.9529 442.704 47.9529C441.424 47.9529 440.464 47.5049 439.76 46.6089C439.056 45.7129 438.736 44.4969 438.736 42.8969C438.736 41.1049 439.184 39.1209 440.08 37.0089C442.128 32.2729 445.328 28.1769 449.616 24.7208C453.904 21.2649 457.872 19.5368 461.456 19.5368C463.696 19.5368 464.784 20.5609 464.784 22.5449V22.9929ZM195.336 75.9848L195.528 76.1768C195.976 74.0648 196.232 71.8249 196.232 69.4568C196.232 65.4888 195.4 62.4809 193.672 60.4968C191.944 58.5128 189.576 57.4888 186.568 57.4888C182.792 57.4888 179.656 58.5769 177.096 60.8168C178.312 58.9608 180.04 57.4249 182.28 56.2729C184.52 55.1208 186.888 54.5448 189.384 54.5448C197.64 54.5448 201.736 59.0248 201.736 68.0489C201.736 73.6168 200.392 79.2488 197.704 84.8808C195.016 90.5129 191.752 95.0569 187.848 98.5129C183.944 101.969 180.232 103.697 176.712 103.697C173.384 103.697 171.72 102.033 171.72 98.6409C171.72 95.3769 172.936 92.1129 175.368 88.8489C177.8 85.5849 180.808 82.8329 184.392 80.5928C187.976 78.3528 191.624 76.8169 195.336 75.9848ZM180.04 90.8329L179.976 90.9609C178.12 94.1609 177.224 96.9769 177.224 99.3449C177.224 101.073 177.928 101.969 179.272 101.969C180.808 101.969 182.728 100.561 185.032 97.7449C187.336 94.9289 189.448 91.6009 191.368 87.7609C193.288 83.9209 194.568 80.5289 195.208 77.5209C192.456 78.5449 189.64 80.3369 186.76 82.8969C183.88 85.4569 181.64 88.0809 180.04 90.8329ZM224.615 78.8008L224.487 78.9289C224.487 79.7609 224.231 80.5928 223.655 81.4249C223.079 82.2569 222.183 83.1529 220.903 84.1129C219.623 85.0729 217.703 85.9689 215.079 86.8009C212.455 87.6329 209.383 88.2729 205.799 88.7209C203.431 92.3689 202.215 95.5689 202.215 98.3209C202.215 100.561 203.303 101.713 205.479 101.713C208.871 101.713 212.711 99.9849 216.999 96.5929C221.287 93.2009 224.423 90.1289 226.343 87.4409C226.599 87.6329 226.727 87.8889 226.727 88.2729C226.727 88.6569 226.663 88.9769 226.471 89.2969C223.335 93.0729 219.559 96.4009 215.143 99.2809C210.727 102.161 206.439 103.569 202.215 103.569C200.359 103.569 198.951 103.121 197.927 102.225C196.903 101.329 196.391 100.049 196.391 98.3209C196.391 95.1849 197.671 91.7929 200.295 88.1449C202.919 84.4969 206.119 81.4888 209.895 79.0569C213.671 76.6249 217.127 75.4088 220.263 75.4088C223.143 75.4088 224.615 76.5609 224.615 78.8008ZM206.503 87.6969H206.375C210.151 86.9929 213.351 85.7129 215.975 83.7929C218.599 81.8729 219.879 80.0169 219.879 78.1609C219.879 77.4569 219.559 77.1369 218.919 77.1369C217.255 77.1369 215.143 78.3528 212.647 80.7849C210.151 83.2169 208.103 85.5209 206.503 87.6969ZM231.093 75.5368L231.221 75.2169C232.053 75.1529 232.693 75.0889 233.077 75.0889C236.021 75.0889 237.493 75.9209 237.493 77.5849C237.493 79.5049 235.765 82.7689 232.373 87.3769L228.597 92.4329L224.821 97.4249C223.861 98.7689 223.221 99.6649 222.965 100.113C222.773 100.369 222.709 100.625 222.709 100.817C222.709 101.137 222.901 101.329 223.285 101.329C224.565 101.329 226.805 99.9849 230.005 97.3609C233.205 94.7369 235.957 92.0489 238.197 89.2969C238.453 88.9769 239.413 87.5689 241.141 85.0729C242.869 82.5769 244.277 80.6569 245.365 79.3129C247.477 76.5609 249.525 75.1529 251.445 75.1529C253.173 75.1529 254.709 75.7288 256.053 76.9449C253.301 79.1849 250.229 82.2569 246.837 86.1609C241.653 92.2409 239.093 96.9129 239.093 100.177C239.093 101.521 239.733 102.161 240.949 102.161C243.381 102.161 246.453 100.689 250.165 97.7449C253.877 94.8009 256.373 92.4329 257.589 90.7049C258.037 91.0249 258.037 91.6009 257.589 92.4329C257.397 92.7529 256.693 93.4569 255.477 94.6089C254.261 95.7609 252.789 97.0409 251.061 98.4489C249.333 99.8569 247.413 101.073 245.237 102.161C243.061 103.249 241.141 103.761 239.413 103.761C237.749 103.761 236.533 103.377 235.765 102.545C234.997 101.713 234.613 100.689 234.613 99.4089C234.613 97.3609 235.253 95.1849 236.597 92.8169C234.549 95.1849 232.053 97.4889 229.045 99.7929C226.037 102.097 223.541 103.249 221.557 103.249C219.829 103.249 218.933 102.353 218.933 100.625C218.933 99.7929 219.189 98.8329 219.637 97.8089C220.085 96.7849 221.109 95.1209 222.709 92.8169C225.845 88.3369 228.085 84.7529 229.365 82.0009C230.645 79.2488 231.285 77.3929 231.285 76.3689C231.285 76.1129 231.221 75.8568 231.093 75.5368ZM259.125 58.0648L259.445 58.8969C257.589 62.0969 255.221 64.9128 252.405 67.4089C249.589 69.9049 246.709 71.1208 243.765 71.1208C242.165 71.1208 240.885 70.6729 239.989 69.7769C239.093 68.8809 238.645 67.7289 238.645 66.3848C238.645 64.5928 239.349 62.4169 240.693 59.7929C240.693 62.0328 241.077 63.6968 241.781 64.8489C242.485 66.0009 243.829 66.5769 245.749 66.5769C247.797 66.5769 250.037 65.8728 252.469 64.4008C254.901 62.9288 257.141 60.8168 259.125 58.0648ZM270.237 59.7929V59.7289C271.645 60.8808 272.349 62.3528 272.349 64.0808C272.349 65.9369 271.709 67.4089 270.365 68.5608C269.021 69.7128 267.421 70.2888 265.565 70.2888C264.733 70.2888 263.773 70.0969 262.685 69.7769C264.285 68.7528 265.949 67.0248 267.677 64.5289C268.253 63.6968 268.765 62.8648 269.213 62.0969C269.661 61.3288 269.917 60.7528 270.045 60.3689L270.237 59.7929ZM259.677 81.2969L259.613 81.3609C260.189 79.8889 260.509 78.1609 260.509 76.1768C262.749 76.1129 264.349 76.3048 265.245 76.7528C266.141 77.2008 266.589 77.9689 266.589 79.0569C266.589 80.4009 265.565 82.7049 263.453 85.9689L257.117 95.9529C255.005 99.3449 253.917 101.841 253.917 103.441C251.741 102.545 250.781 100.881 251.037 98.4489C251.165 97.3609 251.677 96.0169 252.573 94.4809L256.093 88.5289C257.501 86.0969 258.717 83.6649 259.677 81.2969ZM282.229 79.2488L282.101 79.0569C282.101 80.1448 281.653 81.5529 280.693 83.2809C279.733 85.0089 278.773 86.4169 277.813 87.5689L276.405 89.3609C280.245 88.7849 282.805 88.3369 284.149 87.9529C285.301 86.6089 286.837 84.4969 288.693 81.6168C290.549 78.7369 291.637 76.5609 291.893 75.0889C293.237 75.2808 294.389 75.6649 295.349 76.2409C296.309 76.8169 296.821 77.5849 296.821 78.6089C296.821 79.5688 296.117 81.0408 294.773 83.0249C293.429 85.0089 291.701 87.3129 289.589 89.9369C287.477 92.5609 286.005 94.5449 285.109 95.9529C283.893 97.8729 283.317 99.4089 283.317 100.561C283.317 101.521 283.765 102.033 284.725 102.033C286.965 102.033 290.101 100.049 294.133 96.0809C298.165 92.1129 300.789 89.1049 302.005 87.0569C302.325 87.2489 302.517 87.5689 302.517 87.9529C302.517 88.4009 302.325 88.9129 301.941 89.4889C301.557 90.0649 300.789 90.9609 299.637 92.2409C298.485 93.5209 296.949 95.0569 295.029 96.9129C293.109 98.7689 290.997 100.369 288.757 101.713C286.517 103.057 284.533 103.697 282.805 103.697C281.461 103.697 280.437 103.313 279.669 102.609C278.901 101.905 278.517 100.945 278.517 99.7289C278.517 97.2329 280.181 93.7769 283.509 89.3609C278.837 90.2569 276.149 90.7689 275.445 90.8969C270.645 96.3369 267.189 100.881 265.013 104.529C263.669 104.017 262.965 103.121 262.965 101.905C262.965 101.521 263.093 101.073 263.285 100.561C263.477 100.049 263.861 99.3449 264.373 98.5129C264.885 97.6809 265.333 96.9769 265.653 96.4649L267.509 93.7129L269.365 90.9609C270.837 88.7209 271.925 86.9929 272.629 85.7769C273.333 84.5609 274.165 82.9608 275.061 80.9769C275.957 78.9929 276.405 77.3929 276.405 76.1768C276.405 75.8568 276.405 75.6649 276.341 75.5368C278.453 75.6009 279.989 75.9209 280.885 76.5609C281.781 77.2008 282.229 78.0969 282.229 79.2488Z" fill="#181818"></path></svg> 