<?xml version="1.0" encoding="UTF-8"?> <svg xmlns="http://www.w3.org/2000/svg" width="187" height="56" viewBox="0 0 187 56" fill="none"><path d="M32.2043 4.07233L32.0763 3.88034C29.2603 5.09634 26.5723 6.88834 24.0763 9.25634C21.5803 11.6243 18.8283 14.6963 15.8203 18.4723C14.9243 19.5603 14.1563 20.7123 13.3243 21.8643C18.0603 21.7363 22.7323 21.5443 26.9563 21.2243C28.8763 17.2563 29.8363 14.2483 29.8363 12.2003C29.8363 11.1123 29.5803 10.1523 29.0683 9.32034C29.5803 8.68034 30.3483 8.36034 31.3083 8.36034C32.3963 8.36034 32.9083 9.19234 32.9083 10.8563C32.9083 15.8483 29.6443 22.4403 23.0523 30.6963C20.0443 34.6003 16.9723 37.8643 13.7723 40.5523C10.5723 43.2403 7.75631 44.5843 5.32431 44.5843C3.72431 44.5843 2.57231 44.0723 1.86831 43.1123C1.16431 42.1523 0.780313 40.8723 0.780313 39.3363C0.780313 35.2403 2.38031 30.1203 5.64431 24.0403H5.00431C4.10831 24.0403 3.40431 23.8483 2.95631 23.5283C2.50831 23.2083 2.31631 22.7603 2.38031 22.1843C3.78831 22.1843 5.26031 22.1203 6.73231 22.0563C9.86831 16.6803 13.3883 11.9443 17.3563 7.91233C21.7723 3.43233 25.3563 1.19234 28.1723 1.19234C30.1563 1.19234 31.5003 2.15234 32.2043 4.07233ZM17.6123 34.7923C21.1323 31.1443 23.9483 27.1123 26.1883 22.8243C21.5803 23.2083 16.9083 23.6563 11.9163 23.9123C10.4443 26.1523 9.03631 28.5843 7.69231 31.2083C5.13231 36.0723 3.85231 39.5283 3.85231 41.5123C3.85231 42.5363 4.42831 43.0483 5.51631 43.0483C8.52431 43.0483 12.5563 40.2963 17.6123 34.7923ZM38.0563 15.6563L38.3123 16.3603C41.3203 16.3603 42.8563 17.5123 42.8563 19.8163C42.8563 21.2243 42.3443 22.8883 41.3203 24.8083C40.2963 26.7283 39.3363 28.3283 38.3763 29.5443L36.8403 31.3363C38.4403 29.8003 41.0643 27.5603 44.7123 24.6163C48.3603 21.6723 51.2403 19.5603 53.3523 18.3443C54.8243 17.5123 56.0403 17.0643 56.9363 17.0643C58.4083 17.0643 59.6243 17.8323 60.5203 19.3683C58.5363 21.0963 56.1043 23.7203 53.1603 27.2403C50.2163 30.7603 47.9763 33.7683 46.5043 36.2643C50.2163 32.1043 55.0803 27.8163 61.0323 23.3363C66.9843 18.8563 70.9523 16.6163 72.9363 16.6163C74.4083 16.6163 75.6243 17.5123 76.6483 19.3043C76.5843 19.3683 76.2003 19.6883 75.4963 20.3283L73.1283 22.5043L70.1203 25.4483C68.9683 26.6003 67.8803 27.8163 66.8563 29.0323C65.8323 30.2483 64.8723 31.5283 63.9763 32.8083C63.0803 34.0883 62.3763 35.3683 61.8643 36.6483C61.3523 37.9283 61.0963 39.0803 61.0963 40.1043C61.0963 41.9603 61.9283 42.8563 63.5283 42.8563C64.9363 42.8563 66.6003 42.2163 68.4563 41.0003C70.3123 39.7843 72.1043 38.2483 73.8323 36.4563C75.5603 34.6643 76.9043 33.1283 77.9283 31.9123C78.9523 30.6963 79.7843 29.6083 80.4243 28.7123C80.6803 28.8403 80.8083 29.0963 80.8723 29.4163C80.9363 29.7363 80.8083 30.1203 80.5523 30.5043L79.2083 32.2323C78.6963 32.8083 77.6723 33.8963 76.1363 35.4963C74.6003 37.0963 73.1283 38.5043 71.7203 39.6563C70.3123 40.8083 68.7123 41.8323 66.9203 42.7923C65.1283 43.7523 63.5283 44.2003 62.0563 44.2003C60.6483 44.2003 59.4963 43.6883 58.5363 42.7283C57.5763 41.7683 57.1283 40.3603 57.1283 38.5043C57.1283 37.0323 57.5123 35.3683 58.2803 33.5123C59.0483 31.6563 59.9443 29.9283 61.0323 28.3283C62.1203 26.7283 63.0803 25.4483 63.8483 24.4883C64.6163 23.5283 65.2563 22.7603 65.7043 22.2483C65.8963 22.0563 65.9603 21.8643 65.9603 21.7363C65.9603 21.6083 65.8963 21.5443 65.7683 21.5443C65.6403 21.5443 65.5123 21.5443 65.3843 21.6083C63.7843 22.4403 60.8403 24.6163 56.5523 28.1363C52.2643 31.6563 48.6803 35.2403 45.8003 38.8883C44.2003 40.8723 43.0483 42.6003 42.2803 44.0723C41.5123 44.0083 40.9363 43.7523 40.5523 43.3043C40.1683 42.8563 39.9763 42.4083 39.9763 41.8963C39.9763 40.8083 40.4883 39.2723 41.5763 37.2243C42.7923 34.9843 44.1363 32.7443 45.6083 30.5043C47.0803 28.2643 48.3603 26.3443 49.4483 24.8083C50.5363 23.2723 51.1123 22.4403 51.1763 22.3763C51.2403 22.2483 51.2403 22.1203 51.1763 21.9923C51.1123 21.8643 50.9843 21.8003 50.8563 21.8003C50.4723 21.8003 49.1923 22.5683 47.0803 24.1043C44.9683 25.6403 42.4083 27.7523 39.3363 30.4403C36.2643 33.1283 33.7043 35.7523 31.5923 38.2483C29.0963 41.2563 27.4963 43.3683 26.7923 44.5843C25.5123 44.0083 24.8723 43.2403 24.8723 42.2803C24.8723 41.7043 25.1923 40.8723 25.8323 39.7843C26.4723 38.6963 27.5603 37.0323 29.0323 34.7923C30.5043 32.5523 31.7843 30.5043 32.8723 28.6483C34.8563 25.2563 36.1363 22.7603 36.7123 21.2243C37.2883 19.6883 37.7363 17.8323 38.0563 15.6563ZM65.8963 12.2003V12.3283C65.3203 12.3283 63.7203 12.2643 61.0963 12.0723C58.4723 11.8803 56.2323 11.8163 54.4403 11.8163C49.8963 11.8163 46.7603 12.6483 44.9683 14.3123C44.7763 13.6723 44.6483 13.0963 44.6483 12.5203C44.6483 11.0483 45.2243 9.76834 46.3123 8.68034C47.4003 7.59233 48.8723 7.08034 50.6643 7.08034C53.0323 7.08034 56.1043 7.33634 59.9443 7.91233C63.7843 8.48833 66.5363 8.74434 68.2003 8.74434C72.1683 8.74434 74.6643 8.29634 75.7523 7.33634C75.6243 8.93634 74.6643 10.1523 72.8083 10.9843C70.9523 11.8163 68.6483 12.2003 65.8963 12.2003ZM92.9373 0.616337V0.552338C94.3453 1.70433 95.0493 3.17633 95.0493 4.90434C95.0493 6.76034 94.4093 8.23234 93.0653 9.38433C91.7213 10.5363 90.1213 11.1123 88.2653 11.1123C87.4333 11.1123 86.4733 10.9203 85.3853 10.6003C86.9853 9.57634 88.6493 7.84834 90.3773 5.35234C90.9533 4.52034 91.4653 3.68834 91.9133 2.92034C92.3613 2.15234 92.6173 1.57634 92.7453 1.19234L92.9373 0.616337ZM82.3773 22.1203L82.3133 22.1843C82.8893 20.7123 83.2093 18.9843 83.2093 17.0003C85.4493 16.9363 87.0493 17.1283 87.9453 17.5763C88.8413 18.0243 89.2893 18.7923 89.2893 19.8803C89.2893 21.2243 88.2653 23.5283 86.1533 26.7923L79.8173 36.7763C77.7053 40.1683 76.6173 42.6643 76.6173 44.2643C74.4413 43.3683 73.4813 41.7043 73.7373 39.2723C73.8653 38.1843 74.3773 36.8403 75.2733 35.3043L78.7933 29.3523C80.2013 26.9203 81.4173 24.4883 82.3773 22.1203ZM104.929 20.0723L104.801 19.8803C104.801 20.9683 104.353 22.3763 103.393 24.1043C102.433 25.8323 101.473 27.2403 100.513 28.3923L99.1053 30.1843C102.945 29.6083 105.505 29.1603 106.849 28.7763C108.001 27.4323 109.537 25.3203 111.393 22.4403C113.249 19.5603 114.337 17.3843 114.593 15.9123C115.937 16.1043 117.089 16.4883 118.049 17.0643C119.009 17.6403 119.521 18.4083 119.521 19.4323C119.521 20.3923 118.817 21.8643 117.473 23.8483C116.129 25.8323 114.401 28.1363 112.289 30.7603C110.177 33.3843 108.705 35.3683 107.809 36.7763C106.593 38.6963 106.017 40.2323 106.017 41.3843C106.017 42.3443 106.465 42.8563 107.425 42.8563C109.665 42.8563 112.801 40.8723 116.833 36.9043C120.865 32.9363 123.489 29.9283 124.705 27.8803C125.025 28.0723 125.217 28.3923 125.217 28.7763C125.217 29.2243 125.025 29.7363 124.641 30.3123C124.257 30.8883 123.489 31.7843 122.337 33.0643C121.185 34.3443 119.649 35.8803 117.729 37.7363C115.809 39.5923 113.697 41.1923 111.457 42.5363C109.217 43.8803 107.233 44.5203 105.505 44.5203C104.161 44.5203 103.137 44.1363 102.369 43.4323C101.601 42.7283 101.217 41.7683 101.217 40.5523C101.217 38.0563 102.881 34.6003 106.209 30.1843C101.537 31.0803 98.8493 31.5923 98.1453 31.7203C93.3453 37.1603 89.8893 41.7043 87.7133 45.3523C86.3693 44.8403 85.6653 43.9443 85.6653 42.7283C85.6653 42.3443 85.7933 41.8963 85.9853 41.3843C86.1773 40.8723 86.5613 40.1683 87.0733 39.3363C87.5853 38.5043 88.0333 37.8003 88.3533 37.2883L90.2093 34.5363L92.0653 31.7843C93.5373 29.5443 94.6253 27.8163 95.3293 26.6003C96.0333 25.3843 96.8653 23.7843 97.7613 21.8003C98.6573 19.8163 99.1053 18.2163 99.1053 17.0003C99.1053 16.6803 99.1053 16.4883 99.0413 16.3603C101.153 16.4243 102.689 16.7443 103.585 17.3843C104.481 18.0243 104.929 18.9203 104.929 20.0723ZM138 0.616337V0.552338C139.408 1.70433 140.112 3.17633 140.112 4.90434C140.112 6.76034 139.472 8.23234 138.128 9.38433C136.784 10.5363 135.184 11.1123 133.328 11.1123C132.496 11.1123 131.536 10.9203 130.448 10.6003C132.048 9.57634 133.712 7.84834 135.44 5.35234C136.016 4.52034 136.528 3.68834 136.976 2.92034C137.424 2.15234 137.68 1.57634 137.808 1.19234L138 0.616337ZM127.44 22.1203L127.376 22.1843C127.952 20.7123 128.272 18.9843 128.272 17.0003C130.512 16.9363 132.112 17.1283 133.008 17.5763C133.904 18.0243 134.352 18.7923 134.352 19.8803C134.352 21.2243 133.328 23.5283 131.216 26.7923L124.88 36.7763C122.768 40.1683 121.68 42.6643 121.68 44.2643C119.504 43.3683 118.544 41.7043 118.8 39.2723C118.928 38.1843 119.44 36.8403 120.336 35.3043L123.856 29.3523C125.264 26.9203 126.48 24.4883 127.44 22.1203ZM155.816 53.5443V53.6723C155.24 53.6723 153.64 53.6083 151.016 53.4163C148.392 53.2243 146.152 53.1603 144.36 53.1603C140.072 53.1603 136.936 53.9923 134.888 55.6563C134.696 55.0163 134.568 54.4403 134.568 53.8643C134.568 52.3923 135.144 51.1123 136.232 50.0243C137.32 48.9363 138.792 48.4243 140.584 48.4243C142.952 48.4243 146.024 48.6803 149.864 49.2563C153.704 49.8323 156.456 50.0883 158.12 50.0883C162.088 50.0883 164.584 49.6403 165.672 48.6803C165.544 50.2803 164.584 51.4963 162.728 52.3283C160.872 53.1603 158.568 53.5443 155.816 53.5443ZM142.76 16.2963L142.568 16.4243C143.528 16.3603 144.104 16.2963 144.36 16.2963C146.984 16.2963 148.264 17.1923 148.264 19.0483C148.264 20.5203 147.24 22.9523 145.192 26.2803C143.144 29.6083 141.032 32.7443 138.792 35.6883C136.552 38.6323 135.4 40.1683 135.336 40.2323C135.144 40.4243 135.08 40.6803 135.08 41.0003C135.08 41.4483 135.272 41.6403 135.72 41.6403C136.744 41.6403 139.304 39.7203 143.4 35.8803C147.496 32.0403 150.952 28.4563 153.704 25.0643L156.712 20.7763C157.48 19.7523 158.44 18.7283 159.528 17.7043C160.616 16.6803 161.576 16.1683 162.344 16.1683C163.752 16.1683 165.16 16.6803 166.568 17.7043C164.584 19.6883 161.832 23.0163 158.312 27.6243C156.456 30.0563 154.664 32.6803 152.872 35.5603C151.08 38.4403 150.184 40.2963 150.184 41.1283C150.184 41.7043 150.44 41.9603 151.016 41.9603C152.232 41.9603 155.368 39.4003 160.424 34.2803L167.4 26.7283C167.784 26.2803 168.68 25.1923 170.088 23.4643C171.496 21.7363 172.648 20.3923 173.48 19.4323C175.4 17.2563 176.936 16.1683 178.088 16.1683C179.496 16.1683 180.776 16.8083 181.992 18.1523C181.16 18.8563 180.072 19.9443 178.728 21.4163C177.384 22.8883 175.784 24.7443 173.928 26.9203C172.072 29.0963 170.536 31.4003 169.256 33.8323C167.976 36.2643 167.336 38.3763 167.336 40.1683C167.336 42.0883 168.168 43.0483 169.896 43.0483C171.688 43.0483 173.864 41.8323 176.488 39.4003C179.112 36.9683 181.224 34.6643 182.888 32.4883C184.552 30.3123 185.512 28.9043 185.768 28.3283C186.28 28.5203 186.472 28.9683 186.28 29.6723C186.216 29.9283 185.576 30.8243 184.424 32.2963C183.272 33.7683 181.864 35.4323 180.2 37.2883C178.536 39.1443 176.616 40.8083 174.44 42.2803C172.264 43.7523 170.28 44.4563 168.552 44.4563C166.888 44.4563 165.544 44.0083 164.456 43.1123C163.368 42.2163 162.856 40.8723 162.856 39.0803C162.856 37.0323 163.304 34.9843 164.2 32.9363C165.096 30.8883 165.864 29.6083 166.44 29.0963C163.176 33.0643 159.912 36.5203 156.648 39.4643C153.384 42.4083 150.952 43.8803 149.352 43.8803C148.392 43.8803 147.688 43.5603 147.176 42.9843C146.664 42.4083 146.408 41.6403 146.408 40.6803C146.408 39.2723 146.856 37.6083 147.752 35.6243C148.648 33.6403 149.544 32.0403 150.376 30.7603L151.72 28.9043C148.84 32.3603 145.512 35.6883 141.672 38.9523C137.832 42.2163 135.208 43.8163 133.8 43.8163C131.944 43.8163 130.984 42.8563 130.984 41.0003C130.984 40.5523 131.112 39.9763 131.432 39.2723C131.752 38.5683 132.2 37.7363 132.776 36.7763C133.352 35.8163 133.864 34.9203 134.376 34.0883L136.232 31.1443L137.832 28.5843C141.288 23.0163 143.016 19.2403 143.016 17.3203C143.016 17.0643 142.952 16.7443 142.76 16.2963Z" fill="white"></path></svg> 