<?xml version="1.0" encoding="UTF-8"?> <svg xmlns="http://www.w3.org/2000/svg" width="253" height="37" viewBox="0 0 253 37" fill="none"><path d="M2.49016 34.6304L2.55416 34.5024C1.14616 33.5424 0.442164 32.1984 0.442164 30.4704C0.442164 29.1264 0.954165 27.5904 1.91416 25.8624C2.87416 24.1344 4.21816 22.1504 5.88216 19.9104L12.2182 11.7824L17.4022 5.25443C11.6422 9.67043 6.84216 11.8464 3.06616 11.8464C1.33816 11.8464 0.506165 11.2064 0.506165 9.92643C0.506165 9.67043 0.570164 9.28643 0.634164 8.77443C1.53016 8.90243 2.49016 8.96642 3.45016 8.96642C5.43417 8.96642 7.73816 8.45443 10.3622 7.43043C13.5622 6.21443 16.1862 4.93443 18.1702 3.59043C20.0902 1.28643 21.7542 0.134426 23.2262 0.134426C23.6742 0.134426 24.2502 0.262424 24.9542 0.454426L9.46616 23.4304L2.49016 34.6304ZM40.6307 0.00642395L40.5027 0.198425C43.1267 0.198425 45.3027 0.710426 46.9667 1.73442C48.6307 2.75842 49.4627 4.10242 49.4627 5.83043C49.4627 10.2464 45.0467 13.7664 36.1507 16.3904C36.2147 16.5824 36.4707 17.0304 36.8547 17.7344L37.7507 19.2064C37.9427 19.5264 38.1987 19.9744 38.5187 20.6144C38.8387 21.2544 39.0307 21.7664 39.1587 22.1504C39.2867 22.5344 39.4147 22.9824 39.5427 23.4944C39.6707 24.0064 39.7347 24.5184 39.7347 24.9664C39.7347 28.2304 38.3267 30.8544 35.5107 32.8384C32.6947 34.8224 29.1107 35.7824 24.6947 35.7824C21.7507 35.7824 19.3187 35.1424 17.3347 33.8624C15.3507 32.5824 14.3907 30.6624 14.3907 28.1664C14.3907 26.5664 14.8387 25.0944 15.7987 23.7504C16.7587 22.4064 18.0387 21.2544 19.6387 20.2944C21.2387 19.3344 22.9027 18.5024 24.6947 17.8624C26.4867 17.2224 28.4067 16.6464 30.3907 16.1984C29.0467 13.8304 28.4067 11.5904 28.4067 9.47843C28.4067 6.91842 29.5587 4.67842 31.8627 2.82243C34.1667 0.966427 37.1107 0.00642395 40.6307 0.00642395ZM34.5507 26.6944L34.4867 26.8224C34.4867 24.7104 33.2067 21.6384 30.6467 17.6064C27.1267 18.5024 24.1187 19.9104 21.6227 21.7664C19.1267 23.6224 17.9107 25.9264 17.9107 28.6784C17.9107 30.4704 18.5507 31.8784 19.8307 32.9024C21.1107 33.9264 22.9667 34.4384 25.3987 34.4384C27.8947 34.4384 30.0707 33.6704 31.8627 32.1344C33.6547 30.5984 34.5507 28.8064 34.5507 26.6944ZM33.3987 9.09443H33.4627C33.4627 11.3344 34.1027 13.3824 35.3827 15.2384C38.1347 14.4704 40.5667 13.2544 42.6787 11.5904C44.7907 9.92643 45.8787 8.13443 45.8787 6.27843C45.8787 3.27043 44.2147 1.73442 40.9507 1.73442C38.8387 1.73442 37.0467 2.37443 35.5747 3.65442C34.1027 4.93443 33.3987 6.72643 33.3987 9.09443ZM48.5092 26.1824L48.3812 26.0544C49.2132 26.7584 49.7892 27.2704 50.1092 27.5904C50.4292 27.9104 50.7492 28.2944 51.0052 28.7424C51.2612 29.1904 51.3892 29.7024 51.3892 30.2784C51.3892 31.1104 50.8132 32.0704 49.7252 33.2224C48.6372 34.3744 47.2292 35.3344 45.5652 36.1664C44.3492 35.4624 43.7092 34.5024 43.7092 33.3504C43.7092 32.9664 43.7732 32.5184 43.9652 32.0704C44.1572 31.6224 44.4132 31.1104 44.7972 30.5984L45.8852 29.1904C46.2052 28.8064 46.6532 28.2944 47.2292 27.6544C47.8052 27.0144 48.2532 26.5024 48.5092 26.1824ZM81.4477 0.198425L81.3837 0.262424C83.9437 0.262424 85.7997 0.902424 86.9517 2.24643C88.1037 3.59043 88.6797 5.25443 88.6797 7.23843C88.6797 11.0144 87.2077 15.1104 84.2637 19.5264C81.3197 23.9424 77.8637 27.6544 73.8317 30.5984C69.7997 33.5424 66.2797 35.0144 63.2077 35.0144C60.9677 35.0144 59.2397 34.4384 58.0237 33.2864C56.8077 32.1344 56.2317 30.4704 56.2317 28.3584C56.2317 24.3904 57.5117 20.2304 60.0077 15.8144C62.5037 11.3984 65.7677 7.68643 69.7357 4.67842C73.7037 1.67043 77.6077 0.198425 81.4477 0.198425ZM82.7277 2.11843H82.7917C80.0397 2.11843 76.9677 3.71843 73.5757 6.91842C70.1837 10.1184 67.3037 13.9584 64.9357 18.3744C62.5677 22.7904 61.4157 26.6304 61.4157 29.9584C61.4157 32.1344 62.3117 33.2224 64.0397 33.2224C65.5117 33.2224 67.4317 32.3264 69.7997 30.4704C72.1677 28.6144 74.5357 26.3104 76.8397 23.6224C79.1437 20.9344 81.1277 17.8624 82.7917 14.4064C84.4557 10.9504 85.2877 7.75043 85.2877 4.87043C85.2877 3.01443 84.4557 2.11843 82.7277 2.11843ZM109.943 0.00642395L109.815 0.198425C112.439 0.198425 114.615 0.710426 116.279 1.73442C117.943 2.75842 118.775 4.10242 118.775 5.83043C118.775 10.2464 114.359 13.7664 105.463 16.3904C105.527 16.5824 105.783 17.0304 106.167 17.7344L107.063 19.2064C107.255 19.5264 107.511 19.9744 107.831 20.6144C108.151 21.2544 108.343 21.7664 108.471 22.1504C108.599 22.5344 108.727 22.9824 108.855 23.4944C108.983 24.0064 109.047 24.5184 109.047 24.9664C109.047 28.2304 107.639 30.8544 104.823 32.8384C102.007 34.8224 98.4232 35.7824 94.0072 35.7824C91.0632 35.7824 88.6312 35.1424 86.6472 33.8624C84.6632 32.5824 83.7032 30.6624 83.7032 28.1664C83.7032 26.5664 84.1512 25.0944 85.1112 23.7504C86.0712 22.4064 87.3512 21.2544 88.9512 20.2944C90.5512 19.3344 92.2152 18.5024 94.0072 17.8624C95.7992 17.2224 97.7192 16.6464 99.7032 16.1984C98.3592 13.8304 97.7192 11.5904 97.7192 9.47843C97.7192 6.91842 98.8712 4.67842 101.175 2.82243C103.479 0.966427 106.423 0.00642395 109.943 0.00642395ZM103.863 26.6944L103.799 26.8224C103.799 24.7104 102.519 21.6384 99.9592 17.6064C96.4392 18.5024 93.4312 19.9104 90.9352 21.7664C88.4392 23.6224 87.2232 25.9264 87.2232 28.6784C87.2232 30.4704 87.8632 31.8784 89.1432 32.9024C90.4232 33.9264 92.2792 34.4384 94.7112 34.4384C97.2072 34.4384 99.3832 33.6704 101.175 32.1344C102.967 30.5984 103.863 28.8064 103.863 26.6944ZM102.711 9.09443H102.775C102.775 11.3344 103.415 13.3824 104.695 15.2384C107.447 14.4704 109.879 13.2544 111.991 11.5904C114.103 9.92643 115.191 8.13443 115.191 6.27843C115.191 3.27043 113.527 1.73442 110.263 1.73442C108.151 1.73442 106.359 2.37443 104.887 3.65442C103.415 4.93443 102.711 6.72643 102.711 9.09443ZM117.822 26.1824L117.694 26.0544C118.526 26.7584 119.102 27.2704 119.422 27.5904C119.742 27.9104 120.062 28.2944 120.318 28.7424C120.574 29.1904 120.702 29.7024 120.702 30.2784C120.702 31.1104 120.126 32.0704 119.038 33.2224C117.95 34.3744 116.542 35.3344 114.878 36.1664C113.662 35.4624 113.022 34.5024 113.022 33.3504C113.022 32.9664 113.086 32.5184 113.278 32.0704C113.47 31.6224 113.726 31.1104 114.11 30.5984L115.198 29.1904C115.518 28.8064 115.966 28.2944 116.542 27.6544C117.118 27.0144 117.566 26.5024 117.822 26.1824ZM136.872 4.80643L136.936 4.93443C140.968 1.92643 145.256 0.454426 149.8 0.454426C153.448 0.454426 155.304 1.86243 155.304 4.61443C155.304 7.11043 154.536 9.47843 152.936 11.7184C151.336 13.9584 148.904 16.3904 145.576 18.9504C143.08 20.8704 139.432 23.1104 134.632 25.7344C129.832 28.3584 126.76 30.1504 125.416 31.1104C127.4 30.6624 129.064 30.4064 130.344 30.4064C131.88 30.4064 133.992 30.5344 136.744 30.8544C139.496 31.1744 141.736 31.3024 143.464 31.3024C146.984 31.3024 149.928 30.5344 152.296 29.0624C151.72 31.4944 150.632 33.2864 149.032 34.4384C147.432 35.5904 145.576 36.1664 143.464 36.1664C141.224 36.1664 138.344 35.6544 134.824 34.6944C131.304 33.7344 128.168 33.1584 125.48 33.0304C124.904 32.9664 124.2 32.9664 123.368 32.9664C122.28 32.9664 121.448 33.0304 120.808 33.2224C121.128 32.5184 121.576 31.8784 122.216 31.3024C123.624 29.9584 125.096 28.6784 126.632 27.4624L132.392 23.0464L137.64 19.0784C146.28 12.3584 150.568 7.11043 150.568 3.33442C150.568 2.18242 149.992 1.60643 148.776 1.60643C144.744 1.60643 139.816 5.83043 133.928 14.2144C132.968 13.2544 132.456 12.1024 132.456 10.7584C132.456 8.90243 133.928 6.91842 136.872 4.80643ZM180.76 0.198425L180.696 0.262424C183.256 0.262424 185.112 0.902424 186.264 2.24643C187.416 3.59043 187.992 5.25443 187.992 7.23843C187.992 11.0144 186.52 15.1104 183.576 19.5264C180.632 23.9424 177.176 27.6544 173.144 30.5984C169.112 33.5424 165.592 35.0144 162.52 35.0144C160.28 35.0144 158.552 34.4384 157.336 33.2864C156.12 32.1344 155.544 30.4704 155.544 28.3584C155.544 24.3904 156.824 20.2304 159.32 15.8144C161.816 11.3984 165.08 7.68643 169.048 4.67842C173.016 1.67043 176.92 0.198425 180.76 0.198425ZM182.04 2.11843H182.104C179.352 2.11843 176.28 3.71843 172.888 6.91842C169.496 10.1184 166.616 13.9584 164.248 18.3744C161.88 22.7904 160.728 26.6304 160.728 29.9584C160.728 32.1344 161.624 33.2224 163.352 33.2224C164.824 33.2224 166.744 32.3264 169.112 30.4704C171.48 28.6144 173.848 26.3104 176.152 23.6224C178.456 20.9344 180.44 17.8624 182.104 14.4064C183.768 10.9504 184.6 7.75043 184.6 4.87043C184.6 3.01443 183.768 2.11843 182.04 2.11843ZM196.81 4.80643L196.874 4.93443C200.906 1.92643 205.194 0.454426 209.738 0.454426C213.386 0.454426 215.242 1.86243 215.242 4.61443C215.242 7.11043 214.474 9.47843 212.874 11.7184C211.274 13.9584 208.842 16.3904 205.514 18.9504C203.018 20.8704 199.37 23.1104 194.57 25.7344C189.77 28.3584 186.698 30.1504 185.354 31.1104C187.338 30.6624 189.002 30.4064 190.282 30.4064C191.818 30.4064 193.93 30.5344 196.682 30.8544C199.434 31.1744 201.674 31.3024 203.402 31.3024C206.922 31.3024 209.866 30.5344 212.234 29.0624C211.658 31.4944 210.57 33.2864 208.97 34.4384C207.37 35.5904 205.514 36.1664 203.402 36.1664C201.162 36.1664 198.282 35.6544 194.762 34.6944C191.242 33.7344 188.106 33.1584 185.418 33.0304C184.842 32.9664 184.138 32.9664 183.306 32.9664C182.218 32.9664 181.386 33.0304 180.746 33.2224C181.066 32.5184 181.514 31.8784 182.154 31.3024C183.562 29.9584 185.034 28.6784 186.57 27.4624L192.33 23.0464L197.578 19.0784C206.218 12.3584 210.506 7.11043 210.506 3.33442C210.506 2.18242 209.93 1.60643 208.714 1.60643C204.682 1.60643 199.754 5.83043 193.866 14.2144C192.906 13.2544 192.394 12.1024 192.394 10.7584C192.394 8.90243 193.866 6.91842 196.81 4.80643ZM252.09 3.52642H252.026C252.026 4.74243 251.514 6.08643 250.49 7.55843C250.17 6.85443 249.85 6.34243 249.53 5.95843C249.21 5.57442 248.57 5.25443 247.674 4.93443C246.778 4.61443 245.562 4.48643 244.09 4.48643C241.594 4.48643 238.522 4.87043 234.874 5.70243L231.034 10.9504C229.498 13.1264 228.346 14.6624 227.578 15.5584C230.138 14.8544 232.378 14.5344 234.362 14.5344C237.178 14.5344 239.098 14.9184 240.122 15.6864C241.146 16.4544 241.658 17.6704 241.658 19.3984C241.658 22.6624 239.61 26.0544 235.45 29.6384C231.29 33.2224 227.066 35.0144 222.778 35.0144C220.282 35.0144 218.17 34.5024 216.442 33.4784C214.714 32.4544 213.882 30.9184 213.882 28.9344C213.882 27.5904 214.33 26.3744 215.226 25.2864C216.57 28.2304 219.13 29.7024 222.842 29.7024C226.49 29.7024 230.074 28.4224 233.594 25.9264C237.114 23.4304 238.906 20.9984 238.906 18.6944C238.906 17.7984 238.65 17.0944 238.138 16.5824C237.626 16.0704 236.666 15.8144 235.258 15.8144C232.506 15.8144 230.074 16.2624 228.026 17.1584C225.978 18.0544 224.506 19.0784 223.546 20.2944C222.714 19.5264 222.33 18.6304 222.33 17.6704C222.33 16.7104 222.714 15.8144 223.418 14.9824C224.314 13.9584 225.658 12.6144 227.45 10.9504C229.242 9.28643 230.65 7.87843 231.738 6.72643C232.826 5.57442 233.338 4.67842 233.338 4.03843C233.338 3.65442 233.146 3.20642 232.762 2.69443C239.226 0.902424 244.026 0.00642395 247.162 0.00642395C249.018 0.00642395 250.298 0.262424 251.002 0.838425C251.706 1.41442 252.09 2.31042 252.09 3.52642Z" fill="white"></path></svg> 