<?xml version="1.0" encoding="UTF-8"?> <svg xmlns="http://www.w3.org/2000/svg" width="354" height="285" viewBox="0 0 354 285" fill="none"><g filter="url(#filter0_d_728_29)"><rect x="5.28906" y="0.450439" width="343.394" height="273.702" rx="10.6671" fill="#FFFCF9"></rect></g><path d="M73.1954 40.229L72.9328 40.6418C74.2462 40.6418 75.2219 40.942 75.8223 41.5424C76.4228 42.1429 76.723 43.0435 76.723 44.2069C76.723 45.783 76.2351 47.6593 75.2219 49.8359C74.2087 52.0124 73.1204 53.9638 71.9195 55.7276C70.7187 57.4914 69.6304 59.2176 68.6172 60.9063C67.6039 62.595 67.1161 63.7959 67.1161 64.5089C67.1161 64.9967 67.3037 65.2219 67.679 65.2219C68.6172 65.2219 70.7937 63.233 74.1711 59.2551C75.2594 57.9792 76.6104 56.2154 78.224 54.0014C79.8377 51.7873 81.1887 49.8359 82.2394 48.1847C83.5529 46.0832 84.4535 44.5446 84.9413 43.6064C85.4292 42.6683 85.8045 41.7676 86.0296 40.9045C87.3806 41.3548 88.0561 42.2555 88.0561 43.5689C88.0561 44.2819 87.7559 45.1075 87.1179 46.0457L85.4667 48.5975L83.8906 51.0367L82.5396 53.1758C81.9392 54.1139 81.5264 54.827 81.2637 55.2773L80.2505 57.1161C79.8377 57.8666 79.5375 58.5046 79.3498 58.9924L78.7869 60.6061C78.5618 61.2065 78.4117 61.7694 78.3366 62.2948C78.2616 62.8202 78.224 63.308 78.224 63.7959C78.224 65.1844 78.8245 66.01 80.0629 66.2351C79.4249 66.4227 78.8995 66.4978 78.4867 66.4978C76.3477 66.4978 75.2969 65.4471 75.2969 63.3831C75.2969 61.0564 76.9857 57.4163 80.3631 52.4252C80.4006 52.3502 80.4381 52.2751 80.4381 52.2001C80.4381 52.125 80.4006 52.0875 80.3255 52.0875C80.2505 52.0875 80.1754 52.125 80.1379 52.2001C77.5486 56.0653 74.9967 59.4052 72.4824 62.1822C69.9681 64.9592 68.0167 66.3477 66.6282 66.3477C65.0521 66.3477 64.2641 65.6347 64.2641 64.2087C64.2641 63.2705 64.6768 62.0321 65.5024 60.4935C66.328 58.9549 67.4914 57.0035 68.9924 54.6393C70.4935 52.2751 71.6568 50.2111 72.52 48.4474C71.3942 50.0235 69.8931 51.9374 67.9792 54.1515C66.0653 56.3656 64.3766 58.2044 62.9131 59.6304C58.4474 63.946 54.9199 66.085 52.3305 66.085C50.7169 66.085 49.8913 65.3345 49.8913 63.8334C49.8913 63.0829 50.1164 62.2948 50.5292 61.5067C50.942 60.7187 51.5049 59.7805 52.2179 58.7297C52.9309 57.679 53.4938 56.7033 53.8691 55.8402C53.9817 55.5775 54.2069 54.7894 54.5821 53.476C56.1583 53.8888 56.9463 54.7894 56.9463 56.1404C56.9463 56.966 56.5335 57.9417 55.7455 59.105C54.9574 60.2683 54.1693 61.3191 53.3813 62.2948C52.5932 63.2705 52.1804 63.9835 52.1804 64.3963C52.1804 64.8091 52.4056 64.9967 52.8934 64.9967C53.8691 64.9967 55.145 64.5089 56.7212 63.5332C58.2973 62.5575 59.9485 61.2816 61.6372 59.7054C65.2773 56.3656 68.5796 52.6129 71.5818 48.4474C72.9703 46.496 73.6833 44.5071 73.6833 42.4806C73.6833 41.9928 73.6082 41.655 73.4206 41.4299C73.233 41.2047 72.9328 41.0921 72.52 41.0921C70.6436 41.0921 68.8048 41.8802 66.966 43.4188C65.1272 44.9574 64.2265 46.6461 64.2265 48.4474C64.2265 49.6107 64.7144 50.2862 65.7276 50.4738C65.3899 51.0367 64.827 51.2994 64.0389 51.2994C63.476 51.2994 62.9881 51.1118 62.6129 50.7365C62.2376 50.3613 62.05 49.7984 62.05 49.0478C62.05 47.6968 62.6504 46.3084 63.8137 44.9199C64.9771 43.5314 66.4406 42.4056 68.1668 41.5424C69.8931 40.6793 71.5818 40.229 73.1954 40.229ZM98.8711 51.5621L98.7961 51.6372C98.7961 52.125 98.646 52.6129 98.3082 53.1007C97.9705 53.5886 97.4451 54.1139 96.6946 54.6768C95.944 55.2397 94.8182 55.7651 93.2796 56.253C91.741 56.7408 89.9397 57.1161 87.8382 57.3788C86.4497 59.5178 85.7367 61.3942 85.7367 63.0078C85.7367 64.3212 86.3747 64.9967 87.6506 64.9967C89.6395 64.9967 91.8911 63.9835 94.4054 61.9946C96.9197 60.0057 98.7586 58.2044 99.8844 56.6282C100.034 56.7408 100.11 56.8909 100.11 57.1161C100.11 57.3413 100.072 57.5289 99.9594 57.7165C98.1206 59.9306 95.9065 61.882 93.3172 63.5707C90.7278 65.2594 88.2135 66.085 85.7367 66.085C84.6485 66.085 83.8229 65.8223 83.2224 65.2969C82.622 64.7716 82.3218 64.021 82.3218 63.0078C82.3218 61.169 83.0723 59.1801 84.6109 57.041C86.1495 54.902 88.0259 53.1382 90.24 51.7122C92.454 50.2862 94.4805 49.5732 96.3193 49.5732C98.008 49.5732 98.8711 50.2487 98.8711 51.5621ZM88.251 56.7783H88.176C90.3901 56.3656 92.2664 55.615 93.805 54.4892C95.3436 53.3634 96.0941 52.2751 96.0941 51.1868C96.0941 50.7741 95.9065 50.5864 95.5312 50.5864C94.5555 50.5864 93.3172 51.2994 91.8536 52.7254C90.3901 54.1515 89.1892 55.5024 88.251 56.7783ZM102.632 49.6858L102.519 49.9109C102.707 49.8734 102.894 49.8734 103.082 49.8734C104.921 49.8734 105.822 50.4363 105.822 51.5621C105.822 52.5003 105.484 53.551 104.771 54.7144C104.058 55.8777 103.27 56.9285 102.407 57.8666C102.332 57.9792 102.332 58.0167 102.369 58.0167C102.407 58.0167 102.482 57.9792 102.557 57.9417C106.084 55.1272 108.298 53.4009 109.161 52.763C110.025 52.125 111.075 51.4871 112.351 50.8116C113.627 50.1361 114.603 49.7984 115.316 49.7984C116.104 49.7984 116.517 50.0986 116.517 50.699C116.517 50.9992 116.367 51.3745 116.104 51.8248C115.841 52.2751 115.391 52.8005 114.753 53.4385C114.115 54.0764 113.552 54.6018 113.064 55.0146L110.963 56.8909L109.049 58.5796C108.411 58.2044 108.111 57.679 108.111 57.041C108.111 56.2905 108.561 55.54 109.424 54.827C109.837 54.4892 110.512 54.0389 111.413 53.476C112.314 52.9131 113.027 52.4252 113.59 52.0124C114.152 51.5996 114.415 51.2994 114.415 51.1118C114.415 50.9992 114.34 50.9617 114.152 50.9617C113.702 50.9617 112.802 51.3745 111.413 52.2001C110.025 53.0257 108.749 53.8513 107.585 54.7144L103.12 58.2419C103.908 58.4671 104.583 59.0675 105.146 60.0057L106.872 63.0829L108.373 65.7848C109.236 67.3234 110.325 68.0739 111.601 68.0739C112.013 68.0739 112.426 67.9989 112.802 67.8112C112.539 68.224 112.089 68.5993 111.451 68.937C110.813 69.2748 110.137 69.4249 109.424 69.4249C108.336 69.4249 107.473 69.1997 106.835 68.7869C106.197 68.3741 105.634 67.6236 105.146 66.5729C104.921 66.1225 104.696 65.5596 104.471 64.9217L103.645 62.6325C103.307 61.7319 103.082 61.0939 102.969 60.7187C102.707 59.9306 102.219 59.4428 101.468 59.2551C100.906 59.8931 99.8923 61.0939 98.4287 62.8577C97.1903 64.3963 96.4023 65.5221 96.0645 66.1976C95.3515 65.8598 94.9763 65.2969 94.9763 64.5089C94.9763 64.021 95.2014 63.4206 95.6142 62.7451C95.8769 62.3323 96.74 61.169 98.2036 59.2176C99.6671 57.2662 100.793 55.54 101.543 54.0764C102.294 52.6129 102.669 51.2244 102.669 49.9109C102.669 49.7984 102.669 49.7233 102.632 49.6858ZM129.142 51.5621L129.067 51.6372C129.067 52.125 128.917 52.6129 128.579 53.1007C128.241 53.5886 127.716 54.1139 126.965 54.6768C126.215 55.2397 125.089 55.7651 123.55 56.253C122.012 56.7408 120.21 57.1161 118.109 57.3788C116.72 59.5178 116.007 61.3942 116.007 63.0078C116.007 64.3212 116.645 64.9967 117.921 64.9967C119.91 64.9967 122.162 63.9835 124.676 61.9946C127.19 60.0057 129.029 58.2044 130.155 56.6282C130.305 56.7408 130.38 56.8909 130.38 57.1161C130.38 57.3413 130.343 57.5289 130.23 57.7165C128.391 59.9306 126.177 61.882 123.588 63.5707C120.998 65.2594 118.484 66.085 116.007 66.085C114.919 66.085 114.094 65.8223 113.493 65.2969C112.893 64.7716 112.592 64.021 112.592 63.0078C112.592 61.169 113.343 59.1801 114.882 57.041C116.42 54.902 118.297 53.1382 120.511 51.7122C122.725 50.2862 124.751 49.5732 126.59 49.5732C128.279 49.5732 129.142 50.2487 129.142 51.5621ZM118.522 56.7783H118.447C120.661 56.3656 122.537 55.615 124.076 54.4892C125.614 53.3634 126.365 52.2751 126.365 51.1868C126.365 50.7741 126.177 50.5864 125.802 50.5864C124.826 50.5864 123.588 51.2994 122.124 52.7254C120.661 54.1515 119.46 55.5024 118.522 56.7783ZM136.355 51.8248L136.28 51.7122C136.28 52.3502 136.017 53.1758 135.454 54.189C134.891 55.2022 134.328 56.0278 133.766 56.7033L132.94 57.754C135.192 57.4163 136.693 57.1536 137.481 56.9285C138.156 56.1404 139.057 54.902 140.145 53.2133C141.233 51.5246 141.871 50.2487 142.021 49.3856C142.81 49.4981 143.485 49.7233 144.048 50.061C144.611 50.3988 144.911 50.8491 144.911 51.4495C144.911 52.0124 144.498 52.8756 143.71 54.0389C142.922 55.2022 141.909 56.5532 140.67 58.0918C139.432 59.6304 138.569 60.7937 138.044 61.6193C137.368 62.7076 137.03 63.6082 137.03 64.3212C137.03 64.8841 137.293 65.1844 137.818 65.1844C138.531 65.1844 139.169 64.9592 139.732 64.5089C139.432 64.9592 138.982 65.3345 138.381 65.6722C137.781 66.01 137.18 66.1601 136.58 66.1601C135.792 66.1601 135.192 65.9349 134.779 65.5221C134.366 65.1093 134.178 64.5464 134.178 63.8334C134.178 62.3698 135.154 60.3434 137.105 57.754C134.366 58.2794 132.79 58.5796 132.377 58.6547C129.563 61.8445 127.536 64.5089 126.26 66.6479C125.472 66.3477 125.059 65.8223 125.059 65.1093C125.059 64.8841 125.134 64.6215 125.247 64.3212C125.36 64.021 125.585 63.6082 125.885 63.1204C126.185 62.6325 126.448 62.2197 126.635 61.9195L127.724 60.3059L128.812 58.6922C129.675 57.3788 130.313 56.3656 130.726 55.6525C131.139 54.9395 131.627 54.0014 132.152 52.838C132.677 51.6747 132.94 50.7365 132.94 50.0235C132.94 49.8359 132.94 49.7233 132.902 49.6482C134.141 49.6858 135.041 49.8734 135.567 50.2487C136.092 50.6239 136.355 51.1493 136.355 51.8248ZM146.834 60.4185H146.759C147.322 58.7297 148.672 57.7165 150.774 57.4163C152.8 57.1161 153.851 56.966 153.889 56.966C155.427 56.6282 156.591 55.9903 157.341 55.0896C157.529 55.615 157.604 56.1404 157.529 56.6282C157.341 58.0167 156.253 58.8799 154.264 59.1801C154.001 59.2176 153.363 59.2551 152.35 59.3302C151.337 59.4052 150.436 59.4803 149.648 59.5929C148.522 59.7805 147.584 60.0432 146.834 60.4185ZM176.929 59.03L183.759 54.2265C183.947 54.1139 184.397 53.7762 185.11 53.2508L186.949 51.9374C187.474 51.5996 188.075 51.2244 188.75 50.8116C189.425 50.3988 190.026 50.061 190.589 49.8359C191.152 49.6107 191.602 49.4981 191.977 49.4981C192.803 49.4981 193.216 49.9109 193.216 50.699C193.216 52.3127 190.664 55.0521 185.56 58.9174C184.997 58.4671 184.735 57.9417 184.735 57.3413C184.735 56.5532 185.147 55.8402 186.011 55.2022L187.474 54.1515L188.9 53.1382C189.238 52.8756 189.613 52.6129 189.988 52.3127C190.364 52.0124 190.626 51.7497 190.814 51.5246C191.002 51.2994 191.077 51.1118 191.077 50.9242C191.077 50.699 190.964 50.5864 190.776 50.5864C190.364 50.5864 189.388 51.1118 187.849 52.125C186.311 53.1382 185.072 54.0389 184.134 54.827C183.271 55.54 182.558 57.1161 181.995 59.5553C181.845 60.2308 181.77 60.9814 181.77 61.8445C181.77 63.6082 182.708 64.5089 184.622 64.5089C183.609 65.372 182.558 65.7848 181.47 65.7848C180.569 65.7848 179.856 65.5596 179.293 65.0718C178.73 64.5839 178.468 63.946 178.468 63.1204C178.468 62.1822 178.768 61.0939 179.368 59.8555C179.969 58.6172 180.644 57.4914 181.432 56.5157C178.205 58.9549 176.291 60.5686 175.691 61.3566C174.49 62.8577 173.326 65.0343 172.201 67.8488C170.925 67.2859 170.287 66.3477 170.287 65.0343C170.287 64.021 170.7 62.8577 171.525 61.5443C171.788 61.1315 172.238 60.4935 172.876 59.6304L174.602 57.4163L175.353 56.4781L173.739 57.7165L171.638 59.2926C170.324 60.2308 169.161 61.169 168.148 62.0696C166.609 63.4957 165.408 64.4714 164.545 65.0343C163.682 65.5972 162.781 65.8598 161.843 65.8598C161.055 65.8598 160.417 65.6347 159.929 65.1468C159.442 64.659 159.216 64.021 159.216 63.233C159.216 62.4449 159.329 61.6193 159.592 60.7562C160.079 61.9195 160.868 62.52 161.956 62.52C163.044 62.52 164.358 61.7319 165.896 60.1558C167.435 58.5796 168.748 56.9285 169.836 55.2022C171.112 53.2133 171.75 51.7873 171.75 50.9617C171.75 50.4738 171.488 50.2111 170.962 50.2111C169.949 50.2111 168.786 50.8116 167.51 52.05C166.234 53.2884 165.146 54.7144 164.245 56.328C163.569 55.9152 163.457 55.3523 163.87 54.6018C164.433 53.5135 165.521 52.3877 167.135 51.2244C168.748 50.061 170.249 49.4606 171.638 49.4606C173.026 49.4606 173.739 50.1736 173.739 51.5621C173.739 52.6504 173.364 53.9638 172.613 55.4649C171.863 56.966 170.962 58.3545 169.949 59.5929C171.413 58.5796 172.613 57.679 173.552 56.9285C174.49 56.1779 175.203 55.615 175.653 55.2022L177.755 53.2508C178.393 52.6504 179.181 51.7497 180.119 50.5864C181.057 49.4231 181.657 48.4849 181.92 47.7719C182.333 48.1096 182.558 48.56 182.558 49.1229C182.558 50.5864 180.682 53.8888 176.929 59.03ZM204.423 51.6747L204.573 51.8248C204.273 51.5621 203.785 51.4495 203.147 51.4495C201.684 51.4495 199.695 52.763 197.18 55.4274C196.055 56.5907 194.966 58.0543 193.916 59.8555C192.865 61.6568 192.339 63.0453 192.339 64.0586C192.339 64.6215 192.565 64.8841 193.052 64.8841C193.465 64.8841 194.028 64.5839 194.741 64.021C195.454 63.4581 196.205 62.7451 196.993 61.882C197.781 61.0189 198.494 60.1558 199.169 59.3302L201.046 57.0035L201.909 55.8777C201.946 55.8402 202.509 55.0521 203.597 53.551C204.686 52.05 205.286 51.2244 205.399 51.1118C205.812 50.6239 206.149 50.2862 206.412 50.0986C206.675 49.9109 206.975 49.7984 207.313 49.7984C208.288 49.7984 209.151 50.3988 209.864 51.6372C209.189 52.2001 208.251 53.1758 207.012 54.5643C205.736 56.0278 204.461 57.7165 203.185 59.6304C201.909 61.5443 201.271 63.0829 201.271 64.2462C201.271 65.0718 201.609 65.4846 202.322 65.4846C203.635 65.4846 205.549 64.2462 208.026 61.8069C210.502 59.3677 212.116 57.5289 212.829 56.2905C213.017 56.3656 213.129 56.5157 213.129 56.7408C213.129 56.966 213.092 57.1911 212.979 57.3788C212.792 57.6415 212.304 58.2044 211.516 59.0675C210.728 59.9306 209.789 60.9438 208.664 62.0696C207.538 63.1954 206.299 64.2087 204.948 65.0718C203.597 65.9349 202.434 66.3477 201.458 66.3477C200.633 66.3477 199.995 66.085 199.545 65.5972C199.094 65.1093 198.869 64.3963 198.869 63.4957C198.869 62.2573 199.319 60.6436 200.258 58.6547C198.306 61.2816 196.768 63.1204 195.604 64.1711C194.028 65.5972 192.64 66.3102 191.476 66.3102C190.726 66.3102 190.163 66.0475 189.75 65.5221C189.337 64.9967 189.15 64.2837 189.15 63.3455C189.15 62.2948 189.412 61.1315 189.938 59.8931C191.139 57.1161 193.015 54.7144 195.529 52.6879C198.043 50.6615 200.37 49.6482 202.472 49.6482C203.785 49.6482 204.423 50.2487 204.423 51.412V51.6747ZM215.213 49.6482L215.288 49.4606C215.776 49.4231 216.151 49.3856 216.377 49.3856C218.103 49.3856 218.966 49.8734 218.966 50.8491C218.966 51.9749 217.953 53.8888 215.964 56.5907L213.75 59.5553L211.536 62.4824C210.973 63.2705 210.597 63.7959 210.447 64.0586C210.335 64.2087 210.297 64.3588 210.297 64.4714C210.297 64.659 210.41 64.7716 210.635 64.7716C211.385 64.7716 212.699 63.9835 214.575 62.4449C216.452 60.9063 218.065 59.3302 219.379 57.7165C219.529 57.5289 220.092 56.7033 221.105 55.2397C222.118 53.7762 222.944 52.6504 223.582 51.8623C224.82 50.2487 226.021 49.4231 227.147 49.4231C228.16 49.4231 229.061 49.7608 229.849 50.4738C228.235 51.7873 226.434 53.5886 224.445 55.8777C221.405 59.4428 219.904 62.1822 219.904 64.0961C219.904 64.8841 220.279 65.2594 220.992 65.2594C222.418 65.2594 224.22 64.3963 226.396 62.6701C228.573 60.9438 230.036 59.5553 230.749 58.5421C231.012 58.7297 231.012 59.0675 230.749 59.5553C230.637 59.743 230.224 60.1558 229.511 60.8312C228.798 61.5067 227.935 62.2573 226.922 63.0829C225.908 63.9084 224.783 64.6215 223.507 65.2594C222.231 65.8974 221.105 66.1976 220.092 66.1976C219.116 66.1976 218.403 65.9724 217.953 65.4846C217.502 64.9967 217.277 64.3963 217.277 63.6458C217.277 62.4449 217.652 61.169 218.44 59.7805C217.24 61.169 215.776 62.52 214.012 63.8709C212.249 65.2219 210.785 65.8974 209.622 65.8974C208.608 65.8974 208.083 65.372 208.083 64.3588C208.083 63.8709 208.233 63.308 208.496 62.7076C208.759 62.1072 209.359 61.1315 210.297 59.7805C212.136 57.1536 213.449 55.0521 214.2 53.4385C214.95 51.8248 215.326 50.7365 215.326 50.1361C215.326 49.986 215.288 49.8359 215.213 49.6482ZM231.65 39.4034L231.838 39.8913C230.749 41.7676 229.361 43.4188 227.71 44.8823C226.058 46.3459 224.37 47.0589 222.643 47.0589C221.705 47.0589 220.955 46.7962 220.429 46.2708C219.904 45.7455 219.641 45.07 219.641 44.2819C219.641 43.2312 220.054 41.9552 220.842 40.4166C220.842 41.7301 221.067 42.7058 221.48 43.3813C221.893 44.0567 222.681 44.3945 223.807 44.3945C225.008 44.3945 226.321 43.9817 227.747 43.1186C229.173 42.2555 230.487 41.0171 231.65 39.4034ZM233.212 49.4981L232.987 49.7233C233.137 49.6858 233.513 49.6858 234.075 49.6858C235.539 49.6858 236.289 50.2111 236.289 51.2619C236.289 51.6372 236.214 52.0124 236.064 52.4252C235.652 53.551 234.751 55.0521 233.325 56.8909L229.46 61.882C228.296 63.3455 227.696 64.3212 227.696 64.7716C227.696 65.1468 227.921 65.3345 228.334 65.3345C229.309 65.3345 230.51 64.6215 231.899 63.233C233.287 61.8445 234 60.2308 234 58.392C234 57.9792 233.925 57.6039 233.775 57.2662C234.226 57.1161 234.676 57.041 235.089 57.041C235.727 57.041 236.252 57.1536 236.665 57.3788C238.654 56.8534 240.492 55.9903 242.181 54.7519C244.771 51.2994 246.722 49.5732 248.035 49.5732C248.523 49.5732 248.936 49.6482 249.274 49.7984C249.612 49.9485 249.987 50.2862 250.4 50.7741C248.035 52.4628 245.859 54.827 243.87 57.8291C241.881 60.8312 240.905 62.9328 240.905 64.1711C240.905 64.8466 241.281 65.1844 242.069 65.1844C243.495 65.1844 245.333 64.1336 247.585 62.0321C249.837 59.9306 251.563 58.0167 252.726 56.253C252.876 56.2905 252.989 56.4031 253.026 56.5907C253.064 56.7783 253.026 56.966 252.914 57.1536C251.525 59.105 249.687 61.0564 247.36 63.0453C245.033 65.0343 242.969 66.01 241.13 66.01C240.305 66.01 239.667 65.7473 239.217 65.2594C238.766 64.7716 238.541 64.1336 238.541 63.3455C238.541 61.2065 239.554 58.6547 241.543 55.6901C240.417 56.4781 238.991 57.1911 237.228 57.8291C237.265 57.9417 237.303 58.1293 237.303 58.392C237.265 59.5553 236.289 61.0189 234.376 62.7826C232.237 64.7716 230.135 65.7473 228.109 65.7473C226.683 65.7473 225.97 65.1468 225.97 63.946C225.97 63.4206 226.232 62.7076 226.72 61.8069C227.208 60.9063 227.996 59.6679 229.084 58.0543C230.173 56.4406 230.961 55.2397 231.449 54.4517C231.899 53.7387 232.312 52.8756 232.724 51.8623C233.137 50.8491 233.287 50.061 233.212 49.4981ZM261.097 62.5575L261.022 62.7826C261.922 61.8445 262.861 60.9438 263.874 60.1182L266.951 57.679C268.002 56.8909 268.752 56.2905 269.203 55.9152C270.816 54.5267 271.905 52.9881 272.467 51.337C272.768 50.4363 272.918 49.7984 272.918 49.3856C274.719 49.4231 275.62 49.9485 275.62 50.9242C275.62 51.5996 275.282 52.5003 274.606 53.6261C273.931 54.7519 273.218 55.8777 272.43 56.966C271.642 58.0543 270.929 59.3302 270.253 60.7937C269.578 62.2573 269.24 63.6082 269.24 64.8466C269.24 65.6722 269.39 66.2726 269.653 66.6479C269.503 66.6854 269.278 66.6854 269.015 66.6854C267.964 66.6854 267.139 66.4603 266.576 66.01C266.013 65.5596 265.713 64.8841 265.713 64.021C265.713 61.8069 267.064 59.2551 269.765 56.3656L267.289 58.2794C266.2 59.1425 265.412 59.7805 264.887 60.2308L262.898 61.9946C262.072 62.7451 261.322 63.5332 260.646 64.3588C259.971 65.1844 259.295 66.1225 258.62 67.1733C257.682 66.5353 257.194 65.7097 257.194 64.734C257.194 63.6458 257.869 61.9571 259.183 59.7054C260.496 57.4538 261.322 55.8777 261.66 54.9771L257.494 59.5553C256.068 61.0189 254.417 62.52 252.541 64.021C250.664 65.5221 249.238 66.2726 248.3 66.2726C247.812 66.2726 247.437 66.1225 247.174 65.8598C246.912 65.5972 246.799 65.2219 246.799 64.734C246.799 64.1711 246.949 63.5707 247.287 62.9328C247.625 62.2948 248.188 61.4317 249.013 60.3434L250.552 58.3169C251.415 57.041 251.865 55.9528 251.903 55.0521C253.254 55.6525 253.929 56.4781 253.929 57.5664C253.929 58.3545 253.591 59.2551 252.878 60.2683C252.165 61.2816 251.452 62.1822 250.739 62.9328C250.026 63.6833 249.689 64.1711 249.689 64.3963C249.689 64.5464 249.726 64.6215 249.801 64.6215C250.664 64.6215 252.653 63.1204 255.768 60.1182C258.883 57.1161 260.872 54.9395 261.697 53.6261C262.335 52.6129 262.635 51.6372 262.635 50.6615C262.635 50.3237 262.598 49.9109 262.485 49.4606C263.574 49.6107 264.362 49.9109 264.812 50.3613C265.262 50.8116 265.487 51.4495 265.487 52.3127C265.487 54.0014 264.024 57.4163 261.097 62.5575ZM307.508 49.7233L307.32 50.1361C309.159 50.1361 310.097 50.6615 310.097 51.7497C310.097 52.763 309.421 53.8513 308.07 54.9771C306.719 56.1029 304.843 57.1536 302.404 58.1668L302.441 58.3169C303.492 57.9042 304.543 57.7165 305.594 57.7165C307.132 57.7165 307.92 58.3169 307.92 59.5553C307.92 61.4317 306.982 63.1204 305.068 64.6215C303.154 66.1225 301.203 66.8731 299.177 66.8731C296.625 66.8731 295.199 65.5596 294.861 62.9328C295.912 63.8709 297.15 64.3588 298.539 64.3588C300.302 64.3588 301.841 63.7959 303.117 62.6325C304.393 61.4692 305.031 60.3434 305.031 59.2551C305.031 58.7673 304.655 58.5046 303.942 58.5046C303.455 58.5046 302.817 58.6547 302.066 58.9174C301.316 59.1801 300.64 59.5553 300.002 60.0432C299.89 59.7054 299.852 59.4803 299.852 59.3677C299.852 59.03 300.04 58.7297 300.377 58.4671C300.452 58.4295 300.678 58.2794 301.053 58.0543C301.428 57.8291 301.728 57.6415 301.954 57.4914C305.031 55.5024 306.569 53.5886 306.569 51.7497C306.569 51.1868 306.269 50.9242 305.631 50.9242C305.218 50.9242 304.768 51.0743 304.28 51.3745C303.792 51.6747 303.305 52.0875 302.779 52.6129C302.254 53.1382 301.841 53.6261 301.503 54.0389L300.302 55.54C299.852 56.1404 299.589 56.4781 299.552 56.5532C299.477 56.6282 299.064 57.1536 298.313 58.1293C297.563 59.105 297 59.818 296.625 60.2683C296.249 60.7187 295.649 61.3942 294.786 62.2948C293.923 63.1954 293.172 63.8709 292.534 64.3212C291.896 64.7716 291.183 65.1844 290.358 65.5972C289.532 66.01 288.782 66.1976 288.069 66.1976C287.243 66.1976 286.605 65.9349 286.155 65.4471C285.704 64.9592 285.479 64.3212 285.479 63.5332C285.479 61.3942 286.493 58.8423 288.481 55.8777C287.356 56.6658 285.93 57.3788 284.166 58.0167C284.203 58.1293 284.241 58.3169 284.241 58.5796C284.203 59.743 283.228 61.2065 281.314 62.9703C279.175 64.9592 277.073 65.9349 275.047 65.9349C273.621 65.9349 272.908 65.3345 272.908 64.1336C272.908 63.6082 273.17 62.8952 273.658 61.9946C274.146 61.0939 274.934 59.8555 276.023 58.2419C277.111 56.6282 277.899 55.4274 278.387 54.6393C278.799 54.0014 279.212 53.2133 279.588 52.2751C279.963 51.337 280.15 50.5489 280.15 49.9485V49.6858C280.301 49.6482 280.676 49.6482 281.239 49.6482C282.702 49.6482 283.453 50.1736 283.453 51.2244C283.453 51.5996 283.378 51.9749 283.228 52.3877C282.815 53.5135 281.914 55.0146 280.488 56.8534L276.623 61.8445C275.46 63.308 274.859 64.2837 274.859 64.734C274.859 65.1093 275.084 65.2969 275.497 65.2969C276.473 65.2969 277.674 64.5839 279.062 63.1954C280.451 61.8069 281.164 60.1933 281.164 58.3545C281.164 57.9417 281.089 57.5664 280.939 57.2287C281.389 57.0786 281.839 57.0035 282.252 57.0035C282.89 57.0035 283.415 57.1161 283.828 57.3413C285.817 56.8159 287.656 55.9528 289.345 54.7144C291.934 51.2619 293.885 49.5357 295.199 49.5357C295.687 49.5357 296.099 49.6107 296.437 49.7608C296.775 49.9109 297.15 50.2487 297.563 50.7365C295.199 52.4252 293.022 54.7894 291.033 57.7916C289.044 60.7937 288.069 62.8952 288.069 64.1336C288.069 64.8091 288.444 65.1468 289.232 65.1468C290.433 65.1468 292.009 64.1336 293.96 62.1447C295.912 60.1558 297.6 58.1293 299.064 56.0653C298.951 55.8026 298.876 55.4274 298.876 54.9395C298.876 53.6636 299.702 52.4628 301.353 51.3745C303.004 50.2862 305.068 49.7233 307.508 49.7233ZM317.909 50.4363L317.834 50.3237C318.322 50.7365 318.659 51.0367 318.847 51.2244C319.035 51.412 319.222 51.6372 319.372 51.8999C319.523 52.1625 319.598 52.4628 319.598 52.8005C319.598 53.2884 319.26 53.8513 318.622 54.5267C317.984 55.2022 317.158 55.7651 316.183 56.253C315.47 55.8402 315.094 55.2773 315.094 54.6018C315.094 54.3766 315.132 54.1139 315.245 53.8513C315.357 53.5886 315.507 53.2884 315.732 52.9881C315.958 52.6879 316.183 52.4252 316.37 52.2001C316.558 51.9749 316.821 51.6747 317.158 51.2994C317.496 50.9242 317.759 50.6239 317.909 50.4363ZM312.993 60.9438L312.918 60.8688C313.406 61.2816 313.743 61.5818 313.931 61.7694C314.119 61.9571 314.306 62.1822 314.456 62.4449C314.607 62.7076 314.682 63.0078 314.682 63.3455C314.682 63.8334 314.344 64.3963 313.706 65.0718C313.068 65.7473 312.242 66.3102 311.267 66.798C310.554 66.3852 310.178 65.8223 310.178 65.1468C310.178 64.9217 310.216 64.659 310.328 64.3963C310.441 64.1336 310.591 63.8334 310.816 63.5332L311.454 62.7076C311.642 62.4824 311.905 62.1822 312.242 61.8069C312.58 61.4317 312.843 61.1315 312.993 60.9438Z" fill="#181818"></path><path d="M127.587 100.516C127.175 100.516 126.876 100.374 126.691 100.089C126.507 99.805 126.414 99.4779 126.414 99.1081C126.414 98.8947 126.443 98.66 126.499 98.404C126.556 98.148 126.663 97.892 126.819 97.636C126.99 97.3658 127.225 97.1026 127.523 96.8466C127.822 96.5764 128.22 96.3204 128.718 96.0786L128.846 96.2706C128.562 96.5408 128.334 96.7755 128.163 96.9746C128.007 97.1738 127.886 97.3587 127.801 97.5293C127.715 97.7 127.659 97.8565 127.63 97.9987C127.616 98.1409 127.609 98.2903 127.609 98.4467C127.609 98.5605 127.644 98.6458 127.715 98.7027C127.787 98.7454 127.865 98.8023 127.95 98.8734C128.078 98.9587 128.192 99.0441 128.292 99.1294C128.405 99.2005 128.462 99.357 128.462 99.5988C128.462 99.8548 128.377 100.075 128.206 100.26C128.035 100.431 127.829 100.516 127.587 100.516ZM124.771 100.516C124.359 100.516 124.053 100.374 123.854 100.089C123.669 99.805 123.577 99.4779 123.577 99.1081C123.577 98.8947 123.605 98.6672 123.662 98.4254C123.719 98.1694 123.833 97.9062 124.003 97.636C124.174 97.3658 124.409 97.1026 124.707 96.8466C125.006 96.5764 125.404 96.3204 125.902 96.0786L126.03 96.2706C125.746 96.5408 125.518 96.7755 125.347 96.9746C125.191 97.1738 125.07 97.3587 124.985 97.5293C124.899 97.7 124.842 97.8565 124.814 97.9987C124.8 98.1409 124.793 98.2903 124.793 98.4467C124.793 98.5605 124.821 98.6458 124.878 98.7027C124.949 98.7596 125.027 98.8094 125.113 98.8521C125.226 98.9232 125.34 99.0085 125.454 99.1081C125.582 99.1934 125.646 99.357 125.646 99.5988C125.646 99.8548 125.561 100.075 125.39 100.26C125.234 100.431 125.027 100.516 124.771 100.516ZM135.126 110.053H135.233C135.574 110.053 135.745 109.896 135.745 109.583C135.745 109.469 135.723 109.348 135.681 109.22L133.761 104.036H130.027L128.171 109.135C128.128 109.249 128.107 109.356 128.107 109.455C128.107 109.64 128.157 109.789 128.256 109.903C128.356 110.003 128.463 110.053 128.576 110.053H128.683V110.266H126.315V110.053H126.422C126.606 110.053 126.784 109.946 126.955 109.733C127.14 109.505 127.289 109.242 127.403 108.943L132.288 95.9293L137.067 108.815C137.167 109.1 137.302 109.377 137.473 109.647C137.658 109.917 137.892 110.053 138.177 110.053H138.283V110.266H135.126V110.053ZM130.24 103.311H133.526L131.883 98.8521L130.24 103.311ZM136.164 96.1853H139.108V96.3986C139.009 96.4128 138.916 96.4555 138.831 96.5266C138.745 96.5977 138.703 96.7044 138.703 96.8466C138.703 96.9178 138.724 96.996 138.767 97.0813L141.967 102.692L145.039 97.38C145.096 97.2662 145.131 97.1809 145.146 97.124C145.174 97.0671 145.188 96.996 145.188 96.9106C145.16 96.6831 145.075 96.5408 144.932 96.484C144.804 96.4271 144.726 96.3986 144.698 96.3986V96.1853H146.98V96.3986C146.767 96.3986 146.547 96.5337 146.319 96.804C146.106 97.06 145.921 97.3231 145.764 97.5933L142.436 103.354V108.879C142.436 108.993 142.45 109.114 142.479 109.242C142.522 109.37 142.571 109.498 142.628 109.626C142.685 109.74 142.756 109.839 142.842 109.925C142.927 110.01 143.027 110.053 143.14 110.053H143.247V110.266H140.196V110.053H140.303C140.417 110.053 140.516 110.017 140.602 109.946C140.687 109.861 140.758 109.761 140.815 109.647C140.886 109.519 140.936 109.391 140.964 109.263C140.993 109.121 141.007 108.993 141.007 108.879V103.546L137.572 97.6573C137.501 97.5436 137.416 97.4156 137.316 97.2733C137.216 97.1311 137.11 96.996 136.996 96.868C136.882 96.74 136.761 96.6333 136.633 96.548C136.505 96.4484 136.384 96.3986 136.271 96.3986H136.164V96.1853ZM154.002 110.053H154.108C154.45 110.053 154.62 109.896 154.62 109.583C154.62 109.469 154.599 109.348 154.556 109.22L152.636 104.036H148.903L147.047 109.135C147.004 109.249 146.983 109.356 146.983 109.455C146.983 109.64 147.033 109.789 147.132 109.903C147.232 110.003 147.338 110.053 147.452 110.053H147.559V110.266H145.191V110.053H145.297C145.482 110.053 145.66 109.946 145.831 109.733C146.016 109.505 146.165 109.242 146.279 108.943L151.164 95.9293L155.943 108.815C156.043 109.1 156.178 109.377 156.349 109.647C156.533 109.917 156.768 110.053 157.053 110.053H157.159V110.266H154.002V110.053ZM149.116 103.311H152.402L150.759 98.8521L149.116 103.311ZM178.032 110.053H178.139C178.238 110.053 178.331 110.017 178.416 109.946C178.501 109.861 178.573 109.761 178.629 109.647C178.701 109.519 178.75 109.391 178.779 109.263C178.807 109.121 178.821 108.993 178.821 108.879V103.076H171.995V108.879C171.995 108.993 172.009 109.121 172.037 109.263C172.066 109.391 172.108 109.512 172.165 109.626C172.222 109.74 172.286 109.839 172.357 109.925C172.443 110.01 172.542 110.053 172.656 110.053H172.763V110.266H169.776V110.053H169.882C169.982 110.053 170.074 110.017 170.16 109.946C170.245 109.861 170.316 109.761 170.373 109.647C170.444 109.519 170.494 109.391 170.522 109.263C170.551 109.121 170.565 108.993 170.565 108.879V97.508C170.565 97.4084 170.551 97.2947 170.522 97.1667C170.494 97.0386 170.451 96.9178 170.394 96.804C170.338 96.6902 170.266 96.5977 170.181 96.5266C170.096 96.4413 169.996 96.3986 169.882 96.3986H169.776V96.1853H172.763V96.3986H172.656C172.542 96.3986 172.443 96.4413 172.357 96.5266C172.272 96.5977 172.201 96.6902 172.144 96.804C172.101 96.9178 172.066 97.0386 172.037 97.1667C172.009 97.2947 171.995 97.4084 171.995 97.508V102.33H178.821V97.508C178.821 97.4084 178.807 97.2947 178.779 97.1667C178.75 97.0386 178.708 96.9178 178.651 96.804C178.594 96.6902 178.523 96.5977 178.437 96.5266C178.352 96.4413 178.253 96.3986 178.139 96.3986H178.032V96.1853H181.019V96.3986H180.912C180.798 96.3986 180.699 96.4413 180.614 96.5266C180.528 96.5977 180.457 96.6902 180.4 96.804C180.358 96.9178 180.322 97.0386 180.294 97.1667C180.265 97.2947 180.251 97.4084 180.251 97.508V108.879C180.251 108.993 180.265 109.121 180.294 109.263C180.336 109.391 180.386 109.512 180.443 109.626C180.5 109.74 180.564 109.839 180.635 109.925C180.72 110.01 180.813 110.053 180.912 110.053H181.019V110.266H178.032V110.053ZM190.941 110.053H191.047C191.389 110.053 191.559 109.896 191.559 109.583C191.559 109.469 191.538 109.348 191.495 109.22L189.575 104.036H185.842L183.986 109.135C183.943 109.249 183.922 109.356 183.922 109.455C183.922 109.64 183.972 109.789 184.071 109.903C184.171 110.003 184.277 110.053 184.391 110.053H184.498V110.266H182.13V110.053H182.236C182.421 110.053 182.599 109.946 182.77 109.733C182.955 109.505 183.104 109.242 183.218 108.943L188.103 95.9293L192.882 108.815C192.982 109.1 193.117 109.377 193.288 109.647C193.472 109.917 193.707 110.053 193.992 110.053H194.098V110.266H190.941V110.053ZM186.055 103.311H189.341L187.698 98.8521L186.055 103.311ZM195.375 110.053H195.482C195.595 110.053 195.695 110.017 195.78 109.946C195.866 109.861 195.937 109.761 195.994 109.647C196.065 109.533 196.115 109.412 196.143 109.284C196.186 109.156 196.207 109.036 196.207 108.922V97.508C196.207 97.4084 196.186 97.2947 196.143 97.1667C196.115 97.0386 196.065 96.9178 195.994 96.804C195.937 96.6902 195.866 96.5977 195.78 96.5266C195.695 96.4413 195.595 96.3986 195.482 96.3986H195.375V96.1853H198.447V96.3986H198.34C198.227 96.3986 198.127 96.4413 198.042 96.5266C197.956 96.5977 197.885 96.6902 197.828 96.804C197.772 96.9178 197.722 97.0386 197.679 97.1667C197.651 97.2947 197.636 97.4084 197.636 97.508V109.477H202.309C202.579 109.477 202.814 109.412 203.013 109.284C203.212 109.156 203.375 109 203.503 108.815C203.646 108.616 203.745 108.41 203.802 108.196C203.873 107.969 203.909 107.763 203.909 107.578H204.122V110.266H195.375V110.053ZM205.292 110.053H205.399C205.513 110.053 205.612 110.017 205.697 109.946C205.783 109.861 205.854 109.761 205.911 109.647C205.982 109.533 206.032 109.412 206.06 109.284C206.103 109.156 206.124 109.036 206.124 108.922V97.508C206.124 97.4084 206.103 97.2947 206.06 97.1667C206.032 97.0386 205.982 96.9178 205.911 96.804C205.854 96.6902 205.783 96.5977 205.697 96.5266C205.612 96.4413 205.513 96.3986 205.399 96.3986H205.292V96.1853H208.364V96.3986H208.258C208.144 96.3986 208.044 96.4413 207.959 96.5266C207.874 96.5977 207.802 96.6902 207.746 96.804C207.689 96.9178 207.639 97.0386 207.596 97.1667C207.568 97.2947 207.554 97.4084 207.554 97.508V109.477H212.226C212.496 109.477 212.731 109.412 212.93 109.284C213.129 109.156 213.292 109 213.42 108.815C213.563 108.616 213.662 108.41 213.719 108.196C213.79 107.969 213.826 107.763 213.826 107.578H214.039V110.266H205.292V110.053ZM212.964 96.0999C213.377 96.0999 213.675 96.2422 213.86 96.5266C214.059 96.7969 214.159 97.1169 214.159 97.4867C214.159 97.7142 214.13 97.956 214.073 98.212C214.017 98.468 213.903 98.7312 213.732 99.0014C213.561 99.2574 213.32 99.5205 213.007 99.7908C212.708 100.047 212.317 100.296 211.833 100.537L211.705 100.345C211.99 100.075 212.21 99.8405 212.367 99.6414C212.537 99.4423 212.665 99.2645 212.751 99.1081C212.836 98.9374 212.886 98.7809 212.9 98.6387C212.929 98.4965 212.943 98.3471 212.943 98.1907C212.943 98.0769 212.907 97.9916 212.836 97.9347C212.779 97.8778 212.701 97.8209 212.601 97.764C212.488 97.6929 212.374 97.6147 212.26 97.5293C212.146 97.4298 212.089 97.2591 212.089 97.0173C212.089 96.7471 212.175 96.5266 212.345 96.356C212.516 96.1853 212.722 96.0999 212.964 96.0999ZM215.78 96.0999C216.193 96.0999 216.491 96.2422 216.676 96.5266C216.875 96.7969 216.975 97.1169 216.975 97.4867C216.975 97.7142 216.946 97.956 216.89 98.212C216.833 98.468 216.719 98.7312 216.548 99.0014C216.378 99.2574 216.143 99.5205 215.844 99.7908C215.546 100.047 215.154 100.296 214.671 100.537L214.543 100.345C214.813 100.075 215.026 99.8405 215.183 99.6414C215.353 99.4423 215.482 99.2645 215.567 99.1081C215.652 98.9374 215.702 98.7809 215.716 98.6387C215.745 98.4965 215.759 98.3471 215.759 98.1907C215.759 98.0769 215.723 97.9916 215.652 97.9347C215.595 97.8778 215.517 97.8209 215.417 97.764C215.304 97.6929 215.19 97.6076 215.076 97.508C214.962 97.4084 214.905 97.2449 214.905 97.0173C214.905 96.7471 214.991 96.5266 215.161 96.356C215.332 96.1853 215.538 96.0999 215.78 96.0999ZM33.776 138.053H33.8826V138.266H30.8532V138.053H30.9598C31.0736 138.053 31.1732 138.01 31.2585 137.925C31.3438 137.839 31.415 137.74 31.4719 137.626C31.543 137.512 31.5927 137.391 31.6212 137.263C31.6496 137.121 31.6639 136.993 31.6639 136.879V124.975H29.1891C28.9615 124.975 28.7624 125.024 28.5917 125.124C28.4211 125.224 28.2788 125.352 28.165 125.508C28.0513 125.65 27.9659 125.814 27.909 125.999C27.8521 126.169 27.8237 126.34 27.8237 126.511H27.6104V124.185H37.1894V126.511H36.9761C36.9761 126.34 36.9476 126.169 36.8907 125.999C36.8339 125.814 36.7485 125.65 36.6347 125.508C36.521 125.352 36.3787 125.224 36.2081 125.124C36.0374 125.024 35.8383 124.975 35.6107 124.975H33.0933V136.879C33.0933 136.993 33.1075 137.121 33.1359 137.263C33.1644 137.391 33.207 137.512 33.2639 137.626C33.335 137.74 33.4062 137.839 33.4773 137.925C33.5626 138.01 33.6622 138.053 33.776 138.053ZM42.5527 138.266V137.178L42.446 137.284C42.0904 137.64 41.6779 137.917 41.2086 138.117C40.7535 138.316 40.1988 138.415 39.5445 138.415C39.0467 138.415 38.62 138.358 38.2645 138.245C37.9089 138.131 37.6173 137.974 37.3898 137.775C37.1622 137.562 36.9915 137.32 36.8777 137.05C36.7782 136.78 36.7284 136.495 36.7284 136.196C36.7284 135.713 36.8564 135.286 37.1124 134.916C37.3827 134.547 37.7667 134.219 38.2645 133.935C38.7623 133.651 39.3667 133.395 40.0779 133.167C40.8032 132.925 41.6282 132.691 42.5527 132.463C42.5242 131.908 42.4104 131.46 42.2113 131.119C42.0122 130.778 41.7775 130.514 41.5073 130.33C41.237 130.13 40.9526 130.002 40.6539 129.946C40.3552 129.874 40.0992 129.839 39.8859 129.839C39.5161 129.839 39.189 129.896 38.9045 130.01C38.62 130.109 38.3711 130.251 38.1578 130.436C37.9445 130.607 37.7667 130.806 37.6244 131.034C37.4964 131.261 37.3969 131.489 37.3258 131.716H37.1338V130.052C37.2618 130.052 37.4111 130.01 37.5818 129.924C37.7525 129.825 37.9516 129.718 38.1791 129.604C38.4209 129.49 38.7054 129.391 39.0325 129.305C39.3739 129.206 39.7792 129.156 40.2486 129.156C41.0308 129.156 41.6637 129.256 42.1473 129.455C42.6309 129.654 43.0007 129.917 43.2567 130.244C43.5269 130.571 43.7047 130.948 43.79 131.375C43.8754 131.787 43.918 132.214 43.918 132.655V136.879C43.918 137.164 43.9892 137.434 44.1314 137.69C44.2736 137.932 44.4656 138.053 44.7074 138.053V138.266H42.5527ZM42.5527 136.239V133.188L42.3393 133.231C41.998 133.316 41.5784 133.43 41.0806 133.572C40.597 133.715 40.1348 133.899 39.6939 134.127C39.253 134.355 38.8761 134.625 38.5632 134.938C38.2502 135.251 38.0938 135.613 38.0938 136.026C38.0938 136.481 38.2787 136.858 38.6485 137.156C39.0183 137.455 39.5019 137.605 40.0992 137.605C40.5686 137.605 40.981 137.505 41.3366 137.306C41.6922 137.092 42.0193 136.822 42.318 136.495L42.5527 136.239ZM53.0711 138.053C53.1707 138.053 53.2844 138.01 53.4124 137.925C53.5404 137.839 53.6045 137.718 53.6045 137.562C53.6045 137.533 53.5902 137.477 53.5618 137.391C53.5476 137.292 53.512 137.185 53.4551 137.071L50.7457 130.671L47.9295 137.391C47.6878 137.974 47.2113 138.266 46.5002 138.266H46.0308V138.053C46.2299 138.053 46.4433 137.953 46.6708 137.754C46.9126 137.541 47.1046 137.292 47.2468 137.007L50.1483 130.223C50.2194 130.038 50.255 129.889 50.255 129.775C50.255 129.604 50.1412 129.519 49.9136 129.519V129.305H51.6417L54.9272 136.986C55.0267 137.199 55.169 137.434 55.3539 137.69C55.553 137.932 55.7379 138.053 55.9085 138.053V138.266H53.0711V138.053ZM66.6858 137.562V140.186H66.4725C66.444 140.015 66.3943 139.816 66.3232 139.589C66.252 139.375 66.1525 139.169 66.0245 138.97C65.8965 138.771 65.74 138.6 65.5551 138.458C65.3844 138.33 65.1853 138.266 64.9578 138.266H58.1735C57.9459 138.266 57.7397 138.33 57.5548 138.458C57.3699 138.6 57.2063 138.771 57.0641 138.97C56.9361 139.169 56.8294 139.375 56.7441 139.589C56.673 139.816 56.6303 140.015 56.6161 140.186H56.4027V137.562H57.2134C57.2988 137.562 57.377 137.526 57.4481 137.455C57.5334 137.384 57.6117 137.299 57.6828 137.199C57.7681 137.1 57.8464 136.993 57.9175 136.879C57.9886 136.751 58.0526 136.637 58.1095 136.538C58.3228 136.054 58.5788 135.478 58.8775 134.81C59.1904 134.141 59.5033 133.451 59.8162 132.74C60.1433 132.029 60.4562 131.339 60.7549 130.671C61.0536 129.988 61.3096 129.405 61.523 128.921L65.1284 136.794C65.2422 137.036 65.3489 137.228 65.4484 137.37C65.548 137.498 65.6831 137.562 65.8538 137.562H66.6858ZM58.3868 137.562H63.9337L61.1603 131.482L58.3868 137.562ZM76.7749 138.266V138.053C76.8745 138.053 76.9669 138.017 77.0523 137.946C77.1376 137.861 77.2087 137.761 77.2656 137.647C77.3367 137.519 77.3865 137.391 77.415 137.263C77.4434 137.121 77.4576 136.993 77.4576 136.879V130.628C77.4576 130.529 77.4434 130.415 77.415 130.287C77.3865 130.159 77.3367 130.038 77.2656 129.924C77.2087 129.81 77.1376 129.718 77.0523 129.647C76.9669 129.562 76.8745 129.519 76.7749 129.519V129.305H79.5484V129.519C79.335 129.519 79.1644 129.654 79.0364 129.924C78.9083 130.18 78.8443 130.415 78.8443 130.628V136.879C78.8443 136.993 78.8586 137.121 78.887 137.263C78.9155 137.391 78.9581 137.512 79.015 137.626C79.0861 137.74 79.1644 137.839 79.2497 137.925C79.335 138.01 79.4346 138.053 79.5484 138.053V138.266H76.7749ZM71.74 133.188C73.0485 133.188 74.0157 133.43 74.6415 133.914C75.2815 134.397 75.6015 134.995 75.6015 135.706C75.6015 136.061 75.5162 136.396 75.3455 136.708C75.1891 137.021 74.9473 137.292 74.6202 137.519C74.293 137.747 73.8806 137.932 73.3828 138.074C72.885 138.202 72.2947 138.266 71.612 138.266H67.9852V138.053C68.0848 138.053 68.1772 138.017 68.2626 137.946C68.3479 137.861 68.419 137.761 68.4759 137.647C68.547 137.519 68.5968 137.391 68.6252 137.263C68.6537 137.121 68.6679 136.993 68.6679 136.879V130.628C68.6679 130.529 68.6537 130.415 68.6252 130.287C68.5968 130.159 68.547 130.038 68.4759 129.924C68.419 129.81 68.3479 129.718 68.2626 129.647C68.1772 129.562 68.0848 129.519 67.9852 129.519V129.305H70.7587V129.519C70.5453 129.519 70.3747 129.654 70.2467 129.924C70.1186 130.18 70.0546 130.415 70.0546 130.628V133.188H71.74ZM71.5694 137.562C72.5081 137.562 73.1837 137.412 73.5961 137.114C74.0228 136.801 74.2362 136.417 74.2362 135.962C74.2362 135.706 74.1793 135.457 74.0655 135.215C73.9517 134.959 73.7739 134.739 73.5321 134.554C73.3046 134.355 73.0201 134.198 72.6788 134.084C72.3374 133.956 71.9463 133.892 71.5054 133.892H70.0546V137.562H71.5694ZM90.7398 137.562V140.143H90.5265C90.5265 139.987 90.4909 139.795 90.4198 139.567C90.3487 139.354 90.242 139.148 90.0998 138.949C89.9576 138.764 89.7798 138.6 89.5665 138.458C89.3673 138.33 89.1327 138.266 88.8624 138.266H88.6918C88.45 138.266 88.2153 138.216 87.9877 138.117C87.7744 138.003 87.5895 137.882 87.433 137.754C87.2339 137.597 87.0561 137.427 86.8997 137.242C86.4446 136.644 85.9823 136.054 85.513 135.471C85.0578 134.888 84.6027 134.298 84.1476 133.7L83.6995 134.148V136.922C83.6995 137.121 83.7564 137.348 83.8702 137.605C83.984 137.861 84.1618 138.01 84.4036 138.053V138.266H81.6301V138.053C81.7297 138.053 81.8221 138.017 81.9075 137.946C81.9928 137.861 82.0639 137.761 82.1208 137.647C82.1777 137.533 82.2204 137.412 82.2488 137.284C82.2773 137.156 82.2915 137.036 82.2915 136.922V130.65C82.2915 130.55 82.2773 130.436 82.2488 130.308C82.2204 130.166 82.1777 130.038 82.1208 129.924C82.0639 129.81 81.9928 129.718 81.9075 129.647C81.8221 129.562 81.7297 129.519 81.6301 129.519V129.305H84.4036V129.519C84.1618 129.562 83.984 129.711 83.8702 129.967C83.7564 130.223 83.6995 130.45 83.6995 130.65V133.167L87.1557 129.924C87.1984 129.882 87.241 129.832 87.2837 129.775C87.3406 129.704 87.369 129.654 87.369 129.626C87.369 129.554 87.3121 129.519 87.1984 129.519V129.305H89.0331V129.519C88.9478 129.519 88.8553 129.54 88.7558 129.583C88.6704 129.626 88.5851 129.675 88.4998 129.732C88.4002 129.789 88.3006 129.86 88.2011 129.946C87.7033 130.401 87.1984 130.87 86.6863 131.354C86.1743 131.837 85.6694 132.307 85.1716 132.762L86.7717 134.81L87.9451 136.26C88.13 136.516 88.3149 136.737 88.4998 136.922C88.6562 137.078 88.8198 137.228 88.9904 137.37C89.1611 137.498 89.3105 137.562 89.4385 137.562H90.7398ZM95.4654 138.415C94.7542 138.415 94.1142 138.301 93.5453 138.074C92.9764 137.832 92.4857 137.512 92.0732 137.114C91.675 136.701 91.3621 136.218 91.1345 135.663C90.9212 135.108 90.8145 134.504 90.8145 133.85C90.8145 133.153 90.9354 132.52 91.1772 131.951C91.419 131.368 91.7532 130.87 92.1799 130.458C92.6066 130.045 93.1115 129.725 93.6946 129.498C94.2778 129.27 94.9107 129.156 95.5934 129.156C96.2761 129.156 96.9019 129.27 97.4708 129.498C98.0397 129.711 98.5304 130.017 98.9429 130.415C99.3553 130.813 99.6753 131.29 99.9029 131.844C100.13 132.385 100.244 132.982 100.244 133.636C100.244 134.248 100.138 134.845 99.9242 135.428C99.7251 135.997 99.4193 136.502 99.0069 136.943C98.6086 137.384 98.1108 137.74 97.5135 138.01C96.9303 138.28 96.2476 138.415 95.4654 138.415ZM95.3374 129.86C94.8254 129.889 94.3702 130.017 93.972 130.244C93.588 130.458 93.2608 130.742 92.9906 131.098C92.7346 131.439 92.5355 131.83 92.3933 132.271C92.2652 132.712 92.2012 133.16 92.2012 133.615C92.2012 134.141 92.2795 134.653 92.4359 135.151C92.6066 135.635 92.8413 136.068 93.1399 136.452C93.4529 136.836 93.8226 137.142 94.2493 137.37C94.676 137.597 95.1525 137.711 95.6787 137.711C96.205 137.711 96.6672 137.597 97.0654 137.37C97.4779 137.142 97.8193 136.851 98.0895 136.495C98.3597 136.125 98.5588 135.713 98.6868 135.258C98.8291 134.803 98.9002 134.347 98.9002 133.892C98.9002 133.423 98.8291 132.954 98.6868 132.484C98.5446 132.001 98.3242 131.567 98.0255 131.183C97.7268 130.785 97.3499 130.465 96.8948 130.223C96.4539 129.981 95.9347 129.86 95.3374 129.86ZM105.446 129.156C106.214 129.156 106.876 129.291 107.431 129.562C107.999 129.818 108.469 130.159 108.839 130.586C109.223 131.012 109.507 131.503 109.692 132.058C109.877 132.612 109.969 133.181 109.969 133.764C109.969 134.333 109.877 134.895 109.692 135.45C109.521 136.004 109.251 136.502 108.881 136.943C108.526 137.384 108.078 137.74 107.537 138.01C106.997 138.28 106.357 138.415 105.617 138.415C105.176 138.415 104.721 138.301 104.252 138.074C103.797 137.832 103.384 137.533 103.014 137.178V141.573C103.014 141.686 103.029 141.807 103.057 141.935C103.085 142.078 103.128 142.206 103.185 142.319C103.256 142.433 103.327 142.533 103.398 142.618C103.484 142.703 103.583 142.746 103.697 142.746V142.959H100.924V142.746C101.023 142.746 101.116 142.703 101.201 142.618C101.286 142.533 101.357 142.433 101.414 142.319C101.485 142.206 101.535 142.078 101.564 141.935C101.592 141.807 101.606 141.686 101.606 141.573V130.564C101.606 130.436 101.599 130.315 101.585 130.202C101.585 130.074 101.564 129.967 101.521 129.882C101.478 129.782 101.407 129.704 101.308 129.647C101.222 129.576 101.094 129.533 100.924 129.519V129.305H103.014V130.244C103.299 129.903 103.64 129.64 104.038 129.455C104.451 129.256 104.92 129.156 105.446 129.156ZM105.638 137.69C106.136 137.676 106.57 137.562 106.94 137.348C107.31 137.135 107.615 136.858 107.857 136.516C108.099 136.175 108.277 135.798 108.391 135.386C108.504 134.959 108.561 134.518 108.561 134.063C108.561 133.551 108.49 133.046 108.348 132.548C108.206 132.05 107.999 131.61 107.729 131.226C107.459 130.827 107.125 130.507 106.727 130.266C106.342 130.01 105.902 129.882 105.404 129.882C105.105 129.882 104.806 129.938 104.508 130.052C104.223 130.166 103.967 130.33 103.74 130.543C103.526 130.756 103.349 131.012 103.206 131.311C103.078 131.595 103.014 131.915 103.014 132.271V135.066C103.014 135.45 103.093 135.805 103.249 136.132C103.405 136.445 103.605 136.723 103.846 136.964C104.102 137.192 104.387 137.37 104.7 137.498C105.013 137.626 105.326 137.69 105.638 137.69ZM111.413 133.21H112.586V130.628C112.586 130.529 112.572 130.415 112.543 130.287C112.515 130.159 112.465 130.038 112.394 129.924C112.337 129.81 112.266 129.718 112.181 129.647C112.095 129.562 111.996 129.519 111.882 129.519V129.305H118.496V131.247H118.282C118.282 130.92 118.168 130.635 117.941 130.394C117.727 130.138 117.393 130.01 116.938 130.01H113.994V133.21H116.213V133.935H113.994V136.922C113.994 137.036 114.008 137.156 114.037 137.284C114.079 137.412 114.129 137.533 114.186 137.647C114.257 137.761 114.335 137.861 114.421 137.946C114.506 138.017 114.606 138.053 114.719 138.053V138.266H111.882V138.053C111.996 138.053 112.095 138.017 112.181 137.946C112.266 137.861 112.337 137.761 112.394 137.647C112.465 137.533 112.515 137.412 112.543 137.284C112.572 137.156 112.586 137.036 112.586 136.922V133.935H111.413V133.21ZM125.327 138.266V137.178L125.22 137.284C124.865 137.64 124.452 137.917 123.983 138.117C123.528 138.316 122.973 138.415 122.319 138.415C121.821 138.415 121.394 138.358 121.039 138.245C120.683 138.131 120.392 137.974 120.164 137.775C119.937 137.562 119.766 137.32 119.652 137.05C119.553 136.78 119.503 136.495 119.503 136.196C119.503 135.713 119.631 135.286 119.887 134.916C120.157 134.547 120.541 134.219 121.039 133.935C121.537 133.651 122.141 133.395 122.852 133.167C123.578 132.925 124.402 132.691 125.327 132.463C125.299 131.908 125.185 131.46 124.986 131.119C124.786 130.778 124.552 130.514 124.282 130.33C124.011 130.13 123.727 130.002 123.428 129.946C123.13 129.874 122.874 129.839 122.66 129.839C122.29 129.839 121.963 129.896 121.679 130.01C121.394 130.109 121.145 130.251 120.932 130.436C120.719 130.607 120.541 130.806 120.399 131.034C120.271 131.261 120.171 131.489 120.1 131.716H119.908V130.052C120.036 130.052 120.185 130.01 120.356 129.924C120.527 129.825 120.726 129.718 120.953 129.604C121.195 129.49 121.48 129.391 121.807 129.305C122.148 129.206 122.554 129.156 123.023 129.156C123.805 129.156 124.438 129.256 124.922 129.455C125.405 129.654 125.775 129.917 126.031 130.244C126.301 130.571 126.479 130.948 126.564 131.375C126.65 131.787 126.692 132.214 126.692 132.655V136.879C126.692 137.164 126.763 137.434 126.906 137.69C127.048 137.932 127.24 138.053 127.482 138.053V138.266H125.327ZM125.327 136.239V133.188L125.114 133.231C124.772 133.316 124.353 133.43 123.855 133.572C123.371 133.715 122.909 133.899 122.468 134.127C122.027 134.355 121.65 134.625 121.337 134.938C121.025 135.251 120.868 135.613 120.868 136.026C120.868 136.481 121.053 136.858 121.423 137.156C121.793 137.455 122.276 137.605 122.874 137.605C123.343 137.605 123.755 137.505 124.111 137.306C124.466 137.092 124.794 136.822 125.092 136.495L125.327 136.239ZM131.536 136.879C131.536 136.993 131.55 137.121 131.579 137.263C131.607 137.391 131.65 137.512 131.707 137.626C131.763 137.74 131.827 137.839 131.899 137.925C131.984 138.01 132.076 138.053 132.176 138.053V138.266H129.488V138.053C129.587 138.053 129.673 138.017 129.744 137.946C129.829 137.861 129.9 137.761 129.957 137.647C130.014 137.519 130.057 137.391 130.085 137.263C130.114 137.121 130.128 136.993 130.128 136.879V130.628C130.128 130.529 130.114 130.415 130.085 130.287C130.057 130.159 130.014 130.038 129.957 129.924C129.9 129.81 129.829 129.718 129.744 129.647C129.673 129.562 129.587 129.519 129.488 129.519V129.305H132.176V129.519C132.062 129.519 131.963 129.562 131.877 129.647C131.806 129.718 131.742 129.81 131.685 129.924C131.643 130.038 131.607 130.159 131.579 130.287C131.55 130.415 131.536 130.529 131.536 130.628V133.21H136.4V130.628C136.4 130.529 136.386 130.415 136.357 130.287C136.329 130.159 136.286 130.038 136.229 129.924C136.187 129.81 136.123 129.718 136.037 129.647C135.966 129.562 135.874 129.519 135.76 129.519V129.305H138.448V129.519C138.334 129.519 138.235 129.562 138.15 129.647C138.078 129.718 138.014 129.81 137.957 129.924C137.901 130.038 137.858 130.159 137.829 130.287C137.815 130.415 137.808 130.529 137.808 130.628V136.879C137.808 136.993 137.822 137.121 137.851 137.263C137.879 137.391 137.922 137.512 137.979 137.626C138.036 137.74 138.1 137.839 138.171 137.925C138.256 138.01 138.349 138.053 138.448 138.053V138.266H135.76V138.053C135.86 138.053 135.945 138.017 136.016 137.946C136.101 137.861 136.173 137.761 136.229 137.647C136.286 137.519 136.329 137.391 136.357 137.263C136.386 137.121 136.4 136.993 136.4 136.879V133.914H131.536V136.879ZM155.138 137.562V140.143H154.925C154.925 139.987 154.889 139.795 154.818 139.567C154.747 139.354 154.641 139.148 154.498 138.949C154.356 138.764 154.178 138.6 153.965 138.458C153.766 138.33 153.531 138.266 153.261 138.266H153.09C152.849 138.266 152.614 138.216 152.386 138.117C152.173 138.003 151.988 137.882 151.832 137.754C151.632 137.597 151.455 137.427 151.298 137.242C150.843 136.644 150.381 136.054 149.912 135.471C149.456 134.888 149.001 134.298 148.546 133.7L148.098 134.148V136.922C148.098 137.121 148.155 137.348 148.269 137.605C148.383 137.861 148.56 138.01 148.802 138.053V138.266H146.029V138.053C146.128 138.053 146.221 138.017 146.306 137.946C146.391 137.861 146.462 137.761 146.519 137.647C146.576 137.533 146.619 137.412 146.647 137.284C146.676 137.156 146.69 137.036 146.69 136.922V130.65C146.69 130.55 146.676 130.436 146.647 130.308C146.619 130.166 146.576 130.038 146.519 129.924C146.462 129.81 146.391 129.718 146.306 129.647C146.221 129.562 146.128 129.519 146.029 129.519V129.305H148.802V129.519C148.56 129.562 148.383 129.711 148.269 129.967C148.155 130.223 148.098 130.45 148.098 130.65V133.167L151.554 129.924C151.597 129.882 151.64 129.832 151.682 129.775C151.739 129.704 151.768 129.654 151.768 129.626C151.768 129.554 151.711 129.519 151.597 129.519V129.305H153.432V129.519C153.346 129.519 153.254 129.54 153.154 129.583C153.069 129.626 152.984 129.675 152.898 129.732C152.799 129.789 152.699 129.86 152.6 129.946C152.102 130.401 151.597 130.87 151.085 131.354C150.573 131.837 150.068 132.307 149.57 132.762L151.17 134.81L152.344 136.26C152.529 136.516 152.713 136.737 152.898 136.922C153.055 137.078 153.218 137.228 153.389 137.37C153.56 137.498 153.709 137.562 153.837 137.562H155.138ZM161.974 138.266V137.178L161.868 137.284C161.512 137.64 161.1 137.917 160.63 138.117C160.175 138.316 159.62 138.415 158.966 138.415C158.468 138.415 158.042 138.358 157.686 138.245C157.331 138.131 157.039 137.974 156.811 137.775C156.584 137.562 156.413 137.32 156.299 137.05C156.2 136.78 156.15 136.495 156.15 136.196C156.15 135.713 156.278 135.286 156.534 134.916C156.804 134.547 157.188 134.219 157.686 133.935C158.184 133.651 158.788 133.395 159.5 133.167C160.225 132.925 161.05 132.691 161.974 132.463C161.946 131.908 161.832 131.46 161.633 131.119C161.434 130.778 161.199 130.514 160.929 130.33C160.659 130.13 160.374 130.002 160.076 129.946C159.777 129.874 159.521 129.839 159.308 129.839C158.938 129.839 158.611 129.896 158.326 130.01C158.042 130.109 157.793 130.251 157.579 130.436C157.366 130.607 157.188 130.806 157.046 131.034C156.918 131.261 156.819 131.489 156.747 131.716H156.555V130.052C156.683 130.052 156.833 130.01 157.003 129.924C157.174 129.825 157.373 129.718 157.601 129.604C157.843 129.49 158.127 129.391 158.454 129.305C158.796 129.206 159.201 129.156 159.67 129.156C160.453 129.156 161.085 129.256 161.569 129.455C162.053 129.654 162.422 129.917 162.678 130.244C162.949 130.571 163.126 130.948 163.212 131.375C163.297 131.787 163.34 132.214 163.34 132.655V136.879C163.34 137.164 163.411 137.434 163.553 137.69C163.695 137.932 163.887 138.053 164.129 138.053V138.266H161.974ZM161.974 136.239V133.188L161.761 133.231C161.42 133.316 161 133.43 160.502 133.572C160.019 133.715 159.556 133.899 159.116 134.127C158.675 134.355 158.298 134.625 157.985 134.938C157.672 135.251 157.515 135.613 157.515 136.026C157.515 136.481 157.7 136.858 158.07 137.156C158.44 137.455 158.924 137.605 159.521 137.605C159.99 137.605 160.403 137.505 160.758 137.306C161.114 137.092 161.441 136.822 161.74 136.495L161.974 136.239ZM172.493 138.053C172.592 138.053 172.706 138.01 172.834 137.925C172.962 137.839 173.026 137.718 173.026 137.562C173.026 137.533 173.012 137.477 172.983 137.391C172.969 137.292 172.934 137.185 172.877 137.071L170.167 130.671L167.351 137.391C167.109 137.974 166.633 138.266 165.922 138.266H165.452V138.053C165.652 138.053 165.865 137.953 166.093 137.754C166.334 137.541 166.526 137.292 166.669 137.007L169.57 130.223C169.641 130.038 169.677 129.889 169.677 129.775C169.677 129.604 169.563 129.519 169.335 129.519V129.305H171.063L174.349 136.986C174.448 137.199 174.591 137.434 174.776 137.69C174.975 137.932 175.16 138.053 175.33 138.053V138.266H172.493V138.053ZM182.246 138.266V137.178L182.139 137.284C181.784 137.64 181.371 137.917 180.902 138.117C180.447 138.316 179.892 138.415 179.238 138.415C178.74 138.415 178.313 138.358 177.958 138.245C177.602 138.131 177.311 137.974 177.083 137.775C176.856 137.562 176.685 137.32 176.571 137.05C176.472 136.78 176.422 136.495 176.422 136.196C176.422 135.713 176.55 135.286 176.806 134.916C177.076 134.547 177.46 134.219 177.958 133.935C178.456 133.651 179.06 133.395 179.771 133.167C180.497 132.925 181.322 132.691 182.246 132.463C182.218 131.908 182.104 131.46 181.905 131.119C181.706 130.778 181.471 130.514 181.201 130.33C180.93 130.13 180.646 130.002 180.347 129.946C180.049 129.874 179.793 129.839 179.579 129.839C179.209 129.839 178.882 129.896 178.598 130.01C178.313 130.109 178.065 130.251 177.851 130.436C177.638 130.607 177.46 130.806 177.318 131.034C177.19 131.261 177.09 131.489 177.019 131.716H176.827V130.052C176.955 130.052 177.104 130.01 177.275 129.924C177.446 129.825 177.645 129.718 177.873 129.604C178.114 129.49 178.399 129.391 178.726 129.305C179.067 129.206 179.473 129.156 179.942 129.156C180.724 129.156 181.357 129.256 181.841 129.455C182.324 129.654 182.694 129.917 182.95 130.244C183.22 130.571 183.398 130.948 183.483 131.375C183.569 131.787 183.611 132.214 183.611 132.655V136.879C183.611 137.164 183.683 137.434 183.825 137.69C183.967 137.932 184.159 138.053 184.401 138.053V138.266H182.246ZM182.246 136.239V133.188L182.033 133.231C181.691 133.316 181.272 133.43 180.774 133.572C180.29 133.715 179.828 133.899 179.387 134.127C178.946 134.355 178.569 134.625 178.257 134.938C177.944 135.251 177.787 135.613 177.787 136.026C177.787 136.481 177.972 136.858 178.342 137.156C178.712 137.455 179.195 137.605 179.793 137.605C180.262 137.605 180.674 137.505 181.03 137.306C181.386 137.092 181.713 136.822 182.011 136.495L182.246 136.239ZM194.237 137.498C194.123 137.498 194.016 137.526 193.917 137.583C193.817 137.626 193.703 137.683 193.575 137.754C193.333 137.896 193.013 138.045 192.615 138.202C192.217 138.344 191.719 138.415 191.122 138.415C190.396 138.415 189.728 138.301 189.116 138.074C188.519 137.832 188 137.505 187.559 137.092C187.118 136.666 186.777 136.175 186.535 135.62C186.293 135.052 186.172 134.44 186.172 133.786C186.172 133.174 186.279 132.591 186.492 132.036C186.72 131.482 187.04 130.991 187.452 130.564C187.865 130.138 188.37 129.796 188.967 129.54C189.579 129.284 190.268 129.156 191.036 129.156C191.563 129.156 191.989 129.22 192.316 129.348C192.644 129.462 192.921 129.576 193.148 129.69C193.276 129.761 193.397 129.818 193.511 129.86C193.639 129.903 193.767 129.924 193.895 129.924V131.546H193.682C193.611 131.275 193.483 131.041 193.298 130.842C193.113 130.628 192.9 130.45 192.658 130.308C192.416 130.166 192.153 130.059 191.868 129.988C191.584 129.917 191.307 129.882 191.036 129.882C190.453 129.882 189.941 129.988 189.5 130.202C189.059 130.401 188.697 130.671 188.412 131.012C188.128 131.339 187.914 131.716 187.772 132.143C187.63 132.57 187.559 133.011 187.559 133.466C187.559 133.992 187.637 134.511 187.794 135.023C187.964 135.521 188.199 135.969 188.498 136.367C188.811 136.765 189.187 137.085 189.628 137.327C190.083 137.569 190.595 137.69 191.164 137.69C191.563 137.69 191.932 137.633 192.274 137.519C192.615 137.405 192.907 137.256 193.148 137.071C193.404 136.886 193.604 136.687 193.746 136.474C193.902 136.246 193.995 136.033 194.023 135.834H194.237V137.498ZM204.489 138.266V138.053C204.588 138.053 204.681 138.017 204.766 137.946C204.851 137.861 204.922 137.761 204.979 137.647C205.05 137.519 205.1 137.391 205.129 137.263C205.157 137.121 205.171 136.993 205.171 136.879V130.628C205.171 130.529 205.157 130.415 205.129 130.287C205.1 130.159 205.05 130.038 204.979 129.924C204.922 129.81 204.851 129.718 204.766 129.647C204.681 129.562 204.588 129.519 204.489 129.519V129.305H207.262V129.519C207.049 129.519 206.878 129.654 206.75 129.924C206.622 130.18 206.558 130.415 206.558 130.628V136.879C206.558 136.993 206.572 137.121 206.601 137.263C206.629 137.391 206.672 137.512 206.729 137.626C206.8 137.74 206.878 137.839 206.963 137.925C207.049 138.01 207.148 138.053 207.262 138.053V138.266H204.489ZM199.454 133.188C200.762 133.188 201.729 133.43 202.355 133.914C202.995 134.397 203.315 134.995 203.315 135.706C203.315 136.061 203.23 136.396 203.059 136.708C202.903 137.021 202.661 137.292 202.334 137.519C202.007 137.747 201.594 137.932 201.096 138.074C200.599 138.202 200.008 138.266 199.326 138.266H195.699V138.053C195.798 138.053 195.891 138.017 195.976 137.946C196.062 137.861 196.133 137.761 196.19 137.647C196.261 137.519 196.311 137.391 196.339 137.263C196.367 137.121 196.382 136.993 196.382 136.879V130.628C196.382 130.529 196.367 130.415 196.339 130.287C196.311 130.159 196.261 130.038 196.19 129.924C196.133 129.81 196.062 129.718 195.976 129.647C195.891 129.562 195.798 129.519 195.699 129.519V129.305H198.472V129.519C198.259 129.519 198.088 129.654 197.96 129.924C197.832 130.18 197.768 130.415 197.768 130.628V133.188H199.454ZM199.283 137.562C200.222 137.562 200.897 137.412 201.31 137.114C201.737 136.801 201.95 136.417 201.95 135.962C201.95 135.706 201.893 135.457 201.779 135.215C201.665 134.959 201.488 134.739 201.246 134.554C201.018 134.355 200.734 134.198 200.392 134.084C200.051 133.956 199.66 133.892 199.219 133.892H197.768V137.562H199.283ZM209.557 136.282C209.97 136.282 210.268 136.424 210.453 136.708C210.652 136.993 210.752 137.32 210.752 137.69C210.752 137.903 210.723 138.138 210.667 138.394C210.61 138.664 210.496 138.927 210.325 139.183C210.169 139.453 209.934 139.717 209.621 139.973C209.322 140.243 208.924 140.492 208.426 140.719L208.32 140.527C208.604 140.271 208.825 140.037 208.981 139.823C209.152 139.624 209.273 139.439 209.344 139.269C209.429 139.112 209.479 138.963 209.493 138.821C209.522 138.678 209.536 138.529 209.536 138.373C209.536 138.259 209.5 138.173 209.429 138.117C209.358 138.045 209.28 137.981 209.194 137.925C209.081 137.853 208.967 137.775 208.853 137.69C208.739 137.59 208.682 137.427 208.682 137.199C208.682 136.929 208.768 136.708 208.938 136.538C209.109 136.367 209.315 136.282 209.557 136.282ZM217.533 138.053H217.64C217.739 138.053 217.832 138.017 217.917 137.946C218.003 137.861 218.074 137.761 218.131 137.647C218.187 137.533 218.23 137.412 218.259 137.284C218.301 137.156 218.323 137.043 218.323 136.943V125.572C218.323 125.472 218.308 125.352 218.28 125.209C218.251 125.067 218.202 124.939 218.131 124.825C218.074 124.712 218.003 124.612 217.917 124.527C217.832 124.441 217.739 124.399 217.64 124.399H217.533V124.185H220.541V124.399H220.392C220.193 124.427 220.036 124.584 219.923 124.868C219.809 125.138 219.752 125.373 219.752 125.572V130.159H220.947C221.601 130.159 222.241 130.23 222.867 130.372C223.507 130.5 224.069 130.728 224.552 131.055C225.05 131.368 225.448 131.787 225.747 132.314C226.046 132.826 226.195 133.466 226.195 134.234C226.195 134.86 226.067 135.421 225.811 135.919C225.555 136.417 225.206 136.844 224.765 137.199C224.325 137.541 223.798 137.804 223.187 137.989C222.589 138.173 221.942 138.266 221.245 138.266H217.533V138.053ZM220.072 137.519C221.722 137.519 222.902 137.235 223.613 136.666C224.339 136.097 224.701 135.315 224.701 134.319C224.701 133.309 224.339 132.484 223.613 131.844C222.902 131.204 221.85 130.884 220.456 130.884H219.752V137.519H220.072ZM227.624 124.185H230.632V124.399H230.462C230.362 124.413 230.27 124.463 230.184 124.548C230.113 124.633 230.049 124.733 229.992 124.847C229.95 124.946 229.914 125.06 229.886 125.188C229.857 125.302 229.843 125.408 229.843 125.508V136.879C229.843 136.993 229.857 137.114 229.886 137.242C229.914 137.37 229.957 137.498 230.014 137.626C230.071 137.74 230.135 137.839 230.206 137.925C230.291 137.996 230.383 138.038 230.483 138.053H230.632V138.266H227.624V138.053H227.731C227.845 138.053 227.944 138.017 228.03 137.946C228.115 137.861 228.186 137.761 228.243 137.647C228.3 137.519 228.343 137.391 228.371 137.263C228.399 137.121 228.414 136.993 228.414 136.879V125.508C228.414 125.408 228.399 125.295 228.371 125.167C228.343 125.039 228.3 124.918 228.243 124.804C228.186 124.69 228.115 124.598 228.03 124.527C227.944 124.441 227.845 124.399 227.731 124.399H227.624V124.185ZM234.769 136.879C234.769 136.993 234.784 137.121 234.812 137.263C234.841 137.391 234.883 137.512 234.94 137.626C234.997 137.74 235.061 137.839 235.132 137.925C235.217 138.01 235.31 138.053 235.409 138.053V138.266H232.721V138.053C232.821 138.053 232.906 138.017 232.977 137.946C233.063 137.861 233.134 137.761 233.191 137.647C233.248 137.519 233.29 137.391 233.319 137.263C233.347 137.121 233.361 136.993 233.361 136.879V130.628C233.361 130.529 233.347 130.415 233.319 130.287C233.29 130.159 233.248 130.038 233.191 129.924C233.134 129.81 233.063 129.718 232.977 129.647C232.906 129.562 232.821 129.519 232.721 129.519V129.305H235.409V129.519C235.296 129.519 235.196 129.562 235.111 129.647C235.04 129.718 234.976 129.81 234.919 129.924C234.876 130.038 234.841 130.159 234.812 130.287C234.784 130.415 234.769 130.529 234.769 130.628V133.21H239.634V130.628C239.634 130.529 239.619 130.415 239.591 130.287C239.562 130.159 239.52 130.038 239.463 129.924C239.42 129.81 239.356 129.718 239.271 129.647C239.2 129.562 239.107 129.519 238.994 129.519V129.305H241.682V129.519C241.568 129.519 241.468 129.562 241.383 129.647C241.312 129.718 241.248 129.81 241.191 129.924C241.134 130.038 241.091 130.159 241.063 130.287C241.049 130.415 241.042 130.529 241.042 130.628V136.879C241.042 136.993 241.056 137.121 241.084 137.263C241.113 137.391 241.155 137.512 241.212 137.626C241.269 137.74 241.333 137.839 241.404 137.925C241.49 138.01 241.582 138.053 241.682 138.053V138.266H238.994V138.053C239.093 138.053 239.178 138.017 239.25 137.946C239.335 137.861 239.406 137.761 239.463 137.647C239.52 137.519 239.562 137.391 239.591 137.263C239.619 137.121 239.634 136.993 239.634 136.879V133.914H234.769V136.879ZM250.953 131.546C250.953 131.389 250.924 131.218 250.867 131.034C250.81 130.849 250.725 130.685 250.611 130.543C250.497 130.386 250.355 130.258 250.185 130.159C250.014 130.059 249.815 130.01 249.587 130.01H247.71V136.879C247.71 136.993 247.724 137.114 247.752 137.242C247.781 137.37 247.824 137.498 247.88 137.626C247.952 137.74 248.023 137.839 248.094 137.925C248.179 138.01 248.279 138.053 248.392 138.053V138.266H245.619V138.053C245.733 138.053 245.832 138.01 245.918 137.925C246.003 137.839 246.074 137.74 246.131 137.626C246.202 137.512 246.252 137.391 246.28 137.263C246.309 137.121 246.323 136.993 246.323 136.879V130.01H244.488C244.261 130.01 244.062 130.059 243.891 130.159C243.72 130.258 243.578 130.386 243.464 130.543C243.365 130.685 243.286 130.849 243.23 131.034C243.173 131.218 243.144 131.389 243.144 131.546H242.931V129.305H251.145V131.546H250.953ZM261.199 138.266V138.053C261.299 138.053 261.391 138.017 261.477 137.946C261.562 137.861 261.633 137.761 261.69 137.647C261.761 137.519 261.811 137.391 261.839 137.263C261.868 137.121 261.882 136.993 261.882 136.879V130.628C261.882 130.529 261.868 130.415 261.839 130.287C261.811 130.159 261.761 130.038 261.69 129.924C261.633 129.81 261.562 129.718 261.477 129.647C261.391 129.562 261.299 129.519 261.199 129.519V129.305H263.973V129.519C263.759 129.519 263.589 129.654 263.461 129.924C263.333 130.18 263.269 130.415 263.269 130.628V136.879C263.269 136.993 263.283 137.121 263.311 137.263C263.34 137.391 263.383 137.512 263.439 137.626C263.511 137.74 263.589 137.839 263.674 137.925C263.759 138.01 263.859 138.053 263.973 138.053V138.266H261.199ZM256.164 133.188C257.473 133.188 258.44 133.43 259.066 133.914C259.706 134.397 260.026 134.995 260.026 135.706C260.026 136.061 259.941 136.396 259.77 136.708C259.614 137.021 259.372 137.292 259.045 137.519C258.717 137.747 258.305 137.932 257.807 138.074C257.309 138.202 256.719 138.266 256.036 138.266H252.41V138.053C252.509 138.053 252.602 138.017 252.687 137.946C252.772 137.861 252.843 137.761 252.9 137.647C252.971 137.519 253.021 137.391 253.05 137.263C253.078 137.121 253.092 136.993 253.092 136.879V130.628C253.092 130.529 253.078 130.415 253.05 130.287C253.021 130.159 252.971 130.038 252.9 129.924C252.843 129.81 252.772 129.718 252.687 129.647C252.602 129.562 252.509 129.519 252.41 129.519V129.305H255.183V129.519C254.97 129.519 254.799 129.654 254.671 129.924C254.543 130.18 254.479 130.415 254.479 130.628V133.188H256.164ZM255.994 137.562C256.933 137.562 257.608 137.412 258.021 137.114C258.447 136.801 258.661 136.417 258.661 135.962C258.661 135.706 258.604 135.457 258.49 135.215C258.376 134.959 258.198 134.739 257.957 134.554C257.729 134.355 257.445 134.198 257.103 134.084C256.762 133.956 256.371 133.892 255.93 133.892H254.479V137.562H255.994ZM275.847 136.879C275.847 136.993 275.861 137.121 275.89 137.263C275.918 137.391 275.961 137.512 276.018 137.626C276.089 137.74 276.167 137.839 276.252 137.925C276.338 138.01 276.437 138.053 276.551 138.053V138.266H273.778V138.053C273.891 138.053 273.991 138.017 274.076 137.946C274.162 137.861 274.233 137.761 274.29 137.647C274.346 137.519 274.389 137.391 274.418 137.263C274.446 137.121 274.46 136.993 274.46 136.879V131.119L270.897 138.458L267.484 131.546V136.879C267.484 136.993 267.498 137.121 267.527 137.263C267.555 137.391 267.598 137.512 267.655 137.626C267.712 137.74 267.783 137.839 267.868 137.925C267.953 138.01 268.053 138.053 268.167 138.053V138.266H266.097V138.053C266.211 138.053 266.311 138.01 266.396 137.925C266.481 137.839 266.545 137.74 266.588 137.626C266.645 137.512 266.687 137.391 266.716 137.263C266.744 137.121 266.759 136.993 266.759 136.879V130.628C266.759 130.372 266.723 130.123 266.652 129.882C266.595 129.64 266.41 129.519 266.097 129.519V129.305H267.996L271.26 135.983L274.524 129.305H276.551V129.519C276.338 129.519 276.167 129.654 276.039 129.924C275.911 130.18 275.847 130.415 275.847 130.628V136.879ZM284.271 138.266V137.178L284.164 137.284C283.809 137.64 283.396 137.917 282.927 138.117C282.472 138.316 281.917 138.415 281.263 138.415C280.765 138.415 280.339 138.358 279.983 138.245C279.627 138.131 279.336 137.974 279.108 137.775C278.881 137.562 278.71 137.32 278.596 137.05C278.497 136.78 278.447 136.495 278.447 136.196C278.447 135.713 278.575 135.286 278.831 134.916C279.101 134.547 279.485 134.219 279.983 133.935C280.481 133.651 281.085 133.395 281.796 133.167C282.522 132.925 283.347 132.691 284.271 132.463C284.243 131.908 284.129 131.46 283.93 131.119C283.731 130.778 283.496 130.514 283.226 130.33C282.956 130.13 282.671 130.002 282.372 129.946C282.074 129.874 281.818 129.839 281.604 129.839C281.235 129.839 280.907 129.896 280.623 130.01C280.339 130.109 280.09 130.251 279.876 130.436C279.663 130.607 279.485 130.806 279.343 131.034C279.215 131.261 279.115 131.489 279.044 131.716H278.852V130.052C278.98 130.052 279.13 130.01 279.3 129.924C279.471 129.825 279.67 129.718 279.898 129.604C280.139 129.49 280.424 129.391 280.751 129.305C281.092 129.206 281.498 129.156 281.967 129.156C282.749 129.156 283.382 129.256 283.866 129.455C284.349 129.654 284.719 129.917 284.975 130.244C285.245 130.571 285.423 130.948 285.509 131.375C285.594 131.787 285.637 132.214 285.637 132.655V136.879C285.637 137.164 285.708 137.434 285.85 137.69C285.992 137.932 286.184 138.053 286.426 138.053V138.266H284.271ZM284.271 136.239V133.188L284.058 133.231C283.716 133.316 283.297 133.43 282.799 133.572C282.316 133.715 281.853 133.899 281.412 134.127C280.971 134.355 280.595 134.625 280.282 134.938C279.969 135.251 279.812 135.613 279.812 136.026C279.812 136.481 279.997 136.858 280.367 137.156C280.737 137.455 281.22 137.605 281.818 137.605C282.287 137.605 282.7 137.505 283.055 137.306C283.411 137.092 283.738 136.822 284.036 136.495L284.271 136.239ZM297.478 137.562V140.143H297.264C297.264 139.987 297.229 139.795 297.158 139.567C297.087 139.354 296.98 139.148 296.838 138.949C296.695 138.764 296.518 138.6 296.304 138.458C296.105 138.33 295.871 138.266 295.6 138.266H295.43C295.188 138.266 294.953 138.216 294.726 138.117C294.512 138.003 294.327 137.882 294.171 137.754C293.972 137.597 293.794 137.427 293.638 137.242C293.182 136.644 292.72 136.054 292.251 135.471C291.796 134.888 291.341 134.298 290.885 133.7L290.437 134.148V136.922C290.437 137.121 290.494 137.348 290.608 137.605C290.722 137.861 290.9 138.01 291.141 138.053V138.266H288.368V138.053C288.468 138.053 288.56 138.017 288.645 137.946C288.731 137.861 288.802 137.761 288.859 137.647C288.916 137.533 288.958 137.412 288.987 137.284C289.015 137.156 289.029 137.036 289.029 136.922V130.65C289.029 130.55 289.015 130.436 288.987 130.308C288.958 130.166 288.916 130.038 288.859 129.924C288.802 129.81 288.731 129.718 288.645 129.647C288.56 129.562 288.468 129.519 288.368 129.519V129.305H291.141V129.519C290.9 129.562 290.722 129.711 290.608 129.967C290.494 130.223 290.437 130.45 290.437 130.65V133.167L293.894 129.924C293.936 129.882 293.979 129.832 294.022 129.775C294.078 129.704 294.107 129.654 294.107 129.626C294.107 129.554 294.05 129.519 293.936 129.519V129.305H295.771V129.519C295.686 129.519 295.593 129.54 295.494 129.583C295.408 129.626 295.323 129.675 295.238 129.732C295.138 129.789 295.038 129.86 294.939 129.946C294.441 130.401 293.936 130.87 293.424 131.354C292.912 131.837 292.407 132.307 291.909 132.762L293.51 134.81L294.683 136.26C294.868 136.516 295.053 136.737 295.238 136.922C295.394 137.078 295.558 137.228 295.728 137.37C295.899 137.498 296.048 137.562 296.176 137.562H297.478ZM305.482 138.266V138.053C305.823 138.053 306.037 137.953 306.122 137.754C306.222 137.541 306.271 137.292 306.271 137.007V126.788C306.271 126.646 306.2 126.575 306.058 126.575C306.001 126.575 305.923 126.596 305.823 126.639L303.391 127.407V126.639L308.362 124.911V125.487C308.135 125.586 307.95 125.743 307.807 125.956C307.679 126.169 307.63 126.418 307.658 126.703V136.922C307.658 137.22 307.708 137.484 307.807 137.711C307.907 137.939 308.135 138.053 308.49 138.053V138.266H305.482ZM315.3 138.266V138.053C315.499 138.053 315.648 138.024 315.748 137.967C315.862 137.896 315.94 137.811 315.983 137.711C316.04 137.597 316.068 137.477 316.068 137.348C316.082 137.206 316.089 137.064 316.089 136.922V134.831H310.265L317.476 124.612V133.764H318.777V134.831H317.476V136.922C317.476 137.206 317.526 137.469 317.625 137.711C317.739 137.939 317.967 138.053 318.308 138.053V138.266H315.3ZM316.089 127.791C315.378 128.801 314.667 129.796 313.956 130.778C313.259 131.759 312.555 132.755 311.844 133.764H316.089V127.791Z" fill="#242424"></path><line x1="25.5566" y1="115.175" x2="320.811" y2="115.175" stroke="#47170A" stroke-opacity="0.14" stroke-width="1.26714"></line><line x1="25.5566" y1="143.518" x2="320.811" y2="143.518" stroke="#47170A" stroke-opacity="0.14" stroke-width="1.26714"></line><defs><filter id="filter0_d_728_29" x="0.22051" y="0.450439" width="353.532" height="283.839" filterUnits="userSpaceOnUse" color-interpolation-filters="sRGB"><feFlood flood-opacity="0" result="BackgroundImageFix"></feFlood><feColorMatrix in="SourceAlpha" type="matrix" values="0 0 0 0 0 0 0 0 0 0 0 0 0 0 0 0 0 0 127 0" result="hardAlpha"></feColorMatrix><feOffset dy="5.06855"></feOffset><feGaussianBlur stdDeviation="2.53428"></feGaussianBlur><feComposite in2="hardAlpha" operator="out"></feComposite><feColorMatrix type="matrix" values="0 0 0 0 0 0 0 0 0 0 0 0 0 0 0 0 0 0 0.25 0"></feColorMatrix><feBlend mode="normal" in2="BackgroundImageFix" result="effect1_dropShadow_728_29"></feBlend><feBlend mode="normal" in="SourceGraphic" in2="effect1_dropShadow_728_29" result="shape"></feBlend></filter></defs></svg> 