<?xml version="1.0" encoding="UTF-8"?> <svg xmlns="http://www.w3.org/2000/svg" width="238" height="68" viewBox="0 0 238 68" fill="none"><path d="M32.0784 46.2756C34.4464 46.2756 36.6864 45.1876 42.3824 39.1076C42.7664 38.6596 43.2144 38.4036 43.7264 38.4036C44.0464 38.4036 44.3024 38.4676 44.4944 38.6596C41.8704 43.1396 39.6304 46.7876 37.7744 49.5396C36.0464 52.1636 34.5744 54.2756 33.3584 55.9396C32.1424 57.6036 30.7344 59.2676 29.0704 60.9316C27.4064 62.5956 25.7424 63.8116 24.0784 64.5796C22.4144 65.3476 20.6224 65.7316 18.7664 65.7316C16.3984 65.7316 14.5424 65.0276 13.1984 63.6196C11.8544 62.2116 11.2144 60.1636 11.2144 57.5396C11.2144 56.4516 11.3424 55.4276 11.5984 54.4036C12.8144 57.6036 15.4384 59.2036 19.4704 59.2036C21.3264 59.2036 23.3104 58.6916 25.3584 57.7316C27.4064 56.7716 29.1984 55.6836 30.6704 54.4036C32.1424 53.1236 33.6144 51.6516 35.0864 49.9876C36.5584 48.3236 37.6464 46.9796 38.3504 45.9556C39.0544 44.9316 39.6944 44.0356 40.2064 43.2036C40.2704 43.0116 40.2064 42.9476 40.0144 43.0116C39.9504 43.0116 39.8864 43.0116 39.8224 43.0756C35.6624 47.4916 32.0784 49.6676 29.0704 49.6676C25.5504 49.6676 23.7584 47.4276 22.6064 44.0356C22.1584 42.8196 21.6464 41.0276 21.0704 38.7236C20.4944 36.4196 19.9184 34.4996 19.3424 33.0276C18.7664 31.5556 18.0624 30.4036 17.1664 29.5716C12.2384 35.9076 7.75841 42.3716 3.72641 48.8996C1.48641 48.0676 0.334406 46.6596 0.334406 44.6116C0.334406 43.5236 0.910406 42.1156 2.06241 40.3236C3.21441 38.5316 4.75041 36.5476 6.60641 34.3076L12.3664 27.3956C14.3504 25.0276 16.2704 22.4036 18.1904 19.5236C20.1104 16.6436 21.5184 13.9556 22.4784 11.4596C22.9264 10.1796 23.1824 9.15564 23.1824 8.45164C23.1824 7.23564 22.2224 6.65964 20.3664 6.65964C17.4864 6.65964 14.4144 7.87564 11.2144 10.2436C8.01441 12.6116 6.41441 15.3636 6.41441 18.4356C6.41441 20.2276 7.31041 21.2516 9.16641 21.5076C8.78241 22.4676 8.07841 22.9156 6.99041 22.9156C5.83841 22.9156 4.94241 22.5316 4.23841 21.8276C3.53441 21.1236 3.21441 20.1636 3.21441 18.9476C3.21441 15.4276 5.07041 12.3556 8.84641 9.66764C12.6224 6.97964 16.6544 5.63564 20.9424 5.63564L20.3664 5.89164C22.4144 5.89164 23.9504 6.33964 24.9744 7.23564C25.9984 8.13164 26.5104 9.21964 26.5104 10.5636C26.5104 14.7876 23.6944 20.5476 18.0624 27.9076L18.3184 28.0996L25.8064 20.9316C27.8544 19.0756 30.2224 17.0276 32.9744 14.7876C35.7264 12.5476 38.2224 10.8196 40.5264 9.66764C42.8304 8.51564 44.8784 7.93964 46.6704 7.93964C49.0384 7.93964 50.1904 9.02764 50.1904 11.2676C50.1904 12.9956 49.2304 14.6596 47.2464 16.3236C45.2624 17.9876 41.6784 20.4196 36.4304 23.6836C35.8544 22.7236 35.5344 21.8276 35.5344 20.9956C35.5344 19.3316 36.2384 17.8596 37.7104 16.6436C38.7984 15.6836 40.1424 14.7236 41.6784 13.7636C43.2144 12.8036 44.3664 12.0356 45.1344 11.4596C45.9024 10.8836 46.2864 10.3076 46.2864 9.73164C46.2864 9.15564 45.9024 8.96364 45.1344 9.15564C39.3744 10.8196 30.9904 17.2836 19.9184 28.6116C21.7104 30.3396 23.2464 32.5796 24.4624 35.3316L25.9984 38.5956C27.1504 41.2196 29.0704 46.2756 32.0784 46.2756ZM52.6734 61.3796C52.6734 58.6916 53.3774 55.6196 54.9134 52.0356L49.1534 52.2916C49.2174 51.2036 49.6014 50.4356 50.2414 50.0516C50.8814 49.6676 52.0334 49.4756 53.6974 49.4756C54.7214 49.4756 55.5534 49.4116 56.1934 49.4756C59.3294 43.3956 64.2574 38.2116 68.1614 32.5156C68.3534 32.1956 68.3534 32.0036 68.1614 31.9396C68.0334 31.8756 67.9054 31.9396 67.7774 32.0676C65.8574 34.1796 63.8094 36.3556 61.6334 38.5316C59.4574 40.7076 56.8974 42.9476 53.8894 45.2516C50.8814 47.5556 48.6414 48.7076 47.1694 48.7076C45.9534 48.7076 44.8654 48.2596 43.9054 47.2996C45.6974 45.1876 48.1294 41.4756 51.2654 36.1636C54.4014 30.8516 55.9374 26.6916 55.9374 23.6196C55.9374 22.6596 55.7454 21.6996 55.4254 20.8036L56.3214 20.6116C57.3454 20.6116 58.3694 20.8676 59.3934 21.3156C60.9934 22.1476 61.8254 23.3636 61.8254 25.0276C61.8254 25.7316 61.6974 26.4996 61.4414 27.3316C61.1854 28.1636 60.8014 29.0596 60.3534 29.9556C59.9054 30.8516 59.3934 31.8116 58.8174 32.7716C58.2414 33.7316 57.6014 34.6916 56.8974 35.6516L54.9774 38.3396C54.3374 39.1716 53.6974 40.0036 52.9934 40.8356L51.3294 42.8836L50.1134 44.3556L49.4734 45.1236C49.2814 45.3156 49.2174 45.5076 49.2814 45.6996C49.3454 45.8916 49.4734 45.9556 49.6654 45.9556C50.1134 45.9556 51.2014 45.3156 52.9294 44.0356C54.6574 42.7556 56.1294 41.5396 57.3454 40.4516C59.5854 38.4676 61.9534 36.0996 64.3854 33.3476C66.8174 30.5956 68.9294 28.0996 70.7214 25.8596C72.5134 23.6196 73.6014 22.3396 73.9214 22.0196C74.8174 21.1236 75.7774 20.6756 76.8654 20.6756C78.0814 20.6756 79.4254 21.1876 80.8974 22.1476C75.6494 30.8516 67.0094 40.6436 61.6334 49.6036C65.6654 49.4756 68.2254 49.3476 69.4414 49.1556C69.3774 49.6676 68.9934 50.0516 68.2894 50.3076C66.6254 50.8836 64.0014 51.3316 60.4174 51.6516L59.8414 52.8036C57.6014 57.0916 56.5134 60.8036 56.5134 64.0036C56.5134 64.6436 56.5774 65.2196 56.6414 65.7316L56.8334 66.8196L56.8974 67.1396C54.1454 66.6916 52.8014 64.5796 52.8014 60.8036L52.6734 61.3796ZM99.5324 21.5716L99.7244 21.7636C100.172 19.6516 100.428 17.4116 100.428 15.0436C100.428 11.0756 99.5964 8.06764 97.8684 6.08364C96.1404 4.09964 93.7724 3.07564 90.7644 3.07564C86.9884 3.07564 83.8524 4.16364 81.2924 6.40364C82.5084 4.54764 84.2364 3.01164 86.4764 1.85964C88.7164 0.707642 91.0844 0.131641 93.5804 0.131641C101.836 0.131641 105.932 4.61164 105.932 13.6356C105.932 19.2036 104.588 24.8356 101.9 30.4676C99.2124 36.0996 95.9484 40.6436 92.0444 44.0996C88.1404 47.5556 84.4284 49.2836 80.9084 49.2836C77.5804 49.2836 75.9164 47.6196 75.9164 44.2276C75.9164 40.9636 77.1324 37.6996 79.5644 34.4356C81.9964 31.1716 85.0044 28.4196 88.5884 26.1796C92.1724 23.9396 95.8204 22.4036 99.5324 21.5716ZM84.2364 36.4196L84.1724 36.5476C82.3164 39.7476 81.4204 42.5636 81.4204 44.9316C81.4204 46.6596 82.1244 47.5556 83.4684 47.5556C85.0044 47.5556 86.9244 46.1476 89.2284 43.3316C91.5324 40.5156 93.6444 37.1876 95.5644 33.3476C97.4844 29.5076 98.7644 26.1156 99.4044 23.1076C96.6524 24.1316 93.8364 25.9236 90.9564 28.4836C88.0764 31.0436 85.8364 33.6676 84.2364 36.4196ZM126.699 24.5796L126.955 24.8356C126.443 24.3876 125.611 24.1956 124.523 24.1956C122.027 24.1956 118.635 26.4356 114.347 30.9796C112.427 32.9636 110.571 35.4596 108.779 38.5316C106.987 41.6036 106.091 43.9716 106.091 45.6996C106.091 46.6596 106.475 47.1076 107.307 47.1076C108.011 47.1076 108.971 46.5956 110.187 45.6356C111.403 44.6756 112.683 43.4596 114.027 41.9876C115.371 40.5156 116.587 39.0436 117.739 37.6356L120.939 33.6676L122.411 31.7476C122.475 31.6836 123.435 30.3396 125.291 27.7796C127.147 25.2196 128.171 23.8116 128.363 23.6196C129.067 22.7876 129.643 22.2116 130.091 21.8916C130.539 21.5716 131.051 21.3796 131.627 21.3796C133.291 21.3796 134.763 22.4036 135.979 24.5156C134.827 25.4756 133.227 27.1396 131.115 29.5076C128.939 32.0036 126.763 34.8836 124.587 38.1476C122.411 41.4116 121.323 44.0356 121.323 46.0196C121.323 47.4276 121.899 48.1316 123.115 48.1316C125.355 48.1316 128.619 46.0196 132.843 41.8596C137.067 37.6996 139.819 34.5636 141.035 32.4516C141.355 32.5796 141.547 32.8356 141.547 33.2196C141.547 33.6036 141.483 33.9876 141.291 34.3076C140.971 34.7556 140.139 35.7156 138.795 37.1876C137.451 38.6596 135.851 40.3876 133.931 42.3076C132.011 44.2276 129.899 45.9556 127.595 47.4276C125.291 48.8996 123.307 49.6036 121.643 49.6036C120.235 49.6036 119.147 49.1556 118.379 48.3236C117.611 47.4916 117.227 46.2756 117.227 44.7396C117.227 42.6276 117.995 39.8756 119.595 36.4836C116.267 40.9636 113.643 44.0996 111.659 45.8916C108.971 48.3236 106.603 49.5396 104.619 49.5396C103.339 49.5396 102.379 49.0916 101.675 48.1956C100.971 47.2996 100.651 46.0836 100.651 44.4836C100.651 42.6916 101.099 40.7076 101.995 38.5956C104.043 33.8596 107.243 29.7636 111.531 26.3076C115.819 22.8516 119.787 21.1236 123.371 21.1236C125.611 21.1236 126.699 22.1476 126.699 24.1316V24.5796ZM159.373 20.2916C163.277 20.3556 165.261 21.4436 165.261 23.6196C165.261 24.3876 164.941 25.4116 164.301 26.7556C163.661 28.0996 163.021 29.3156 162.317 30.4676C161.613 31.6196 160.589 33.1556 159.245 35.1396C155.853 40.3236 154.125 43.7796 154.125 45.5076C154.125 46.2116 154.317 46.7876 154.765 47.2356C155.213 47.6836 155.789 47.8756 156.557 47.8756C158.413 47.8756 160.525 46.9156 162.829 44.9956C165.133 43.0756 166.925 41.1556 168.141 39.2996C168.653 39.5556 168.717 40.0676 168.397 40.7716C167.821 41.9876 166.093 43.7796 163.213 46.0836C160.333 48.3876 157.517 49.5396 154.829 49.5396C153.229 49.5396 151.949 49.0916 150.989 48.2596C150.029 47.4276 149.581 46.2756 149.581 44.8676C149.581 42.1156 151.693 37.7636 155.917 31.7476C153.997 33.8596 151.885 36.0356 149.581 38.3396C147.277 40.6436 144.589 43.0116 141.581 45.3796C138.573 47.7476 136.397 48.9636 135.053 48.9636C134.093 48.9636 133.325 48.7076 132.749 48.1956C132.173 47.6836 131.917 46.9156 131.917 45.8916C131.917 44.4196 133.197 41.9236 135.757 38.4676C138.317 35.0116 139.597 32.5796 139.597 31.2356C139.597 31.1716 139.597 31.1076 139.597 30.9796C139.597 30.8516 139.597 30.7876 139.597 30.7236C140.941 31.2996 141.901 31.8756 142.413 32.4516C142.925 33.0276 143.181 33.9236 143.181 35.1396C143.181 36.0996 142.797 37.2516 142.029 38.5956C141.261 39.9396 140.429 41.1556 139.533 42.1796L136.973 45.0596C136.205 45.9556 135.821 46.5316 135.821 46.7876C135.821 47.1076 136.013 47.2996 136.397 47.2996C137.357 47.2996 139.469 45.8916 142.733 43.0756C145.997 40.2596 149.261 37.1236 152.525 33.6676C155.405 30.5956 157.325 28.4196 158.221 27.2036C159.309 25.6676 159.821 24.0676 159.821 22.3396C159.821 21.5716 159.693 20.8676 159.373 20.2916ZM176.673 20.8676L176.289 21.2516C176.545 21.1876 177.185 21.1876 178.145 21.1876C180.641 21.1876 181.921 22.0836 181.921 23.8756C181.921 24.5156 181.793 25.1556 181.537 25.8596C180.833 27.7796 179.297 30.3396 176.865 33.4756L170.273 41.9876C168.289 44.4836 167.265 46.1476 167.265 46.9156C167.265 47.5556 167.649 47.8756 168.353 47.8756C170.017 47.8756 172.065 46.6596 174.433 44.2916C176.801 41.9236 178.017 39.1716 178.017 36.0356C178.017 35.3316 177.889 34.6916 177.633 34.1156C178.401 33.8596 179.169 33.7316 179.873 33.7316C180.961 33.7316 181.857 33.9236 182.561 34.3076C185.953 33.4116 189.089 31.9396 191.969 29.8276C196.385 23.9396 199.713 20.9956 201.953 20.9956C202.785 20.9956 203.489 21.1236 204.065 21.3796C204.641 21.6356 205.281 22.2116 205.985 23.0436C201.953 25.9236 198.241 29.9556 194.849 35.0756C191.457 40.1956 189.793 43.7796 189.793 45.8916C189.793 47.0436 190.433 47.6196 191.777 47.6196C194.209 47.6196 197.345 45.8276 201.185 42.2436C205.025 38.6596 207.969 35.3956 209.953 32.3876C210.209 32.4516 210.401 32.6436 210.465 32.9636C210.529 33.2836 210.465 33.6036 210.273 33.9236C207.905 37.2516 204.769 40.5796 200.801 43.9716C196.833 47.3636 193.313 49.0276 190.177 49.0276C188.769 49.0276 187.681 48.5796 186.913 47.7476C186.145 46.9156 185.761 45.8276 185.761 44.4836C185.761 40.8356 187.489 36.4836 190.881 31.4276C188.961 32.7716 186.529 33.9876 183.521 35.0756C183.585 35.2676 183.649 35.5876 183.649 36.0356C183.585 38.0196 181.921 40.5156 178.657 43.5236C175.009 46.9156 171.425 48.5796 167.969 48.5796C165.537 48.5796 164.321 47.5556 164.321 45.5076C164.321 44.6116 164.769 43.3956 165.601 41.8596C166.433 40.3236 167.777 38.2116 169.633 35.4596C171.489 32.7076 172.833 30.6596 173.665 29.3156C174.433 28.0996 175.137 26.6276 175.841 24.8996C176.545 23.1716 176.801 21.8276 176.673 20.8676ZM217.7 38.7876C218.468 40.5156 220.26 47.1076 222.82 47.1076C224.42 47.1076 225.444 46.6596 228.004 43.6516H227.62C228.836 42.3076 229.668 41.6036 230.116 41.6036C230.308 41.6036 230.436 41.6036 230.564 41.6676L230.82 41.8596L230.884 41.9236C229.668 43.0116 227.684 45.3156 224.996 48.8996C222.18 52.4836 219.492 55.3636 216.868 57.6036C214.244 59.8436 211.492 60.9316 208.612 60.9316C207.14 60.9316 205.924 60.5476 205.028 59.8436C204.132 59.1396 203.684 58.0516 203.684 56.5796C203.684 54.8516 204.324 53.1876 205.54 51.5876C205.732 53.1236 206.308 54.2756 207.332 55.0436C208.356 55.8116 209.572 56.1956 210.98 56.1956C215.268 56.1956 220.132 53.1876 225.572 47.1716C223.844 48.7716 222.18 49.5396 220.58 49.5396C218.468 49.5396 217.124 48.7716 215.14 43.2676L213.988 40.0036C213.54 38.6596 212.708 37.8276 211.428 37.5076C210.468 38.5956 208.74 40.6436 206.244 43.6516C204.132 46.2756 202.788 48.1956 202.212 49.3476C200.996 48.7716 200.356 47.8116 200.356 46.4676C200.356 45.6356 200.74 44.6116 201.444 43.4596C201.892 42.7556 203.364 40.7716 205.86 37.4436C208.356 34.1156 210.276 31.1716 211.556 28.6756C212.836 26.1796 213.476 23.7476 213.476 21.5076C215.332 21.5076 218.852 21.5716 218.852 24.3876C218.852 25.9876 218.276 27.7796 217.06 29.7636C215.844 31.7476 214.5 33.5396 213.028 35.1396C212.9 35.3316 212.9 35.3956 212.964 35.3956C213.028 35.3956 213.156 35.3316 213.284 35.2676C219.3 30.4676 223.076 27.5236 224.548 26.4356C226.02 25.3476 227.812 24.2596 229.988 23.1076C232.164 21.9556 233.828 21.3796 235.044 21.3796C236.388 21.3796 237.092 21.8916 237.092 22.9156C237.092 23.4276 236.836 24.0676 236.388 24.8356C235.94 25.6036 235.172 26.4996 234.084 27.5876C232.996 28.6756 232.036 29.5716 231.204 30.2756L227.62 33.4756L224.356 36.3556C223.268 35.7156 222.756 34.8196 222.756 33.7316C222.756 32.4516 223.524 31.1716 224.996 29.9556C225.7 29.3796 226.852 28.6116 228.388 27.6516C229.924 26.6916 231.14 25.8596 232.1 25.1556C233.06 24.4516 233.508 23.9396 233.508 23.6196C233.508 23.4276 233.38 23.3636 233.06 23.3636C232.292 23.3636 230.756 24.0676 228.388 25.4756C226.02 26.8836 223.844 28.2916 221.86 29.7636L214.244 35.7796C215.588 36.1636 216.932 37.0596 217.7 38.7876Z" fill="#181818"></path></svg> 