<?xml version="1.0" encoding="UTF-8"?> <svg xmlns="http://www.w3.org/2000/svg" width="297" height="55" viewBox="0 0 297 55" fill="none"><path d="M40.1362 6.09785L39.6882 6.80185C41.9282 6.80185 43.5922 7.31385 44.6162 8.33785C45.6402 9.36185 46.1522 10.8979 46.1522 12.8819C46.1522 15.5699 45.3202 18.7698 43.5922 22.4818C41.8642 26.1938 40.0082 29.5219 37.9602 32.5299C35.9122 35.5379 34.0562 38.4819 32.3282 41.3619C30.6002 44.2419 29.7682 46.2899 29.7682 47.5059C29.7682 48.3379 30.0882 48.7219 30.7282 48.7219C32.3282 48.7219 36.0402 45.3299 41.8002 38.5459C43.6562 36.3699 45.9602 33.3619 48.7122 29.5858C51.4642 25.8099 53.7682 22.4818 55.5602 19.6658C57.8002 16.0818 59.3362 13.4579 60.1682 11.8578C61.0002 10.2579 61.6402 8.72185 62.0242 7.24985C64.3282 8.01785 65.4802 9.55385 65.4802 11.7938C65.4802 13.0098 64.9682 14.4179 63.8802 16.0178L61.0642 20.3699L58.3762 24.5299L56.0722 28.1779C55.0482 29.7779 54.3442 30.9939 53.8962 31.7619L52.1682 34.8979C51.4642 36.1779 50.9522 37.2659 50.6322 38.0979L49.6722 40.8499C49.2882 41.8739 49.0322 42.8339 48.9042 43.7299C48.7762 44.6259 48.7122 45.4579 48.7122 46.2899C48.7122 48.6579 49.7362 50.0659 51.8482 50.4499C50.7602 50.7699 49.8642 50.8979 49.1602 50.8979C45.5122 50.8979 43.7202 49.1059 43.7202 45.5859C43.7202 41.6179 46.6002 35.4099 52.3602 26.8979C52.4242 26.7698 52.4882 26.6419 52.4882 26.5139C52.4882 26.3859 52.4242 26.3218 52.2962 26.3218C52.1682 26.3218 52.0402 26.3859 51.9762 26.5139C47.5602 33.1059 43.2082 38.8019 38.9202 43.5379C34.6322 48.2739 31.3042 50.6419 28.9362 50.6419C26.2482 50.6419 24.9042 49.4259 24.9042 46.9939C24.9042 45.3939 25.6082 43.2819 27.0162 40.6579C28.4242 38.0339 30.4082 34.7059 32.9682 30.6739C35.5282 26.6419 37.5122 23.1219 38.9842 20.1138C37.0642 22.8018 34.5042 26.0659 31.2402 29.8419C27.9762 33.6179 25.0962 36.7539 22.6002 39.1859C14.9842 46.5459 8.96819 50.1939 4.55219 50.1939C1.80019 50.1939 0.392187 48.9139 0.392187 46.3539C0.392187 45.0739 0.776187 43.7299 1.48019 42.3859C2.18419 41.0419 3.14419 39.4419 4.36019 37.6499C5.57619 35.8579 6.53619 34.1939 7.17619 32.7219C7.36819 32.2739 7.75219 30.9299 8.39219 28.6898C11.0802 29.3939 12.4242 30.9299 12.4242 33.2339C12.4242 34.6419 11.7202 36.3059 10.3762 38.2899C9.03219 40.2739 7.68819 42.0659 6.34419 43.7299C5.00019 45.3939 4.29619 46.6099 4.29619 47.3139C4.29619 48.0179 4.68019 48.3379 5.51219 48.3379C7.17619 48.3379 9.35219 47.5059 12.0402 45.8419C14.7282 44.1779 17.5442 42.0019 20.4242 39.3139C26.6322 33.6179 32.2642 27.2178 37.3842 20.1138C39.7522 16.7859 40.9682 13.3938 40.9682 9.93785C40.9682 9.10585 40.8402 8.52985 40.5202 8.14585C40.2002 7.76185 39.6882 7.56985 38.9842 7.56985C35.7842 7.56985 32.6482 8.91385 29.5122 11.5378C26.3762 14.1618 24.8402 17.0419 24.8402 20.1138C24.8402 22.0979 25.6722 23.2499 27.4002 23.5699C26.8242 24.5299 25.8642 24.9778 24.5202 24.9778C23.5602 24.9778 22.7282 24.6579 22.0882 24.0179C21.4482 23.3778 21.1282 22.4179 21.1282 21.1378C21.1282 18.8339 22.1522 16.4659 24.1362 14.0979C26.1202 11.7299 28.6162 9.80985 31.5602 8.33785C34.5042 6.86585 37.3842 6.09785 40.1362 6.09785ZM98.9497 22.1618L99.3337 22.3538C100.486 22.0979 101.574 21.9699 102.662 21.9699C103.878 21.9699 104.838 22.2259 105.478 22.7379C106.118 23.2499 106.566 24.0179 106.822 25.1059C107.014 26.0019 107.142 27.6019 107.142 29.8419L107.014 34.7059C111.174 30.0338 113.862 27.1539 115.078 26.0659C117.766 23.6339 120.07 22.4179 122.054 22.4179C123.782 22.4179 124.614 23.1219 124.614 24.5299C124.614 25.3619 124.23 26.3218 123.398 27.4099C122.566 28.4979 121.286 29.9699 119.558 31.8899C117.83 33.8099 116.486 35.4099 115.526 36.6899C114.438 35.8579 113.926 34.8339 113.926 33.6819C113.926 32.5299 114.374 31.3779 115.334 30.2259C116.294 29.0739 118.278 27.2819 121.286 24.9139C121.67 24.5939 121.862 24.2738 121.862 23.9538C121.862 23.6339 121.606 23.5058 121.158 23.5058C119.942 23.5058 117.958 24.8498 115.206 27.4739C112.71 29.8419 109.958 32.7859 106.95 36.3059C106.822 38.4179 106.758 41.0419 106.758 44.1779C106.758 47.5699 107.142 49.7459 107.846 50.7059C108.358 51.2819 108.87 51.6659 109.382 51.7939C109.894 51.9219 110.662 51.9859 111.622 51.9859C110.662 53.3299 109.126 54.0339 107.078 54.0339C103.686 54.0339 101.83 52.2419 101.446 48.6579C101.382 47.4419 101.318 46.3539 101.318 45.3939C101.318 44.8179 101.382 43.9859 101.446 42.8339C101.51 41.6819 101.574 40.9139 101.574 40.4659C99.3977 43.0899 96.9017 45.5859 94.1497 47.8899C92.5497 49.2339 91.1417 49.8739 89.9257 49.8739C87.9417 49.8739 86.9177 48.7219 86.9177 46.4819C86.9177 45.9059 86.9817 45.2659 87.1737 44.5619C83.9737 48.5939 80.8377 50.5779 77.7657 50.5779C76.3577 50.5779 75.2697 50.1299 74.5017 49.2979C73.7337 48.4659 73.3497 47.2499 73.3497 45.7139C73.3497 43.6019 74.1177 40.8499 75.7177 37.4579C72.3897 41.9379 69.7657 45.0739 67.7817 46.8659C65.0937 49.2979 62.7257 50.5139 60.7417 50.5139C59.4617 50.5139 58.5017 50.0659 57.7977 49.1699C57.0937 48.2739 56.7737 47.0579 56.7737 45.4579C56.7737 43.6659 57.2217 41.6819 58.1177 39.5699C60.1657 34.8339 63.3657 30.7379 67.6537 27.2819C71.9417 23.8258 75.9097 22.0979 79.4937 22.0979C81.7337 22.0979 82.8217 23.1219 82.8217 25.1059V25.5539C82.3097 25.1059 81.4777 24.9139 80.3897 24.9139C77.8937 24.9139 74.5017 27.1539 70.2137 31.6979C68.2937 33.6819 66.4377 36.1779 64.6457 39.2499C62.8537 42.3219 61.9577 44.6899 61.9577 46.4179C61.9577 47.3779 62.3417 47.8259 63.1737 47.8259C63.8777 47.8259 64.8377 47.3139 66.0537 46.3539C67.2697 45.3939 68.5497 44.1779 69.8937 42.7059C71.2377 41.2339 72.4537 39.7619 73.6057 38.3539L76.8057 34.3859L78.2777 32.4659C78.3417 32.4019 79.3017 31.0578 81.1577 28.4979C83.0137 25.9379 84.0377 24.5299 84.2297 24.3379C84.9337 23.5058 85.5097 22.9298 85.9577 22.6098C86.4057 22.2899 86.9177 22.0979 87.4937 22.0979C89.1577 22.0979 90.6297 23.1219 91.8457 25.2339C90.6937 26.1938 89.0937 27.8579 86.9817 30.2259C84.8057 32.7219 82.6297 35.6019 80.4537 38.8659C78.2777 42.1299 77.1897 44.7539 77.1897 46.7379C77.1897 48.1459 77.7657 48.8499 78.9817 48.8499C81.2857 48.8499 84.5497 46.0339 88.7737 40.4659C89.9897 38.8019 91.4617 37.9699 93.1257 37.9699C94.3417 37.9699 95.1097 38.2259 95.4937 38.8019C93.9577 39.2499 92.4857 40.3379 91.0777 42.1299C89.6697 43.9219 88.9657 45.6499 88.9657 47.2499C88.9657 48.0819 89.3497 48.4659 90.0537 48.4659C90.9497 48.4659 92.2937 47.6979 94.0857 46.0979C96.5817 43.8579 98.9497 41.4259 101.254 38.7379C101.254 38.3539 101.254 37.7779 101.254 36.9459C101.254 36.1139 101.254 35.5379 101.254 35.2179C101.254 32.0819 101.19 29.9699 101.126 28.8179C101.062 27.5379 100.934 26.4499 100.742 25.4899C100.55 24.5939 100.294 23.8258 99.9097 23.2499L98.9497 22.1618ZM144.875 25.6179L145.131 25.8738C144.619 25.4258 143.787 25.2339 142.699 25.2339C140.203 25.2339 136.811 27.4739 132.523 32.0179C130.603 34.0019 128.747 36.4979 126.955 39.5699C125.163 42.6419 124.267 45.0099 124.267 46.7379C124.267 47.6979 124.651 48.1459 125.483 48.1459C126.187 48.1459 127.147 47.6339 128.363 46.6739C129.579 45.7139 130.859 44.4979 132.203 43.0259C133.547 41.5539 134.763 40.0819 135.915 38.6739L139.115 34.7059L140.587 32.7859C140.651 32.7219 141.611 31.3779 143.467 28.8179C145.323 26.2579 146.347 24.8498 146.539 24.6579C147.243 23.8258 147.819 23.2499 148.267 22.9298C148.715 22.6098 149.227 22.4179 149.803 22.4179C151.467 22.4179 152.939 23.4419 154.155 25.5539C153.003 26.5139 151.403 28.1779 149.291 30.5459C147.115 33.0419 144.939 35.9219 142.763 39.1859C140.587 42.4499 139.499 45.0739 139.499 47.0579C139.499 48.4659 140.075 49.1699 141.291 49.1699C143.531 49.1699 146.795 47.0579 151.019 42.8979C155.243 38.7379 157.995 35.6019 159.211 33.4899C159.531 33.6179 159.723 33.8739 159.723 34.2579C159.723 34.6419 159.659 35.0259 159.467 35.3459C159.147 35.7939 158.315 36.7539 156.971 38.2259C155.627 39.6979 154.027 41.4259 152.107 43.3459C150.187 45.2659 148.075 46.9939 145.771 48.4659C143.467 49.9379 141.483 50.6419 139.819 50.6419C138.411 50.6419 137.323 50.1939 136.555 49.3619C135.787 48.5299 135.403 47.3139 135.403 45.7779C135.403 43.6659 136.171 40.9139 137.771 37.5219C134.443 42.0019 131.819 45.1379 129.835 46.9299C127.147 49.3619 124.779 50.5779 122.795 50.5779C121.515 50.5779 120.555 50.1299 119.851 49.2339C119.147 48.3379 118.827 47.1219 118.827 45.5219C118.827 43.7299 119.275 41.7459 120.171 39.6339C122.219 34.8979 125.419 30.8019 129.707 27.3458C133.995 23.8899 137.963 22.1618 141.547 22.1618C143.787 22.1618 144.875 23.1859 144.875 25.1699V25.6179ZM210.125 0.593849L209.741 0.52985C210.317 0.913849 210.637 1.68185 210.637 2.76985C210.637 5.96985 209.165 8.33785 206.221 9.87385C203.277 11.4099 199.309 12.1778 194.317 12.1778C193.101 12.1778 191.309 12.0499 188.941 11.8578C186.573 11.6659 184.909 11.5378 183.949 11.5378C181.901 11.5378 179.981 12.0499 178.189 13.0738C176.397 14.0979 174.157 16.1459 171.469 19.2178C170.893 19.7938 170.381 20.3699 169.933 21.0098C169.485 21.6499 168.973 22.3538 168.397 23.1859L167.181 25.0419L165.709 27.4099L164.301 29.6499C167.053 27.2819 169.357 25.6179 171.213 24.7219C173.069 23.8258 174.861 23.3778 176.589 23.3778C179.469 23.3778 180.941 25.1059 180.941 28.6259C180.941 30.6098 180.237 32.8499 178.829 35.3459C177.421 37.8419 175.629 40.1459 173.453 42.2579C171.277 44.3699 168.781 46.1619 165.965 47.6339C163.149 49.1059 160.461 49.8099 157.837 49.8099C156.237 49.8099 154.893 49.3619 153.741 48.4659C152.589 47.5699 152.013 46.0979 152.013 44.1139C152.013 41.9379 152.653 39.5059 153.997 36.8819C156.109 32.7219 158.605 29.0099 161.485 25.8099C164.365 22.6098 168.013 19.1539 172.429 15.5059C176.461 12.2418 180.237 9.87385 183.757 8.40185C187.277 6.92985 190.925 6.16185 194.701 6.16185C195.533 6.16185 196.301 6.16185 197.005 6.16185C197.709 6.16185 198.349 6.16185 198.861 6.16185C200.845 6.16185 202.381 6.09785 203.533 5.96985C204.685 5.84185 205.837 5.58585 206.925 5.26585C208.013 4.94585 208.845 4.36985 209.357 3.60185C209.869 2.83385 210.125 1.80985 210.125 0.593849ZM164.749 30.6098L164.493 30.4819C162.445 32.3379 160.397 34.9619 158.349 38.4179C156.301 41.8739 155.277 44.5619 155.277 46.5459C155.277 47.7619 155.789 48.3379 156.813 48.3379C158.413 48.3379 160.845 46.9299 164.045 44.1139C167.245 41.2979 170.125 38.0979 172.685 34.5139C175.245 30.9299 176.525 28.1779 176.525 26.3218C176.525 25.2978 176.077 24.7859 175.181 24.7859C173.645 24.7859 171.917 25.3619 169.997 26.5779C168.077 27.7938 166.349 29.1378 164.749 30.6098ZM238.188 0.593849L237.804 0.52985C238.38 0.913849 238.7 1.68185 238.7 2.76985C238.7 5.96985 237.228 8.33785 234.284 9.87385C231.34 11.4099 227.372 12.1778 222.38 12.1778C221.164 12.1778 219.372 12.0499 217.004 11.8578C214.636 11.6659 212.972 11.5378 212.012 11.5378C209.964 11.5378 208.044 12.0499 206.252 13.0738C204.46 14.0979 202.22 16.1459 199.532 19.2178C198.956 19.7938 198.444 20.3699 197.996 21.0098C197.548 21.6499 197.036 22.3538 196.46 23.1859L195.244 25.0419L193.772 27.4099L192.364 29.6499C195.116 27.2819 197.42 25.6179 199.276 24.7219C201.132 23.8258 202.924 23.3778 204.652 23.3778C207.532 23.3778 209.004 25.1059 209.004 28.6259C209.004 30.6098 208.3 32.8499 206.892 35.3459C205.484 37.8419 203.692 40.1459 201.516 42.2579C199.34 44.3699 196.844 46.1619 194.028 47.6339C191.212 49.1059 188.524 49.8099 185.9 49.8099C184.3 49.8099 182.956 49.3619 181.804 48.4659C180.652 47.5699 180.076 46.0979 180.076 44.1139C180.076 41.9379 180.716 39.5059 182.06 36.8819C184.172 32.7219 186.668 29.0099 189.548 25.8099C192.428 22.6098 196.076 19.1539 200.492 15.5059C204.524 12.2418 208.3 9.87385 211.82 8.40185C215.34 6.92985 218.988 6.16185 222.764 6.16185C223.596 6.16185 224.364 6.16185 225.068 6.16185C225.772 6.16185 226.412 6.16185 226.924 6.16185C228.908 6.16185 230.444 6.09785 231.596 5.96985C232.748 5.84185 233.9 5.58585 234.988 5.26585C236.076 4.94585 236.908 4.36985 237.42 3.60185C237.932 2.83385 238.188 1.80985 238.188 0.593849ZM192.812 30.6098L192.556 30.4819C190.508 32.3379 188.46 34.9619 186.412 38.4179C184.364 41.8739 183.34 44.5619 183.34 46.5459C183.34 47.7619 183.852 48.3379 184.876 48.3379C186.476 48.3379 188.908 46.9299 192.108 44.1139C195.308 41.2979 198.188 38.0979 200.748 34.5139C203.308 30.9299 204.588 28.1779 204.588 26.3218C204.588 25.2978 204.14 24.7859 203.244 24.7859C201.708 24.7859 199.98 25.3619 198.06 26.5779C196.14 27.7938 194.412 29.1378 192.812 30.6098ZM234.25 25.6179L234.506 25.8738C233.994 25.4258 233.162 25.2339 232.074 25.2339C229.578 25.2339 226.186 27.4739 221.898 32.0179C219.978 34.0019 218.122 36.4979 216.33 39.5699C214.538 42.6419 213.642 45.0099 213.642 46.7379C213.642 47.6979 214.026 48.1459 214.858 48.1459C215.562 48.1459 216.522 47.6339 217.738 46.6739C218.954 45.7139 220.234 44.4979 221.578 43.0259C222.922 41.5539 224.138 40.0819 225.29 38.6739L228.49 34.7059L229.962 32.7859C230.026 32.7219 230.986 31.3779 232.842 28.8179C234.698 26.2579 235.722 24.8498 235.914 24.6579C236.618 23.8258 237.194 23.2499 237.642 22.9298C238.09 22.6098 238.602 22.4179 239.178 22.4179C240.842 22.4179 242.314 23.4419 243.53 25.5539C242.378 26.5139 240.778 28.1779 238.666 30.5459C236.49 33.0419 234.314 35.9219 232.138 39.1859C229.962 42.4499 228.874 45.0739 228.874 47.0579C228.874 48.4659 229.45 49.1699 230.666 49.1699C232.906 49.1699 236.17 47.0579 240.394 42.8979C244.618 38.7379 247.37 35.6019 248.586 33.4899C248.906 33.6179 249.098 33.8739 249.098 34.2579C249.098 34.6419 249.034 35.0259 248.842 35.3459C248.522 35.7939 247.69 36.7539 246.346 38.2259C245.002 39.6979 243.402 41.4259 241.482 43.3459C239.562 45.2659 237.45 46.9939 235.146 48.4659C232.842 49.9379 230.858 50.6419 229.194 50.6419C227.786 50.6419 226.698 50.1939 225.93 49.3619C225.162 48.5299 224.778 47.3139 224.778 45.7779C224.778 43.6659 225.546 40.9139 227.146 37.5219C223.818 42.0019 221.194 45.1379 219.21 46.9299C216.522 49.3619 214.154 50.5779 212.17 50.5779C210.89 50.5779 209.93 50.1299 209.226 49.2339C208.522 48.3379 208.202 47.1219 208.202 45.5219C208.202 43.7299 208.65 41.7459 209.546 39.6339C211.594 34.8979 214.794 30.8019 219.082 27.3458C223.37 23.8899 227.338 22.1618 230.922 22.1618C233.162 22.1618 234.25 23.1859 234.25 25.1699V25.6179ZM253.228 21.4578L253.484 22.1618C256.492 22.1618 258.028 23.3139 258.028 25.6179C258.028 27.0259 257.516 28.6898 256.492 30.6098C255.468 32.5299 254.508 34.1299 253.548 35.3459L252.012 37.1379C253.612 35.6019 256.236 33.3619 259.884 30.4179C263.532 27.4739 266.412 25.3619 268.524 24.1459C269.996 23.3139 271.212 22.8659 272.108 22.8659C273.58 22.8659 274.796 23.6339 275.692 25.1699C273.708 26.8979 271.276 29.5219 268.332 33.0419C265.388 36.5619 263.148 39.5699 261.676 42.0659C265.388 37.9059 270.252 33.6179 276.204 29.1378C282.156 24.6579 286.124 22.4179 288.108 22.4179C289.58 22.4179 290.796 23.3139 291.82 25.1059C291.756 25.1699 291.372 25.4899 290.668 26.1299L288.3 28.3059L285.292 31.2499C284.14 32.4019 283.052 33.6179 282.028 34.8339C281.004 36.0499 280.044 37.3299 279.148 38.6099C278.252 39.8899 277.548 41.1699 277.036 42.4499C276.524 43.7299 276.268 44.8819 276.268 45.9059C276.268 47.7619 277.1 48.6579 278.7 48.6579C280.108 48.6579 281.772 48.0179 283.628 46.8019C285.484 45.5859 287.276 44.0499 289.004 42.2579C290.732 40.4659 292.076 38.9299 293.1 37.7139C294.124 36.4979 294.956 35.4099 295.596 34.5139C295.852 34.6419 295.98 34.8979 296.044 35.2179C296.108 35.5379 295.98 35.9219 295.724 36.3059L294.38 38.0339C293.868 38.6099 292.844 39.6979 291.308 41.2979C289.772 42.8979 288.3 44.3059 286.892 45.4579C285.484 46.6099 283.884 47.6339 282.092 48.5939C280.3 49.5539 278.7 50.0019 277.228 50.0019C275.82 50.0019 274.668 49.4899 273.708 48.5299C272.748 47.5699 272.3 46.1619 272.3 44.3059C272.3 42.8339 272.684 41.1699 273.452 39.3139C274.22 37.4579 275.116 35.7299 276.204 34.1299C277.292 32.5299 278.252 31.2499 279.02 30.2899C279.788 29.3299 280.428 28.5619 280.876 28.0499C281.068 27.8579 281.132 27.6658 281.132 27.5379C281.132 27.4099 281.068 27.3458 280.94 27.3458C280.812 27.3458 280.684 27.3458 280.556 27.4099C278.956 28.2418 276.012 30.4179 271.724 33.9379C267.436 37.4579 263.852 41.0419 260.972 44.6899C259.372 46.6739 258.22 48.4019 257.452 49.8739C256.684 49.8099 256.108 49.5539 255.724 49.1059C255.34 48.6579 255.148 48.2099 255.148 47.6979C255.148 46.6099 255.66 45.0739 256.748 43.0259C257.964 40.7859 259.308 38.5459 260.78 36.3059C262.252 34.0659 263.532 32.1459 264.62 30.6098C265.708 29.0739 266.284 28.2418 266.348 28.1779C266.412 28.0499 266.412 27.9219 266.348 27.7938C266.284 27.6658 266.156 27.6019 266.028 27.6019C265.644 27.6019 264.364 28.3699 262.252 29.9059C260.14 31.4419 257.58 33.5539 254.508 36.2419C251.436 38.9299 248.876 41.5539 246.764 44.0499C244.268 47.0579 242.668 49.1699 241.964 50.3859C240.684 49.8099 240.044 49.0419 240.044 48.0819C240.044 47.5059 240.364 46.6739 241.004 45.5859C241.644 44.4979 242.732 42.8339 244.204 40.5939C245.676 38.3539 246.956 36.3059 248.044 34.4499C250.028 31.0578 251.308 28.5619 251.884 27.0259C252.46 25.4899 252.908 23.6339 253.228 21.4578ZM281.068 18.0019V18.1299C280.492 18.1299 278.892 18.0658 276.268 17.8738C273.644 17.6819 271.404 17.6178 269.612 17.6178C265.068 17.6178 261.932 18.4499 260.14 20.1138C259.948 19.4739 259.82 18.8979 259.82 18.3218C259.82 16.8498 260.396 15.5699 261.484 14.4818C262.572 13.3938 264.044 12.8819 265.836 12.8819C268.204 12.8819 271.276 13.1379 275.116 13.7138C278.956 14.2898 281.708 14.5458 283.372 14.5458C287.34 14.5458 289.836 14.0979 290.924 13.1379C290.796 14.7379 289.836 15.9538 287.98 16.7859C286.124 17.6178 283.82 18.0019 281.068 18.0019Z" fill="#181818"></path></svg> 