<?xml version="1.0" encoding="UTF-8"?> <svg xmlns="http://www.w3.org/2000/svg" width="249" height="61" viewBox="0 0 249 61" fill="none"><path d="M35.3294 6.76364H35.0094C32.9614 6.76364 29.5694 6.57164 24.8974 6.25164C20.8014 10.7956 16.5774 16.8756 12.1614 24.5556C10.4334 27.6276 9.08941 30.3796 8.12941 32.8756C11.2654 28.9076 15.0414 25.3236 19.4574 22.0596C23.8734 18.7956 27.2014 17.1956 29.4414 17.1956C31.8094 17.1956 33.0254 18.5396 33.0254 21.1636C33.0254 22.6356 32.3854 24.5556 31.1694 26.9236C29.9534 29.2916 28.4174 31.5956 26.5614 33.8356C24.7054 36.0756 22.5294 37.9956 20.0334 39.5956C17.5374 41.1956 15.1694 42.0276 12.9294 42.0276C10.1774 42.0276 8.76941 40.6836 8.76941 37.9956C8.76941 37.8676 8.83341 37.6116 8.89741 37.2916C9.60141 37.5476 10.2414 37.6756 10.8814 37.6756C12.9934 37.6756 15.1694 36.9076 17.4734 35.3716C19.7774 33.8356 21.7614 32.0436 23.4254 30.0596C25.0894 28.0756 26.4974 26.0916 27.5854 24.1716C28.6734 22.2516 29.2494 20.8436 29.2494 19.9476C29.2494 19.1796 28.8654 18.7956 28.0334 18.7956C26.6894 18.7956 24.5134 19.8836 21.4414 22.0596C18.3694 24.2356 15.2974 26.9876 12.2254 30.3156C9.15341 33.6436 7.04141 36.6516 5.95341 39.4036C5.37741 40.8116 4.99341 42.2196 4.80141 43.6276C3.13741 43.3716 1.98541 42.8596 1.34541 42.0916C0.705406 41.3236 0.385406 40.2996 0.385406 39.0196C0.385406 37.1636 1.08941 34.7316 2.49741 31.7236C3.90541 28.7156 5.63341 25.7716 7.61741 22.8916C11.2654 17.5796 16.4494 12.0116 23.1694 6.12364C21.4414 6.05964 20.1614 5.99564 19.3294 5.99564C13.6334 5.99564 9.60141 6.95564 7.29741 8.81164C6.97741 8.10764 6.84941 7.33964 6.84941 6.50764C6.84941 4.90764 7.42541 3.56364 8.57741 2.47564C9.72941 1.38764 11.2014 0.811642 13.0574 0.811642C15.4894 0.811642 19.3294 1.25964 24.6414 2.15564C29.9534 3.05164 34.6254 3.49964 38.7214 3.49964C44.0334 3.49964 47.7454 2.60364 49.8574 0.811642C49.6654 2.73164 48.1934 4.20364 45.4414 5.22764C42.6894 6.25164 39.2974 6.76364 35.3294 6.76364ZM60.4364 17.3876L60.3084 17.5156C60.3084 18.3476 60.0524 19.1796 59.4764 20.0116C58.9004 20.8436 58.0044 21.7396 56.7244 22.6996C55.4444 23.6596 53.5244 24.5556 50.9004 25.3876C48.2764 26.2196 45.2044 26.8596 41.6204 27.3076C39.2524 30.9556 38.0364 34.1556 38.0364 36.9076C38.0364 39.1476 39.1244 40.2996 41.3004 40.2996C44.6924 40.2996 48.5324 38.5716 52.8204 35.1796C57.1084 31.7876 60.2444 28.7156 62.1644 26.0276C62.4204 26.2196 62.5484 26.4756 62.5484 26.8596C62.5484 27.2436 62.4844 27.5636 62.2924 27.8836C59.1564 31.6596 55.3804 34.9876 50.9644 37.8676C46.5484 40.7476 42.2604 42.1556 38.0364 42.1556C36.1804 42.1556 34.7724 41.7076 33.7484 40.8116C32.7244 39.9156 32.2124 38.6356 32.2124 36.9076C32.2124 33.7716 33.4924 30.3796 36.1164 26.7316C38.7404 23.0836 41.9404 20.0756 45.7164 17.6436C49.4924 15.2116 52.9484 13.9956 56.0844 13.9956C58.9644 13.9956 60.4364 15.1476 60.4364 17.3876ZM42.3244 26.2836H42.1964C45.9724 25.5796 49.1724 24.2996 51.7964 22.3796C54.4204 20.4596 55.7004 18.6036 55.7004 16.7476C55.7004 16.0436 55.3804 15.7236 54.7404 15.7236C53.0764 15.7236 50.9644 16.9396 48.4684 19.3716C45.9724 21.8036 43.9244 24.1076 42.3244 26.2836ZM67.4899 13.4196L67.7459 14.1236C70.7539 14.1236 72.2899 15.2756 72.2899 17.5796C72.2899 18.9876 71.7779 20.6516 70.7539 22.5716C69.7299 24.4916 68.7699 26.0916 67.8099 27.3076L66.2739 29.0996C67.8739 27.5636 70.4979 25.3236 74.1459 22.3796C77.7939 19.4356 80.6739 17.3236 82.7859 16.1076C84.2579 15.2756 85.4739 14.8276 86.3699 14.8276C87.8419 14.8276 89.0579 15.5956 89.9539 17.1316C87.9699 18.8596 85.5379 21.4836 82.5939 25.0036C79.6499 28.5236 77.4099 31.5316 75.9379 34.0276C79.6499 29.8676 84.5139 25.5796 90.4659 21.0996C96.4179 16.6196 100.386 14.3796 102.37 14.3796C103.842 14.3796 105.058 15.2756 106.082 17.0676C106.018 17.1316 105.634 17.4516 104.93 18.0916L102.562 20.2676L99.5539 23.2116C98.4019 24.3636 97.3139 25.5796 96.2899 26.7956C95.2659 28.0116 94.3059 29.2916 93.4099 30.5716C92.5139 31.8516 91.8099 33.1316 91.2979 34.4116C90.7859 35.6916 90.5299 36.8436 90.5299 37.8676C90.5299 39.7236 91.3619 40.6196 92.9619 40.6196C94.3699 40.6196 96.0339 39.9796 97.8899 38.7636C99.7459 37.5476 101.538 36.0116 103.266 34.2196C104.994 32.4276 106.338 30.8916 107.362 29.6756C108.386 28.4596 109.218 27.3716 109.858 26.4756C110.114 26.6036 110.242 26.8596 110.306 27.1796C110.37 27.4996 110.242 27.8836 109.986 28.2676L108.642 29.9956C108.13 30.5716 107.106 31.6596 105.57 33.2596C104.034 34.8596 102.562 36.2676 101.154 37.4196C99.7459 38.5716 98.1459 39.5956 96.3539 40.5556C94.5619 41.5156 92.9619 41.9636 91.4899 41.9636C90.0819 41.9636 88.9299 41.4516 87.9699 40.4916C87.0099 39.5316 86.5619 38.1236 86.5619 36.2676C86.5619 34.7956 86.9459 33.1316 87.7139 31.2756C88.4819 29.4196 89.3779 27.6916 90.4659 26.0916C91.5539 24.4916 92.5139 23.2116 93.2819 22.2516C94.0499 21.2916 94.6899 20.5236 95.1379 20.0116C95.3299 19.8196 95.3939 19.6276 95.3939 19.4996C95.3939 19.3716 95.3299 19.3076 95.2019 19.3076C95.0739 19.3076 94.9459 19.3076 94.8179 19.3716C93.2179 20.2036 90.2739 22.3796 85.9859 25.8996C81.6979 29.4196 78.1139 33.0036 75.2339 36.6516C73.6339 38.6356 72.4819 40.3636 71.7139 41.8356C70.9459 41.7716 70.3699 41.5156 69.9859 41.0676C69.6019 40.6196 69.4099 40.1716 69.4099 39.6596C69.4099 38.5716 69.9219 37.0356 71.0099 34.9876C72.2259 32.7476 73.5699 30.5076 75.0419 28.2676C76.5139 26.0276 77.7939 24.1076 78.8819 22.5716C79.9699 21.0356 80.5459 20.2036 80.6099 20.1396C80.6739 20.0116 80.6739 19.8836 80.6099 19.7556C80.5459 19.6276 80.4179 19.5636 80.2899 19.5636C79.9059 19.5636 78.6259 20.3316 76.5139 21.8676C74.4019 23.4036 71.8419 25.5156 68.7699 28.2036C65.6979 30.8916 63.1379 33.5156 61.0259 36.0116C58.5299 39.0196 56.9299 41.1316 56.2259 42.3476C54.9459 41.7716 54.3059 41.0036 54.3059 40.0436C54.3059 39.4676 54.6259 38.6356 55.2659 37.5476C55.9059 36.4596 56.9939 34.7956 58.4659 32.5556C59.9379 30.3156 61.2179 28.2676 62.3059 26.4116C64.2899 23.0196 65.5699 20.5236 66.1459 18.9876C66.7219 17.4516 67.1699 15.5956 67.4899 13.4196ZM95.3299 9.96364V10.0916C94.7539 10.0916 93.1539 10.0276 90.5299 9.83564C87.9059 9.64364 85.6659 9.57964 83.8739 9.57964C79.3299 9.57964 76.1939 10.4116 74.4019 12.0756C74.2099 11.4356 74.0819 10.8596 74.0819 10.2836C74.0819 8.81164 74.6579 7.53164 75.7459 6.44364C76.8339 5.35564 78.3059 4.84364 80.0979 4.84364C82.4659 4.84364 85.5379 5.09964 89.3779 5.67564C93.2179 6.25164 95.9699 6.50764 97.6339 6.50764C101.602 6.50764 104.098 6.05964 105.186 5.09964C105.058 6.69964 104.098 7.91564 102.242 8.74764C100.386 9.57964 98.0819 9.96364 95.3299 9.96364ZM128.387 17.5796L128.643 17.8356C128.131 17.3876 127.299 17.1956 126.211 17.1956C123.715 17.1956 120.323 19.4356 116.035 23.9796C114.115 25.9636 112.259 28.4596 110.467 31.5316C108.675 34.6036 107.779 36.9716 107.779 38.6996C107.779 39.6596 108.163 40.1076 108.995 40.1076C109.699 40.1076 110.659 39.5956 111.875 38.6356C113.091 37.6756 114.371 36.4596 115.715 34.9876C117.059 33.5156 118.275 32.0436 119.427 30.6356L122.627 26.6676L124.099 24.7476C124.163 24.6836 125.123 23.3396 126.979 20.7796C128.835 18.2196 129.859 16.8116 130.051 16.6196C130.755 15.7876 131.331 15.2116 131.779 14.8916C132.227 14.5716 132.739 14.3796 133.315 14.3796C134.979 14.3796 136.451 15.4036 137.667 17.5156C136.515 18.4756 134.915 20.1396 132.803 22.5076C130.627 25.0036 128.451 27.8836 126.275 31.1476C124.099 34.4116 123.011 37.0356 123.011 39.0196C123.011 40.4276 123.587 41.1316 124.803 41.1316C127.043 41.1316 130.307 39.0196 134.531 34.8596C138.755 30.6996 141.507 27.5636 142.723 25.4516C143.043 25.5796 143.235 25.8356 143.235 26.2196C143.235 26.6036 143.171 26.9876 142.979 27.3076C142.659 27.7556 141.827 28.7156 140.483 30.1876C139.139 31.6596 137.539 33.3876 135.619 35.3076C133.699 37.2276 131.587 38.9556 129.283 40.4276C126.979 41.8996 124.995 42.6036 123.331 42.6036C121.923 42.6036 120.835 42.1556 120.067 41.3236C119.299 40.4916 118.915 39.2756 118.915 37.7396C118.915 35.6276 119.683 32.8756 121.283 29.4836C117.955 33.9636 115.331 37.0996 113.347 38.8916C110.659 41.3236 108.291 42.5396 106.307 42.5396C105.027 42.5396 104.067 42.0916 103.363 41.1956C102.659 40.2996 102.339 39.0836 102.339 37.4836C102.339 35.6916 102.787 33.7076 103.683 31.5956C105.731 26.8596 108.931 22.7636 113.219 19.3076C117.507 15.8516 121.475 14.1236 125.059 14.1236C127.299 14.1236 128.387 15.1476 128.387 17.1316V17.5796ZM158.437 51.3076V51.4356C157.861 51.4356 156.261 51.3716 153.637 51.1796C151.013 50.9876 148.773 50.9236 146.981 50.9236C142.693 50.9236 139.557 51.7556 137.509 53.4196C137.317 52.7796 137.189 52.2036 137.189 51.6276C137.189 50.1556 137.765 48.8756 138.853 47.7876C139.941 46.6996 141.413 46.1876 143.205 46.1876C145.573 46.1876 148.645 46.4436 152.485 47.0196C156.325 47.5956 159.077 47.8516 160.741 47.8516C164.709 47.8516 167.205 47.4036 168.293 46.4436C168.165 48.0436 167.205 49.2596 165.349 50.0916C163.493 50.9236 161.189 51.3076 158.437 51.3076ZM145.381 14.0596L145.189 14.1876C146.149 14.1236 146.725 14.0596 146.981 14.0596C149.605 14.0596 150.885 14.9556 150.885 16.8116C150.885 18.2836 149.861 20.7156 147.813 24.0436C145.765 27.3716 143.653 30.5076 141.413 33.4516C139.173 36.3956 138.021 37.9316 137.957 37.9956C137.765 38.1876 137.701 38.4436 137.701 38.7636C137.701 39.2116 137.893 39.4036 138.341 39.4036C139.365 39.4036 141.925 37.4836 146.021 33.6436C150.117 29.8036 153.573 26.2196 156.325 22.8276L159.333 18.5396C160.101 17.5156 161.061 16.4916 162.149 15.4676C163.237 14.4436 164.197 13.9316 164.965 13.9316C166.373 13.9316 167.781 14.4436 169.189 15.4676C167.205 17.4516 164.453 20.7796 160.933 25.3876C159.077 27.8196 157.285 30.4436 155.493 33.3236C153.701 36.2036 152.805 38.0596 152.805 38.8916C152.805 39.4676 153.061 39.7236 153.637 39.7236C154.853 39.7236 157.989 37.1636 163.045 32.0436L170.021 24.4916C170.405 24.0436 171.301 22.9556 172.709 21.2276C174.117 19.4996 175.269 18.1556 176.101 17.1956C178.021 15.0196 179.557 13.9316 180.709 13.9316C182.117 13.9316 183.397 14.5716 184.613 15.9156C183.781 16.6196 182.693 17.7076 181.349 19.1796C180.005 20.6516 178.405 22.5076 176.549 24.6836C174.693 26.8596 173.157 29.1636 171.877 31.5956C170.597 34.0276 169.957 36.1396 169.957 37.9316C169.957 39.8516 170.789 40.8116 172.517 40.8116C174.309 40.8116 176.485 39.5956 179.109 37.1636C181.733 34.7316 183.845 32.4276 185.509 30.2516C187.173 28.0756 188.133 26.6676 188.389 26.0916C188.901 26.2836 189.093 26.7316 188.901 27.4356C188.837 27.6916 188.197 28.5876 187.045 30.0596C185.893 31.5316 184.485 33.1956 182.821 35.0516C181.157 36.9076 179.237 38.5716 177.061 40.0436C174.885 41.5156 172.901 42.2196 171.173 42.2196C169.509 42.2196 168.165 41.7716 167.077 40.8756C165.989 39.9796 165.477 38.6356 165.477 36.8436C165.477 34.7956 165.925 32.7476 166.821 30.6996C167.717 28.6516 168.485 27.3716 169.061 26.8596C165.797 30.8276 162.533 34.2836 159.269 37.2276C156.005 40.1716 153.573 41.6436 151.973 41.6436C151.013 41.6436 150.309 41.3236 149.797 40.7476C149.285 40.1716 149.029 39.4036 149.029 38.4436C149.029 37.0356 149.477 35.3716 150.373 33.3876C151.269 31.4036 152.165 29.8036 152.997 28.5236L154.341 26.6676C151.461 30.1236 148.133 33.4516 144.293 36.7156C140.453 39.9796 137.829 41.5796 136.421 41.5796C134.565 41.5796 133.605 40.6196 133.605 38.7636C133.605 38.3156 133.733 37.7396 134.053 37.0356C134.373 36.3316 134.821 35.4996 135.397 34.5396C135.973 33.5796 136.485 32.6836 136.997 31.8516L138.853 28.9076L140.453 26.3476C143.909 20.7796 145.637 17.0036 145.637 15.0836C145.637 14.8276 145.573 14.5076 145.381 14.0596ZM207.137 17.5796L207.393 17.8356C206.881 17.3876 206.049 17.1956 204.961 17.1956C202.465 17.1956 199.073 19.4356 194.785 23.9796C192.865 25.9636 191.009 28.4596 189.217 31.5316C187.425 34.6036 186.529 36.9716 186.529 38.6996C186.529 39.6596 186.913 40.1076 187.745 40.1076C188.449 40.1076 189.409 39.5956 190.625 38.6356C191.841 37.6756 193.121 36.4596 194.465 34.9876C195.809 33.5156 197.025 32.0436 198.177 30.6356L201.377 26.6676L202.849 24.7476C202.913 24.6836 203.873 23.3396 205.729 20.7796C207.585 18.2196 208.609 16.8116 208.801 16.6196C209.505 15.7876 210.081 15.2116 210.529 14.8916C210.977 14.5716 211.489 14.3796 212.065 14.3796C213.729 14.3796 215.201 15.4036 216.417 17.5156C215.265 18.4756 213.665 20.1396 211.553 22.5076C209.377 25.0036 207.201 27.8836 205.025 31.1476C202.849 34.4116 201.761 37.0356 201.761 39.0196C201.761 40.4276 202.337 41.1316 203.553 41.1316C205.793 41.1316 209.057 39.0196 213.281 34.8596C217.505 30.6996 220.257 27.5636 221.473 25.4516C221.793 25.5796 221.985 25.8356 221.985 26.2196C221.985 26.6036 221.921 26.9876 221.729 27.3076C221.409 27.7556 220.577 28.7156 219.233 30.1876C217.889 31.6596 216.289 33.3876 214.369 35.3076C212.449 37.2276 210.337 38.9556 208.033 40.4276C205.729 41.8996 203.745 42.6036 202.081 42.6036C200.673 42.6036 199.585 42.1556 198.817 41.3236C198.049 40.4916 197.665 39.2756 197.665 37.7396C197.665 35.6276 198.433 32.8756 200.033 29.4836C196.705 33.9636 194.081 37.0996 192.097 38.8916C189.409 41.3236 187.041 42.5396 185.057 42.5396C183.777 42.5396 182.817 42.0916 182.113 41.1956C181.409 40.2996 181.089 39.0836 181.089 37.4836C181.089 35.6916 181.537 33.7076 182.433 31.5956C184.481 26.8596 187.681 22.7636 191.969 19.3076C196.257 15.8516 200.225 14.1236 203.809 14.1236C206.049 14.1236 207.137 15.1476 207.137 17.1316V17.5796ZM222.467 40.1716V40.2356C224.515 40.2356 227.139 38.8276 230.339 36.0116C233.539 33.1956 236.355 29.9956 238.787 26.4116C241.219 22.8276 242.435 20.0756 242.435 18.1556C242.435 17.1956 241.859 16.6836 240.771 16.6836C239.235 16.6836 236.355 18.6676 232.131 22.5716C227.907 26.4756 224.771 29.8676 222.723 32.7476C221.251 34.7316 220.483 36.5876 220.483 38.3156C220.483 39.5316 221.123 40.1716 222.467 40.1716ZM228.099 13.0996V13.1636C230.531 13.1636 231.747 14.0596 231.747 15.9156C231.747 17.8356 229.955 21.3556 226.371 26.5396C228.995 23.8516 231.107 21.7396 232.707 20.2676C234.307 18.7956 236.163 17.3876 238.211 16.1076C240.259 14.8276 242.051 14.1876 243.587 14.1876C246.787 14.1876 248.387 15.5316 248.387 18.2196C248.387 20.8436 246.979 24.0436 244.227 27.8196C241.475 31.5956 238.083 34.9236 234.051 37.8036C230.019 40.6836 226.435 42.0916 223.299 42.0916C220.547 42.0916 219.139 41.0676 219.139 39.0836C219.139 38.6356 219.203 38.1236 219.267 37.6116C211.907 47.4036 206.659 55.0196 203.587 60.4596C202.371 59.6276 201.795 58.4756 201.795 57.0036C201.795 55.9156 202.179 54.7636 202.883 53.5476C203.203 53.0356 205.251 50.0276 209.027 44.5876C212.803 39.1476 216.323 33.7076 219.651 28.3316C222.979 22.9556 224.963 19.0516 225.539 16.5556C225.795 15.4676 225.923 14.3796 225.923 13.2916C226.627 13.1636 227.331 13.0996 228.099 13.0996Z" fill="#181818"></path></svg> 