<?xml version="1.0" encoding="UTF-8"?> <svg xmlns="http://www.w3.org/2000/svg" width="327" height="100" viewBox="0 0 327 100" fill="none"><path d="M306.468 16.9016H306.568C306.675 16.9016 306.768 16.8683 306.848 16.8016C306.928 16.7216 306.995 16.6283 307.048 16.5216C307.101 16.4016 307.141 16.2816 307.168 16.1616C307.195 16.0283 307.208 15.9083 307.208 15.8016V10.1816C306.635 10.1816 306.161 10.3483 305.788 10.6816C305.415 11.0016 305.108 11.4016 304.868 11.8816L303.268 15.1016C303.148 15.355 303.015 15.6016 302.868 15.8416C302.735 16.0816 302.575 16.295 302.388 16.4816C302.201 16.6683 301.981 16.8216 301.728 16.9416C301.475 17.0483 301.161 17.1016 300.788 17.1016H299.868V16.9016C300.121 16.9016 300.355 16.8283 300.568 16.6816C300.781 16.5216 300.968 16.335 301.128 16.1216C301.301 15.895 301.448 15.6683 301.568 15.4416C301.701 15.215 301.808 15.0216 301.888 14.8616L303.468 11.6616C303.775 11.0216 304.168 10.5283 304.648 10.1816C305.141 9.83496 305.788 9.66162 306.588 9.66162L302.088 4.92162C301.861 4.68162 301.635 4.48829 301.408 4.34162C301.195 4.19496 300.968 4.11496 300.728 4.10162V3.90162H302.908V4.10162C302.761 4.14162 302.688 4.21496 302.688 4.32162C302.688 4.36162 302.715 4.42162 302.768 4.50162L307.208 9.26162V5.14162C307.208 5.04829 307.195 4.94162 307.168 4.82162C307.141 4.70162 307.101 4.58829 307.048 4.48162C306.995 4.37496 306.928 4.28829 306.848 4.22162C306.768 4.14162 306.675 4.10162 306.568 4.10162H306.468V3.90162H309.288V4.10162H309.128C308.941 4.12829 308.795 4.26162 308.688 4.50162C308.581 4.74162 308.528 4.95496 308.528 5.14162V9.26162L312.988 4.50162C313.041 4.44829 313.068 4.38829 313.068 4.32162C313.068 4.17496 312.988 4.10162 312.828 4.10162V3.90162H315.008V4.10162C314.781 4.12829 314.548 4.22162 314.308 4.38162C314.068 4.52829 313.855 4.70829 313.668 4.92162L309.168 9.66162C310.008 9.66162 310.661 9.83496 311.128 10.1816C311.595 10.5283 311.988 11.0216 312.308 11.6616L313.868 14.8616C313.948 15.0216 314.048 15.215 314.168 15.4416C314.288 15.6683 314.435 15.895 314.608 16.1216C314.781 16.335 314.975 16.5216 315.188 16.6816C315.401 16.8283 315.635 16.9016 315.888 16.9016V17.1016H314.948C314.588 17.1016 314.281 17.0483 314.028 16.9416C313.775 16.8216 313.555 16.675 313.368 16.5016C313.181 16.315 313.021 16.1016 312.888 15.8616C312.755 15.6216 312.621 15.3683 312.488 15.1016L310.888 11.8816C310.648 11.415 310.341 11.015 309.968 10.6816C309.608 10.3483 309.128 10.1816 308.528 10.1816V15.8016C308.528 15.9083 308.541 16.0216 308.568 16.1416C308.595 16.2616 308.635 16.3816 308.688 16.5016C308.741 16.6083 308.801 16.7016 308.868 16.7816C308.948 16.8616 309.041 16.9016 309.148 16.9016H309.288V17.1016H306.468V16.9016ZM322.88 4.42162C321.894 4.42162 321.034 4.60162 320.3 4.96162C319.58 5.30829 318.98 5.76829 318.5 6.34162C318.02 6.90162 317.66 7.53496 317.42 8.24162C317.194 8.94829 317.08 9.64829 317.08 10.3416C317.08 11.1283 317.234 11.9016 317.54 12.6616C317.847 13.4083 318.267 14.075 318.8 14.6616C319.347 15.235 319.98 15.7016 320.7 16.0616C321.42 16.4083 322.2 16.5816 323.04 16.5816C323.28 16.5816 323.56 16.555 323.88 16.5016C324.214 16.4483 324.54 16.3483 324.86 16.2016C325.18 16.0416 325.474 15.8216 325.74 15.5416C326.02 15.2616 326.234 14.895 326.38 14.4416H326.58V16.6616C326.38 16.6616 326.167 16.6883 325.94 16.7416C325.727 16.795 325.487 16.855 325.22 16.9216C324.874 17.015 324.487 17.1016 324.06 17.1816C323.647 17.2616 323.207 17.3016 322.74 17.3016C321.58 17.3016 320.56 17.1016 319.68 16.7016C318.8 16.3016 318.067 15.7816 317.48 15.1416C316.894 14.5016 316.454 13.7816 316.16 12.9816C315.867 12.1683 315.72 11.3483 315.72 10.5216C315.72 9.69496 315.867 8.87496 316.16 8.06162C316.454 7.24829 316.9 6.52162 317.5 5.88162C318.1 5.22829 318.854 4.70162 319.76 4.30162C320.667 3.90162 321.734 3.70162 322.96 3.70162C323.4 3.70162 323.794 3.74162 324.14 3.82162C324.5 3.90162 324.82 3.98162 325.1 4.06162C325.3 4.12829 325.48 4.18162 325.64 4.22162C325.814 4.24829 325.98 4.26162 326.14 4.26162V6.48162H325.94C325.86 6.06829 325.714 5.72829 325.5 5.46162C325.287 5.18162 325.034 4.96829 324.74 4.82162C324.46 4.67496 324.154 4.57496 323.82 4.52162C323.5 4.45496 323.187 4.42162 322.88 4.42162Z" fill="#181818"></path><path d="M258.219 4.42162C257.233 4.42162 256.373 4.60162 255.639 4.96162C254.919 5.30829 254.319 5.76829 253.839 6.34162C253.359 6.90162 252.999 7.53496 252.759 8.24162C252.533 8.94829 252.419 9.64829 252.419 10.3416C252.419 11.1283 252.573 11.9016 252.879 12.6616C253.186 13.4083 253.606 14.075 254.139 14.6616C254.686 15.235 255.319 15.7016 256.039 16.0616C256.759 16.4083 257.539 16.5816 258.379 16.5816C258.619 16.5816 258.899 16.555 259.219 16.5016C259.553 16.4483 259.879 16.3483 260.199 16.2016C260.519 16.0416 260.813 15.8216 261.079 15.5416C261.359 15.2616 261.573 14.895 261.719 14.4416H261.919V16.6616C261.719 16.6616 261.506 16.6883 261.279 16.7416C261.066 16.795 260.826 16.855 260.559 16.9216C260.213 17.015 259.826 17.1016 259.399 17.1816C258.986 17.2616 258.546 17.3016 258.079 17.3016C256.919 17.3016 255.899 17.1016 255.019 16.7016C254.139 16.3016 253.406 15.7816 252.819 15.1416C252.233 14.5016 251.793 13.7816 251.499 12.9816C251.206 12.1683 251.059 11.3483 251.059 10.5216C251.059 9.69496 251.206 8.87496 251.499 8.06162C251.793 7.24829 252.239 6.52162 252.839 5.88162C253.439 5.22829 254.193 4.70162 255.099 4.30162C256.006 3.90162 257.073 3.70162 258.299 3.70162C258.739 3.70162 259.133 3.74162 259.479 3.82162C259.839 3.90162 260.159 3.98162 260.439 4.06162C260.639 4.12829 260.819 4.18162 260.979 4.22162C261.153 4.24829 261.319 4.26162 261.479 4.26162V6.48162H261.279C261.199 6.06829 261.053 5.72829 260.839 5.46162C260.626 5.18162 260.373 4.96829 260.079 4.82162C259.799 4.67496 259.493 4.57496 259.159 4.52162C258.839 4.45496 258.526 4.42162 258.219 4.42162ZM263.64 16.9016H263.74C263.847 16.9016 263.94 16.8683 264.02 16.8016C264.1 16.7216 264.167 16.6283 264.22 16.5216C264.287 16.415 264.334 16.3016 264.36 16.1816C264.4 16.0616 264.42 15.9483 264.42 15.8416V5.14162C264.42 5.04829 264.4 4.94162 264.36 4.82162C264.334 4.70162 264.287 4.58829 264.22 4.48162C264.167 4.37496 264.1 4.28829 264.02 4.22162C263.94 4.14162 263.847 4.10162 263.74 4.10162H263.64V3.90162H270.96V5.80162H270.76C270.76 5.49496 270.654 5.22829 270.44 5.00162C270.227 4.76162 269.9 4.64162 269.46 4.64162H265.76V9.50162H266.68C267.294 9.50162 267.9 9.56162 268.5 9.68162C269.114 9.80162 269.66 10.0083 270.14 10.3016C270.634 10.5816 271.027 10.9683 271.32 11.4616C271.627 11.955 271.78 12.575 271.78 13.3216C271.78 13.9083 271.667 14.435 271.44 14.9016C271.227 15.3683 270.92 15.7683 270.52 16.1016C270.12 16.4216 269.64 16.6683 269.08 16.8416C268.534 17.015 267.934 17.1016 267.28 17.1016H263.64V16.9016ZM266.54 16.4016C267.207 16.4016 267.78 16.3283 268.26 16.1816C268.754 16.035 269.16 15.835 269.48 15.5816C269.8 15.315 270.034 15.0083 270.18 14.6616C270.34 14.3016 270.42 13.915 270.42 13.5016C270.42 12.5283 270.074 11.735 269.38 11.1216C268.687 10.495 267.7 10.1816 266.42 10.1816H265.76V16.4016H266.54Z" fill="#181818"></path><path d="M202.115 16.9016H202.215C202.322 16.9016 202.415 16.8683 202.495 16.8016C202.575 16.7216 202.642 16.6283 202.695 16.5216C202.748 16.4016 202.788 16.2816 202.815 16.1616C202.842 16.0283 202.855 15.9083 202.855 15.8016V10.1816C202.282 10.1816 201.808 10.3483 201.435 10.6816C201.062 11.0016 200.755 11.4016 200.515 11.8816L198.915 15.1016C198.795 15.355 198.662 15.6016 198.515 15.8416C198.382 16.0816 198.222 16.295 198.035 16.4816C197.848 16.6683 197.628 16.8216 197.375 16.9416C197.122 17.0483 196.808 17.1016 196.435 17.1016H195.515V16.9016C195.768 16.9016 196.002 16.8283 196.215 16.6816C196.428 16.5216 196.615 16.335 196.775 16.1216C196.948 15.895 197.095 15.6683 197.215 15.4416C197.348 15.215 197.455 15.0216 197.535 14.8616L199.115 11.6616C199.422 11.0216 199.815 10.5283 200.295 10.1816C200.788 9.83496 201.435 9.66162 202.235 9.66162L197.735 4.92162C197.508 4.68162 197.282 4.48829 197.055 4.34162C196.842 4.19496 196.615 4.11496 196.375 4.10162V3.90162H198.555V4.10162C198.408 4.14162 198.335 4.21496 198.335 4.32162C198.335 4.36162 198.362 4.42162 198.415 4.50162L202.855 9.26162V5.14162C202.855 5.04829 202.842 4.94162 202.815 4.82162C202.788 4.70162 202.748 4.58829 202.695 4.48162C202.642 4.37496 202.575 4.28829 202.495 4.22162C202.415 4.14162 202.322 4.10162 202.215 4.10162H202.115V3.90162H204.935V4.10162H204.775C204.588 4.12829 204.442 4.26162 204.335 4.50162C204.228 4.74162 204.175 4.95496 204.175 5.14162V9.26162L208.635 4.50162C208.688 4.44829 208.715 4.38829 208.715 4.32162C208.715 4.17496 208.635 4.10162 208.475 4.10162V3.90162H210.655V4.10162C210.428 4.12829 210.195 4.22162 209.955 4.38162C209.715 4.52829 209.502 4.70829 209.315 4.92162L204.815 9.66162C205.655 9.66162 206.308 9.83496 206.775 10.1816C207.242 10.5283 207.635 11.0216 207.955 11.6616L209.515 14.8616C209.595 15.0216 209.695 15.215 209.815 15.4416C209.935 15.6683 210.082 15.895 210.255 16.1216C210.428 16.335 210.622 16.5216 210.835 16.6816C211.048 16.8283 211.282 16.9016 211.535 16.9016V17.1016H210.595C210.235 17.1016 209.928 17.0483 209.675 16.9416C209.422 16.8216 209.202 16.675 209.015 16.5016C208.828 16.315 208.668 16.1016 208.535 15.8616C208.402 15.6216 208.268 15.3683 208.135 15.1016L206.535 11.8816C206.295 11.415 205.988 11.015 205.615 10.6816C205.255 10.3483 204.775 10.1816 204.175 10.1816V15.8016C204.175 15.9083 204.188 16.0216 204.215 16.1416C204.242 16.2616 204.282 16.3816 204.335 16.5016C204.388 16.6083 204.448 16.7016 204.515 16.7816C204.595 16.8616 204.688 16.9016 204.795 16.9016H204.935V17.1016H202.115V16.9016ZM223.556 16.9016H223.656C223.749 16.9016 223.836 16.8616 223.916 16.7816C223.996 16.7016 224.063 16.6083 224.116 16.5016C224.183 16.395 224.229 16.2816 224.256 16.1616C224.283 16.0283 224.296 15.9083 224.296 15.8016V5.28162L219.136 17.3216L214.236 5.90162V15.8016C214.236 15.9083 214.249 16.0283 214.276 16.1616C214.303 16.2816 214.343 16.395 214.396 16.5016C214.463 16.6083 214.536 16.7016 214.616 16.7816C214.696 16.8616 214.789 16.9016 214.896 16.9016H214.996V17.1016H212.816V16.9016H212.916C213.009 16.9016 213.096 16.8616 213.176 16.7816C213.256 16.7016 213.323 16.6083 213.376 16.5016C213.429 16.395 213.469 16.2816 213.496 16.1616C213.523 16.0283 213.536 15.9083 213.536 15.8016V5.14162C213.536 5.04829 213.523 4.94162 213.496 4.82162C213.469 4.70162 213.429 4.58829 213.376 4.48162C213.323 4.37496 213.256 4.28829 213.176 4.22162C213.096 4.14162 213.009 4.10162 212.916 4.10162H212.816V3.90162H214.856L219.496 14.8416L224.136 3.90162H226.396V4.10162H226.296C226.189 4.10162 226.096 4.14162 226.016 4.22162C225.936 4.28829 225.863 4.37496 225.796 4.48162C225.743 4.58829 225.703 4.70162 225.676 4.82162C225.649 4.94162 225.636 5.04829 225.636 5.14162V15.8016C225.636 15.9083 225.649 16.0283 225.676 16.1616C225.703 16.2816 225.743 16.395 225.796 16.5016C225.863 16.6083 225.936 16.7016 226.016 16.7816C226.096 16.8616 226.189 16.9016 226.296 16.9016H226.396V17.1016H223.556V16.9016Z" fill="#181818"></path><path d="M151.589 16.9016H151.689C151.796 16.9016 151.889 16.8683 151.969 16.8016C152.049 16.7216 152.116 16.6283 152.169 16.5216C152.236 16.415 152.283 16.3016 152.309 16.1816C152.349 16.0616 152.369 15.9483 152.369 15.8416V5.14162C152.369 5.04829 152.349 4.94162 152.309 4.82162C152.283 4.70162 152.236 4.58829 152.169 4.48162C152.116 4.37496 152.049 4.28829 151.969 4.22162C151.889 4.14162 151.796 4.10162 151.689 4.10162H151.589V3.90162H158.909V5.80162H158.709C158.709 5.49496 158.603 5.22829 158.389 5.00162C158.176 4.76162 157.849 4.64162 157.409 4.64162H153.709V9.50162H154.629C155.243 9.50162 155.849 9.56162 156.449 9.68162C157.063 9.80162 157.609 10.0083 158.089 10.3016C158.583 10.5816 158.976 10.9683 159.269 11.4616C159.576 11.955 159.729 12.575 159.729 13.3216C159.729 13.9083 159.616 14.435 159.389 14.9016C159.176 15.3683 158.869 15.7683 158.469 16.1016C158.069 16.4216 157.589 16.6683 157.029 16.8416C156.483 17.015 155.883 17.1016 155.229 17.1016H151.589V16.9016ZM154.489 16.4016C155.156 16.4016 155.729 16.3283 156.209 16.1816C156.703 16.035 157.109 15.835 157.429 15.5816C157.749 15.315 157.983 15.0083 158.129 14.6616C158.289 14.3016 158.369 13.915 158.369 13.5016C158.369 12.5283 158.023 11.735 157.329 11.1216C156.636 10.495 155.649 10.1816 154.369 10.1816H153.709V16.4016H154.489ZM167.79 4.42162C166.803 4.42162 165.943 4.60162 165.21 4.96162C164.49 5.30829 163.89 5.76829 163.41 6.34162C162.93 6.90162 162.57 7.53496 162.33 8.24162C162.103 8.94829 161.99 9.64829 161.99 10.3416C161.99 11.1283 162.143 11.9016 162.45 12.6616C162.756 13.4083 163.176 14.075 163.71 14.6616C164.256 15.235 164.89 15.7016 165.61 16.0616C166.33 16.4083 167.11 16.5816 167.95 16.5816C168.19 16.5816 168.47 16.555 168.79 16.5016C169.123 16.4483 169.45 16.3483 169.77 16.2016C170.09 16.0416 170.383 15.8216 170.65 15.5416C170.93 15.2616 171.143 14.895 171.29 14.4416H171.49V16.6616C171.29 16.6616 171.076 16.6883 170.85 16.7416C170.636 16.795 170.396 16.855 170.13 16.9216C169.783 17.015 169.396 17.1016 168.97 17.1816C168.556 17.2616 168.116 17.3016 167.65 17.3016C166.49 17.3016 165.47 17.1016 164.59 16.7016C163.71 16.3016 162.976 15.7816 162.39 15.1416C161.803 14.5016 161.363 13.7816 161.07 12.9816C160.776 12.1683 160.63 11.3483 160.63 10.5216C160.63 9.69496 160.776 8.87496 161.07 8.06162C161.363 7.24829 161.81 6.52162 162.41 5.88162C163.01 5.22829 163.763 4.70162 164.67 4.30162C165.576 3.90162 166.643 3.70162 167.87 3.70162C168.31 3.70162 168.703 3.74162 169.05 3.82162C169.41 3.90162 169.73 3.98162 170.01 4.06162C170.21 4.12829 170.39 4.18162 170.55 4.22162C170.723 4.24829 170.89 4.26162 171.05 4.26162V6.48162H170.85C170.77 6.06829 170.623 5.72829 170.41 5.46162C170.196 5.18162 169.943 4.96829 169.65 4.82162C169.37 4.67496 169.063 4.57496 168.73 4.52162C168.41 4.45496 168.096 4.42162 167.79 4.42162Z" fill="#181818"></path><path d="M108.688 4.42162C107.701 4.42162 106.841 4.60162 106.108 4.96162C105.388 5.30829 104.788 5.76829 104.308 6.34162C103.828 6.90162 103.468 7.53496 103.228 8.24162C103.001 8.94829 102.888 9.64829 102.888 10.3416C102.888 11.1283 103.041 11.9016 103.348 12.6616C103.655 13.4083 104.075 14.075 104.608 14.6616C105.155 15.235 105.788 15.7016 106.508 16.0616C107.228 16.4083 108.008 16.5816 108.848 16.5816C109.088 16.5816 109.368 16.555 109.688 16.5016C110.021 16.4483 110.348 16.3483 110.668 16.2016C110.988 16.0416 111.281 15.8216 111.548 15.5416C111.828 15.2616 112.041 14.895 112.188 14.4416H112.388V16.6616C112.188 16.6616 111.975 16.6883 111.748 16.7416C111.535 16.795 111.295 16.855 111.028 16.9216C110.681 17.015 110.295 17.1016 109.868 17.1816C109.455 17.2616 109.015 17.3016 108.548 17.3016C107.388 17.3016 106.368 17.1016 105.488 16.7016C104.608 16.3016 103.875 15.7816 103.288 15.1416C102.701 14.5016 102.261 13.7816 101.968 12.9816C101.675 12.1683 101.528 11.3483 101.528 10.5216C101.528 9.69496 101.675 8.87496 101.968 8.06162C102.261 7.24829 102.708 6.52162 103.308 5.88162C103.908 5.22829 104.661 4.70162 105.568 4.30162C106.475 3.90162 107.541 3.70162 108.768 3.70162C109.208 3.70162 109.601 3.74162 109.948 3.82162C110.308 3.90162 110.628 3.98162 110.908 4.06162C111.108 4.12829 111.288 4.18162 111.448 4.22162C111.621 4.24829 111.788 4.26162 111.948 4.26162V6.48162H111.748C111.668 6.06829 111.521 5.72829 111.308 5.46162C111.095 5.18162 110.841 4.96829 110.548 4.82162C110.268 4.67496 109.961 4.57496 109.628 4.52162C109.308 4.45496 108.995 4.42162 108.688 4.42162ZM114.089 3.90162H116.929C118.409 3.90162 119.529 4.18829 120.289 4.76162C121.062 5.32162 121.449 6.12162 121.449 7.16162C121.449 7.72162 121.316 8.22162 121.049 8.66162C120.782 9.10162 120.429 9.47496 119.989 9.78162C119.562 10.075 119.076 10.3016 118.529 10.4616C117.996 10.6216 117.462 10.7016 116.929 10.7016H116.169V15.8016C116.169 15.9083 116.182 16.0283 116.209 16.1616C116.236 16.2816 116.276 16.395 116.329 16.5016C116.396 16.6083 116.462 16.7016 116.529 16.7816C116.609 16.8616 116.702 16.9016 116.809 16.9016H116.909V17.1016H114.089V16.9016H114.189C114.282 16.9016 114.369 16.8616 114.449 16.7816C114.529 16.7016 114.596 16.6083 114.649 16.5016C114.702 16.395 114.742 16.2816 114.769 16.1616C114.796 16.0283 114.809 15.9083 114.809 15.8016V5.14162C114.809 4.95496 114.756 4.74162 114.649 4.50162C114.542 4.26162 114.389 4.12829 114.189 4.10162H114.089V3.90162ZM116.169 4.60162V10.0016H116.769C117.302 10.0016 117.776 9.92829 118.189 9.78162C118.616 9.63496 118.969 9.44162 119.249 9.20162C119.529 8.96162 119.742 8.68829 119.889 8.38162C120.036 8.07496 120.109 7.76162 120.109 7.44162C120.109 7.05496 120.042 6.69496 119.909 6.36162C119.789 6.01496 119.582 5.71496 119.289 5.46162C119.009 5.19496 118.636 4.98829 118.169 4.84162C117.702 4.68162 117.129 4.60162 116.449 4.60162H116.169Z" fill="#181818"></path><path d="M57.4478 4.42162C56.4611 4.42162 55.6011 4.60162 54.8678 4.96162C54.1478 5.30829 53.5478 5.76829 53.0678 6.34162C52.5878 6.90162 52.2278 7.53496 51.9878 8.24162C51.7611 8.94829 51.6478 9.64829 51.6478 10.3416C51.6478 11.1283 51.8011 11.9016 52.1078 12.6616C52.4145 13.4083 52.8345 14.075 53.3678 14.6616C53.9145 15.235 54.5478 15.7016 55.2678 16.0616C55.9878 16.4083 56.7678 16.5816 57.6078 16.5816C57.8478 16.5816 58.1278 16.555 58.4478 16.5016C58.7811 16.4483 59.1078 16.3483 59.4278 16.2016C59.7478 16.0416 60.0411 15.8216 60.3078 15.5416C60.5878 15.2616 60.8011 14.895 60.9478 14.4416H61.1478V16.6616C60.9478 16.6616 60.7345 16.6883 60.5078 16.7416C60.2945 16.795 60.0545 16.855 59.7878 16.9216C59.4411 17.015 59.0545 17.1016 58.6278 17.1816C58.2145 17.2616 57.7745 17.3016 57.3078 17.3016C56.1478 17.3016 55.1278 17.1016 54.2478 16.7016C53.3678 16.3016 52.6345 15.7816 52.0478 15.1416C51.4611 14.5016 51.0211 13.7816 50.7278 12.9816C50.4345 12.1683 50.2878 11.3483 50.2878 10.5216C50.2878 9.69496 50.4345 8.87496 50.7278 8.06162C51.0211 7.24829 51.4678 6.52162 52.0678 5.88162C52.6678 5.22829 53.4211 4.70162 54.3278 4.30162C55.2345 3.90162 56.3011 3.70162 57.5278 3.70162C57.9678 3.70162 58.3611 3.74162 58.7078 3.82162C59.0678 3.90162 59.3878 3.98162 59.6678 4.06162C59.8678 4.12829 60.0478 4.18162 60.2078 4.22162C60.3811 4.24829 60.5478 4.26162 60.7078 4.26162V6.48162H60.5078C60.4278 6.06829 60.2811 5.72829 60.0678 5.46162C59.8545 5.18162 59.6011 4.96829 59.3078 4.82162C59.0278 4.67496 58.7211 4.57496 58.3878 4.52162C58.0678 4.45496 57.7545 4.42162 57.4478 4.42162ZM68.9713 4.42162C67.9846 4.42162 67.1246 4.60162 66.3913 4.96162C65.6713 5.30829 65.0713 5.76829 64.5913 6.34162C64.1113 6.90162 63.7513 7.53496 63.5113 8.24162C63.2846 8.94829 63.1713 9.64829 63.1713 10.3416C63.1713 11.1283 63.3246 11.9016 63.6313 12.6616C63.9379 13.4083 64.3579 14.075 64.8913 14.6616C65.4379 15.235 66.0713 15.7016 66.7913 16.0616C67.5113 16.4083 68.2913 16.5816 69.1313 16.5816C69.3713 16.5816 69.6513 16.555 69.9713 16.5016C70.3046 16.4483 70.6313 16.3483 70.9513 16.2016C71.2713 16.0416 71.5646 15.8216 71.8313 15.5416C72.1113 15.2616 72.3246 14.895 72.4713 14.4416H72.6713V16.6616C72.4713 16.6616 72.2579 16.6883 72.0313 16.7416C71.8179 16.795 71.5779 16.855 71.3112 16.9216C70.9646 17.015 70.5779 17.1016 70.1513 17.1816C69.7379 17.2616 69.2979 17.3016 68.8313 17.3016C67.6713 17.3016 66.6513 17.1016 65.7713 16.7016C64.8913 16.3016 64.1579 15.7816 63.5713 15.1416C62.9846 14.5016 62.5446 13.7816 62.2513 12.9816C61.9579 12.1683 61.8113 11.3483 61.8113 10.5216C61.8113 9.69496 61.9579 8.87496 62.2513 8.06162C62.5446 7.24829 62.9913 6.52162 63.5913 5.88162C64.1913 5.22829 64.9446 4.70162 65.8513 4.30162C66.7579 3.90162 67.8246 3.70162 69.0513 3.70162C69.4913 3.70162 69.8846 3.74162 70.2313 3.82162C70.5913 3.90162 70.9113 3.98162 71.1913 4.06162C71.3913 4.12829 71.5713 4.18162 71.7313 4.22162C71.9046 4.24829 72.0713 4.26162 72.2313 4.26162V6.48162H72.0313C71.9513 6.06829 71.8046 5.72829 71.5912 5.46162C71.3779 5.18162 71.1246 4.96829 70.8313 4.82162C70.5513 4.67496 70.2446 4.57496 69.9113 4.52162C69.5913 4.45496 69.2779 4.42162 68.9713 4.42162Z" fill="#181818"></path><path d="M17.1707 16.4016V18.9016H16.9707C16.9574 18.7283 16.9107 18.535 16.8307 18.3216C16.7507 18.1083 16.6374 17.9083 16.4907 17.7216C16.3574 17.5483 16.1974 17.4016 16.0107 17.2816C15.824 17.1616 15.6174 17.1016 15.3907 17.1016H6.1707C5.94404 17.1016 5.73737 17.1616 5.5507 17.2816C5.36404 17.415 5.19737 17.5683 5.0507 17.7416C4.91737 17.9283 4.80404 18.1283 4.7107 18.3416C4.6307 18.555 4.58404 18.7416 4.5707 18.9016H4.3707V16.4016H5.2507C5.67737 16.4016 5.97737 16.155 6.1507 15.6616L10.7507 3.60162L15.3907 15.6016C15.484 15.8016 15.6107 15.9883 15.7707 16.1616C15.9307 16.3216 16.1174 16.4016 16.3307 16.4016H17.1707ZM6.5907 16.4016H14.2907L10.4307 6.46162L6.5907 16.4016ZM25.8365 4.42162C24.8498 4.42162 23.9898 4.60162 23.2565 4.96162C22.5365 5.30829 21.9365 5.76829 21.4565 6.34162C20.9765 6.90162 20.6165 7.53496 20.3765 8.24162C20.1498 8.94829 20.0365 9.64829 20.0365 10.3416C20.0365 11.1283 20.1898 11.9016 20.4965 12.6616C20.8032 13.4083 21.2232 14.075 21.7565 14.6616C22.3032 15.235 22.9365 15.7016 23.6565 16.0616C24.3765 16.4083 25.1565 16.5816 25.9965 16.5816C26.2365 16.5816 26.5165 16.555 26.8365 16.5016C27.1698 16.4483 27.4965 16.3483 27.8165 16.2016C28.1365 16.0416 28.4298 15.8216 28.6965 15.5416C28.9765 15.2616 29.1898 14.895 29.3365 14.4416H29.5365V16.6616C29.3365 16.6616 29.1232 16.6883 28.8965 16.7416C28.6832 16.795 28.4432 16.855 28.1765 16.9216C27.8298 17.015 27.4432 17.1016 27.0165 17.1816C26.6032 17.2616 26.1632 17.3016 25.6965 17.3016C24.5365 17.3016 23.5165 17.1016 22.6365 16.7016C21.7565 16.3016 21.0232 15.7816 20.4365 15.1416C19.8498 14.5016 19.4098 13.7816 19.1165 12.9816C18.8232 12.1683 18.6765 11.3483 18.6765 10.5216C18.6765 9.69496 18.8232 8.87496 19.1165 8.06162C19.4098 7.24829 19.8565 6.52162 20.4565 5.88162C21.0565 5.22829 21.8098 4.70162 22.7165 4.30162C23.6232 3.90162 24.6898 3.70162 25.9165 3.70162C26.3565 3.70162 26.7498 3.74162 27.0965 3.82162C27.4565 3.90162 27.7765 3.98162 28.0565 4.06162C28.2565 4.12829 28.4365 4.18162 28.5965 4.22162C28.7698 4.24829 28.9365 4.26162 29.0965 4.26162V6.48162H28.8965C28.8165 6.06829 28.6698 5.72829 28.4565 5.46162C28.2432 5.18162 27.9898 4.96829 27.6965 4.82162C27.4165 4.67496 27.1098 4.57496 26.7765 4.52162C26.4565 4.45496 26.1432 4.42162 25.8365 4.42162Z" fill="#181818"></path><path d="M6.29875 73.6016V73.4016C6.61875 73.4016 6.81875 73.3082 6.89875 73.1216C6.99208 72.9216 7.03875 72.6882 7.03875 72.4216V62.8416C7.03875 62.7082 6.97208 62.6416 6.83875 62.6416C6.78542 62.6416 6.71208 62.6616 6.61875 62.7016L4.33875 63.4216V62.7016L8.99875 61.0816V61.6216C8.78542 61.7149 8.61208 61.8616 8.47875 62.0616C8.35875 62.2616 8.31208 62.4949 8.33875 62.7616V72.3416C8.33875 72.6216 8.38542 72.8682 8.47875 73.0816C8.57208 73.2949 8.78542 73.4016 9.11875 73.4016V73.6016H6.29875ZM19.8427 70.3416C19.8427 70.9282 19.7227 71.4416 19.4827 71.8816C19.256 72.3082 18.9427 72.6682 18.5427 72.9616C18.156 73.2416 17.7027 73.4549 17.1827 73.6016C16.6627 73.7349 16.1093 73.8016 15.5227 73.8016C14.976 73.8016 14.4427 73.7349 13.9227 73.6016C13.4027 73.4549 12.936 73.2416 12.5227 72.9616C12.1093 72.6682 11.776 72.3082 11.5227 71.8816C11.2827 71.4549 11.1627 70.9549 11.1627 70.3816C11.1627 69.6216 11.3893 68.9416 11.8427 68.3416C12.296 67.7282 13.016 67.2749 14.0027 66.9816C13.2427 66.6349 12.6827 66.2349 12.3227 65.7816C11.976 65.3149 11.8027 64.7482 11.8027 64.0816C11.8027 63.5882 11.9027 63.1616 12.1027 62.8016C12.316 62.4282 12.5893 62.1149 12.9227 61.8616C13.2693 61.6082 13.6627 61.4216 14.1027 61.3016C14.5427 61.1682 14.9893 61.1016 15.4427 61.1016C15.896 61.1016 16.3427 61.1682 16.7827 61.3016C17.236 61.4216 17.636 61.6082 17.9827 61.8616C18.3293 62.1149 18.6093 62.4349 18.8227 62.8216C19.0493 63.1949 19.1627 63.6349 19.1627 64.1416C19.1627 64.7416 18.9627 65.3016 18.5627 65.8216C18.1627 66.3416 17.6427 66.7349 17.0027 67.0016C17.8293 67.2416 18.5093 67.6416 19.0427 68.2016C19.576 68.7482 19.8427 69.4616 19.8427 70.3416ZM18.0027 64.4416C18.0027 64.0416 17.916 63.6749 17.7427 63.3416C17.5827 63.0082 17.3693 62.7282 17.1027 62.5016C16.836 62.2616 16.5293 62.0816 16.1827 61.9616C15.8493 61.8282 15.5093 61.7616 15.1627 61.7616C14.896 61.7616 14.636 61.8016 14.3827 61.8816C14.1293 61.9616 13.9027 62.0816 13.7027 62.2416C13.5027 62.4016 13.336 62.6016 13.2027 62.8416C13.0827 63.0816 13.0227 63.3616 13.0227 63.6816C13.0227 64.0416 13.1093 64.3749 13.2827 64.6816C13.456 64.9882 13.6827 65.2616 13.9627 65.5016C14.256 65.7416 14.5827 65.9549 14.9427 66.1416C15.316 66.3149 15.6893 66.4616 16.0627 66.5816C16.6627 66.3416 17.136 66.0416 17.4827 65.6816C17.8293 65.3216 18.0027 64.9082 18.0027 64.4416ZM18.8427 70.7616C18.8427 70.3882 18.7427 70.0349 18.5427 69.7016C18.3427 69.3682 18.0627 69.0682 17.7027 68.8016C17.3427 68.5216 16.9227 68.2749 16.4427 68.0616C15.976 67.8349 15.4827 67.6416 14.9627 67.4816C14.616 67.6016 14.2893 67.7482 13.9827 67.9216C13.676 68.0949 13.4093 68.2949 13.1827 68.5216C12.956 68.7482 12.776 68.9949 12.6427 69.2616C12.5093 69.5282 12.4427 69.8149 12.4427 70.1216C12.4427 70.5216 12.536 70.9016 12.7227 71.2616C12.9093 71.6216 13.156 71.9416 13.4627 72.2216C13.7693 72.4882 14.1227 72.6949 14.5227 72.8416C14.9227 72.9882 15.336 73.0616 15.7627 73.0616C16.1227 73.0616 16.4827 73.0082 16.8427 72.9016C17.216 72.7816 17.5427 72.6282 17.8227 72.4416C18.116 72.2416 18.356 72.0016 18.5427 71.7216C18.7427 71.4416 18.8427 71.1216 18.8427 70.7616Z" fill="#181818"></path><path d="M56.4159 73.6016V73.4016C56.7359 73.4016 56.9359 73.3082 57.0159 73.1216C57.1093 72.9216 57.1559 72.6882 57.1559 72.4216V62.8416C57.1559 62.7082 57.0893 62.6416 56.9559 62.6416C56.9026 62.6416 56.8293 62.6616 56.7359 62.7016L54.4559 63.4216V62.7016L59.1159 61.0816V61.6216C58.9026 61.7149 58.7293 61.8616 58.5959 62.0616C58.4759 62.2616 58.4293 62.4949 58.4559 62.7616V72.3416C58.4559 72.6216 58.5026 72.8682 58.5959 73.0816C58.6893 73.2949 58.9026 73.4016 59.2359 73.4016V73.6016H56.4159ZM65.7998 68.8816C66.2798 68.8816 66.6998 68.8016 67.0598 68.6416C67.4198 68.4682 67.7132 68.2416 67.9398 67.9616C68.1798 67.6816 68.3532 67.3616 68.4598 67.0016C68.5798 66.6416 68.6398 66.2682 68.6398 65.8816C68.6398 65.4149 68.5665 64.9482 68.4198 64.4816C68.2865 64.0149 68.0798 63.6016 67.7998 63.2416C67.5332 62.8682 67.1998 62.5682 66.7998 62.3416C66.4132 62.1016 65.9665 61.9816 65.4598 61.9816C65.0065 61.9816 64.6065 62.0749 64.2598 62.2616C63.9265 62.4349 63.6398 62.6749 63.3998 62.9816C63.1732 63.2749 62.9998 63.6149 62.8798 64.0016C62.7732 64.3882 62.7198 64.7816 62.7198 65.1816C62.7198 65.6349 62.7865 66.0816 62.9198 66.5216C63.0665 66.9616 63.2665 67.3616 63.5198 67.7216C63.7865 68.0682 64.1065 68.3482 64.4798 68.5616C64.8665 68.7749 65.3065 68.8816 65.7998 68.8816ZM62.9798 72.1816C63.1932 72.4482 63.4465 72.6616 63.7398 72.8216C64.0465 72.9816 64.3332 73.0349 64.5998 72.9816C65.1732 72.9816 65.6798 72.8482 66.1198 72.5816C66.5598 72.3149 66.9332 71.9616 67.2398 71.5216C67.5598 71.0816 67.8065 70.6082 67.9798 70.1016C68.1665 69.5816 68.2932 69.1016 68.3598 68.6616C67.9732 69.0082 67.5398 69.2482 67.0598 69.3816C66.5932 69.5149 66.0932 69.5816 65.5598 69.5816C64.8798 69.5816 64.2798 69.4682 63.7598 69.2416C63.2532 69.0016 62.8265 68.6949 62.4798 68.3216C62.1465 67.9349 61.8932 67.4949 61.7198 67.0016C61.5598 66.5082 61.4798 66.0016 61.4798 65.4816C61.4798 64.9616 61.5665 64.4482 61.7398 63.9416C61.9132 63.4349 62.1732 62.9882 62.5198 62.6016C62.8665 62.2016 63.2932 61.8816 63.7998 61.6416C64.3198 61.4016 64.9198 61.2816 65.5998 61.2816C66.3598 61.2816 67.0065 61.4216 67.5398 61.7016C68.0865 61.9816 68.5332 62.3616 68.8798 62.8416C69.2265 63.3082 69.4798 63.8549 69.6398 64.4816C69.8132 65.1082 69.8998 65.7616 69.8998 66.4416C69.8998 67.3216 69.8065 68.2082 69.6198 69.1016C69.4332 69.9816 69.1265 70.7749 68.6998 71.4816C68.2865 72.1749 67.7332 72.7416 67.0398 73.1816C66.3598 73.6216 65.5265 73.8416 64.5398 73.8416C64.3532 73.8416 64.1198 73.8216 63.8398 73.7816C63.5598 73.7416 63.3398 73.7082 63.1798 73.6816C63.0865 73.6682 62.9865 73.6549 62.8798 73.6416C62.7865 73.6282 62.7532 73.6216 62.7798 73.6216V72.1816H62.9798Z" fill="#181818"></path><path d="M103.341 62.4216H103.521C103.588 62.4216 103.668 62.3882 103.761 62.3216C103.868 62.2549 103.981 62.1816 104.101 62.1016C104.234 62.0082 104.388 61.9016 104.561 61.7816C104.748 61.6616 104.954 61.5549 105.181 61.4616C105.421 61.3549 105.688 61.2682 105.981 61.2016C106.274 61.1349 106.601 61.1016 106.961 61.1016C107.414 61.1016 107.854 61.1682 108.281 61.3016C108.708 61.4216 109.088 61.6149 109.421 61.8816C109.754 62.1349 110.021 62.4616 110.221 62.8616C110.421 63.2616 110.521 63.7416 110.521 64.3016C110.521 64.7682 110.441 65.1949 110.281 65.5816C110.121 65.9682 109.901 66.3282 109.621 66.6616C109.354 66.9949 109.048 67.3149 108.701 67.6216C108.368 67.9149 108.021 68.2082 107.661 68.5016C107.314 68.7816 106.974 69.0682 106.641 69.3616C106.321 69.6549 106.028 69.9616 105.761 70.2816C105.508 70.6016 105.294 70.9482 105.121 71.3216C104.948 71.6816 104.848 72.0682 104.821 72.4816H108.981C109.488 72.4816 109.888 72.3949 110.181 72.2216C110.474 72.0349 110.628 71.7349 110.641 71.3216H110.821V73.6016H103.421C103.421 73.0016 103.521 72.4482 103.721 71.9416C103.921 71.4216 104.181 70.9482 104.501 70.5216C104.821 70.0816 105.174 69.6749 105.561 69.3016C105.961 68.9282 106.354 68.5682 106.741 68.2216C107.061 67.9416 107.368 67.6616 107.661 67.3816C107.968 67.1016 108.234 66.8216 108.461 66.5416C108.701 66.2482 108.888 65.9482 109.021 65.6416C109.168 65.3216 109.241 64.9882 109.241 64.6416C109.241 64.2016 109.161 63.8082 109.001 63.4616C108.854 63.1149 108.654 62.8216 108.401 62.5816C108.161 62.3416 107.881 62.1616 107.561 62.0416C107.241 61.9082 106.921 61.8416 106.601 61.8416C105.921 61.8416 105.321 62.0482 104.801 62.4616C104.281 62.8616 103.861 63.3816 103.541 64.0216H103.341V62.4216ZM112.195 67.4016C112.195 66.3749 112.322 65.4682 112.575 64.6816C112.842 63.8949 113.188 63.2416 113.615 62.7216C114.042 62.1882 114.522 61.7882 115.055 61.5216C115.602 61.2416 116.155 61.1016 116.715 61.1016C117.275 61.1016 117.828 61.2416 118.375 61.5216C118.922 61.7882 119.402 62.1882 119.815 62.7216C120.242 63.2416 120.582 63.8949 120.835 64.6816C121.102 65.4682 121.235 66.3749 121.235 67.4016C121.235 68.4416 121.102 69.3616 120.835 70.1616C120.582 70.9482 120.242 71.6149 119.815 72.1616C119.402 72.6949 118.922 73.1016 118.375 73.3816C117.828 73.6616 117.275 73.8016 116.715 73.8016C116.155 73.8016 115.602 73.6616 115.055 73.3816C114.522 73.1016 114.042 72.6949 113.615 72.1616C113.188 71.6149 112.842 70.9482 112.575 70.1616C112.322 69.3616 112.195 68.4416 112.195 67.4016ZM119.975 67.9216C119.975 66.9616 119.868 66.1149 119.655 65.3816C119.442 64.6349 119.162 64.0149 118.815 63.5216C118.482 63.0149 118.095 62.6349 117.655 62.3816C117.228 62.1149 116.788 61.9816 116.335 61.9816C115.882 61.9816 115.468 62.1149 115.095 62.3816C114.735 62.6349 114.428 62.9749 114.175 63.4016C113.922 63.8282 113.722 64.3216 113.575 64.8816C113.442 65.4416 113.375 66.0282 113.375 66.6416C113.375 67.3749 113.462 68.1216 113.635 68.8816C113.808 69.6282 114.055 70.3082 114.375 70.9216C114.695 71.5216 115.075 72.0149 115.515 72.4016C115.968 72.7882 116.462 72.9816 116.995 72.9816C117.382 72.9816 117.755 72.8749 118.115 72.6616C118.475 72.4349 118.788 72.1082 119.055 71.6816C119.335 71.2549 119.555 70.7282 119.715 70.1016C119.888 69.4749 119.975 68.7482 119.975 67.9216Z" fill="#181818"></path><path d="M155.421 62.4216H155.601C155.668 62.4216 155.748 62.3882 155.841 62.3216C155.948 62.2549 156.061 62.1816 156.181 62.1016C156.314 62.0082 156.468 61.9016 156.641 61.7816C156.828 61.6616 157.034 61.5549 157.261 61.4616C157.501 61.3549 157.768 61.2682 158.061 61.2016C158.354 61.1349 158.681 61.1016 159.041 61.1016C159.494 61.1016 159.934 61.1682 160.361 61.3016C160.788 61.4216 161.168 61.6149 161.501 61.8816C161.834 62.1349 162.101 62.4616 162.301 62.8616C162.501 63.2616 162.601 63.7416 162.601 64.3016C162.601 64.7682 162.521 65.1949 162.361 65.5816C162.201 65.9682 161.981 66.3282 161.701 66.6616C161.434 66.9949 161.128 67.3149 160.781 67.6216C160.448 67.9149 160.101 68.2082 159.741 68.5016C159.394 68.7816 159.054 69.0682 158.721 69.3616C158.401 69.6549 158.108 69.9616 157.841 70.2816C157.588 70.6016 157.374 70.9482 157.201 71.3216C157.028 71.6816 156.928 72.0682 156.901 72.4816H161.061C161.568 72.4816 161.968 72.3949 162.261 72.2216C162.554 72.0349 162.708 71.7349 162.721 71.3216H162.901V73.6016H155.501C155.501 73.0016 155.601 72.4482 155.801 71.9416C156.001 71.4216 156.261 70.9482 156.581 70.5216C156.901 70.0816 157.254 69.6749 157.641 69.3016C158.041 68.9282 158.434 68.5682 158.821 68.2216C159.141 67.9416 159.448 67.6616 159.741 67.3816C160.048 67.1016 160.314 66.8216 160.541 66.5416C160.781 66.2482 160.968 65.9482 161.101 65.6416C161.248 65.3216 161.321 64.9882 161.321 64.6416C161.321 64.2016 161.241 63.8082 161.081 63.4616C160.934 63.1149 160.734 62.8216 160.481 62.5816C160.241 62.3416 159.961 62.1616 159.641 62.0416C159.321 61.9082 159.001 61.8416 158.681 61.8416C158.001 61.8416 157.401 62.0482 156.881 62.4616C156.361 62.8616 155.941 63.3816 155.621 64.0216H155.421V62.4216ZM165.615 73.6016V73.4016C165.935 73.4016 166.135 73.3082 166.215 73.1216C166.308 72.9216 166.355 72.6882 166.355 72.4216V62.8416C166.355 62.7082 166.288 62.6416 166.155 62.6416C166.102 62.6416 166.028 62.6616 165.935 62.7016L163.655 63.4216V62.7016L168.315 61.0816V61.6216C168.102 61.7149 167.928 61.8616 167.795 62.0616C167.675 62.2616 167.628 62.4949 167.655 62.7616V72.3416C167.655 72.6216 167.702 72.8682 167.795 73.0816C167.888 73.2949 168.102 73.4016 168.435 73.4016V73.6016H165.615Z" fill="#181818"></path><path d="M204.386 62.4216H204.566C204.632 62.4216 204.712 62.3882 204.806 62.3216C204.912 62.2549 205.026 62.1816 205.146 62.1016C205.279 62.0082 205.432 61.9016 205.606 61.7816C205.792 61.6616 205.999 61.5549 206.226 61.4616C206.466 61.3549 206.732 61.2682 207.026 61.2016C207.319 61.1349 207.646 61.1016 208.006 61.1016C208.459 61.1016 208.899 61.1682 209.326 61.3016C209.752 61.4216 210.132 61.6149 210.466 61.8816C210.799 62.1349 211.066 62.4616 211.266 62.8616C211.466 63.2616 211.566 63.7416 211.566 64.3016C211.566 64.7682 211.486 65.1949 211.326 65.5816C211.166 65.9682 210.946 66.3282 210.666 66.6616C210.399 66.9949 210.092 67.3149 209.746 67.6216C209.412 67.9149 209.066 68.2082 208.706 68.5016C208.359 68.7816 208.019 69.0682 207.686 69.3616C207.366 69.6549 207.072 69.9616 206.806 70.2816C206.552 70.6016 206.339 70.9482 206.166 71.3216C205.992 71.6816 205.892 72.0682 205.866 72.4816H210.026C210.532 72.4816 210.932 72.3949 211.226 72.2216C211.519 72.0349 211.672 71.7349 211.686 71.3216H211.866V73.6016H204.466C204.466 73.0016 204.566 72.4482 204.766 71.9416C204.966 71.4216 205.226 70.9482 205.546 70.5216C205.866 70.0816 206.219 69.6749 206.606 69.3016C207.006 68.9282 207.399 68.5682 207.786 68.2216C208.106 67.9416 208.412 67.6616 208.706 67.3816C209.012 67.1016 209.279 66.8216 209.506 66.5416C209.746 66.2482 209.932 65.9482 210.066 65.6416C210.212 65.3216 210.286 64.9882 210.286 64.6416C210.286 64.2016 210.206 63.8082 210.046 63.4616C209.899 63.1149 209.699 62.8216 209.446 62.5816C209.206 62.3416 208.926 62.1616 208.606 62.0416C208.286 61.9082 207.966 61.8416 207.646 61.8416C206.966 61.8416 206.366 62.0482 205.846 62.4616C205.326 62.8616 204.906 63.3816 204.586 64.0216H204.386V62.4216ZM212.96 62.4216H213.14C213.207 62.4216 213.287 62.3882 213.38 62.3216C213.487 62.2549 213.6 62.1816 213.72 62.1016C213.853 62.0082 214.007 61.9016 214.18 61.7816C214.367 61.6616 214.573 61.5549 214.8 61.4616C215.04 61.3549 215.307 61.2682 215.6 61.2016C215.893 61.1349 216.22 61.1016 216.58 61.1016C217.033 61.1016 217.473 61.1682 217.9 61.3016C218.327 61.4216 218.707 61.6149 219.04 61.8816C219.373 62.1349 219.64 62.4616 219.84 62.8616C220.04 63.2616 220.14 63.7416 220.14 64.3016C220.14 64.7682 220.06 65.1949 219.9 65.5816C219.74 65.9682 219.52 66.3282 219.24 66.6616C218.973 66.9949 218.667 67.3149 218.32 67.6216C217.987 67.9149 217.64 68.2082 217.28 68.5016C216.933 68.7816 216.593 69.0682 216.26 69.3616C215.94 69.6549 215.647 69.9616 215.38 70.2816C215.127 70.6016 214.913 70.9482 214.74 71.3216C214.567 71.6816 214.467 72.0682 214.44 72.4816H218.6C219.107 72.4816 219.507 72.3949 219.8 72.2216C220.093 72.0349 220.247 71.7349 220.26 71.3216H220.44V73.6016H213.04C213.04 73.0016 213.14 72.4482 213.34 71.9416C213.54 71.4216 213.8 70.9482 214.12 70.5216C214.44 70.0816 214.793 69.6749 215.18 69.3016C215.58 68.9282 215.973 68.5682 216.36 68.2216C216.68 67.9416 216.987 67.6616 217.28 67.3816C217.587 67.1016 217.853 66.8216 218.08 66.5416C218.32 66.2482 218.507 65.9482 218.64 65.6416C218.787 65.3216 218.86 64.9882 218.86 64.6416C218.86 64.2016 218.78 63.8082 218.62 63.4616C218.473 63.1149 218.273 62.8216 218.02 62.5816C217.78 62.3416 217.5 62.1616 217.18 62.0416C216.86 61.9082 216.54 61.8416 216.22 61.8416C215.54 61.8416 214.94 62.0482 214.42 62.4616C213.9 62.8616 213.48 63.3816 213.16 64.0216H212.96V62.4216Z" fill="#181818"></path><path d="M254.425 62.4216H254.605C254.672 62.4216 254.752 62.3882 254.845 62.3216C254.952 62.2549 255.065 62.1816 255.185 62.1016C255.318 62.0082 255.472 61.9016 255.645 61.7816C255.832 61.6616 256.038 61.5549 256.265 61.4616C256.505 61.3549 256.772 61.2682 257.065 61.2016C257.358 61.1349 257.685 61.1016 258.045 61.1016C258.498 61.1016 258.938 61.1682 259.365 61.3016C259.792 61.4216 260.172 61.6149 260.505 61.8816C260.838 62.1349 261.105 62.4616 261.305 62.8616C261.505 63.2616 261.605 63.7416 261.605 64.3016C261.605 64.7682 261.525 65.1949 261.365 65.5816C261.205 65.9682 260.985 66.3282 260.705 66.6616C260.438 66.9949 260.132 67.3149 259.785 67.6216C259.452 67.9149 259.105 68.2082 258.745 68.5016C258.398 68.7816 258.058 69.0682 257.725 69.3616C257.405 69.6549 257.112 69.9616 256.845 70.2816C256.592 70.6016 256.378 70.9482 256.205 71.3216C256.032 71.6816 255.932 72.0682 255.905 72.4816H260.065C260.572 72.4816 260.972 72.3949 261.265 72.2216C261.558 72.0349 261.712 71.7349 261.725 71.3216H261.905V73.6016H254.505C254.505 73.0016 254.605 72.4482 254.805 71.9416C255.005 71.4216 255.265 70.9482 255.585 70.5216C255.905 70.0816 256.258 69.6749 256.645 69.3016C257.045 68.9282 257.438 68.5682 257.825 68.2216C258.145 67.9416 258.452 67.6616 258.745 67.3816C259.052 67.1016 259.318 66.8216 259.545 66.5416C259.785 66.2482 259.972 65.9482 260.105 65.6416C260.252 65.3216 260.325 64.9882 260.325 64.6416C260.325 64.2016 260.245 63.8082 260.085 63.4616C259.938 63.1149 259.738 62.8216 259.485 62.5816C259.245 62.3416 258.965 62.1616 258.645 62.0416C258.325 61.9082 258.005 61.8416 257.685 61.8416C257.005 61.8416 256.405 62.0482 255.885 62.4616C255.365 62.8616 254.945 63.3816 254.625 64.0216H254.425V62.4216ZM263.099 61.6816H263.279C263.386 61.6816 263.499 61.6616 263.619 61.6216C263.739 61.5816 263.872 61.5349 264.019 61.4816C264.246 61.4016 264.519 61.3216 264.839 61.2416C265.159 61.1482 265.552 61.1016 266.019 61.1016C266.552 61.1016 267.026 61.1816 267.439 61.3416C267.866 61.4882 268.219 61.6949 268.499 61.9616C268.792 62.2149 269.012 62.5149 269.159 62.8616C269.319 63.2082 269.399 63.5682 269.399 63.9416C269.399 64.4616 269.239 64.9616 268.919 65.4416C268.612 65.9216 268.132 66.3082 267.479 66.6016C268.399 66.8682 269.086 67.2949 269.539 67.8816C269.992 68.4682 270.219 69.1349 270.219 69.8816C270.219 70.4416 270.112 70.9616 269.899 71.4416C269.699 71.9082 269.399 72.3216 268.999 72.6816C268.612 73.0282 268.146 73.3016 267.599 73.5016C267.052 73.7016 266.439 73.8016 265.759 73.8016C265.252 73.8016 264.832 73.7549 264.499 73.6616C264.166 73.5682 263.886 73.4816 263.659 73.4016C263.512 73.3482 263.379 73.3082 263.259 73.2816C263.139 73.2416 263.019 73.2216 262.899 73.2216H262.719V71.6816H262.919C263.266 72.1616 263.692 72.5282 264.199 72.7816C264.719 73.0216 265.252 73.1416 265.799 73.1416C266.279 73.1416 266.712 73.0616 267.099 72.9016C267.486 72.7282 267.812 72.5016 268.079 72.2216C268.359 71.9416 268.566 71.6216 268.699 71.2616C268.846 70.9016 268.919 70.5282 268.919 70.1416C268.919 69.7416 268.839 69.3549 268.679 68.9816C268.519 68.5949 268.292 68.2549 267.999 67.9616C267.706 67.6682 267.346 67.4349 266.919 67.2616C266.506 67.0882 266.032 67.0016 265.499 67.0016H264.579V66.3416H265.599C266.012 66.3416 266.372 66.2749 266.679 66.1416C266.999 66.0082 267.266 65.8282 267.479 65.6016C267.692 65.3749 267.852 65.1216 267.959 64.8416C268.066 64.5616 268.119 64.2682 268.119 63.9616C268.119 63.6816 268.066 63.4082 267.959 63.1416C267.866 62.8749 267.719 62.6416 267.519 62.4416C267.319 62.2282 267.072 62.0549 266.779 61.9216C266.499 61.7882 266.172 61.7216 265.799 61.7216C265.346 61.7216 264.892 61.8482 264.439 62.1016C263.986 62.3549 263.606 62.7349 263.299 63.2416H263.099V61.6816Z" fill="#181818"></path><path d="M304.425 62.4216H304.605C304.672 62.4216 304.752 62.3882 304.845 62.3216C304.952 62.2549 305.065 62.1816 305.185 62.1016C305.318 62.0082 305.472 61.9016 305.645 61.7816C305.832 61.6616 306.038 61.5549 306.265 61.4616C306.505 61.3549 306.772 61.2682 307.065 61.2016C307.358 61.1349 307.685 61.1016 308.045 61.1016C308.498 61.1016 308.938 61.1682 309.365 61.3016C309.792 61.4216 310.172 61.6149 310.505 61.8816C310.838 62.1349 311.105 62.4616 311.305 62.8616C311.505 63.2616 311.605 63.7416 311.605 64.3016C311.605 64.7682 311.525 65.1949 311.365 65.5816C311.205 65.9682 310.985 66.3282 310.705 66.6616C310.438 66.9949 310.132 67.3149 309.785 67.6216C309.452 67.9149 309.105 68.2082 308.745 68.5016C308.398 68.7816 308.058 69.0682 307.725 69.3616C307.405 69.6549 307.112 69.9616 306.845 70.2816C306.592 70.6016 306.378 70.9482 306.205 71.3216C306.032 71.6816 305.932 72.0682 305.905 72.4816H310.065C310.572 72.4816 310.972 72.3949 311.265 72.2216C311.558 72.0349 311.712 71.7349 311.725 71.3216H311.905V73.6016H304.505C304.505 73.0016 304.605 72.4482 304.805 71.9416C305.005 71.4216 305.265 70.9482 305.585 70.5216C305.905 70.0816 306.258 69.6749 306.645 69.3016C307.045 68.9282 307.438 68.5682 307.825 68.2216C308.145 67.9416 308.452 67.6616 308.745 67.3816C309.052 67.1016 309.318 66.8216 309.545 66.5416C309.785 66.2482 309.972 65.9482 310.105 65.6416C310.252 65.3216 310.325 64.9882 310.325 64.6416C310.325 64.2016 310.245 63.8082 310.085 63.4616C309.938 63.1149 309.738 62.8216 309.485 62.5816C309.245 62.3416 308.965 62.1616 308.645 62.0416C308.325 61.9082 308.005 61.8416 307.685 61.8416C307.005 61.8416 306.405 62.0482 305.885 62.4616C305.365 62.8616 304.945 63.3816 304.625 64.0216H304.425V62.4216ZM313.099 61.6816H313.279C313.386 61.6816 313.499 61.6616 313.619 61.6216C313.739 61.5816 313.872 61.5349 314.019 61.4816C314.246 61.4016 314.519 61.3216 314.839 61.2416C315.159 61.1482 315.552 61.1016 316.019 61.1016C316.552 61.1016 317.026 61.1816 317.439 61.3416C317.866 61.4882 318.219 61.6949 318.499 61.9616C318.792 62.2149 319.012 62.5149 319.159 62.8616C319.319 63.2082 319.399 63.5682 319.399 63.9416C319.399 64.4616 319.239 64.9616 318.919 65.4416C318.612 65.9216 318.132 66.3082 317.479 66.6016C318.399 66.8682 319.086 67.2949 319.539 67.8816C319.992 68.4682 320.219 69.1349 320.219 69.8816C320.219 70.4416 320.112 70.9616 319.899 71.4416C319.699 71.9082 319.399 72.3216 318.999 72.6816C318.612 73.0282 318.146 73.3016 317.599 73.5016C317.052 73.7016 316.439 73.8016 315.759 73.8016C315.252 73.8016 314.832 73.7549 314.499 73.6616C314.166 73.5682 313.886 73.4816 313.659 73.4016C313.512 73.3482 313.379 73.3082 313.259 73.2816C313.139 73.2416 313.019 73.2216 312.899 73.2216H312.719V71.6816H312.919C313.266 72.1616 313.692 72.5282 314.199 72.7816C314.719 73.0216 315.252 73.1416 315.799 73.1416C316.279 73.1416 316.712 73.0616 317.099 72.9016C317.486 72.7282 317.812 72.5016 318.079 72.2216C318.359 71.9416 318.566 71.6216 318.699 71.2616C318.846 70.9016 318.919 70.5282 318.919 70.1416C318.919 69.7416 318.839 69.3549 318.679 68.9816C318.519 68.5949 318.292 68.2549 317.999 67.9616C317.706 67.6682 317.346 67.4349 316.919 67.2616C316.506 67.0882 316.032 67.0016 315.499 67.0016H314.579V66.3416H315.599C316.012 66.3416 316.372 66.2749 316.679 66.1416C316.999 66.0082 317.266 65.8282 317.479 65.6016C317.692 65.3749 317.852 65.1216 317.959 64.8416C318.066 64.5616 318.119 64.2682 318.119 63.9616C318.119 63.6816 318.066 63.4082 317.959 63.1416C317.866 62.8749 317.719 62.6416 317.519 62.4416C317.319 62.2282 317.072 62.0549 316.779 61.9216C316.499 61.7882 316.172 61.7216 315.799 61.7216C315.346 61.7216 314.892 61.8482 314.439 62.1016C313.986 62.3549 313.606 62.7349 313.299 63.2416H313.099V61.6816Z" fill="#181818"></path></svg> 