<?xml version="1.0" encoding="UTF-8"?> <svg xmlns="http://www.w3.org/2000/svg" width="364" height="66" viewBox="0 0 364 66" fill="none"><path d="M6.11941 7.91564L5.99141 7.65964C8.03941 7.85164 9.31941 8.68364 9.76741 10.1556C14.6314 10.1556 18.5994 10.0916 21.7354 9.96364C24.2314 9.89964 27.3674 9.77164 31.1434 9.64364C34.9194 9.51564 37.2874 9.45164 38.2474 9.38764C40.6154 7.01964 42.2794 5.03564 43.3034 3.37164C44.0714 3.56364 44.7114 3.94764 45.1594 4.58764C45.6074 5.22764 45.8634 5.86764 45.8634 6.50764C45.8634 6.82764 45.7994 7.14764 45.6714 7.53164C45.5434 7.91564 45.3514 8.29964 45.0954 8.74764L44.3274 9.89964C44.0714 10.2836 43.6874 10.7316 43.2394 11.2436L42.0874 12.5236C41.7674 12.8436 41.3194 13.2916 40.7434 13.8676C40.1674 14.4436 39.7834 14.8916 39.5274 15.2116C36.8394 18.1556 34.8554 21.0996 33.5114 23.9796C32.4874 22.7636 31.9754 21.4196 31.9754 19.9476C31.9754 18.7316 32.3594 17.3236 33.0634 15.7876C33.7674 14.2516 34.8554 12.8436 36.2634 11.5636C35.3674 11.6916 34.1514 11.8196 32.5514 11.9476C30.9514 12.0756 28.9674 12.2036 26.5994 12.3316C24.2314 12.4596 22.4394 12.5876 21.1594 12.6516C22.8874 13.7396 23.7834 15.1476 23.7834 16.8756C23.7834 17.4516 23.6554 18.1556 23.3994 18.9876C23.1434 19.8196 22.8874 20.5876 22.5674 21.2916C22.2474 21.9956 21.7994 22.8916 21.1594 23.9796L19.6874 26.4756C19.3674 27.0516 18.7914 27.9476 18.0234 29.1636C17.2554 30.3796 16.8074 31.1476 16.6154 31.4676L14.6954 34.4116L12.1354 38.4436C11.5594 39.4036 10.8554 40.6836 9.95941 42.2836C9.06341 43.8836 8.42341 45.2916 7.97541 46.5716C7.52741 47.8516 7.27141 49.0036 7.20741 50.0916C4.83941 49.2596 3.62341 47.6596 3.62341 45.2916C3.62341 42.9236 5.35141 39.0836 8.74341 33.7716C9.57541 32.4276 11.2394 29.9956 13.6714 26.5396C16.1034 23.0836 17.8314 20.4596 18.8554 18.6036C19.8794 16.7476 20.3914 15.3396 20.3914 14.3796C20.3914 13.8036 20.3274 13.3556 20.1994 13.0356C19.1114 13.0996 17.4474 13.2276 15.1434 13.4196C12.8394 13.6116 11.0474 13.7396 9.83141 13.8036C9.63941 14.6996 8.80741 16.2356 7.33541 18.4116C5.73541 20.7796 4.32741 23.1476 3.11141 25.5156C1.38341 24.4276 0.487407 23.2116 0.487407 21.8036C0.487407 21.0356 0.743407 20.2036 1.19141 19.3076C1.63941 18.4116 2.27941 17.2596 3.11141 15.9156C3.94341 14.5716 4.64741 13.3556 5.15941 12.2676C5.79941 10.8596 6.11941 9.38764 6.11941 7.91564ZM52.1294 30.4436L51.7454 30.6356C51.7454 32.2356 51.0414 34.1556 49.6334 36.4596C48.2254 38.7636 46.4974 41.0036 44.3854 43.1156C42.2734 45.2276 39.9694 47.0196 37.4094 48.4916C34.8494 49.9636 32.5454 50.7316 30.4974 50.7316C29.0254 50.7316 27.8734 50.2836 27.1054 49.3876C26.3374 48.4916 25.9534 47.2116 25.9534 45.5476C25.9534 42.3476 27.1054 38.8916 29.3454 35.1796C31.5854 31.4676 34.5934 28.2676 38.3054 25.6436C42.0174 23.0196 45.6654 21.6756 49.2494 21.6756C51.4894 21.6756 52.6414 22.6356 52.6414 24.4916C52.6414 24.5556 52.6414 24.6196 52.6414 24.7476C52.6414 24.8756 52.6414 25.0036 52.6414 25.0676C52.0654 24.6196 51.2334 24.4276 50.2094 24.4276C48.0334 24.4276 45.4094 25.7716 42.3374 28.3956C39.2654 31.0196 36.6414 34.1556 34.4014 37.8036C32.1614 41.4516 31.0734 44.5236 31.0734 47.0196C31.0734 48.2356 31.7134 48.8756 32.9934 48.8756C34.7854 48.8756 37.0254 47.5316 39.7774 44.7796C42.5294 42.0276 44.8974 38.8916 46.9454 35.4356C48.9934 31.9796 50.0174 29.2276 50.0174 27.1796C51.4254 27.7556 52.1294 28.8436 52.1294 30.4436ZM61.0714 22.1236V21.9956C61.9034 21.9316 62.5434 21.8676 62.9274 21.8676C65.8714 21.8676 67.3434 22.6996 67.3434 24.3636C67.3434 26.2836 65.6154 29.5476 62.2234 34.1556L58.4474 39.2116L54.6714 44.2036C53.7114 45.5476 53.0714 46.4436 52.8154 46.8916C52.6234 47.1476 52.5594 47.4036 52.5594 47.5956C52.5594 47.9156 52.7514 48.1076 53.1354 48.1076C54.4154 48.1076 56.6554 46.7636 59.8554 44.1396C63.0554 41.5156 65.8074 38.8276 68.0474 36.0756C68.3034 35.7556 69.2634 34.3476 70.9914 31.8516C72.7194 29.3556 74.1274 27.4356 75.2154 26.0916C77.3274 23.3396 79.3754 21.9316 81.2954 21.9316C83.0234 21.9316 84.5594 22.5076 85.9034 23.7236C83.1514 25.9636 80.0794 29.0356 76.6874 32.9396C71.5034 39.0196 68.9434 43.6916 68.9434 46.9556C68.9434 48.2996 69.6474 48.9396 71.0554 48.9396C72.1434 48.9396 73.1034 48.7476 73.9354 48.2996C72.5914 49.6436 71.0554 50.3476 69.3914 50.3476C67.7274 50.3476 66.5114 49.9636 65.7434 49.1316C64.9754 48.2996 64.5914 47.2756 64.5914 45.9956C64.5914 43.9476 65.2314 41.7716 66.5754 39.4036C64.5274 41.7716 62.0314 44.0756 59.0234 46.3796C56.0154 48.6836 53.5194 49.8356 51.5354 49.8356C49.8074 49.8356 48.9114 48.9396 48.9114 47.2116C48.9114 46.3796 49.1674 45.4196 49.6154 44.3956C50.0634 43.3716 51.0874 41.7076 52.6874 39.4036C55.8234 34.9236 58.0634 31.3396 59.3434 28.5876C60.6234 25.8356 61.2634 23.9796 61.2634 22.9556C61.2634 22.6996 61.1994 22.4436 61.0714 22.1236ZM88.3354 4.84364L88.6554 5.67564C86.7994 8.87564 84.4314 11.6916 81.6154 14.1876C78.7994 16.6836 75.9194 17.8996 72.9754 17.8996C71.3754 17.8996 70.0954 17.4516 69.1994 16.5556C68.3034 15.6596 67.8554 14.5076 67.8554 13.1636C67.8554 11.3716 68.5594 9.19564 69.9034 6.57164C69.9034 8.81164 70.2874 10.4756 70.9914 11.6276C71.6954 12.7796 73.0394 13.3556 74.9594 13.3556C77.0074 13.3556 79.2474 12.6516 81.6794 11.1796C84.1114 9.70764 86.3514 7.59564 88.3354 4.84364ZM150.699 0.555641L150.315 0.491642C150.891 0.875641 151.211 1.64364 151.211 2.73164C151.211 5.93164 149.739 8.29964 146.795 9.83564C143.851 11.3716 139.883 12.1396 134.891 12.1396C133.675 12.1396 131.883 12.0116 129.515 11.8196C127.147 11.6276 125.483 11.4996 124.523 11.4996C122.475 11.4996 120.555 12.0116 118.763 13.0356C116.971 14.0596 114.731 16.1076 112.043 19.1796C111.467 19.7556 110.955 20.3316 110.507 20.9716C110.059 21.6116 109.547 22.3156 108.971 23.1476L107.755 25.0036L106.283 27.3716L104.875 29.6116C107.627 27.2436 109.931 25.5796 111.787 24.6836C113.643 23.7876 115.435 23.3396 117.163 23.3396C120.043 23.3396 121.515 25.0676 121.515 28.5876C121.515 30.5716 120.811 32.8116 119.403 35.3076C117.995 37.8036 116.203 40.1076 114.027 42.2196C111.851 44.3316 109.355 46.1236 106.539 47.5956C103.723 49.0676 101.035 49.7716 98.4114 49.7716C96.8114 49.7716 95.4674 49.3236 94.3154 48.4276C93.1634 47.5316 92.5874 46.0596 92.5874 44.0756C92.5874 41.8996 93.2274 39.4676 94.5714 36.8436C96.6834 32.6836 99.1794 28.9716 102.059 25.7716C104.939 22.5716 108.587 19.1156 113.003 15.4676C117.035 12.2036 120.811 9.83564 124.331 8.36364C127.851 6.89164 131.499 6.12364 135.275 6.12364C136.107 6.12364 136.875 6.12364 137.579 6.12364C138.283 6.12364 138.923 6.12364 139.435 6.12364C141.419 6.12364 142.955 6.05964 144.107 5.93164C145.259 5.80364 146.411 5.54764 147.499 5.22764C148.587 4.90764 149.419 4.33164 149.931 3.56364C150.443 2.79564 150.699 1.77164 150.699 0.555641ZM105.323 30.5716L105.067 30.4436C103.019 32.2996 100.971 34.9236 98.9234 38.3796C96.8754 41.8356 95.8514 44.5236 95.8514 46.5076C95.8514 47.7236 96.3634 48.2996 97.3874 48.2996C98.9874 48.2996 101.419 46.8916 104.619 44.0756C107.819 41.2596 110.699 38.0596 113.259 34.4756C115.819 30.8916 117.099 28.1396 117.099 26.2836C117.099 25.2596 116.651 24.7476 115.755 24.7476C114.219 24.7476 112.491 25.3236 110.571 26.5396C108.651 27.7556 106.923 29.0996 105.323 30.5716ZM146.762 25.5796L147.018 25.8356C146.506 25.3876 145.674 25.1956 144.586 25.1956C142.09 25.1956 138.698 27.4356 134.41 31.9796C132.49 33.9636 130.634 36.4596 128.842 39.5316C127.05 42.6036 126.154 44.9716 126.154 46.6996C126.154 47.6596 126.538 48.1076 127.37 48.1076C128.074 48.1076 129.034 47.5956 130.25 46.6356C131.466 45.6756 132.746 44.4596 134.09 42.9876C135.434 41.5156 136.65 40.0436 137.802 38.6356L141.002 34.6676L142.474 32.7476C142.538 32.6836 143.498 31.3396 145.354 28.7796C147.21 26.2196 148.234 24.8116 148.426 24.6196C149.13 23.7876 149.706 23.2116 150.154 22.8916C150.602 22.5716 151.114 22.3796 151.69 22.3796C153.354 22.3796 154.826 23.4036 156.042 25.5156C154.89 26.4756 153.29 28.1396 151.178 30.5076C149.002 33.0036 146.826 35.8836 144.65 39.1476C142.474 42.4116 141.386 45.0356 141.386 47.0196C141.386 48.4276 141.962 49.1316 143.178 49.1316C145.418 49.1316 148.682 47.0196 152.906 42.8596C157.13 38.6996 159.882 35.5636 161.098 33.4516C161.418 33.5796 161.61 33.8356 161.61 34.2196C161.61 34.6036 161.546 34.9876 161.354 35.3076C161.034 35.7556 160.202 36.7156 158.858 38.1876C157.514 39.6596 155.914 41.3876 153.994 43.3076C152.074 45.2276 149.962 46.9556 147.658 48.4276C145.354 49.8996 143.37 50.6036 141.706 50.6036C140.298 50.6036 139.21 50.1556 138.442 49.3236C137.674 48.4916 137.29 47.2756 137.29 45.7396C137.29 43.6276 138.058 40.8756 139.658 37.4836C136.33 41.9636 133.706 45.0996 131.722 46.8916C129.034 49.3236 126.666 50.5396 124.682 50.5396C123.402 50.5396 122.442 50.0916 121.738 49.1956C121.034 48.2996 120.714 47.0836 120.714 45.4836C120.714 43.6916 121.162 41.7076 122.058 39.5956C124.106 34.8596 127.306 30.7636 131.594 27.3076C135.882 23.8516 139.85 22.1236 143.434 22.1236C145.674 22.1236 146.762 23.1476 146.762 25.1316V25.5796ZM154.22 44.7796L154.348 44.9076C154.348 41.2596 155.756 37.6116 158.636 33.9636C161.516 30.3156 164.844 27.4356 168.62 25.2596C172.396 23.0836 175.724 21.9956 178.668 21.9956C181.676 21.9956 183.212 22.8916 183.212 24.7476C183.212 25.7076 182.508 27.3076 181.1 29.4836C180.46 30.5076 179.884 31.5316 179.372 32.6196C178.86 33.7076 178.54 34.5396 178.348 35.1156L178.156 35.9476C175.532 35.1156 174.252 33.7716 174.252 31.9156C174.252 31.1476 174.572 30.3156 175.148 29.4196C175.724 28.5236 176.364 27.7556 177.068 27.1156C177.772 26.4756 178.412 25.8356 178.988 25.1316C179.564 24.4276 179.884 23.9156 179.884 23.5316C179.884 23.1476 179.628 22.9556 179.052 22.9556C177.964 22.9556 176.364 23.5956 174.252 24.8756C172.14 26.1556 170.028 27.8196 167.852 29.8036C165.676 31.7876 163.82 34.1556 162.22 36.9716C160.62 39.7876 159.852 42.4756 159.852 45.0996C159.852 47.4036 160.94 48.5556 163.116 48.5556C166.636 48.5556 170.668 46.8916 175.212 43.5636C179.756 40.2356 183.148 37.0356 185.452 33.9636C185.708 34.0916 185.836 34.3476 185.836 34.7956C185.836 35.1156 185.708 35.4996 185.516 35.9476C185.26 36.3956 184.428 37.2916 183.02 38.6996C181.612 40.1076 179.82 41.7076 177.58 43.5636C175.34 45.4196 172.716 47.0196 169.644 48.3636C166.572 49.7076 163.628 50.4116 160.812 50.4116C158.7 50.4116 157.1 49.8996 155.948 48.9396C154.796 47.9796 154.22 46.5716 154.22 44.7796ZM190.115 21.4196L190.371 22.1236C193.379 22.1236 194.915 23.2756 194.915 25.5796C194.915 26.9876 194.403 28.6516 193.379 30.5716C192.355 32.4916 191.395 34.0916 190.435 35.3076L188.899 37.0996C190.499 35.5636 193.123 33.3236 196.771 30.3796C200.419 27.4356 203.299 25.3236 205.411 24.1076C206.883 23.2756 208.099 22.8276 208.995 22.8276C210.467 22.8276 211.683 23.5956 212.579 25.1316C210.595 26.8596 208.163 29.4836 205.219 33.0036C202.275 36.5236 200.035 39.5316 198.563 42.0276C202.275 37.8676 207.139 33.5796 213.091 29.0996C219.043 24.6196 223.011 22.3796 224.995 22.3796C226.467 22.3796 227.683 23.2756 228.707 25.0676C228.643 25.1316 228.259 25.4516 227.555 26.0916L225.187 28.2676L222.179 31.2116C221.027 32.3636 219.939 33.5796 218.915 34.7956C217.891 36.0116 216.931 37.2916 216.035 38.5716C215.139 39.8516 214.435 41.1316 213.923 42.4116C213.411 43.6916 213.155 44.8436 213.155 45.8676C213.155 47.7236 213.987 48.6196 215.587 48.6196C216.995 48.6196 218.659 47.9796 220.515 46.7636C222.371 45.5476 224.163 44.0116 225.891 42.2196C227.619 40.4276 228.963 38.8916 229.987 37.6756C231.011 36.4596 231.843 35.3716 232.483 34.4756C232.739 34.6036 232.867 34.8596 232.931 35.1796C232.995 35.4996 232.867 35.8836 232.611 36.2676L231.267 37.9956C230.755 38.5716 229.731 39.6596 228.195 41.2596C226.659 42.8596 225.187 44.2676 223.779 45.4196C222.371 46.5716 220.771 47.5956 218.979 48.5556C217.187 49.5156 215.587 49.9636 214.115 49.9636C212.707 49.9636 211.555 49.4516 210.595 48.4916C209.635 47.5316 209.187 46.1236 209.187 44.2676C209.187 42.7956 209.571 41.1316 210.339 39.2756C211.107 37.4196 212.003 35.6916 213.091 34.0916C214.179 32.4916 215.139 31.2116 215.907 30.2516C216.675 29.2916 217.315 28.5236 217.763 28.0116C217.955 27.8196 218.019 27.6276 218.019 27.4996C218.019 27.3716 217.955 27.3076 217.827 27.3076C217.699 27.3076 217.571 27.3076 217.443 27.3716C215.843 28.2036 212.899 30.3796 208.611 33.8996C204.323 37.4196 200.739 41.0036 197.859 44.6516C196.259 46.6356 195.107 48.3636 194.339 49.8356C193.571 49.7716 192.995 49.5156 192.611 49.0676C192.227 48.6196 192.035 48.1716 192.035 47.6596C192.035 46.5716 192.547 45.0356 193.635 42.9876C194.851 40.7476 196.195 38.5076 197.667 36.2676C199.139 34.0276 200.419 32.1076 201.507 30.5716C202.595 29.0356 203.171 28.2036 203.235 28.1396C203.299 28.0116 203.299 27.8836 203.235 27.7556C203.171 27.6276 203.043 27.5636 202.915 27.5636C202.531 27.5636 201.251 28.3316 199.139 29.8676C197.027 31.4036 194.467 33.5156 191.395 36.2036C188.323 38.8916 185.763 41.5156 183.651 44.0116C181.155 47.0196 179.555 49.1316 178.851 50.3476C177.571 49.7716 176.931 49.0036 176.931 48.0436C176.931 47.4676 177.251 46.6356 177.891 45.5476C178.531 44.4596 179.619 42.7956 181.091 40.5556C182.563 38.3156 183.843 36.2676 184.931 34.4116C186.915 31.0196 188.195 28.5236 188.771 26.9876C189.347 25.4516 189.795 23.5956 190.115 21.4196ZM217.955 17.9636V18.0916C217.379 18.0916 215.779 18.0276 213.155 17.8356C210.531 17.6436 208.291 17.5796 206.499 17.5796C201.955 17.5796 198.819 18.4116 197.027 20.0756C196.835 19.4356 196.707 18.8596 196.707 18.2836C196.707 16.8116 197.283 15.5316 198.371 14.4436C199.459 13.3556 200.931 12.8436 202.723 12.8436C205.091 12.8436 208.163 13.0996 212.003 13.6756C215.843 14.2516 218.595 14.5076 220.259 14.5076C224.227 14.5076 226.723 14.0596 227.811 13.0996C227.683 14.6996 226.723 15.9156 224.867 16.7476C223.011 17.5796 220.707 17.9636 217.955 17.9636ZM251.012 25.5796L251.268 25.8356C250.756 25.3876 249.924 25.1956 248.836 25.1956C246.34 25.1956 242.948 27.4356 238.66 31.9796C236.74 33.9636 234.884 36.4596 233.092 39.5316C231.3 42.6036 230.404 44.9716 230.404 46.6996C230.404 47.6596 230.788 48.1076 231.62 48.1076C232.324 48.1076 233.284 47.5956 234.5 46.6356C235.716 45.6756 236.996 44.4596 238.34 42.9876C239.684 41.5156 240.9 40.0436 242.052 38.6356L245.252 34.6676L246.724 32.7476C246.788 32.6836 247.748 31.3396 249.604 28.7796C251.46 26.2196 252.484 24.8116 252.676 24.6196C253.38 23.7876 253.956 23.2116 254.404 22.8916C254.852 22.5716 255.364 22.3796 255.94 22.3796C257.604 22.3796 259.076 23.4036 260.292 25.5156C259.14 26.4756 257.54 28.1396 255.428 30.5076C253.252 33.0036 251.076 35.8836 248.9 39.1476C246.724 42.4116 245.636 45.0356 245.636 47.0196C245.636 48.4276 246.212 49.1316 247.428 49.1316C249.668 49.1316 252.932 47.0196 257.156 42.8596C261.38 38.6996 264.132 35.5636 265.348 33.4516C265.668 33.5796 265.86 33.8356 265.86 34.2196C265.86 34.6036 265.796 34.9876 265.604 35.3076C265.284 35.7556 264.452 36.7156 263.108 38.1876C261.764 39.6596 260.164 41.3876 258.244 43.3076C256.324 45.2276 254.212 46.9556 251.908 48.4276C249.604 49.8996 247.62 50.6036 245.956 50.6036C244.548 50.6036 243.46 50.1556 242.692 49.3236C241.924 48.4916 241.54 47.2756 241.54 45.7396C241.54 43.6276 242.308 40.8756 243.908 37.4836C240.58 41.9636 237.956 45.0996 235.972 46.8916C233.284 49.3236 230.916 50.5396 228.932 50.5396C227.652 50.5396 226.692 50.0916 225.988 49.1956C225.284 48.2996 224.964 47.0836 224.964 45.4836C224.964 43.6916 225.412 41.7076 226.308 39.5956C228.356 34.8596 231.556 30.7636 235.844 27.3076C240.132 23.8516 244.1 22.1236 247.684 22.1236C249.924 22.1236 251.012 23.1476 251.012 25.1316V25.5796ZM283.686 21.2916C287.59 21.3556 289.574 22.4436 289.574 24.6196C289.574 25.3876 289.254 26.4116 288.614 27.7556C287.974 29.0996 287.334 30.3156 286.63 31.4676C285.926 32.6196 284.902 34.1556 283.558 36.1396C280.166 41.3236 278.438 44.7796 278.438 46.5076C278.438 47.2116 278.63 47.7876 279.078 48.2356C279.526 48.6836 280.102 48.8756 280.87 48.8756C282.726 48.8756 284.838 47.9156 287.142 45.9956C289.446 44.0756 291.238 42.1556 292.454 40.2996C292.966 40.5556 293.03 41.0676 292.71 41.7716C292.134 42.9876 290.406 44.7796 287.526 47.0836C284.646 49.3876 281.83 50.5396 279.142 50.5396C277.542 50.5396 276.262 50.0916 275.302 49.2596C274.342 48.4276 273.894 47.2756 273.894 45.8676C273.894 43.1156 276.006 38.7636 280.23 32.7476C278.31 34.8596 276.198 37.0356 273.894 39.3396C271.59 41.6436 268.902 44.0116 265.894 46.3796C262.886 48.7476 260.71 49.9636 259.366 49.9636C258.406 49.9636 257.638 49.7076 257.062 49.1956C256.486 48.6836 256.23 47.9156 256.23 46.8916C256.23 45.4196 257.51 42.9236 260.07 39.4676C262.63 36.0116 263.91 33.5796 263.91 32.2356C263.91 32.1716 263.91 32.1076 263.91 31.9796C263.91 31.8516 263.91 31.7876 263.91 31.7236C265.254 32.2996 266.214 32.8756 266.726 33.4516C267.238 34.0276 267.494 34.9236 267.494 36.1396C267.494 37.0996 267.11 38.2516 266.342 39.5956C265.574 40.9396 264.742 42.1556 263.846 43.1796L261.286 46.0596C260.518 46.9556 260.134 47.5316 260.134 47.7876C260.134 48.1076 260.326 48.2996 260.71 48.2996C261.67 48.2996 263.782 46.8916 267.046 44.0756C270.31 41.2596 273.574 38.1236 276.838 34.6676C279.718 31.5956 281.638 29.4196 282.534 28.2036C283.622 26.6676 284.134 25.0676 284.134 23.3396C284.134 22.5716 284.006 21.8676 283.686 21.2916ZM298.425 21.8036L299.321 21.6116C300.345 21.6116 301.369 21.8676 302.393 22.3156C303.993 23.1476 304.825 24.3636 304.825 26.0276C304.825 26.7316 304.697 27.4996 304.441 28.3316C304.185 29.1636 303.801 30.0596 303.353 30.9556C302.905 31.8516 302.393 32.8116 301.817 33.7716C301.241 34.7316 300.601 35.6916 299.897 36.6516L297.977 39.3396C297.337 40.1716 296.697 41.0036 295.993 41.8356L294.329 43.8836L293.113 45.3556C292.729 45.8036 292.537 46.0596 292.473 46.1236C292.281 46.3156 292.217 46.5076 292.281 46.6996C292.345 46.8916 292.473 46.9556 292.665 46.9556C293.113 46.9556 294.201 46.3156 295.929 45.0356C297.657 43.7556 299.129 42.5396 300.345 41.4516C302.585 39.4676 304.953 37.0996 307.385 34.3476C309.817 31.5956 311.929 29.0996 313.721 26.8596C315.513 24.6196 316.601 23.3396 316.921 23.0196C317.817 22.1236 318.777 21.6756 319.865 21.6756C321.081 21.6756 322.425 22.1876 323.897 23.1476C318.841 30.8276 313.337 38.3796 307.449 45.8036C301.945 52.7796 297.081 57.7716 292.793 60.7796C288.505 63.7876 284.473 65.2596 280.633 65.2596C278.969 65.2596 277.497 64.9396 276.281 64.2996C275.065 63.6596 274.169 62.8916 273.593 62.0596C273.017 61.2276 272.569 60.2676 272.249 59.1796C271.929 58.0916 271.737 57.2596 271.673 56.7476C271.609 56.2356 271.609 55.7876 271.609 55.4036L271.673 55.5956C271.673 55.7236 271.737 55.9156 271.865 56.1716L272.249 57.0676C272.377 57.3876 272.569 57.7076 272.825 58.0916C273.081 58.4756 273.337 58.8596 273.657 59.2436C273.977 59.6276 274.361 59.9476 274.809 60.2676C275.257 60.5876 275.769 60.9076 276.281 61.1636C276.793 61.4196 277.433 61.6116 278.137 61.7396C278.841 61.8676 279.609 61.9316 280.441 61.9316C282.297 61.9316 284.217 61.4836 286.201 60.5236C288.185 59.5636 290.105 58.2836 291.961 56.6196C293.817 54.9556 295.353 53.4196 296.569 52.0756C297.785 50.7316 299.129 49.1956 300.601 47.4676C302.329 45.4196 304.377 42.7956 306.745 39.5956C309.113 36.3956 310.585 34.3476 311.161 33.5156C311.353 33.1956 311.353 33.0036 311.161 32.9396C311.033 32.8756 310.905 32.9396 310.777 33.0676C308.857 35.1796 306.809 37.3556 304.633 39.5316C302.457 41.7076 299.897 43.9476 296.889 46.2516C293.881 48.5556 291.641 49.7076 290.169 49.7076C288.953 49.7076 287.865 49.2596 286.905 48.2996C288.697 46.1876 291.129 42.4756 294.265 37.1636C297.401 31.8516 298.937 27.6916 298.937 24.6196C298.937 23.6596 298.745 22.6996 298.425 21.8036ZM329.86 21.8676L329.476 22.2516C329.732 22.1876 330.372 22.1876 331.332 22.1876C333.828 22.1876 335.108 23.0836 335.108 24.8756C335.108 25.5156 334.98 26.1556 334.724 26.8596C334.02 28.7796 332.484 31.3396 330.052 34.4756L323.46 42.9876C321.476 45.4836 320.452 47.1476 320.452 47.9156C320.452 48.5556 320.836 48.8756 321.54 48.8756C323.204 48.8756 325.252 47.6596 327.62 45.2916C329.988 42.9236 331.204 40.1716 331.204 37.0356C331.204 36.3316 331.076 35.6916 330.82 35.1156C331.588 34.8596 332.356 34.7316 333.06 34.7316C334.148 34.7316 335.044 34.9236 335.748 35.3076C339.14 34.4116 342.276 32.9396 345.156 30.8276C349.572 24.9396 352.9 21.9956 355.14 21.9956C355.972 21.9956 356.676 22.1236 357.252 22.3796C357.828 22.6356 358.468 23.2116 359.172 24.0436C355.14 26.9236 351.428 30.9556 348.036 36.0756C344.644 41.1956 342.98 44.7796 342.98 46.8916C342.98 48.0436 343.62 48.6196 344.964 48.6196C347.396 48.6196 350.532 46.8276 354.372 43.2436C358.212 39.6596 361.156 36.3956 363.14 33.3876C363.396 33.4516 363.588 33.6436 363.652 33.9636C363.716 34.2836 363.652 34.6036 363.46 34.9236C361.092 38.2516 357.956 41.5796 353.988 44.9716C350.02 48.3636 346.5 50.0276 343.364 50.0276C341.956 50.0276 340.868 49.5796 340.1 48.7476C339.332 47.9156 338.948 46.8276 338.948 45.4836C338.948 41.8356 340.676 37.4836 344.068 32.4276C342.148 33.7716 339.716 34.9876 336.708 36.0756C336.772 36.2676 336.836 36.5876 336.836 37.0356C336.772 39.0196 335.108 41.5156 331.844 44.5236C328.196 47.9156 324.612 49.5796 321.156 49.5796C318.724 49.5796 317.508 48.5556 317.508 46.5076C317.508 45.6116 317.956 44.3956 318.788 42.8596C319.62 41.3236 320.964 39.2116 322.82 36.4596C324.676 33.7076 326.02 31.6596 326.852 30.3156C327.62 29.0996 328.324 27.6276 329.028 25.8996C329.732 24.1716 329.988 22.8276 329.86 21.8676Z" fill="#181818"></path></svg> 